<?xml version="1.0" standalone="no"?>
<!DOCTYPE svg PUBLIC "-//W3C//DTD SVG 1.1//EN" "http://www.w3.org/Graphics/SVG/1.1/DTD/svg11.dtd" >
<svg xmlns="http://www.w3.org/2000/svg" xmlns:xlink="http://www.w3.org/1999/xlink" version="1.1">
<metadata>
Created by FontForge 20170731 at Fri Nov  1 08:53:37 2019
 By Aleksey,,,
Copyright (c) 2019 by Typedepot. All rights reserved.
</metadata>
<defs>
<font id="PlovdivDisplay-Bold" horiz-adv-x="0" >
  <font-face 
    font-family="Plovdiv Display Bold"
    font-weight="700"
    font-stretch="normal"
    units-per-em="1000"
    panose-1="0 0 8 0 0 0 0 0 0 0"
    ascent="800"
    descent="-200"
    x-height="493"
    cap-height="740"
    bbox="-536 -335 7181 1064"
    underline-thickness="50"
    underline-position="-200"
    unicode-range="U+0020-F8FF"
  />
<missing-glyph horiz-adv-x="475" 
d="M390 750v-950h-302v950h302zM316 686h-156v-31h61v-35h-62v-31h157v31h-62v35h62v31zM254 564h-95v-99h157v32h-62v67zM221 532v-35h-31v35h31zM316 439h-157v-31h62v-35h-62v-31h95v66h62v31zM316 382h-31v-62h-126v-33h157v95zM316 266h-95v-53h33v22h31v-45h-95v76
h-31v-107h157v107zM316 102h-157v-107h157v107zM285 71v-45h-95v45h95zM316 -27h-157v-31h66l-66 -45v-31h157v31h-97l67 45h30v31z" />
    <glyph glyph-name="f_f" unicode="ff" horiz-adv-x="759" 
d="M45 -229q-41 0 -60.5 18t-18 45t7.5 59q53 -16 79 -16q38 0 54 23t17 78q1 34 -4 421h-96q-12 22 -8.5 50t24.5 29l77 6l-2 102q-2 85 39 140t132 55q45 0 74 -9q50 -15 50 -53q0 -34 -28 -58q-34 14 -58 14q-68 0 -68 -74v-111h199l-2 96q-2 85 42.5 140t142.5 55
q40 0 76 -9q50 -12 50 -53q0 -34 -28 -58q-44 14 -74 14q-68 0 -68 -74v-111h131q10 -28 2.5 -59.5t-23.5 -31.5h-111v-388q0 -189 -182 -189q-40 0 -54.5 31t0.5 77q15 -2 39 -2q66 0 66 70q0 160 -4 401h-203v-426q0 -98 -56 -150t-154 -52z" />
    <glyph glyph-name="f_f_i" unicode="ffi" horiz-adv-x="928" 
d="M827 490q28 0 41.5 -10.5t13.5 -35.5v-444q-28 -6 -67 -6q-24 0 -38.5 3.5t-20 10t-7 11t-1.5 11.5v369h-161v-388q0 -189 -182 -189q-40 0 -54.5 31t0.5 77q15 -2 39 -2q66 0 66 70q0 201 -4 401h-197v-426q0 -98 -56 -150t-154 -52q-41 0 -60.5 18t-18 45t7.5 59
q53 -16 79 -16q38 0 54 23t17 78q1 34 -4 421h-96q-12 22 -8.5 50t24.5 29l77 6l-2 102q-2 85 39 140t132 55q53 0 76 -7q48 -14 48 -55q0 -34 -26 -56q-34 18 -60 18q-68 0 -68 -74v-117h193v64q0 113 54 172t178 59q73 0 130 -20q54 -19 54 -56q0 -43 -34 -76
q-81 51 -136 51q-59 0 -83 -28t-24 -91v-75h239z" />
    <glyph glyph-name="f_i" unicode="fi" horiz-adv-x="592" 
d="M50 -229q-41 0 -62.5 20.5t-21.5 50t6 61.5q58 -16 76 -16q71 0 71 70q0 242 -4 442h-97q-12 22 -8.5 50t24.5 29l75 6v50q0 118 52 174.5t180 56.5q73 0 130 -20q54 -19 54 -56q0 -43 -34 -76q-88 51 -149 51q-95 0 -95 -119v-55h240q28 0 41.5 -10.5t13.5 -35.5v-444
q-28 -6 -67 -6q-24 0 -38.5 3.5t-20 10t-7 11t-1.5 11.5v369h-161v-426q-1 -100 -51 -151t-146 -51z" />
    <glyph glyph-name="f_l" unicode="fl" horiz-adv-x="632" 
d="M515 756q54 -16 54 -51v-705q-26 -6 -73 -6q-61 0 -61 36v629q-40 16 -67 16q-39 0 -64 -11t-34.5 -32t-11.5 -35.5t-2 -37.5v-69h111q10 -28 2.5 -59.5t-23.5 -31.5h-91v-426q0 -98 -56 -150t-154 -52q-41 0 -60.5 18t-18 45t7.5 59q53 -16 79 -16q38 0 54 23t17 78
q1 34 -4 421h-96q-12 22 -8.5 50t24.5 29l80 6l-1 72q-1 98 55.5 161.5t183.5 63.5q75 0 157 -25z" />
    <glyph glyph-name=".notdef" horiz-adv-x="475" 
d="M390 750v-950h-302v950h302zM316 686h-156v-31h61v-35h-62v-31h157v31h-62v35h62v31zM254 564h-95v-99h157v32h-62v67zM221 532v-35h-31v35h31zM316 439h-157v-31h62v-35h-62v-31h95v66h62v31zM316 382h-31v-62h-126v-33h157v95zM316 266h-95v-53h33v22h31v-45h-95v76
h-31v-107h157v107zM316 102h-157v-107h157v107zM285 71v-45h-95v45h95zM316 -27h-157v-31h66l-66 -45v-31h157v31h-97l67 45h30v31z" />
    <glyph glyph-name=".null" 
 />
    <glyph glyph-name="nonmarkingreturn" horiz-adv-x="333" 
 />
    <glyph glyph-name="space" unicode=" " horiz-adv-x="208" 
 />
    <glyph glyph-name="exclam" unicode="!" horiz-adv-x="311" 
d="M210 226q-44 -15 -78 -10t-35 29l-15 510q24 21 60 26t63 -11.5t26 -50.5zM154 -19q-34 0 -59 23t-25 62q0 43 28.5 63t70.5 20q29 0 49.5 -19t20.5 -58q0 -47 -24.5 -69t-60.5 -22z" />
    <glyph glyph-name="quotedbl" unicode="&#x22;" horiz-adv-x="422" 
d="M77 463l-7 287q119 19 119 -48q0 -66 -30 -227zM252 463l-7 287q64 9 91.5 -2.5t27.5 -45.5q0 -66 -30 -227z" />
    <glyph glyph-name="numbersign" unicode="#" horiz-adv-x="634" 
d="M603 353l-131 -2l-15 -118l102 2q29 0 29 -35q0 -21 -8 -41l-133 -3l-21 -166q-31 -4 -57 -4q-25 0 -35.5 10.5t-6.5 29.5l16 129l-97 -2l-22 -163q-31 -4 -57 -4q-25 0 -35.5 10.5t-6.5 29.5l16 125l-90 -2q-31 0 -31 39q0 13 6 37l126 2l15 118l-93 -2q-31 0 -31 39
q0 19 6 34l128 2l20 155q30 7 61 7q22 0 32 -9.5t8 -28.5l-16 -122l95 2l22 178q30 7 61 7q22 0 32 -9.5t8 -28.5l-19 -145l101 2q29 0 29 -32q0 -21 -8 -41zM353 231l14 118l-95 -2l-16 -118z" />
    <glyph glyph-name="dollar" unicode="$" horiz-adv-x="585" 
d="M558 187q0 -91 -57 -138t-154 -55q1 -44 7 -84q-36 -11 -64 -11q-22 0 -30 10t-9 34q0 7 2 51q-123 11 -190 60q-24 17 -24 45q0 44 48 82q37 -32 97.5 -58t127.5 -26q46 0 71.5 20.5t25.5 56.5q0 75 -137 119q-120 38 -175 93.5t-55 148.5q0 100 58.5 151.5t152.5 61.5
q-1 25 -6 71q36 11 64 11q22 0 30 -10t9 -34q0 -25 -1 -38q89 -9 133.5 -52t44.5 -126q0 -51 -25 -65q-37 -22 -117 2l1 10q0 10 0.5 22.5t0.5 20.5q0 40 -23.5 63t-67.5 23q-107 0 -107 -105q0 -53 36 -85t103 -56q57 -20 91.5 -35.5t70 -40.5t52 -58.5t16.5 -78.5z" />
    <glyph glyph-name="percent" unicode="%" horiz-adv-x="859" 
d="M237 408q-86 0 -139 49t-53 128t53 128.5t139 49.5q85 0 138 -49.5t53 -128.5t-53 -128t-138 -49zM157 10q-29 27 -5 56l487 680q12 -2 30 -15t27 -28q22 -38 2 -65l-492 -655q-35 14 -49 27zM237 685q-35 0 -54.5 -27t-19.5 -73q0 -45 19 -72t55 -27q35 0 54 27t19 72
t-19.5 72.5t-53.5 27.5zM623 -32q-86 0 -139 48.5t-53 127.5q0 80 53 129.5t139 49.5q85 0 138 -49.5t53 -129.5q0 -78 -53 -127t-138 -49zM623 245q-35 0 -54 -27.5t-19 -73.5q0 -44 18.5 -71t54.5 -27t54.5 26.5t18.5 71.5t-19.5 73t-53.5 28z" />
    <glyph glyph-name="ampersand" unicode="&#x26;" horiz-adv-x="695" 
d="M562 121q46 -29 112 -63q-2 -33 -20 -59.5t-45 -26.5t-76 33q-23 15 -49 35q-83 -62 -203 -62q-114 0 -181 54.5t-67 144.5q0 96 63 136q49 27 87 9q-99 122 -99 233q0 101 59 151t151 50q93 0 145.5 -47t52.5 -124q0 -114 -103 -191q-30 -23 -62 -28.5t-60 10.5
q24 -29 58 -64q72 -75 138 -124q29 69 23 152q61 17 101 6q42 -12 27 -97q-13 -70 -52 -128zM292 669q-86 0 -86 -135q0 -72 42 -132q123 61 123 173q0 49 -19 71.5t-60 22.5zM297 66q58 0 105 39q-90 75 -151 140q-31 33 -46 51q-44 -41 -44 -98q0 -34 11 -59.5t26 -39
t35.5 -21.5t35 -10t28.5 -2z" />
    <glyph glyph-name="quotesingle" unicode="'" horiz-adv-x="257" 
d="M87 463l-7 287q109 17 109 -48q0 -66 -30 -227z" />
    <glyph glyph-name="parenleft" unicode="(" horiz-adv-x="315" 
d="M176 -192q-140 246 -140 554q0 252 89 484q6 17 30.5 31.5t63.5 9.5t73 -42q-115 -224 -115 -482q0 -152 38.5 -292t88.5 -232z" />
    <glyph glyph-name="parenright" unicode=")" horiz-adv-x="315" 
d="M139 889q140 -246 140 -554q0 -242 -89 -484q-6 -17 -30.5 -31.5t-63.5 -9.5t-73 42q115 224 115 482q0 152 -38.5 292t-88.5 232z" />
    <glyph glyph-name="asterisk" unicode="*" horiz-adv-x="405" 
d="M245 627l122 -63q-11 -36 -32 -58q-24 -24 -51 -1q-25 22 -65 72q-6 -33 -26 -133q-46 7 -62 15q-33 16 -16 49q19 37 46 78q-77 -11 -124 -17q-9 31 -6 65q2 18 10.5 26t30.5 5q48 -8 89 -22l-57 122q32 21 59 26q37 7 42 -30q5 -43 2 -99l99 96q31 -20 44 -47
q16 -34 -15 -49q-27 -14 -90 -35z" />
    <glyph glyph-name="plus" unicode="+" horiz-adv-x="517" 
d="M451 406q4 -28 4 -45q0 -37 -27 -37h-128v-151q-32 -4 -44 -4q-20 0 -29 6t-9 21v128h-150q-5 30 -5 45q0 37 28 37h127v150q30 5 44 5q22 0 30 -6t8 -22v-127h151z" />
    <glyph glyph-name="comma" unicode="," horiz-adv-x="262" 
d="M55 83q38 44 82 44q33 0 52 -20.5t20 -58.5q2 -99 -61 -213l-75 9q20 66 15 138q-4 63 -33 101z" />
    <glyph glyph-name="hyphen" unicode="-" horiz-adv-x="431" 
d="M76 201q-12 1 -14.5 35t5.5 51q52 -4 134 2.5t111 6.5q23 0 32 -16t6.5 -34.5t-9.5 -34.5q-32 0 -121 -7t-144 -3z" />
    <glyph glyph-name="period" unicode="." horiz-adv-x="293" 
d="M132 -9q-29 0 -49.5 19t-20.5 58q0 47 24.5 69t60.5 22q34 0 59 -23t25 -62q0 -43 -28.5 -63t-70.5 -20z" />
    <glyph glyph-name="slash" unicode="/" horiz-adv-x="422" 
d="M27 -139q-18 8 -23.5 17t-0.5 24l283 861q44 -2 69 -13q18 -8 23.5 -16.5t0.5 -23.5l-280 -862q-32 -2 -72 13z" />
    <glyph glyph-name="zero" unicode="0" horiz-adv-x="662" 
d="M332 -11q-140 0 -215.5 105.5t-75.5 275.5q0 171 75.5 275.5t215.5 104.5t214.5 -104.5t74.5 -275.5t-75 -276t-214 -105zM332 97q143 0 143 273q0 272 -143 272q-145 0 -145 -272q0 -122 34 -197.5t111 -75.5z" />
    <glyph glyph-name="one" unicode="1" horiz-adv-x="413" 
d="M342 0q-35 -10 -80 -10q-69 0 -69 48l1 586l-116 -22q-22 -4 -40 12.5t-19 39.5q-1 27 10 57l239 31q27 4 46.5 -13t19.5 -45z" />
    <glyph glyph-name="two" unicode="2" horiz-adv-x="593" 
d="M549 114q19 -40 6.5 -80t-47.5 -40q-53 0 -180 4.5t-233 1.5q-22 -1 -33 11.5t-11 31.5t1 40v8q64 50 95.5 75.5t79 67t70 70t47.5 66.5t34.5 75.5t9.5 79.5q0 55 -26 88.5t-77 33.5q-59 0 -89 -34t-24 -115q-45 -14 -79 -14q-29 0 -46 15.5t-17 43.5q0 105 67 156
t186 51q128 0 190.5 -59.5t62.5 -167.5q0 -61 -26 -120t-76.5 -113.5t-96 -94t-111.5 -88.5z" />
    <glyph glyph-name="three" unicode="3" horiz-adv-x="564" 
d="M250 -8q-85 0 -149 24q-68 26 -68 69q0 39 35 78q74 -45 108 -55q35 -11 75 -11q50 0 86 26t36 79q0 39 -19 60.5t-64 34.5q-69 -16 -92 -16q-35 0 -52.5 18.5t-15 45t20.5 51.5l119 -13q40 27 63 71.5t23 93.5q0 40 -19 64t-37.5 29.5t-36.5 5.5q-58 0 -79 -29.5
t-23 -85.5q-23 -8 -53.5 -9t-44.5 6q-31 13 -28 60q1 27 11.5 52t33.5 51.5t70 42t113 15.5q119 -1 182 -48t63 -138q0 -142 -151 -203v-1q168 -26 168 -173q0 -95 -80 -145t-195 -50z" />
    <glyph glyph-name="four" unicode="4" horiz-adv-x="586" 
d="M559 263q14 -63 -2 -89q-1 -1 -2.5 -4l-2 -4t-2.5 -3t-4.5 -3t-6.5 -2t-9.5 -1.5t-13.5 -0.5h-53v-156q-40 -6 -64 -6q-34 0 -46.5 7.5t-12.5 25.5v130q-89 1 -265 1q-31 0 -45.5 16.5t-13 35.5t11.5 35q59 98 116.5 251t66.5 256q34 9 55 9t35.5 -4.5t24 -9.5t13 -18
t4.5 -21.5t-2.5 -29.5t-6 -31t-9.5 -37q-26 -103 -156 -357l171 4v193q27 12 62 12q20 0 31.5 -2t20 -11t8.5 -27v-161z" />
    <glyph glyph-name="five" unicode="5" horiz-adv-x="555" 
d="M198 445q323 -21 323 -240q0 -102 -70 -158.5t-193 -56.5q-107 0 -173 39q-37 23 -37 58q0 40 40 81q91 -75 176 -75q58 0 91.5 30t33.5 88q0 69 -62 97.5t-203 36.5q-24 1 -36.5 12t-11.5 28l7 196q4 56 34 63h-73q-17 18 -11 57t36 39h302q72 0 109 2q10 -50 4 -69
q-3 -10 -10 -16.5t-19 -9t-20 -3t-23 -0.5q-57 0 -209 4z" />
    <glyph glyph-name="six" unicode="6" horiz-adv-x="608" 
d="M359 423q108 0 163.5 -54t55.5 -145q0 -108 -66.5 -170t-197.5 -62q-271 0 -271 374q0 73 16.5 138t51.5 122t97.5 90.5t145.5 33.5q91 0 140 -26q34 -18 34 -50q0 -37 -33 -68q-72 36 -140 36q-55 0 -92 -22t-56.5 -65.5t-27 -95.5t-7.5 -124h5v-4q21 41 69 67
q46 25 113 25zM324 97q53 0 84 29t31 85q0 107 -112 107q-72 0 -151 -42q3 -88 41 -133.5t107 -45.5z" />
    <glyph glyph-name="seven" unicode="7" horiz-adv-x="517" 
d="M479 740q15 -18 19.5 -45.5t-10.5 -51.5q-117 -153 -163 -361q-13 -56 -16.5 -142t3.5 -140q-31 -10 -73 -10q-41 0 -59.5 21t-17.5 74q5 293 198 557q-196 -8 -295 -8q-50 0 -51 44q-1 30 6 64q72 -2 115 -2h344z" />
    <glyph glyph-name="eight" unicode="8" horiz-adv-x="586" 
d="M388 381q94 -45 129 -87t35 -110q0 -91 -69.5 -143t-187.5 -52q-107 0 -179.5 48t-72.5 132q0 133 148 188q-81 44 -111 86t-30 111q0 92 68.5 144t167.5 52q104 0 171.5 -46.5t67.5 -132.5q0 -66 -39 -114t-98 -76zM293 649q-48 0 -79 -25t-31 -75q0 -44 29.5 -72
t110.5 -66q70 56 70 139q0 49 -27.5 74t-72.5 25zM294 90q61 0 92 27t31 68q0 43 -30.5 68t-111.5 63q-16 8 -24 11q-75 -56 -75 -141q0 -47 32 -71.5t86 -24.5z" />
    <glyph glyph-name="nine" unicode="9" horiz-adv-x="613" 
d="M570 395q0 -405 -299 -405q-111 0 -171 38q-33 21 -33 56q0 39 34 70q102 -57 158 -57q95 0 135 65.5t46 191.5q-19 -41 -67 -61q-50 -22 -103 -22q-116 0 -176 63t-60 170q0 116 65.5 181t196.5 65q274 0 274 -355zM305 374q62 0 128 40q-1 124 -32.5 177t-104.5 53
q-52 0 -87.5 -36t-35.5 -98q0 -63 34.5 -99.5t97.5 -36.5z" />
    <glyph glyph-name="colon" unicode=":" horiz-adv-x="239" 
d="M118 370q-64 0 -64 70q0 35 18 52.5t46 17.5q30 0 48 -17t18 -53q0 -70 -66 -70zM118 -10q-64 0 -64 70q0 35 18 52.5t46 17.5q30 0 48 -17t18 -53q0 -70 -66 -70z" />
    <glyph glyph-name="semicolon" unicode=";" horiz-adv-x="235" 
d="M116 333q-29 0 -49.5 19t-20.5 58q0 47 24.5 69t60.5 22q34 0 59 -23t25 -62q0 -43 -28.5 -63t-70.5 -20zM60 91q41 39 86 39q33 0 52 -20.5t20 -58.5q2 -96 -61 -210l-77 9q20 63 16 132t-36 109z" />
    <glyph glyph-name="less" unicode="&#x3c;" horiz-adv-x="490" 
d="M148 331q47 -16 91.5 -35.5t92.5 -45t77.5 -55t29.5 -57.5t-26 -47.5t-70 -5.5q-32 43 -132 115.5t-165 101.5l9 61q65 37 159.5 114.5t121.5 112.5q36 0 58 -19t22 -47q0 -24 -18 -48.5t-43 -43.5t-65 -39.5t-70 -33t-72 -28.5z" />
    <glyph glyph-name="equal" unicode="=" horiz-adv-x="498" 
d="M101 496h320q4 -28 4 -44q0 -38 -27 -38h-321q-4 28 -4 39q0 43 28 43zM101 316h320q4 -28 4 -44q0 -38 -27 -38h-321q-4 28 -4 39q0 43 28 43z" />
    <glyph glyph-name="greater" unicode="&#x3e;" horiz-adv-x="490" 
d="M147 585q32 -43 131.5 -115t165.5 -101l-9 -61q-64 -37 -159 -115t-122 -113q-36 0 -58 19t-22 47q0 30 24.5 59t69.5 54.5t83 43t91 37.5q-47 17 -91.5 35.5t-92.5 44.5t-77.5 55t-29.5 57t26 47.5t70 5.5z" />
    <glyph glyph-name="question" unicode="?" horiz-adv-x="500" 
d="M301 226q-52 -32 -84 -24.5t-46 32t-14 58.5q0 41 19.5 75.5t47.5 59t55.5 48t47 55t19.5 67.5q0 87 -88 87q-74 0 -88 -73q-4 -20 0 -57q-22 -14 -50 -16.5t-48 7.5q-34 16 -32 63q2 78 57 121t160 43q103 0 159 -44t56 -125q0 -46 -19.5 -82t-48 -58t-56.5 -43
t-47.5 -49t-19.5 -63q0 -22 20 -82zM248 -19q-38 0 -66 20t-28 63q0 39 25.5 62t60.5 23q34 0 58.5 -21.5t24.5 -67.5q0 -79 -75 -79z" />
    <glyph glyph-name="at" unicode="@" horiz-adv-x="882" 
d="M413 -201q-177 0 -281.5 99.5t-104.5 273.5q0 92 31 175t87 146.5t143 101t192 37.5q74 0 140 -19t122 -57.5t88 -105.5t31 -154q-1 -73 -24.5 -139t-74.5 -112t-119 -46q-55 0 -79.5 25.5t-23.5 71.5h-3q-47 -107 -153 -107q-68 0 -116.5 46t-48.5 149q0 67 21 117.5
t54.5 78t68 40.5t68.5 13q52 0 85 -19t39 -44l6 60q30 7 48 7q45 0 45 -45q0 -40 -25 -127l-16 -149q0 -42 37 -42t63.5 38t38 89t11.5 105q0 75 -25.5 127.5t-69 78.5t-89 37t-98.5 11q-80 0 -143 -24t-102 -62.5t-65 -90.5t-36 -103.5t-10 -105.5q0 -83 24 -143.5
t67 -94.5t94 -49.5t112 -15.5q123 0 204 44h10q25 -33 1 -56q-24 -22 -83.5 -41t-140.5 -19zM403 63q19 0 33.5 5.5t31 24t25 31t32.5 49.5l18 165q-40 21 -79 21q-132 0 -132 -176q0 -70 19.5 -95t51.5 -25z" />
    <glyph glyph-name="A" unicode="A" horiz-adv-x="710" 
d="M478 679l212 -663q-52 -23 -98 -23q-9 0 -16 1.5t-13 3t-11 6t-8.5 6.5t-7.5 9t-5.5 9t-5 11.5t-4 11.5t-4 13t-3.5 13l-40 136l-262 -4l-5 -18q-33 -108 -45 -191q-37 -8 -75 -8q-32 0 -52.5 20.5t-6.5 63.5l189 593q12 39 19 71q70 10 120 10q49 0 79 -15.5t43 -55.5z
M242 307l204 -1l-14 48q-12 43 -41 152t-41 151h-4l-90 -303z" />
    <glyph glyph-name="B" unicode="B" horiz-adv-x="652" 
d="M157 0q-72 0 -72 73v504q0 36 18 57h-54q-18 17 -14 61.5t32 44.5h265q247 0 247 -189q0 -129 -122 -185v-2q161 -35 161 -173q0 -191 -285 -191h-176zM384 405q19 15 33 50t14 76q0 108 -131 108h-70v-234h154zM230 102h110q57 0 92.5 26.5t35.5 73.5q0 54 -35.5 81
t-84.5 27h-118v-208z" />
    <glyph glyph-name="C" unicode="C" horiz-adv-x="661" 
d="M376 -10q-164 0 -249 94.5t-85 283.5q0 169 83 275.5t232 106.5q259 0 259 -212q0 -57 -11.5 -77.5t-40.5 -27.5q-37 -9 -94 8q4 31 4 88q0 115 -114 115q-75 0 -119 -75.5t-44 -197.5q0 -136 46.5 -205.5t150.5 -69.5q55 0 94.5 23t85.5 68q28 -13 41.5 -29t12.5 -42
q0 -23 -35 -51q-27 -22 -48 -35.5t-66.5 -26.5t-102.5 -13z" />
    <glyph glyph-name="D" unicode="D" horiz-adv-x="711" 
d="M161 0q-75 0 -75 67v510q0 38 24 57h-60q-18 17 -14 61.5t32 44.5h239q177 0 270 -90.5t93 -272.5q0 -196 -94 -286.5t-274 -90.5h-141zM231 106h91q200 0 200 271q0 257 -200 257h-91v-528z" />
    <glyph glyph-name="E" unicode="E" horiz-adv-x="598" 
d="M175 0q-87 0 -87 104v471q0 40 18 59h-64q-11 12 -15 37.5t3.5 47t26.5 21.5l489 2q6 -70 -5 -90q-11 -19 -56 -19h-252v-254q16 32 57 32l203 2q4 -28 5 -38t-0.5 -22t-7.5 -21q-12 -18 -52 -17l-205 4v-214h243q57 0 89 4q6 -29 6 -56q0 -19 -5.5 -30.5t-17 -16
t-19.5 -5.5t-22 -1h-332z" />
    <glyph glyph-name="F" unicode="F" horiz-adv-x="526" 
d="M147 -9q-72 0 -72 50l2 534q0 40 18 59h-54q-11 12 -15.5 37t4.5 47t31 22h355q61 0 92 2q12 -60 -1 -85q-13 -24 -60 -24h-226v-248q17 25 52 25h195q9 -65 -2 -83q-11 -19 -53 -19h-192v-150q0 -105 3 -158q-38 -9 -77 -9z" />
    <glyph glyph-name="G" unicode="G" horiz-adv-x="704" 
d="M366 338l289 -1v-203q0 -30 -3.5 -45t-19.5 -29q-30 -25 -95.5 -47.5t-146.5 -22.5q-349 0 -349 369q0 180 90.5 285.5t241.5 105.5q123 0 193.5 -48.5t70.5 -150.5q0 -72 -49 -78q-45 -6 -95 8q1 21 1 67q0 35 -26.5 65.5t-92.5 30.5q-84 0 -131.5 -73t-47.5 -200
q0 -275 195 -275q73 0 137 34v101l-117 -2q-35 -1 -46.5 30t1.5 79z" />
    <glyph glyph-name="H" unicode="H" horiz-adv-x="738" 
d="M586 750q38 0 58.5 -11.5t19.5 -36.5l-9 -334l9 -368q-35 -10 -80 -10q-69 0 -69 48v231l-292 -2v-267q-40 -10 -71 -10q-38 0 -58.5 11.5t-19.5 36.5l9 334l-9 368q35 10 80 10q69 0 69 -48v-382q15 46 54 46h238v374q40 10 71 10z" />
    <glyph glyph-name="I" unicode="I" horiz-adv-x="442" 
d="M293 105h91q13 -26 9.5 -65.5t-27.5 -39.5h-312q-13 28 -9 66.5t25 38.5h83l-5 530h-94q-13 29 -9 67t25 38h314q13 -26 9.5 -65.5t-27.5 -39.5h-77z" />
    <glyph glyph-name="J" unicode="J" horiz-adv-x="420" 
d="M127 -10q-74 0 -102 24q-19 16 -16 49t26 54q2 -1 10 -4.5t10.5 -4.5t9.5 -3.5t12 -3.5l12.5 -2.5t16 -2t18.5 -0.5q98 0 98 106v528q48 10 79 10q60 0 60 -47v-483q0 -220 -234 -220z" />
    <glyph glyph-name="K" unicode="K" horiz-adv-x="728" 
d="M614 -9q-36 0 -96 65q-59 65 -145 192l-116 -192q-25 -40 -45.5 -51.5t-44.5 -11.5q-44 0 -65 21.5t-22 75.5l-7 650q35 10 80 10q69 0 69 -48v-156q0 -164 -23 -391l3 -1l138 250q86 237 149 305q21 22 42.5 31.5t54.5 9.5q62 0 86 -64q-8 -13 -87.5 -121.5
t-140.5 -203.5q145 -192 266 -284q-24 -86 -96 -86z" />
    <glyph glyph-name="L" unicode="L" horiz-adv-x="521" 
d="M163 0q-44 0 -65.5 25t-21.5 66v649q49 7 69 7q75 0 75 -49v-593l203 1q18 0 41.5 0.5t31.5 0.5q5 -35 5 -60q0 -24 -15 -35.5t-31 -11.5h-292z" />
    <glyph glyph-name="M" unicode="M" horiz-adv-x="926" 
d="M789 -11q-27 0 -42.5 13t-18.5 48l-27 326q-2 25 -5 109.5t-5 109.5h-2q-2 -9 -18.5 -96.5t-25.5 -121.5l-78 -295q-10 -50 -43.5 -70.5t-73.5 -20.5q-95 0 -117 93l-75 296q-6 24 -18.5 108t-18.5 108h-2q-2 -25 -5.5 -109.5t-5.5 -109.5l-22 -298q-2 -34 1 -79
q-31 -9 -56 -9q-48 0 -68.5 11t-17.5 47l53 516q12 117 7 175q70 10 121 10q81 0 99 -68l87 -340q20 -79 48 -232h4q11 55 58 233l59 228q29 111 30 169q55 10 88 10q61 0 87.5 -21.5t31.5 -72.5l66 -650q-73 -17 -95 -17z" />
    <glyph glyph-name="N" unicode="N" horiz-adv-x="746" 
d="M152 -10q-72 0 -72 60l2 310l-8 380q35 10 88 10q37 0 54.5 -8.5t32.5 -32.5l214 -351q33 -58 79 -155l2 1q-10 133 -11 234l-2 302q36 10 70 10q29 0 44.5 -7t18 -13.5t2.5 -16.5v-325l6 -388q-67 -16 -115 -6q-26 6 -46 39l-204 339q-62 104 -107 197l-2 -1
q15 -143 15 -253v-315q-35 -10 -61 -10z" />
    <glyph glyph-name="O" unicode="O" horiz-adv-x="738" 
d="M369 -10q-155 0 -241.5 103t-86.5 280q0 175 86.5 276t241.5 101t241.5 -101.5t86.5 -275.5t-87 -278.5t-241 -104.5zM369 96q174 0 174 277q0 271 -174 271t-174 -271q0 -126 41.5 -201.5t132.5 -75.5z" />
    <glyph glyph-name="P" unicode="P" horiz-adv-x="642" 
d="M150 -6q-30 0 -48.5 10.5t-15.5 31.5v542q0 37 18 56h-54q-18 17 -14 56.5t32 39.5h254q145 0 217 -57t72 -181q0 -114 -72.5 -180t-208.5 -66q-63 0 -102 47v-293q-42 -6 -78 -6zM323 342q58 0 96 42.5t38 115.5q0 62 -35.5 98t-91.5 36h-100v-287q38 -5 93 -5z" />
    <glyph glyph-name="Q" unicode="Q" horiz-adv-x="747" 
d="M738 -52q19 -44 3 -81.5t-70 -37.5q-39 0 -85.5 25t-82 55.5t-75 55.5t-67.5 25h-4q-149 4 -232.5 106.5t-83.5 276.5q0 175 86.5 276t241.5 101t241.5 -101.5t86.5 -275.5q0 -130 -49.5 -223t-141.5 -133q4 -2 42.5 -19.5t50.5 -22t41.5 -14.5t52 -12.5t45.5 -0.5z
M195 373q0 -126 41.5 -201.5t132.5 -75.5q174 0 174 277q0 271 -174 271t-174 -271z" />
    <glyph glyph-name="R" unicode="R" horiz-adv-x="654" 
d="M463 298q92 -164 158 -250q-35 -60 -88 -60q-49 0 -67 33l-130 244h-109v-138v-127q-42 -6 -69 -6q-30 0 -51 10.5t-21 31.5v549q0 39 18 59h-54q-11 12 -15.5 35t2.5 42t26 19h268q126 -1 200.5 -61t74.5 -164q0 -147 -143 -217zM313 359q63 0 101 41.5t38 105.5
q0 59 -34.5 98.5t-101.5 39.5h-89v-285h86z" />
    <glyph glyph-name="S" unicode="S" horiz-adv-x="595" 
d="M307 -8q-87 0 -148 20t-91 42q-24 17 -24 45q0 44 48 82q37 -32 97.5 -58t127.5 -26q46 0 71.5 20.5t25.5 56.5q0 75 -137 119q-120 39 -175 94t-55 148q0 47 14 84.5t38 61.5t57.5 40t69.5 22.5t77 6.5q229 0 229 -180q0 -49 -25 -65q-41 -25 -117 2v10q1 10 1.5 22.5
t0.5 20.5q0 40 -23.5 63t-67.5 23q-107 0 -107 -105q0 -53 36.5 -85.5t102.5 -55.5q57 -20 91.5 -35.5t70 -40.5t52 -58.5t16.5 -78.5q0 -101 -69.5 -148t-186.5 -47z" />
    <glyph glyph-name="T" unicode="T" horiz-adv-x="582" 
d="M285 -6q-65 0 -66 40q-2 119 -2 542q0 39 18 58h-184q-25 0 -31 35.5t5 70.5h505q28 0 32.5 -33t-10.5 -73h-188q3 -317 0 -634q-47 -6 -79 -6z" />
    <glyph glyph-name="U" unicode="U" horiz-adv-x="687" 
d="M336 -10q-276 0 -276 307v443q40 10 78 10q23 0 38 -4.5t20 -13t6.5 -14t1.5 -13.5v-403q0 -49 6 -83.5t20.5 -64t43 -44t71.5 -14.5q84 0 111.5 51t27.5 153v440q30 10 67 10q77 0 77 -46v-407q0 -307 -292 -307z" />
    <glyph glyph-name="V" unicode="V" horiz-adv-x="676" 
d="M342 -10q-53 0 -83 20.5t-44 68.5l-155 528q-17 61 -42 102q46 41 95 41q60 0 76 -59l158 -583h3q155 500 159 630q75 23 112.5 2t27.5 -72t-44.5 -164.5t-86.5 -274.5t-72 -225q-68 -14 -104 -14z" />
    <glyph glyph-name="W" unicode="W" horiz-adv-x="1142" 
d="M321 -10q-252 0 -252 268v353q0 79 -6 119q51 16 90 16q22 0 36 -6.5t19 -18.5t6.5 -19t1.5 -16v-418q0 -172 135 -172q32 0 55 8.5t41 30t28 39.5t27 55v501q50 11 86 11q41 0 57.5 -24.5t16.5 -83.5q0 -88 -21 -240q0 -167 37.5 -231t113.5 -64q78 0 110.5 60.5
t32.5 201.5q0 82 -12 149.5t-24 100.5t-39 96q55 39 103 39q45 0 70 -34q58 -81 58 -313q0 -209 -69.5 -308.5t-221.5 -99.5q-105 0 -156 47t-72 146h-3q-40 -106 -97.5 -149.5t-150.5 -43.5z" />
    <glyph glyph-name="X" unicode="X" horiz-adv-x="687" 
d="M565 186q22 -32 54 -71.5t42 -47.5q-41 -75 -97 -75q-42 0 -75 49l-154 226l-108 -141q-72 -95 -93 -136q-49 0 -74 19.5t-25 52.5q0 30 29 67l194 241l-148 204q-49 66 -85 102q8 26 32 50t64 24q39 0 74 -49l166 -238l154 203q25 33 54 84q99 0 99 -73q0 -29 -29 -66
l-200 -251z" />
    <glyph glyph-name="Y" unicode="Y" horiz-adv-x="671" 
d="M637 695q0 -39 -32 -98q-46 -88 -180 -311l6 -286q-47 -9 -82 -9q-69 0 -67 52l5 243q-81 137 -253 412q45 52 101 52q39 0 57 -29q70 -113 167 -301q145 265 149 320q34 10 65 10q29 0 46.5 -15t17.5 -40z" />
    <glyph glyph-name="Z" unicode="Z" horiz-adv-x="633" 
d="M586 121q19 -62 5 -94q-8 -18 -25 -24.5t-49 -7.5q-84 -2 -227 2t-212 3q-34 27 -35 78t25 83l354 478l-323 -11q-43 -3 -55 24q-7 16 -6.5 32.5t7.5 57.5q45 -2 132 -2h381q25 -29 25 -57q0 -34 -14 -54l-376 -519z" />
    <glyph glyph-name="bracketleft" unicode="[" horiz-adv-x="328" 
d="M175 -93q21 2 67 6.5t57 5.5q11 -25 11 -68q0 -27 -13.5 -39t-45.5 -12q-67 0 -122 6q-43 5 -58 24.5t-15 55.5v937q0 25 16.5 40t45.5 17q11 1 82 4t106 6q10 -31 10 -61q0 -22 -13.5 -36t-40.5 -14q-36 0 -86 4z" />
    <glyph glyph-name="backslash" unicode="\" horiz-adv-x="400" 
d="M373 -139q-40 -15 -72 -13l-280 862q-5 15 0.5 23.5t23.5 16.5q25 11 69 13l283 -861q5 -15 -0.5 -24t-23.5 -17z" />
    <glyph glyph-name="bracketright" unicode="]" horiz-adv-x="328" 
d="M163 776q-21 -2 -67 -6.5t-57 -5.5q-11 25 -11 68q0 27 13.5 39t45.5 12q67 0 122 -6q43 -5 58 -24.5t15 -55.5v-937q0 -25 -16.5 -40t-45.5 -17q-11 -1 -82 -4t-106 -6q-10 31 -10 61q0 22 13.5 36t40.5 14q36 0 86 -4z" />
    <glyph glyph-name="asciicircum" unicode="^" horiz-adv-x="490" 
d="M294 647q67 -82 108 -125q-33 -49 -59 -49q-18 0 -33 21q-46 66 -65 103q-43 -61 -93 -105q-24 -22 -36.5 -23.5t-30.5 16.5q-13 14 -26 44q73 53 142 115q37 33 52 33q16 0 41 -30z" />
    <glyph glyph-name="underscore" unicode="_" horiz-adv-x="554" 
d="M70 -17h391q21 0 25 -21t-3 -68h-389q-13 0 -19.5 9.5t-7 29.5t2.5 50z" />
    <glyph glyph-name="grave" unicode="`" horiz-adv-x="340" 
d="M197 560l-114 123q-17 18 -17 41q0 27 22 42q19 13 63 15q18 -35 90 -145q15 -25 2.5 -45.5t-46.5 -30.5z" />
    <glyph glyph-name="a" unicode="a" horiz-adv-x="580" 
d="M231 -10q-28 0 -53.5 5.5t-53 22t-47.5 43t-33 71t-13 103.5q0 64 16 113.5t40.5 77.5t57.5 45.5t61 23t58 5.5q91 0 134 -64v54q38 6 69 6q64 0 64 -60q0 -29 -6.5 -89.5t-8.5 -85.5l14 -249q-36 -18 -73 -18q-32 0 -47.5 14t-13.5 38l5 71h-1q-34 -71 -75 -99t-94 -28z
M272 78q41 0 63 25.5t54 90.5v196q-42 22 -82 22q-132 0 -132 -176q0 -158 97 -158z" />
    <glyph glyph-name="b" unicode="b" horiz-adv-x="569" 
d="M250 -10q-87 0 -196 31v386q0 230 -8 343q38 12 74 12q64 0 64 -41l-2 -141q-2 -77 -7 -167l2 -1q63 88 162 88q85 0 142 -55t57 -170q0 -285 -288 -285zM275 76q54 0 86.5 47.5t32.5 141.5q0 68 -25.5 105.5t-67.5 37.5q-67 0 -117 -63v-248q3 -1 11.5 -4.5t12.5 -5.5
t12.5 -4.5t15.5 -3.5t17 -2t22 -1z" />
    <glyph glyph-name="c" unicode="c" horiz-adv-x="488" 
d="M276 -10q-119 0 -182 64t-63 185q0 127 60.5 194t168.5 67q192 0 192 -152q0 -54 -38 -67q-46 -15 -91 2q2 37 1 49q-5 82 -62 82q-41 0 -65 -38.5t-24 -140.5q0 -73 30 -115.5t79 -42.5q32 0 59.5 10t40.5 19t45 33q30 -21 30 -52q0 -23 -14 -36q-56 -61 -167 -61z" />
    <glyph glyph-name="d" unicode="d" horiz-adv-x="588" 
d="M234 -10q-36 0 -68 10.5t-63.5 35.5t-50 76t-18.5 123q0 64 16 113.5t40 77.5t56.5 45.5t60.5 23t56 5.5q93 0 132 -59l2 1v308q42 9 81 9q22 0 37.5 -11t15.5 -32q0 -82 -11 -357l13 -347q-36 -18 -72 -18q-32 0 -48 14t-14 38l5 71h-1q-57 -127 -169 -127zM275 78
q21 0 37 7t30.5 25.5t23.5 34t26 47.5v198q-42 22 -86 22q-68 0 -98 -49.5t-30 -126.5q0 -158 97 -158z" />
    <glyph glyph-name="e" unicode="e" horiz-adv-x="503" 
d="M440 132q11 -8 20.5 -23t9.5 -30q0 -21 -14 -36q-60 -53 -172 -53q-116 0 -184.5 65.5t-68.5 190.5q0 116 62 185t176 69q198 0 198 -147q0 -128 -158 -152q-41 -6 -89 -3q-34 2 -45 25q12 -146 118 -146q32 0 59.5 9t41 17t46.5 29zM267 414q-48 0 -70 -42.5t-23 -108.5
q85 0 121 19t36 68q0 64 -64 64z" />
    <glyph glyph-name="f" unicode="f" horiz-adv-x="421" 
d="M45 -204q-41 0 -60.5 18t-18 45t7.5 59q53 -16 79 -16q38 0 54 23t17 78q0 23 -4 396h-96q-12 22 -8.5 50t24.5 29l77 6l-3 102q-2 84 42.5 139.5t143.5 55.5q40 0 76 -9q50 -12 50 -53q0 -34 -28 -58q-44 14 -74 14q-68 0 -68 -74v-111h131q10 -28 2.5 -59.5
t-23.5 -31.5h-111v-401q0 -98 -56 -150t-154 -52z" />
    <glyph glyph-name="g" unicode="g" horiz-adv-x="586" 
d="M276 -203q-96 0 -159 27q-48 20 -49 52q-2 32 30 67q106 -53 165 -53q81 0 114.5 38t30.5 110l-3 69l-2 1q-50 -110 -159 -110q-100 0 -156.5 63t-56.5 174q0 64 16 113.5t40.5 77.5t57 45.5t61 23t57.5 5.5q92 0 134 -68v63q40 12 68 12q39 0 53 -20.5t14 -56.5
q0 -35 -7.5 -91t-8.5 -78l10 -182q0 -19 1.5 -42.5t-4.5 -50.5t-14 -53.5t-27.5 -51t-45 -43.5t-67 -30t-93.5 -11zM277 86q39 0 60 21.5t52 76.5v206q-42 22 -82 22q-69 0 -100.5 -48.5t-31.5 -126.5q0 -75 27.5 -113t74.5 -38z" />
    <glyph glyph-name="h" unicode="h" horiz-adv-x="563" 
d="M117 -5q-28 0 -45.5 17t-17.5 51q0 75 13 154v283q0 148 -9 250q43 9 74 9q63 0 63 -42l-3 -186q-2 -92 -9 -149l2 -1q62 119 169 119q151 0 151 -153v-202q0 -50 10 -136q-46 -14 -73 -14q-22 0 -37.5 5.5t-22 10t-10 17.5t-3.5 16v18q0 32 2 129t2 145q0 39 -14.5 57.5
t-46.5 18.5q-34 0 -61.5 -29t-58.5 -109v-274q-26 -5 -75 -5z" />
    <glyph glyph-name="i" unicode="i" horiz-adv-x="262" 
d="M126 575q-36 0 -57.5 23.5t-21.5 70.5q0 83 85 83q37 0 60.5 -22.5t23.5 -67.5q0 -39 -30 -63t-60 -24zM131 -6q-24 0 -38.5 3.5t-20 10t-7 11t-1.5 11.5v460q38 8 72 8q62 0 62 -37v-461q-28 -6 -67 -6z" />
    <glyph glyph-name="j" unicode="j" horiz-adv-x="246" 
d="M110 753q30 0 60 -24.5t30 -63.5q0 -45 -23.5 -67.5t-60.5 -22.5q-38 0 -61.5 22t-23.5 61q0 47 21.5 71t57.5 24zM-14 -200q-97 0 -54 119q45 -13 64 -13q68 0 68 70q-1 255 -10 514q40 8 80 8q24 0 39 -10.5t15 -26.5v-459q0 -99 -52.5 -150.5t-149.5 -51.5z" />
    <glyph glyph-name="k" unicode="k" horiz-adv-x="548" 
d="M367 247q21 -28 42.5 -53t37.5 -41.5t33 -32.5t26.5 -23.5t20.5 -17t13 -10.5q-13 -36 -37 -56.5t-45 -20.5q-42 0 -67 28q-45 52 -92 133l-85 -117q-33 -44 -84 -44q-31 0 -52.5 22.5t-20.5 61.5l7 414q2 130 -8 260q43 9 74 9q63 0 63 -42v-343q-2 -43 -6.5 -122.5
t-6.5 -120.5l2 -1l105 145q46 148 92 200q21 24 56 24q22 0 38 -6t24 -13.5t22 -23.5z" />
    <glyph glyph-name="l" unicode="l" horiz-adv-x="259" 
d="M143 759q22 0 37.5 -11t15.5 -32v-716q-27 -5 -73 -5q-61 0 -61 35v720q42 9 81 9z" />
    <glyph glyph-name="m" unicode="m" horiz-adv-x="871" 
d="M118 -5q-27 0 -44.5 17.5t-17.5 51.5q0 36 13 153q0 157 -15 263q38 16 76 16q59 0 57 -51l-2 -65h2q62 120 168 120q54 0 91 -29.5t37 -84.5v-20l2 -1q65 135 172 135q155 0 155 -149v-204q0 -43 11 -138q-42 -14 -76 -14q-25 0 -40.5 6t-21.5 18.5t-7 20t-1 22.5
q0 32 2 128.5t2 145.5q0 39 -14.5 57.5t-46.5 18.5q-36 0 -62 -28.5t-58 -108.5v-275q-27 -5 -74 -5q-27 0 -45 17.5t-18 51.5q0 69 12 153v132q0 63 -60 63q-37 0 -63.5 -28.5t-57.5 -108.5v-275q-28 -5 -76 -5z" />
    <glyph glyph-name="n" unicode="n" horiz-adv-x="565" 
d="M118 -5q-27 0 -44.5 17.5t-17.5 51.5t13 153q0 157 -15 263q38 16 76 16q28 0 43 -14.5t14 -36.5l-2 -65h2q62 120 168 120q152 0 152 -164v-191q0 -49 10 -135q-39 -15 -73 -15q-22 0 -37.5 5.5t-22 10t-10 17.5t-3.5 16v18q0 32 2 128.5t2 145.5q0 39 -14.5 57.5
t-46.5 18.5q-36 0 -62 -28.5t-58 -109.5v-274q-28 -5 -76 -5z" />
    <glyph glyph-name="o" unicode="o" horiz-adv-x="551" 
d="M278 -10q-30 0 -59.5 5.5t-64.5 22.5t-61.5 44t-44 74.5t-17.5 109.5q0 76 25.5 130t66.5 79t77.5 35t73.5 10t74 -10t78.5 -35t67.5 -79t26 -130q0 -62 -17.5 -109.5t-43.5 -74.5t-60.5 -44t-63.5 -22.5t-57 -5.5zM277 77q99 0 99 169q0 166 -101 166q-100 0 -100 -166
q0 -80 25.5 -124.5t76.5 -44.5z" />
    <glyph glyph-name="p" unicode="p" horiz-adv-x="577" 
d="M348 500q86 0 142 -57.5t56 -176.5q0 -135 -66 -205.5t-169 -70.5q-90 0 -124 50v-232q-37 -8 -64 -8q-34 0 -55.5 17t-21.5 50q0 82 14 266v89q0 158 -13 259q45 13 71 13q35 0 49 -12t14 -36q0 -7 -1.5 -24.5t-2.5 -32.5l3 -1q44 112 168 112zM277 76q59 0 92 51.5
t33 136.5q0 70 -27 109t-72 39q-66 0 -116 -104v-215q49 -17 90 -17z" />
    <glyph glyph-name="q" unicode="q" horiz-adv-x="570" 
d="M453 -208q-68 0 -66 55l6 269l-2 1q-31 -72 -70 -99.5t-90 -27.5q-29 0 -55 5.5t-54.5 22t-49 43t-34 71t-13.5 103.5q0 64 16 113.5t40 77.5t56.5 45.5t60.5 23t56 5.5q95 0 137 -59v66q34 12 60 12q70 0 70 -61q0 -26 -2.5 -52.5t-7 -65t-6.5 -64.5l14 -476
q-40 -8 -66 -8zM266 78q21 0 36 6.5t30 27t22 34t25 50.5v194q-42 22 -82 22q-68 0 -98 -49t-30 -127q0 -80 26 -119t71 -39z" />
    <glyph glyph-name="r" unicode="r" horiz-adv-x="396" 
d="M130 -5q-33 0 -53.5 16.5t-20.5 49.5q0 39 13 156q0 179 -16 263q35 16 75 16q42 0 53.5 -14t10.5 -40q-1 -36 -6 -117l3 -1q2 7 10 30.5t11 32t11.5 28.5t14 28.5t16 22t21 19t25 10.5t30.5 5q21 0 40 -16t19 -41q0 -34 -23 -73q-34 4 -60.5 1.5t-54 -34.5t-55.5 -100
v-237q-40 -5 -64 -5z" />
    <glyph glyph-name="s" unicode="s" horiz-adv-x="446" 
d="M218 -7q-97 0 -154 37q-26 18 -26 46q0 37 37 64q23 -19 39.5 -30t47.5 -22t64 -11q61 0 61 49q0 15 -11 26.5t-22.5 16.5t-32.5 12l-71 24q-24 8 -39.5 16t-36 24t-31.5 43t-11 63q0 74 53.5 111.5t142.5 37.5q74 0 122.5 -28.5t48.5 -89.5q0 -37 -18 -48
q-33 -21 -106 -5q5 88 -58 88q-59 0 -59 -57q0 -25 13 -41t48 -29l68 -25q33 -12 50.5 -20t39 -23.5t31 -37.5t9.5 -52q0 -68 -50.5 -103.5t-148.5 -35.5z" />
    <glyph glyph-name="t" unicode="t" horiz-adv-x="405" 
d="M369 103q16 -27 16 -47q0 -33 -52 -52q-42 -15 -89 -15q-49 0 -82.5 13t-49.5 36.5t-22 47.5t-6 55v265l-69 1q-13 22 -8.5 46.5t26.5 26.5l53 4l4 116q2 64 65 64q20 0 58 -8l5 -7v-159h149q9 -22 6 -55.5t-19 -33.5l-136 2v-267q0 -59 53 -59q32 0 90 28z" />
    <glyph glyph-name="u" unicode="u" horiz-adv-x="548" 
d="M199 -10q-75 0 -109.5 41.5t-34.5 104.5v209q0 82 -10 138q39 14 78 14q34 0 49 -13.5t16 -47.5q4 -18 1.5 -143t-2.5 -156q0 -29 11 -44t41 -15q32 0 58.5 24.5t59.5 92.5v295q42 6 68 6q74 0 74 -71q0 -26 -6.5 -79.5t-7.5 -69.5l13 -264q-40 -18 -68 -18
q-34 0 -47 13.5t-11 39.5l4 81h-2q-34 -77 -75.5 -107.5t-99.5 -30.5z" />
    <glyph glyph-name="v" unicode="v" horiz-adv-x="478" 
d="M345 490q56 16 85.5 0t29.5 -46q0 -66 -63.5 -221.5t-102.5 -222.5q-36 -7 -59 -7q-39 0 -59.5 16.5t-31.5 52.5q-44 122 -133 405q32 25 73 29q56 4 67 -38l95 -360q88 301 99 392z" />
    <glyph glyph-name="w" unicode="w" horiz-adv-x="840" 
d="M786 429q10 -57 10 -156q0 -155 -60 -219t-168 -64q-58 0 -102.5 33.5t-58.5 102.5q-37 -136 -173 -136q-86 0 -136.5 42.5t-50.5 137.5v132q0 131 -7 178q52 10 84 10q24 0 42.5 -15t18.5 -42v-249q0 -101 72 -101q98 0 98 197v200q32 10 67 10q33 0 53 -15.5t20 -40.5
q0 -64 -11 -149q0 -120 14.5 -161t67.5 -41q88 0 88 176q0 98 -28 209q48 28 91 28q58 0 69 -67z" />
    <glyph glyph-name="x" unicode="x" horiz-adv-x="503" 
d="M402 149q55 -71 73 -88q-5 -27 -26 -47t-56 -20q-39 0 -66 41l-89 130l-48 -60q-58 -74 -80 -113q-82 0 -82 59q0 28 24 55l119 142l-82 106q-51 65 -65 77q20 65 82 65q39 0 66 -39l88 -129l80 100q30 40 44 68q83 0 83 -58q0 -24 -24 -53l-117 -139z" />
    <glyph glyph-name="y" unicode="y" horiz-adv-x="541" 
d="M255 -204q-59 0 -111.5 16.5t-80.5 48.5q-12 14 -12 29q0 44 41 75q43 -43 81.5 -60t87.5 -17q52 0 84.5 38t32.5 89l-1 128l-2 1q-32 -74 -72 -104t-102 -30q-146 0 -146 161v174q0 82 -10 138q36 13 78 13q35 0 50.5 -13t15.5 -45v-265q0 -37 12 -56t44 -19q28 0 52 24
t59 90v278q40 6 68 6q40 0 56 -18.5t16 -52.5q0 -35 -17 -158l9 -222q5 -127 -59 -188t-174 -61z" />
    <glyph glyph-name="z" unicode="z" horiz-adv-x="423" 
d="M403 101q13 -57 2 -82q-10 -23 -63 -25q-65 -1 -96 0t-95.5 3t-106.5 3q-21 17 -21 64q0 38 29 72l210 255l-183 -5q-15 -1 -27.5 5t-17.5 16q-15 31 1 86q38 -3 111 -3h232q27 -17 27 -60q0 -30 -29 -65l-220 -272z" />
    <glyph glyph-name="braceleft" unicode="{" horiz-adv-x="352" 
d="M276 -212q-89 -6 -134.5 39.5t-45.5 117.5q0 47 8.5 137t8.5 117q0 63 -20 80t-77 17q-15 30 -15 46q0 22 14.5 33.5t35.5 11.5q18 0 29.5 5t22 28t10.5 64q0 27 -8.5 117t-8.5 137q0 75 43 118.5t142 37.5q34 -2 49 -21.5t13.5 -42t-13.5 -40.5l-52 3q-26 2 -40 -14
t-14 -50q0 -39 8.5 -127t8.5 -115q0 -41 -13.5 -71.5t-28.5 -43t-30 -21.5t-16 -10q1 -1 16 -9.5t30 -21t28.5 -42.5t13.5 -71q0 -27 -8.5 -115t-8.5 -127q0 -34 15 -50.5t39 -14.5l52 3q12 -19 13.5 -41.5t-15 -42t-52.5 -21.5z" />
    <glyph glyph-name="bar" unicode="|" horiz-adv-x="267" 
d="M130 -69q-44 0 -44 33q0 632 -3 852q35 11 61 11q36 0 36 -40q-5 -318 4 -847q-29 -9 -54 -9z" />
    <glyph glyph-name="braceright" unicode="}" horiz-adv-x="354" 
d="M76 894q89 6 134.5 -39.5t45.5 -117.5q0 -47 -8.5 -137t-8.5 -117q0 -63 20 -80t77 -17q15 -30 15 -46q0 -22 -14.5 -33.5t-35.5 -11.5q-18 0 -29.5 -5t-22 -28t-10.5 -64q0 -27 8.5 -117t8.5 -137q0 -75 -43 -118.5t-142 -37.5q-34 2 -49 21.5t-13.5 42t13.5 40.5l52 -3
q26 -2 40 14t14 50q0 39 -8.5 127t-8.5 115q0 41 13.5 71.5t28.5 43t30 21.5t16 10q-1 1 -16 9.5t-30 21t-28.5 42.5t-13.5 71q0 27 8.5 114.5t8.5 127.5q0 34 -15 50.5t-39 14.5l-52 -3q-12 19 -13.5 41.5t15 42t52.5 21.5z" />
    <glyph glyph-name="exclamdown" unicode="&#xa1;" horiz-adv-x="234" 
d="M80 499q34 0 59 -23t25 -62q0 -43 -28.5 -63t-70.5 -20q-29 0 -49.5 19t-20.5 58q0 47 24.5 69t60.5 22zM24 254q44 15 78 10t35 -29l15 -510q-24 -21 -60 -26t-63 11.5t-26 50.5z" />
    <glyph glyph-name="cent" unicode="&#xa2;" horiz-adv-x="600" 
d="M490 241q12 -9 23 -26t11 -33q0 -24 -16 -41q-54 -58 -153 -67q3 -57 8 -98q-36 -11 -64 -11q-22 0 -30 10t-9 34q-1 26 4 66q-110 14 -168 85.5t-58 194.5q0 133 60.5 208.5t168.5 87.5q-1 52 -7 97q36 11 64 11q22 0 30 -10t9 -34q1 -25 -4 -65q166 -19 166 -170
q0 -76 -43 -91q-25 -8 -56 -7t-53 9q3 41 2 70q-5 94 -73 94q-47 0 -74.5 -44t-27.5 -160q0 -84 34 -132t90 -48q11 0 22 1t19.5 2t19 5t15.5 5t16 7.5t14.5 8t15.5 9.5t13.5 9.5t15.5 11.5t15 11z" />
    <glyph glyph-name="sterling" unicode="&#xa3;" horiz-adv-x="615" 
d="M561 105q15 -73 2 -97t-64 -24q-67 0 -224 10.5t-234 4.5q-11 46 -4.5 64t35.5 22q36 4 74 4q28 43 28 117q0 45 -19 104l-119 -3q-13 37 -3 63.5t51 26.5h39q-39 101 -39 151q0 92 60.5 147t169.5 55t168.5 -44.5t51.5 -144.5q-2 -31 -14.5 -45t-42.5 -14q-18 0 -60 7
q6 72 -18.5 115t-78.5 43q-103 0 -103 -106q0 -19 5.5 -42t11.5 -38t19 -44t18 -42q110 -3 220 -3q5 -42 -1 -60t-30 -18q-113 0 -163 -1q5 -28 5 -55q0 -100 -53 -168q213 0 312 15z" />
    <glyph glyph-name="currency" unicode="&#xa4;" horiz-adv-x="618" 
d="M476 245q38 -38 63 -59q-14 -20 -29 -36q-30 -33 -54 -7q-26 28 -40 44q-46 -29 -108 -29q-67 0 -116 27q-32 -32 -56 -59q-19 14 -37 29q-32 26 -6 54q7 8 40 38q-21 39 -21 94q0 63 32 114q-33 33 -60 57q13 23 28 38q17 17 29 18.5t25 -12.5q15 -15 39 -43
q47 29 110 29t106 -24q35 35 55 59q27 -17 38 -27q18 -16 19 -28.5t-13 -25.5q-14 -14 -38 -36q26 -43 26 -103q0 -62 -32 -112zM312 218q48 0 72.5 36t22.5 104q-2 59 -26.5 91.5t-68.5 32.5q-46 0 -72 -35t-27 -98q-1 -61 25.5 -96t73.5 -35z" />
    <glyph glyph-name="yen" unicode="&#xa5;" horiz-adv-x="673" 
d="M630 695q0 -39 -32 -98q-58 -106 -159 -275q48 -1 137 -1q13 -69 -35 -69h-122l1 -51h156q13 -69 -35 -69h-120l3 -132q-47 -9 -82 -9q-69 0 -67 52l2 87l-157 -3q-7 36 1.5 55.5t44.5 19.5h112l1 49q-85 0 -159 -2q-7 36 1.5 55.5t44.5 19.5h92q-84 140 -231 374
q45 52 101 52q39 0 57 -29q70 -113 167 -301q145 265 149 320q34 10 65 10q29 0 46.5 -15t17.5 -40z" />
    <glyph glyph-name="brokenbar" unicode="&#xa6;" horiz-adv-x="243" 
d="M134 827q36 0 36 -40v-68q0 -34 -0.5 -96.5t-0.5 -95.5q0 -13 0.5 -45t0.5 -47q-35 -11 -57 -11q-37 0 -37 40q0 46 -1 123.5t-1 131.5q0 13 -0.5 46t-0.5 50q31 12 61 12zM134 340q36 0 36 -40v-70q0 -42 -0.5 -105t-0.5 -89q0 -14 0.5 -46t0.5 -48q-26 -11 -59 -11
q-35 0 -35 40q0 39 -1 118t-1 141q0 14 -0.5 48t-0.5 51q35 11 61 11z" />
    <glyph glyph-name="section" unicode="&#xa7;" horiz-adv-x="552" 
d="M403 173q57 -52 57 -123q0 -155 -191 -155q-193 0 -193 142q0 36 12 53t42 17q25 0 57 -8q-1 -70 19 -98.5t63 -28.5q81 0 81 71q0 19 -7.5 34.5t-24 28.5t-32 23t-41.5 24l-3 1.5l-3 1.5t-3.5 2t-3.5 2q-93 51 -119 73q-61 51 -61 122q0 78 87 130q-57 52 -57 123
q0 155 191 155q193 0 193 -142q0 -36 -12 -53t-42 -17q-25 0 -57 8q1 70 -19 98.5t-63 28.5q-81 0 -81 -71q0 -19 7.5 -34.5t24 -28.5t32 -23t41.5 -24q9 -5 13 -7q93 -51 119 -73q61 -51 61 -122q0 -78 -87 -130zM161 368q0 -16 5 -28.5t10.5 -21t21.5 -19.5t26.5 -17
t38 -21t43.5 -24q21 -11 37 -22q38 31 38 75q0 16 -5 28.5t-10.5 21t-21.5 19.5t-26.5 17t-38 21t-43.5 24q-21 11 -37 22q-38 -31 -38 -75z" />
    <glyph glyph-name="dieresis" unicode="&#xa8;" horiz-adv-x="459" 
d="M119 595q-63 0 -63 69q0 31 19.5 48t53.5 17q64 0 64 -69q0 -65 -74 -65zM329 595q-62 0 -62 69q0 30 19.5 47.5t52.5 17.5q64 0 64 -69q0 -65 -74 -65z" />
    <glyph glyph-name="copyright" unicode="&#xa9;" horiz-adv-x="878" 
d="M444 751q175 0 279.5 -106t104.5 -278t-105 -278.5t-279 -106.5t-279 106.5t-105 278.5t104.5 278t279.5 106zM444 40q149 0 232.5 88.5t83.5 238.5t-83.5 239t-232.5 89t-232 -88.5t-83 -239.5q0 -150 83 -238.5t232 -88.5zM452 164q-94 0 -144.5 51.5t-50.5 147.5
q0 101 50 154.5t139 53.5q151 0 151 -121q0 -52 -30 -63q-36 -13 -76 1q2 33 1 49q-5 66 -51 66q-71 0 -71 -143q0 -59 24 -92.5t63 -33.5q8 0 15.5 1t13.5 1.5t13 3t11 3.5t11.5 5.5t10 5.5t10.5 7t9 6.5t10.5 7.5t10.5 8q9 -5 16.5 -17t7.5 -24q0 -17 -11 -29
q-44 -49 -133 -49z" />
    <glyph glyph-name="guillemotleft" unicode="&#xab;" horiz-adv-x="644" 
d="M134 224q82 -40 127 -79t45 -85q0 -35 -22 -52.5t-72 -27.5q-5 43 -23 79t-48.5 63.5t-47.5 40t-46 29.5l-9 61q159 95 197 232q52 9 80.5 -4.5t28.5 -41.5q0 -91 -210 -215zM374 224q82 -40 127 -79t45 -85q0 -35 -22 -52.5t-72 -27.5q-5 43 -23 79t-48.5 63.5t-47.5 40
t-46 29.5l-9 61q159 95 197 232q52 9 80.5 -4.5t28.5 -41.5q0 -91 -210 -215z" />
    <glyph glyph-name="registered" unicode="&#xae;" horiz-adv-x="713" 
d="M356 177q-125 0 -202 75t-77 196t77 196t202 75t202.5 -75t77.5 -196t-77.5 -196t-202.5 -75zM356 224q104 0 165 60.5t61 163.5t-61.5 164t-164.5 61q-104 0 -164.5 -60.5t-60.5 -164.5q0 -103 61 -163.5t164 -60.5zM443 297q-19 0 -27 13l-54 100h-20q-16 0 -24 9v-65
v-52q-18 -3 -29 -3q-29 0 -29 17v225q0 16 7 25h-22q-8 7 -7 23t12 16h110q52 0 82.5 -24.5t30.5 -67.5q0 -60 -59 -89q42 -73 65 -103q-14 -24 -36 -24zM318 449h35q26 0 41.5 17t15.5 43q0 24 -14 40.5t-42 16.5h-36v-117z" />
    <glyph glyph-name="macron" unicode="&#xaf;" horiz-adv-x="441" 
d="M117 704q38 0 126.5 -2t115.5 -2q12 -82 -32 -82q-203 0 -259 -3q-19 89 49 89z" />
    <glyph glyph-name="degree" unicode="&#xb0;" horiz-adv-x="430" 
d="M215 738q73 0 117.5 -39t44.5 -102t-44.5 -102t-117.5 -39t-117.5 39t-44.5 102t44.5 102t117.5 39zM215 521q68 0 68 76t-68 76t-68 -76t68 -76z" />
    <glyph glyph-name="acute" unicode="&#xb4;" horiz-adv-x="337" 
d="M132 560q-34 10 -46.5 30.5t2.5 45.5q72 110 90 145q44 -2 63 -15q22 -15 22 -42q0 -23 -17 -41z" />
    <glyph glyph-name="paragraph" unicode="&#xb6;" horiz-adv-x="659" 
d="M624 740q6 -32 6 -51q0 -21 -10.5 -29t-37.5 -8h-25q-1 -11 -0.5 -356.5t0.5 -364.5q0 -32 -35 -32q-13 0 -45 8q4 348 4 745q-10 0 -39.5 0.5t-44.5 0.5q-2 -102 -2 -714q0 -21 -9 -30.5t-32 -9.5q-27 0 -57 8q1 60 1.5 197.5t0.5 198.5q-27 -4 -52 -4q-93 0 -145 53
t-52 149q0 207 196 231q63 8 176 8h202z" />
    <glyph glyph-name="periodcentered" unicode="&#xb7;" horiz-adv-x="249" 
d="M109 231q-29 0 -49.5 19t-20.5 58q0 47 24.5 69t60.5 22q34 0 59 -23t25 -62q0 -43 -28.5 -63t-70.5 -20z" />
    <glyph glyph-name="cedilla" unicode="&#xb8;" horiz-adv-x="384" 
d="M229 -44q39 0 59.5 -19t20.5 -52q0 -64 -56 -103.5t-118 -39.5q-38 0 -51.5 9t-13.5 37q0 15 7 31q64 -4 104.5 14.5t40.5 49.5q0 19 -20 19q-17 0 -41 -24q-29 19 -46 46q1 5 27 98l58 -9l-21 -72q22 15 50 15z" />
    <glyph glyph-name="guillemotright" unicode="&#xbb;" horiz-adv-x="644" 
d="M353 276l9 -61q-159 -95 -197 -232q-52 -9 -80.5 4.5t-28.5 41.5q0 91 210 215q-82 40 -127 79t-45 85q0 35 22 52.5t72 27.5q5 -43 23 -79t48.5 -63.5t47.5 -40t46 -29.5zM593 276l9 -61q-159 -95 -197 -232q-52 -9 -80.5 4.5t-28.5 41.5q0 91 210 215q-82 40 -127 79
t-45 85q0 35 22 52.5t72 27.5q5 -43 23 -79t48.5 -63.5t47.5 -40t46 -29.5z" />
    <glyph glyph-name="questiondown" unicode="&#xbf;" horiz-adv-x="527" 
d="M279 499q38 0 66 -20t28 -63q0 -39 -25.5 -62t-60.5 -23q-34 0 -58.5 21.5t-24.5 67.5q0 79 75 79zM226 254q52 32 84 24.5t46 -32t14 -58.5q0 -41 -19.5 -75.5t-47 -59t-55.5 -48t-47.5 -55t-19.5 -67.5q0 -87 88 -87q74 0 88 73q4 20 0 57q22 14 50 16.5t48 -7.5
q34 -16 32 -63q-2 -78 -57 -121t-160 -43q-103 0 -159 44t-56 125q0 39 14 71t35.5 51.5t46 39.5t46 36.5t35.5 41.5t14 55q0 22 -20 82z" />
    <glyph glyph-name="Agrave" unicode="&#xc0;" horiz-adv-x="710" 
d="M357 820l-114 123q-17 18 -17 41q0 27 22 42q19 13 63 15q18 -35 90 -145q15 -25 2.5 -45.5t-46.5 -30.5zM478 679l212 -663q-52 -23 -98 -23q-9 0 -16 1.5t-13 3t-11 6t-8.5 6.5t-7.5 9t-5.5 9t-5 11.5t-4 11.5t-4 13t-3.5 13l-40 136l-262 -4l-5 -18q-33 -108 -45 -191
q-37 -8 -75 -8q-32 0 -52.5 20.5t-6.5 63.5l189 593q12 39 19 71q70 10 120 10q49 0 79 -15.5t43 -55.5zM242 307l204 -1l-14 48q-12 43 -41 152t-41 151h-4l-90 -303z" />
    <glyph glyph-name="Aacute" unicode="&#xc1;" horiz-adv-x="710" 
d="M311 820q-34 10 -46.5 30.5t2.5 45.5q72 110 90 145q44 -2 63 -15q22 -15 22 -42q0 -23 -17 -41zM478 679l212 -663q-52 -23 -98 -23q-9 0 -16 1.5t-13 3t-11 6t-8.5 6.5t-7.5 9t-5.5 9t-5 11.5t-4 11.5t-4 13t-3.5 13l-40 136l-262 -4l-5 -18q-33 -108 -45 -191
q-37 -8 -75 -8q-32 0 -52.5 20.5t-6.5 63.5l189 593q12 39 19 71q70 10 120 10q49 0 79 -15.5t43 -55.5zM242 307l204 -1l-14 48q-12 43 -41 152t-41 151h-4l-90 -303z" />
    <glyph glyph-name="Acircumflex" unicode="&#xc2;" horiz-adv-x="710" 
d="M251 837q-17 -17 -40 -19.5t-36 11.5q-16 16 -27 47q42 41 119 124q30 32 70 32q35 0 63 -32q64 -72 116 -123q-9 -29 -26 -44t-36 -15q-25 0 -48 25q-42 45 -75 103q-43 -73 -80 -109zM478 679l212 -663q-52 -23 -98 -23q-9 0 -16 1.5t-13 3t-11 6t-8.5 6.5t-7.5 9
t-5.5 9t-5 11.5t-4 11.5t-4 13t-3.5 13l-40 136l-262 -4l-5 -18q-33 -108 -45 -191q-37 -8 -75 -8q-32 0 -52.5 20.5t-6.5 63.5l189 593q12 39 19 71q70 10 120 10q49 0 79 -15.5t43 -55.5zM242 307l204 -1l-14 48q-12 43 -41 152t-41 151h-4l-90 -303z" />
    <glyph glyph-name="Atilde" unicode="&#xc3;" horiz-adv-x="710" 
d="M212 826q-49 0 -49 58q0 38 24 63.5t69 25.5q36 0 62.5 -18.5t46.5 -37t40 -18.5q28 0 28 32q0 13 -9 33q18 11 38 11q49 0 49 -57q0 -36 -24 -63t-70 -27q-35 0 -61 18.5t-46.5 37t-40.5 18.5q-28 0 -28 -32q0 -14 9 -33q-18 -11 -38 -11zM478 679l212 -663
q-52 -23 -98 -23q-9 0 -16 1.5t-13 3t-11 6t-8.5 6.5t-7.5 9t-5.5 9t-5 11.5t-4 11.5t-4 13t-3.5 13l-40 136l-262 -4l-5 -18q-33 -108 -45 -191q-37 -8 -75 -8q-32 0 -52.5 20.5t-6.5 63.5l189 593q12 39 19 71q70 10 120 10q49 0 79 -15.5t43 -55.5zM242 307l204 -1
l-14 48q-12 43 -41 152t-41 151h-4l-90 -303z" />
    <glyph glyph-name="Adieresis" unicode="&#xc4;" horiz-adv-x="710" 
d="M227 835q-63 0 -63 69q0 31 19.5 48t53.5 17q64 0 64 -69q0 -65 -74 -65zM433 835q-62 0 -62 69q0 30 19.5 47.5t52.5 17.5q64 0 64 -69q0 -65 -74 -65zM478 679l212 -663q-52 -23 -98 -23q-9 0 -16 1.5t-13 3t-11 6t-8.5 6.5t-7.5 9t-5.5 9t-5 11.5t-4 11.5t-4 13
t-3.5 13l-40 136l-262 -4l-5 -18q-33 -108 -45 -191q-37 -8 -75 -8q-32 0 -52.5 20.5t-6.5 63.5l189 593q12 39 19 71q70 10 120 10q49 0 79 -15.5t43 -55.5zM242 307l204 -1l-14 48q-12 43 -41 152t-41 151h-4l-90 -303z" />
    <glyph glyph-name="Aring" unicode="&#xc5;" horiz-adv-x="710" 
d="M342 825q-61 0 -97 30.5t-36 83.5q0 51 36.5 82t96.5 31q61 0 97.5 -30.5t36.5 -82.5q0 -51 -37 -82.5t-97 -31.5zM343 998q-43 0 -43 -59q0 -60 43 -60t43 60q0 59 -43 59zM478 679l212 -663q-52 -23 -98 -23q-9 0 -16 1.5t-13 3t-11 6t-8.5 6.5t-7.5 9t-5.5 9t-5 11.5
t-4 11.5t-4 13t-3.5 13l-40 136l-262 -4l-5 -18q-33 -108 -45 -191q-37 -8 -75 -8q-32 0 -52.5 20.5t-6.5 63.5l189 593q12 39 19 71q70 10 120 10q49 0 79 -15.5t43 -55.5zM242 307l204 -1l-14 48q-12 43 -41 152t-41 151h-4l-90 -303z" />
    <glyph glyph-name="Ccedilla" unicode="&#xc7;" horiz-adv-x="661" 
d="M376 -10q-164 0 -249 94.5t-85 283.5q0 169 83 275.5t232 106.5q259 0 259 -212q0 -57 -11.5 -77.5t-40.5 -27.5q-37 -9 -94 8q4 31 4 88q0 115 -114 115q-75 0 -119 -75.5t-44 -197.5q0 -136 46.5 -205.5t150.5 -69.5q55 0 94.5 23t85.5 68q28 -13 41.5 -29t12.5 -42
q0 -23 -35 -51q-27 -22 -48 -35.5t-66.5 -26.5t-102.5 -13zM289 -256q-39 0 -55 9.5t-16 33.5q0 23 7 39q133 -8 133 43q0 44 -95 26l-2 44q41 16 94 16q48 0 75 -24t27 -62q0 -59 -52 -92t-116 -33z" />
    <glyph glyph-name="Egrave" unicode="&#xc8;" horiz-adv-x="598" 
d="M343 825l-114 123q-17 18 -17 41q0 27 22 42q19 13 63 15q18 -35 90 -145q15 -25 2.5 -45.5t-46.5 -30.5zM175 0q-87 0 -87 104v471q0 40 18 59h-64q-11 12 -15 37.5t3.5 47t26.5 21.5l489 2q6 -70 -5 -90q-11 -19 -56 -19h-252v-254q16 32 57 32l203 2q4 -28 5 -38
t-0.5 -22t-7.5 -21q-12 -18 -52 -17l-205 4v-214h243q57 0 89 4q6 -29 6 -56q0 -19 -5.5 -30.5t-17 -16t-19.5 -5.5t-22 -1h-332z" />
    <glyph glyph-name="Eacute" unicode="&#xc9;" horiz-adv-x="598" 
d="M297 825q-34 10 -46.5 30.5t2.5 45.5q72 110 90 145q44 -2 63 -15q22 -15 22 -42q0 -23 -17 -41zM175 0q-87 0 -87 104v471q0 40 18 59h-64q-11 12 -15 37.5t3.5 47t26.5 21.5l489 2q6 -70 -5 -90q-11 -19 -56 -19h-252v-254q16 32 57 32l203 2q4 -28 5 -38t-0.5 -22
t-7.5 -21q-12 -18 -52 -17l-205 4v-214h243q57 0 89 4q6 -29 6 -56q0 -19 -5.5 -30.5t-17 -16t-19.5 -5.5t-22 -1h-332z" />
    <glyph glyph-name="Ecircumflex" unicode="&#xca;" horiz-adv-x="598" 
d="M237 842q-17 -17 -40 -19.5t-36 11.5q-16 16 -27 47q42 41 119 124q30 32 70 32q35 0 63 -32q64 -72 116 -123q-9 -29 -26 -44t-36 -15q-25 0 -48 25q-42 45 -75 103q-43 -73 -80 -109zM565 109q6 -29 6 -56q0 -19 -5.5 -30.5t-17 -16t-19.5 -5.5t-22 -1h-332
q-87 0 -87 104v471q0 40 18 59h-64q-11 12 -15 37.5t3.5 47t26.5 21.5l489 2q6 -70 -5 -90q-11 -19 -56 -19h-252v-254q16 32 57 32l203 2q4 -28 5 -38t-0.5 -22t-7.5 -21q-12 -18 -52 -17l-205 4v-214h243q57 0 89 4z" />
    <glyph glyph-name="Edieresis" unicode="&#xcb;" horiz-adv-x="598" 
d="M213 840q-63 0 -63 69q0 31 19.5 48t53.5 17q64 0 64 -69q0 -65 -74 -65zM419 840q-62 0 -62 69q0 30 19.5 47.5t52.5 17.5q64 0 64 -69q0 -65 -74 -65zM175 0q-87 0 -87 104v471q0 40 18 59h-64q-11 12 -15 37.5t3.5 47t26.5 21.5l489 2q6 -70 -5 -90q-11 -19 -56 -19
h-252v-254q16 32 57 32l203 2q4 -28 5 -38t-0.5 -22t-7.5 -21q-12 -18 -52 -17l-205 4v-214h243q57 0 89 4q6 -29 6 -56q0 -19 -5.5 -30.5t-17 -16t-19.5 -5.5t-22 -1h-332z" />
    <glyph glyph-name="Igrave" unicode="&#xcc;" horiz-adv-x="442" 
d="M241 816l-114 123q-17 18 -17 41q0 27 22 42q19 13 63 15q18 -35 90 -145q15 -25 2.5 -45.5t-46.5 -30.5zM293 105h91q13 -26 9.5 -65.5t-27.5 -39.5h-312q-13 28 -9 66.5t25 38.5h83l-5 530h-94q-13 29 -9 67t25 38h314q13 -26 9.5 -65.5t-27.5 -39.5h-77z" />
    <glyph glyph-name="Iacute" unicode="&#xcd;" horiz-adv-x="442" 
d="M195 816q-34 10 -46.5 30.5t2.5 45.5q72 110 90 145q44 -2 63 -15q22 -15 22 -42q0 -23 -17 -41zM293 105h91q13 -26 9.5 -65.5t-27.5 -39.5h-312q-13 28 -9 66.5t25 38.5h83l-5 530h-94q-13 29 -9 67t25 38h314q13 -26 9.5 -65.5t-27.5 -39.5h-77z" />
    <glyph glyph-name="Icircumflex" unicode="&#xce;" horiz-adv-x="442" 
d="M135 833q-17 -17 -40 -19.5t-36 11.5q-16 16 -27 47q42 41 119 124q30 32 70 32q35 0 63 -32q64 -72 116 -123q-9 -29 -26 -44t-36 -15q-25 0 -48 25q-42 45 -75 103q-43 -72 -80 -109zM366 635h-77l4 -530h91q13 -26 9.5 -65.5t-27.5 -39.5h-312q-13 28 -9 66.5t25 38.5
h83l-5 530h-94q-13 29 -9 67t25 38h314q13 -26 9.5 -65.5t-27.5 -39.5z" />
    <glyph glyph-name="Idieresis" unicode="&#xcf;" horiz-adv-x="442" 
d="M111 831q-63 0 -63 69q0 31 19.5 48t53.5 17q64 0 64 -69q0 -65 -74 -65zM317 831q-62 0 -62 69q0 30 19.5 47.5t52.5 17.5q64 0 64 -69q0 -65 -74 -65zM293 105h91q13 -26 9.5 -65.5t-27.5 -39.5h-312q-13 28 -9 66.5t25 38.5h83l-5 530h-94q-13 29 -9 67t25 38h314
q13 -26 9.5 -65.5t-27.5 -39.5h-77z" />
    <glyph glyph-name="Eth" unicode="&#xd0;" horiz-adv-x="753" 
d="M340 740q177 0 270 -90.5t93 -272.5q0 -196 -94 -286.5t-274 -90.5h-141q-75 0 -75 67v233q-32 0 -48 1q-18 1 -20.5 38.5t11.5 61.5q38 -2 57 -2v178q0 38 24 57h-60q-18 17 -14 61.5t32 44.5h239zM355 106q200 0 200 271q0 257 -200 257h-91v-227q42 3 80 3
q25 0 29.5 -39t-7.5 -60q-30 0 -102 -4v-201h91z" />
    <glyph glyph-name="Ntilde" unicode="&#xd1;" horiz-adv-x="746" 
d="M249 816q-49 0 -49 58q0 38 24 63.5t69 25.5q36 0 62.5 -18.5t46.5 -37t40 -18.5q28 0 28 32q0 13 -9 33q18 11 38 11q49 0 49 -57q0 -36 -24 -63t-70 -27q-35 0 -61 18.5t-46.5 37t-40.5 18.5q-28 0 -28 -32q0 -14 9 -33q-18 -11 -38 -11zM152 -10q-72 0 -72 60l2 310
l-8 380q35 10 88 10q37 0 54.5 -8.5t32.5 -32.5l214 -351q33 -58 79 -155l2 1q-10 133 -11 234l-2 302q36 10 70 10q29 0 44.5 -7t18 -13.5t2.5 -16.5v-325l6 -388q-67 -16 -115 -6q-26 6 -46 39l-204 339q-62 104 -107 197l-2 -1q15 -143 15 -253v-315q-35 -10 -61 -10z
" />
    <glyph glyph-name="Ograve" unicode="&#xd2;" horiz-adv-x="738" 
d="M389 820l-114 123q-17 18 -17 41q0 27 22 42q19 13 63 15q18 -35 90 -145q15 -25 2.5 -45.5t-46.5 -30.5zM369 -10q-155 0 -241.5 103t-86.5 280q0 175 86.5 276t241.5 101t241.5 -101.5t86.5 -275.5t-87 -278.5t-241 -104.5zM369 96q174 0 174 277q0 271 -174 271
t-174 -271q0 -126 41.5 -201.5t132.5 -75.5z" />
    <glyph glyph-name="Oacute" unicode="&#xd3;" horiz-adv-x="738" 
d="M343 820q-34 10 -46.5 30.5t2.5 45.5q72 110 90 145q44 -2 63 -15q22 -15 22 -42q0 -23 -17 -41zM369 -10q-155 0 -241.5 103t-86.5 280q0 175 86.5 276t241.5 101t241.5 -101.5t86.5 -275.5t-87 -278.5t-241 -104.5zM369 96q174 0 174 277q0 271 -174 271t-174 -271
q0 -126 41.5 -201.5t132.5 -75.5z" />
    <glyph glyph-name="Ocircumflex" unicode="&#xd4;" horiz-adv-x="738" 
d="M283 837q-17 -17 -40 -19.5t-36 11.5q-16 16 -27 47q42 41 119 124q30 32 70 32q35 0 63 -32q64 -72 116 -123q-9 -29 -26 -44t-36 -15q-25 0 -48 25q-42 45 -75 103q-44 -73 -80 -109zM369 750q155 0 241.5 -101.5t86.5 -275.5t-87 -278.5t-241 -104.5
q-155 0 -241.5 103t-86.5 280q0 175 86.5 276t241.5 101zM369 96q174 0 174 277q0 271 -174 271t-174 -271q0 -126 41.5 -201.5t132.5 -75.5z" />
    <glyph glyph-name="Otilde" unicode="&#xd5;" horiz-adv-x="738" 
d="M244 826q-49 0 -49 58q0 38 24 63.5t69 25.5q36 0 62.5 -18.5t46.5 -37t40 -18.5q28 0 28 32q0 13 -9 33q18 11 38 11q49 0 49 -57q0 -36 -24 -63t-70 -27q-35 0 -61 18.5t-46.5 37t-40.5 18.5q-28 0 -28 -32q0 -14 9 -33q-18 -11 -38 -11zM369 -10q-155 0 -241.5 103
t-86.5 280q0 175 86.5 276t241.5 101t241.5 -101.5t86.5 -275.5t-87 -278.5t-241 -104.5zM369 96q174 0 174 277q0 271 -174 271t-174 -271q0 -126 41.5 -201.5t132.5 -75.5z" />
    <glyph glyph-name="Odieresis" unicode="&#xd6;" horiz-adv-x="738" 
d="M259 835q-63 0 -63 69q0 31 19.5 48t53.5 17q64 0 64 -69q0 -65 -74 -65zM465 835q-62 0 -62 69q0 30 19.5 47.5t52.5 17.5q64 0 64 -69q0 -65 -74 -65zM369 -10q-155 0 -241.5 103t-86.5 280q0 175 86.5 276t241.5 101t241.5 -101.5t86.5 -275.5t-87 -278.5t-241 -104.5
zM369 96q174 0 174 277q0 271 -174 271t-174 -271q0 -126 41.5 -201.5t132.5 -75.5z" />
    <glyph glyph-name="Oslash" unicode="&#xd8;" horiz-adv-x="738" 
d="M534 711q79 -44 121 -131t42 -207q0 -174 -87 -278.5t-241 -104.5q-35 0 -67 6q-5 -16 -13.5 -46t-11.5 -40q-43 -11 -75 6.5t-21 47.5l24 65q-79 44 -121.5 133t-42.5 211q0 175 86.5 276t241.5 101q38 0 71 -6l24 81q48 8 76 -7.5t17 -45.5q-4 -10 -11.5 -30.5
t-11.5 -30.5zM195 373q0 -149 54 -221q77 218 160 488q-17 4 -40 4q-174 0 -174 -271zM369 96q174 0 174 277q0 149 -52 217q-82 -236 -158 -490q15 -4 36 -4z" />
    <glyph glyph-name="Ugrave" unicode="&#xd9;" horiz-adv-x="687" 
d="M364 810l-114 123q-17 18 -17 41q0 27 22 42q19 13 63 15q18 -35 90 -145q15 -25 2.5 -45.5t-46.5 -30.5zM336 -10q-276 0 -276 307v443q40 10 78 10q23 0 38 -4.5t20 -13t6.5 -14t1.5 -13.5v-403q0 -49 6 -83.5t20.5 -64t43 -44t71.5 -14.5q84 0 111.5 51t27.5 153v440
q30 10 67 10q77 0 77 -46v-407q0 -307 -292 -307z" />
    <glyph glyph-name="Uacute" unicode="&#xda;" horiz-adv-x="687" 
d="M318 810q-34 10 -46.5 30.5t2.5 45.5q72 110 90 145q44 -2 63 -15q22 -15 22 -42q0 -23 -17 -41zM336 -10q-276 0 -276 307v443q40 10 78 10q23 0 38 -4.5t20 -13t6.5 -14t1.5 -13.5v-403q0 -49 6 -83.5t20.5 -64t43 -44t71.5 -14.5q84 0 111.5 51t27.5 153v440
q30 10 67 10q77 0 77 -46v-407q0 -307 -292 -307z" />
    <glyph glyph-name="Ucircumflex" unicode="&#xdb;" horiz-adv-x="687" 
d="M258 827q-17 -17 -40 -19.5t-36 11.5q-16 16 -27 47q42 41 119 124q30 32 70 32q35 0 63 -32q64 -72 116 -123q-9 -29 -26 -44t-36 -15q-25 0 -48 25q-42 45 -75 103q-44 -73 -80 -109zM551 750q77 0 77 -46v-407q0 -307 -292 -307q-276 0 -276 307v443q40 10 78 10
q23 0 38 -4.5t20 -13t6.5 -14t1.5 -13.5v-403q0 -49 6 -83.5t20.5 -64t43 -44t71.5 -14.5q84 0 111.5 51t27.5 153v440q30 10 67 10z" />
    <glyph glyph-name="Udieresis" unicode="&#xdc;" horiz-adv-x="687" 
d="M234 825q-63 0 -63 69q0 31 19.5 48t53.5 17q64 0 64 -69q0 -65 -74 -65zM440 825q-62 0 -62 69q0 30 19.5 47.5t52.5 17.5q64 0 64 -69q0 -65 -74 -65zM336 -10q-276 0 -276 307v443q40 10 78 10q23 0 38 -4.5t20 -13t6.5 -14t1.5 -13.5v-403q0 -49 6 -83.5t20.5 -64
t43 -44t71.5 -14.5q84 0 111.5 51t27.5 153v440q30 10 67 10q77 0 77 -46v-407q0 -307 -292 -307z" />
    <glyph glyph-name="Yacute" unicode="&#xdd;" horiz-adv-x="671" 
d="M285 810q-34 10 -46.5 30.5t2.5 45.5q72 110 90 145q44 -2 63 -15q22 -15 22 -42q0 -23 -17 -41zM637 695q0 -39 -32 -98q-46 -88 -180 -311l6 -286q-47 -9 -82 -9q-69 0 -67 52l5 243q-81 137 -253 412q45 52 101 52q39 0 57 -29q70 -113 167 -301q145 265 149 320
q34 10 65 10q29 0 46.5 -15t17.5 -40z" />
    <glyph glyph-name="Thorn" unicode="&#xde;" horiz-adv-x="591" 
d="M271 597q144 0 216.5 -55.5t72.5 -172.5q0 -113 -71.5 -174.5t-209.5 -61.5q-63 0 -102 47v-180q-42 -6 -78 -6q-64 0 -64 42v704q29 10 75 10q69 0 69 -48v-105h92zM272 229q59 0 96.5 38t37.5 110q0 55 -36 89.5t-91 34.5h-100v-267q38 -5 93 -5z" />
    <glyph glyph-name="germandbls" unicode="&#xdf;" horiz-adv-x="673" 
d="M146 -6q-71 0 -71 37v466q0 52 11 94t26.5 68t41 45t45.5 27.5t49.5 13.5t43 5.5t35.5 0.5q99 0 152.5 -42t53.5 -103q0 -35 -16 -64t-34.5 -45t-34.5 -38.5t-16 -46.5q0 -11 3 -19.5t13 -16t13.5 -9.5t19.5 -10q87 -46 120.5 -87.5t33.5 -101.5q0 -178 -237 -178
q-55 0 -84 13q-35 15 -36 51t24 67q61 -32 109 -32q80 0 80 60q0 19 -7.5 34.5t-23.5 28.5t-29.5 21.5t-35 20t-31.5 17.5q-60 39 -60 112q0 37 13.5 67.5t30 47t30 39t13.5 46.5q0 30 -19 53t-64 23q-101 0 -101 -143v-516q-32 -6 -61 -6z" />
    <glyph glyph-name="agrave" unicode="&#xe0;" horiz-adv-x="580" 
d="M310 560l-114 123q-17 18 -17 41q0 27 22 42q19 13 63 15q18 -35 90 -145q15 -25 2.5 -45.5t-46.5 -30.5zM231 -10q-28 0 -53.5 5.5t-53 22t-47.5 43t-33 71t-13 103.5q0 64 16 113.5t40.5 77.5t57.5 45.5t61 23t58 5.5q91 0 134 -64v54q38 6 69 6q64 0 64 -60
q0 -29 -6.5 -89.5t-8.5 -85.5l14 -249q-36 -18 -73 -18q-32 0 -47.5 14t-13.5 38l5 71h-1q-34 -71 -75 -99t-94 -28zM272 78q41 0 63 25.5t54 90.5v196q-42 22 -82 22q-132 0 -132 -176q0 -158 97 -158z" />
    <glyph glyph-name="aacute" unicode="&#xe1;" horiz-adv-x="580" 
d="M264 560q-34 10 -46.5 30.5t2.5 45.5q72 110 90 145q44 -2 63 -15q22 -15 22 -42q0 -23 -17 -41zM231 -10q-28 0 -53.5 5.5t-53 22t-47.5 43t-33 71t-13 103.5q0 64 16 113.5t40.5 77.5t57.5 45.5t61 23t58 5.5q91 0 134 -64v54q38 6 69 6q64 0 64 -60q0 -29 -6.5 -89.5
t-8.5 -85.5l14 -249q-36 -18 -73 -18q-32 0 -47.5 14t-13.5 38l5 71h-1q-34 -71 -75 -99t-94 -28zM272 78q41 0 63 25.5t54 90.5v196q-42 22 -82 22q-132 0 -132 -176q0 -158 97 -158z" />
    <glyph glyph-name="acircumflex" unicode="&#xe2;" horiz-adv-x="580" 
d="M204 577q-17 -17 -40 -19.5t-36 11.5q-16 16 -27 47q42 41 119 124q30 32 70 32q35 0 63 -32q64 -72 116 -123q-9 -29 -26 -44t-36 -15q-25 0 -48 25q-42 45 -75 103q-43 -72 -80 -109zM531 436q0 -29 -6.5 -89.5t-8.5 -85.5l14 -249q-36 -18 -73 -18q-32 0 -47.5 14
t-13.5 38l5 71h-1q-34 -71 -75 -99t-94 -28q-28 0 -53.5 5.5t-53 22t-47.5 43t-33 71t-13 103.5q0 64 16 113.5t40.5 77.5t57.5 45.5t61 23t58 5.5q91 0 134 -64v54q38 6 69 6q64 0 64 -60zM389 194v196q-42 22 -82 22q-132 0 -132 -176q0 -158 97 -158q41 0 63 25.5
t54 90.5z" />
    <glyph glyph-name="atilde" unicode="&#xe3;" horiz-adv-x="580" 
d="M165 566q-49 0 -49 58q0 38 24 63.5t69 25.5q36 0 62.5 -18.5t46.5 -37t40 -18.5q28 0 28 32q0 13 -9 33q18 11 38 11q49 0 49 -57q0 -36 -24 -63t-70 -27q-35 0 -61 18.5t-46.5 37t-40.5 18.5q-28 0 -28 -32q0 -14 9 -33q-18 -11 -38 -11zM231 -10q-28 0 -53.5 5.5
t-53 22t-47.5 43t-33 71t-13 103.5q0 64 16 113.5t40.5 77.5t57.5 45.5t61 23t58 5.5q91 0 134 -64v54q38 6 69 6q64 0 64 -60q0 -29 -6.5 -89.5t-8.5 -85.5l14 -249q-36 -18 -73 -18q-32 0 -47.5 14t-13.5 38l5 71h-1q-34 -71 -75 -99t-94 -28zM272 78q41 0 63 25.5
t54 90.5v196q-42 22 -82 22q-132 0 -132 -176q0 -158 97 -158z" />
    <glyph glyph-name="adieresis" unicode="&#xe4;" horiz-adv-x="580" 
d="M180 575q-63 0 -63 69q0 31 19.5 48t53.5 17q64 0 64 -69q0 -65 -74 -65zM386 575q-62 0 -62 69q0 30 19.5 47.5t52.5 17.5q64 0 64 -69q0 -65 -74 -65zM231 -10q-28 0 -53.5 5.5t-53 22t-47.5 43t-33 71t-13 103.5q0 64 16 113.5t40.5 77.5t57.5 45.5t61 23t58 5.5
q91 0 134 -64v54q38 6 69 6q64 0 64 -60q0 -29 -6.5 -89.5t-8.5 -85.5l14 -249q-36 -18 -73 -18q-32 0 -47.5 14t-13.5 38l5 71h-1q-34 -71 -75 -99t-94 -28zM272 78q41 0 63 25.5t54 90.5v196q-42 22 -82 22q-132 0 -132 -176q0 -158 97 -158z" />
    <glyph glyph-name="aring" unicode="&#xe5;" horiz-adv-x="580" 
d="M295 565q-61 0 -97 30.5t-36 83.5q0 51 36.5 82t96.5 31q61 0 97.5 -30.5t36.5 -82.5q0 -51 -37 -82.5t-97 -31.5zM296 619q43 0 43 60q0 59 -43 59t-43 -59q0 -60 43 -60zM231 -10q-28 0 -53.5 5.5t-53 22t-47.5 43t-33 71t-13 103.5q0 64 16 113.5t40.5 77.5t57.5 45.5
t61 23t58 5.5q91 0 134 -64v54q38 6 69 6q64 0 64 -60q0 -29 -6.5 -89.5t-8.5 -85.5l14 -249q-36 -18 -73 -18q-32 0 -47.5 14t-13.5 38l5 71h-1q-34 -71 -75 -99t-94 -28zM272 78q41 0 63 25.5t54 90.5v196q-42 22 -82 22q-132 0 -132 -176q0 -158 97 -158z" />
    <glyph glyph-name="ccedilla" unicode="&#xe7;" horiz-adv-x="488" 
d="M276 -10q-119 0 -182 64t-63 185q0 127 60.5 194t168.5 67q192 0 192 -152q0 -54 -38 -67q-46 -15 -91 2q2 37 1 49q-5 82 -62 82q-41 0 -65 -38.5t-24 -140.5q0 -73 30 -115.5t79 -42.5q32 0 59.5 10t40.5 19t45 33q30 -21 30 -52q0 -23 -14 -36q-56 -61 -167 -61z
M202 -256q-39 0 -55 9.5t-16 33.5q0 23 7 39q133 -8 133 43q0 44 -95 26l-2 44q41 16 94 16q48 0 75 -24t27 -62q0 -59 -52 -92t-116 -33z" />
    <glyph glyph-name="egrave" unicode="&#xe8;" horiz-adv-x="503" 
d="M285 560l-114 123q-17 18 -17 41q0 27 22 42q19 13 63 15q18 -35 90 -145q15 -25 2.5 -45.5t-46.5 -30.5zM440 132q11 -8 20.5 -23t9.5 -30q0 -21 -14 -36q-60 -53 -172 -53q-116 0 -184.5 65.5t-68.5 190.5q0 116 62 185t176 69q198 0 198 -147q0 -128 -158 -152
q-41 -6 -89 -3q-34 2 -45 25q12 -146 118 -146q32 0 59.5 9t41 17t46.5 29zM267 414q-48 0 -70 -42.5t-23 -108.5q85 0 121 19t36 68q0 64 -64 64z" />
    <glyph glyph-name="eacute" unicode="&#xe9;" horiz-adv-x="503" 
d="M239 560q-34 10 -46.5 30.5t2.5 45.5q72 110 90 145q44 -2 63 -15q22 -15 22 -42q0 -23 -17 -41zM440 132q11 -8 20.5 -23t9.5 -30q0 -21 -14 -36q-60 -53 -172 -53q-116 0 -184.5 65.5t-68.5 190.5q0 116 62 185t176 69q198 0 198 -147q0 -128 -158 -152q-41 -6 -89 -3
q-34 2 -45 25q12 -146 118 -146q32 0 59.5 9t41 17t46.5 29zM267 414q-48 0 -70 -42.5t-23 -108.5q85 0 121 19t36 68q0 64 -64 64z" />
    <glyph glyph-name="ecircumflex" unicode="&#xea;" horiz-adv-x="503" 
d="M179 577q-17 -17 -40 -19.5t-36 11.5q-16 16 -27 47q42 41 119 124q30 32 70 32q35 0 63 -32q64 -72 116 -123q-9 -29 -26 -44t-36 -15q-25 0 -48 25q-42 45 -75 103q-43 -72 -80 -109zM440 132q11 -8 20.5 -23t9.5 -30q0 -21 -14 -36q-60 -53 -172 -53
q-116 0 -184.5 65.5t-68.5 190.5q0 116 62 185t176 69q198 0 198 -147q0 -128 -158 -152q-41 -6 -89 -3q-34 2 -45 25q12 -146 118 -146q32 0 59.5 9t41 17t46.5 29zM267 414q-48 0 -70 -42.5t-23 -108.5q85 0 121 19t36 68q0 64 -64 64z" />
    <glyph glyph-name="edieresis" unicode="&#xeb;" horiz-adv-x="503" 
d="M155 575q-63 0 -63 69q0 31 19.5 48t53.5 17q64 0 64 -69q0 -65 -74 -65zM361 575q-62 0 -62 69q0 30 19.5 47.5t52.5 17.5q64 0 64 -69q0 -65 -74 -65zM440 132q11 -8 20.5 -23t9.5 -30q0 -21 -14 -36q-60 -53 -172 -53q-116 0 -184.5 65.5t-68.5 190.5q0 116 62 185
t176 69q198 0 198 -147q0 -128 -158 -152q-41 -6 -89 -3q-34 2 -45 25q12 -146 118 -146q32 0 59.5 9t41 17t46.5 29zM267 414q-48 0 -70 -42.5t-23 -108.5q85 0 121 19t36 68q0 64 -64 64z" />
    <glyph glyph-name="igrave" unicode="&#xec;" horiz-adv-x="262" 
d="M151 560l-114 123q-17 18 -17 41q0 27 22 42q19 13 63 15q18 -35 90 -145q15 -25 2.5 -45.5t-46.5 -30.5zM131 -6q-24 0 -38.5 3.5t-20 10t-7 11t-1.5 11.5v460q38 8 72 8q62 0 62 -37v-461q-28 -6 -67 -6z" />
    <glyph glyph-name="iacute" unicode="&#xed;" horiz-adv-x="262" 
d="M105 560q-34 10 -46.5 30.5t2.5 45.5q72 110 90 145q44 -2 63 -15q22 -15 22 -42q0 -23 -17 -41zM131 -6q-24 0 -38.5 3.5t-20 10t-7 11t-1.5 11.5v460q38 8 72 8q62 0 62 -37v-461q-28 -6 -67 -6z" />
    <glyph glyph-name="icircumflex" unicode="&#xee;" horiz-adv-x="262" 
d="M194 740q64 -72 116 -123q-9 -29 -26 -44t-36 -15q-25 0 -48 25q-42 45 -75 103q-43 -72 -80 -109q-17 -17 -40 -19.5t-36 11.5q-16 16 -27 47q42 41 119 124q30 32 70 32q35 0 63 -32zM136 498q62 0 62 -37v-461q-28 -6 -67 -6q-24 0 -38.5 3.5t-20 10t-7 11t-1.5 11.5
v460q38 8 72 8z" />
    <glyph glyph-name="idieresis" unicode="&#xef;" horiz-adv-x="262" 
d="M21 575q-63 0 -63 69q0 31 19.5 48t53.5 17q64 0 64 -69q0 -65 -74 -65zM227 575q-62 0 -62 69q0 30 19.5 47.5t52.5 17.5q64 0 64 -69q0 -65 -74 -65zM131 -6q-24 0 -38.5 3.5t-20 10t-7 11t-1.5 11.5v460q38 8 72 8q62 0 62 -37v-461q-28 -6 -67 -6z" />
    <glyph glyph-name="ntilde" unicode="&#xf1;" horiz-adv-x="565" 
d="M158 566q-49 0 -49 58q0 38 24 63.5t69 25.5q36 0 62.5 -18.5t46.5 -37t40 -18.5q28 0 28 32q0 13 -9 33q18 11 38 11q49 0 49 -57q0 -36 -24 -63t-70 -27q-35 0 -61 18.5t-46.5 37t-40.5 18.5q-28 0 -28 -32q0 -14 9 -33q-18 -11 -38 -11zM118 -5q-27 0 -44.5 17.5
t-17.5 51.5t13 153q0 157 -15 263q38 16 76 16q28 0 43 -14.5t14 -36.5l-2 -65h2q62 120 168 120q152 0 152 -164v-191q0 -49 10 -135q-39 -15 -73 -15q-22 0 -37.5 5.5t-22 10t-10 17.5t-3.5 16v18q0 32 2 128.5t2 145.5q0 39 -14.5 57.5t-46.5 18.5q-36 0 -62 -28.5
t-58 -109.5v-274q-28 -5 -76 -5z" />
    <glyph glyph-name="ograve" unicode="&#xf2;" horiz-adv-x="551" 
d="M292 550l-114 123q-17 18 -17 41q0 27 22 42q19 13 63 15q18 -35 90 -145q15 -25 2.5 -45.5t-46.5 -30.5zM278 -10q-30 0 -59.5 5.5t-64.5 22.5t-61.5 44t-44 74.5t-17.5 109.5q0 76 25.5 130t66.5 79t77.5 35t73.5 10t74 -10t78.5 -35t67.5 -79t26 -130
q0 -62 -17.5 -109.5t-43.5 -74.5t-60.5 -44t-63.5 -22.5t-57 -5.5zM277 77q99 0 99 169q0 166 -101 166q-100 0 -100 -166q0 -80 25.5 -124.5t76.5 -44.5z" />
    <glyph glyph-name="oacute" unicode="&#xf3;" horiz-adv-x="551" 
d="M246 550q-34 10 -46.5 30.5t2.5 45.5q72 110 90 145q44 -2 63 -15q22 -15 22 -42q0 -23 -17 -41zM278 -10q-30 0 -59.5 5.5t-64.5 22.5t-61.5 44t-44 74.5t-17.5 109.5q0 76 25.5 130t66.5 79t77.5 35t73.5 10t74 -10t78.5 -35t67.5 -79t26 -130q0 -62 -17.5 -109.5
t-43.5 -74.5t-60.5 -44t-63.5 -22.5t-57 -5.5zM277 77q99 0 99 169q0 166 -101 166q-100 0 -100 -166q0 -80 25.5 -124.5t76.5 -44.5z" />
    <glyph glyph-name="ocircumflex" unicode="&#xf4;" horiz-adv-x="551" 
d="M186 567q-17 -17 -40 -19.5t-36 11.5q-16 16 -27 47q42 41 119 124q30 32 70 32q35 0 63 -32q64 -72 116 -123q-9 -29 -26 -44t-36 -15q-25 0 -48 25q-42 45 -75 103q-43 -72 -80 -109zM274 500q37 0 74 -10t78.5 -35t67.5 -79t26 -130q0 -62 -17.5 -109.5t-43.5 -74.5
t-60.5 -44t-63.5 -22.5t-57 -5.5q-30 0 -59.5 5.5t-64.5 22.5t-61.5 44t-44 74.5t-17.5 109.5q0 76 25.5 130t66.5 79t77.5 35t73.5 10zM277 77q99 0 99 169q0 166 -101 166q-100 0 -100 -166q0 -80 25.5 -124.5t76.5 -44.5z" />
    <glyph glyph-name="otilde" unicode="&#xf5;" horiz-adv-x="551" 
d="M147 556q-49 0 -49 58q0 38 24 63.5t69 25.5q36 0 62.5 -18.5t46.5 -37t40 -18.5q28 0 28 32q0 13 -9 33q18 11 38 11q49 0 49 -57q0 -36 -24 -63t-70 -27q-35 0 -61 18.5t-46.5 37t-40.5 18.5q-28 0 -28 -32q0 -14 9 -33q-18 -11 -38 -11zM278 -10q-30 0 -59.5 5.5
t-64.5 22.5t-61.5 44t-44 74.5t-17.5 109.5q0 76 25.5 130t66.5 79t77.5 35t73.5 10t74 -10t78.5 -35t67.5 -79t26 -130q0 -62 -17.5 -109.5t-43.5 -74.5t-60.5 -44t-63.5 -22.5t-57 -5.5zM277 77q99 0 99 169q0 166 -101 166q-100 0 -100 -166q0 -80 25.5 -124.5
t76.5 -44.5z" />
    <glyph glyph-name="odieresis" unicode="&#xf6;" horiz-adv-x="551" 
d="M162 565q-63 0 -63 69q0 31 19.5 48t53.5 17q64 0 64 -69q0 -65 -74 -65zM368 565q-62 0 -62 69q0 30 19.5 47.5t52.5 17.5q64 0 64 -69q0 -65 -74 -65zM278 -10q-30 0 -59.5 5.5t-64.5 22.5t-61.5 44t-44 74.5t-17.5 109.5q0 76 25.5 130t66.5 79t77.5 35t73.5 10
t74 -10t78.5 -35t67.5 -79t26 -130q0 -62 -17.5 -109.5t-43.5 -74.5t-60.5 -44t-63.5 -22.5t-57 -5.5zM277 77q99 0 99 169q0 166 -101 166q-100 0 -100 -166q0 -80 25.5 -124.5t76.5 -44.5z" />
    <glyph glyph-name="divide" unicode="&#xf7;" horiz-adv-x="518" 
d="M299 468q-13 -12 -42 -12q-32 0 -38 23q-4 15 -6 92q20 11 47 11q44 0 45 -31q2 -41 -6 -83zM101 406h340q4 -28 4 -44q0 -38 -27 -38h-341q-4 28 -4 39q0 43 28 43zM299 157q-13 -12 -42 -12q-32 0 -38 23q-4 15 -6 92q20 11 47 11q44 0 45 -31q2 -41 -6 -83z" />
    <glyph glyph-name="oslash" unicode="&#xf8;" horiz-adv-x="551" 
d="M405 467q115 -62 115 -222q0 -62 -17.5 -109.5t-43.5 -74.5t-60.5 -44t-63.5 -22.5t-57 -5.5q-26 0 -50 4q-5 -14 -13.5 -41t-12.5 -40q-30 -14 -62.5 3.5t-22.5 42.5q24 58 26 64q-112 63 -112 223q0 76 25.5 130t66.5 79t77.5 35t73.5 10q26 0 51 -4l27 81
q34 12 63.5 -3.5t18.5 -40.5zM175 245q0 -64 16 -105q54 134 103 269q-12 2 -19 2q-100 0 -100 -166zM277 76q99 0 99 169q0 67 -18 109q-47 -118 -101 -276q12 -2 20 -2z" />
    <glyph glyph-name="ugrave" unicode="&#xf9;" horiz-adv-x="548" 
d="M295 571l-114 123q-17 18 -17 41q0 27 22 42q19 13 63 15q18 -35 90 -145q15 -25 2.5 -45.5t-46.5 -30.5zM199 -10q-75 0 -109.5 41.5t-34.5 104.5v209q0 82 -10 138q39 14 78 14q34 0 49 -13.5t16 -47.5q4 -18 1.5 -143t-2.5 -156q0 -29 11 -44t41 -15q32 0 58.5 24.5
t59.5 92.5v295q42 6 68 6q74 0 74 -71q0 -26 -6.5 -79.5t-7.5 -69.5l13 -264q-40 -18 -68 -18q-34 0 -47 13.5t-11 39.5l4 81h-2q-34 -77 -75.5 -107.5t-99.5 -30.5z" />
    <glyph glyph-name="uacute" unicode="&#xfa;" horiz-adv-x="548" 
d="M249 571q-34 10 -46.5 30.5t2.5 45.5q72 110 90 145q44 -2 63 -15q22 -15 22 -42q0 -23 -17 -41zM199 -10q-75 0 -109.5 41.5t-34.5 104.5v209q0 82 -10 138q39 14 78 14q34 0 49 -13.5t16 -47.5q4 -18 1.5 -143t-2.5 -156q0 -29 11 -44t41 -15q32 0 58.5 24.5t59.5 92.5
v295q42 6 68 6q74 0 74 -71q0 -26 -6.5 -79.5t-7.5 -69.5l13 -264q-40 -18 -68 -18q-34 0 -47 13.5t-11 39.5l4 81h-2q-34 -77 -75.5 -107.5t-99.5 -30.5z" />
    <glyph glyph-name="ucircumflex" unicode="&#xfb;" horiz-adv-x="548" 
d="M189 588q-17 -17 -40 -19.5t-36 11.5q-16 16 -27 47q42 41 119 124q30 32 70 32q35 0 63 -32q64 -72 116 -123q-9 -29 -26 -44t-36 -15q-25 0 -48 25q-42 45 -75 103q-43 -73 -80 -109zM499 425q0 -26 -6.5 -79.5t-7.5 -69.5l13 -264q-40 -18 -68 -18q-34 0 -47 13.5
t-11 39.5l4 81h-2q-34 -77 -75.5 -107.5t-99.5 -30.5q-75 0 -109.5 41.5t-34.5 104.5v209q0 82 -10 138q39 14 78 14q34 0 49 -13.5t16 -47.5q4 -18 1.5 -143t-2.5 -156q0 -29 11 -44t41 -15q32 0 58.5 24.5t59.5 92.5v295q42 6 68 6q74 0 74 -71z" />
    <glyph glyph-name="udieresis" unicode="&#xfc;" horiz-adv-x="548" 
d="M165 586q-63 0 -63 69q0 31 19.5 48t53.5 17q64 0 64 -69q0 -65 -74 -65zM371 586q-62 0 -62 69q0 30 19.5 47.5t52.5 17.5q64 0 64 -69q0 -65 -74 -65zM199 -10q-75 0 -109.5 41.5t-34.5 104.5v209q0 82 -10 138q39 14 78 14q34 0 49 -13.5t16 -47.5q4 -18 1.5 -143
t-2.5 -156q0 -29 11 -44t41 -15q32 0 58.5 24.5t59.5 92.5v295q42 6 68 6q74 0 74 -71q0 -26 -6.5 -79.5t-7.5 -69.5l13 -264q-40 -18 -68 -18q-34 0 -47 13.5t-11 39.5l4 81h-2q-34 -77 -75.5 -107.5t-99.5 -30.5z" />
    <glyph glyph-name="yacute" unicode="&#xfd;" horiz-adv-x="541" 
d="M238 570q-34 10 -46.5 30.5t2.5 45.5q72 110 90 145q44 -2 63 -15q22 -15 22 -42q0 -23 -17 -41zM255 -204q-59 0 -111.5 16.5t-80.5 48.5q-12 14 -12 29q0 44 41 75q43 -43 81.5 -60t87.5 -17q52 0 84.5 38t32.5 89l-1 128l-2 1q-32 -74 -72 -104t-102 -30
q-146 0 -146 161v174q0 82 -10 138q36 13 78 13q35 0 50.5 -13t15.5 -45v-265q0 -37 12 -56t44 -19q28 0 52 24t59 90v278q40 6 68 6q40 0 56 -18.5t16 -52.5q0 -35 -17 -158l9 -222q5 -127 -59 -188t-174 -61z" />
    <glyph glyph-name="thorn" unicode="&#xfe;" horiz-adv-x="600" 
d="M348 500q86 0 142 -57t56 -177q0 -136 -66 -206t-169 -70q-89 0 -124 50v-240q-37 -8 -64 -8q-34 0 -55.5 12.5t-21.5 38.5q0 96 14 290l-13 630q39 9 74 9t47.5 -12.5t12.5 -41.5q0 -31 -4 -329l3 -1q45 112 168 112zM277 76q59 0 92 51t33 137q0 71 -27 109.5t-72 38.5
q-65 0 -116 -106v-212q52 -18 90 -18z" />
    <glyph glyph-name="ydieresis" unicode="&#xff;" horiz-adv-x="541" 
d="M154 585q-63 0 -63 69q0 31 19.5 48t53.5 17q64 0 64 -69q0 -65 -74 -65zM360 585q-62 0 -62 69q0 30 19.5 47.5t52.5 17.5q64 0 64 -69q0 -65 -74 -65zM255 -204q-59 0 -111.5 16.5t-80.5 48.5q-12 14 -12 29q0 44 41 75q43 -43 81.5 -60t87.5 -17q52 0 84.5 38t32.5 89
l-1 128l-2 1q-32 -74 -72 -104t-102 -30q-146 0 -146 161v174q0 82 -10 138q36 13 78 13q35 0 50.5 -13t15.5 -45v-265q0 -37 12 -56t44 -19q28 0 52 24t59 90v278q40 6 68 6q40 0 56 -18.5t16 -52.5q0 -35 -17 -158l9 -222q5 -127 -59 -188t-174 -61z" />
    <glyph glyph-name="Amacron" unicode="&#x100;" horiz-adv-x="710" 
d="M448 858q-203 0 -259 -3q-19 89 49 89q38 0 126.5 -2t115.5 -2q12 -82 -32 -82zM478 679l212 -663q-52 -23 -98 -23q-9 0 -16 1.5t-13 3t-11 6t-8.5 6.5t-7.5 9t-5.5 9t-5 11.5t-4 11.5t-4 13t-3.5 13l-40 136l-262 -4l-5 -18q-33 -108 -45 -191q-37 -8 -75 -8
q-32 0 -52.5 20.5t-6.5 63.5l189 593q12 39 19 71q70 10 120 10q49 0 79 -15.5t43 -55.5zM242 307l204 -1l-14 48q-12 43 -41 152t-41 151h-4l-90 -303z" />
    <glyph glyph-name="amacron" unicode="&#x101;" horiz-adv-x="580" 
d="M191 684q38 0 126.5 -2t115.5 -2q12 -82 -32 -82q-203 0 -259 -3q-19 89 49 89zM231 -10q-28 0 -53.5 5.5t-53 22t-47.5 43t-33 71t-13 103.5q0 64 16 113.5t40.5 77.5t57.5 45.5t61 23t58 5.5q91 0 134 -64v54q38 6 69 6q64 0 64 -60q0 -29 -6.5 -89.5t-8.5 -85.5
l14 -249q-36 -18 -73 -18q-32 0 -47.5 14t-13.5 38l5 71h-1q-34 -71 -75 -99t-94 -28zM272 78q41 0 63 25.5t54 90.5v196q-42 22 -82 22q-132 0 -132 -176q0 -158 97 -158z" />
    <glyph glyph-name="Abreve" unicode="&#x102;" horiz-adv-x="710" 
d="M337 834q-74 0 -124.5 37.5t-50.5 99.5q0 40 56 40q14 0 44 -4q0 -115 69 -115q34 0 52.5 34t17.5 97q18 3 33 3q78 0 78 -49q0 -61 -50 -102t-125 -41zM478 679l212 -663q-52 -23 -98 -23q-9 0 -16 1.5t-13 3t-11 6t-8.5 6.5t-7.5 9t-5.5 9t-5 11.5t-4 11.5t-4 13
t-3.5 13l-40 136l-262 -4l-5 -18q-33 -108 -45 -191q-37 -8 -75 -8q-32 0 -52.5 20.5t-6.5 63.5l189 593q12 39 19 71q70 10 120 10q49 0 79 -15.5t43 -55.5zM242 307l204 -1l-14 48q-12 43 -41 152t-41 151h-4l-90 -303z" />
    <glyph glyph-name="abreve" unicode="&#x103;" horiz-adv-x="580" 
d="M465 717q0 -61 -50 -102t-125 -41q-74 0 -124.5 37.5t-50.5 99.5q0 40 56 40q14 0 44 -4q0 -115 69 -115q34 0 52.5 34t17.5 97q18 3 33 3q78 0 78 -49zM231 -10q-28 0 -53.5 5.5t-53 22t-47.5 43t-33 71t-13 103.5q0 64 16 113.5t40.5 77.5t57.5 45.5t61 23t58 5.5
q91 0 134 -64v54q38 6 69 6q64 0 64 -60q0 -29 -6.5 -89.5t-8.5 -85.5l14 -249q-36 -18 -73 -18q-32 0 -47.5 14t-13.5 38l5 71h-1q-34 -71 -75 -99t-94 -28zM272 78q41 0 63 25.5t54 90.5v196q-42 22 -82 22q-132 0 -132 -176q0 -158 97 -158z" />
    <glyph glyph-name="Cacute" unicode="&#x106;" horiz-adv-x="661" 
d="M305 810q-34 10 -46.5 30.5t2.5 45.5q72 110 90 145q44 -2 63 -15q22 -15 22 -42q0 -23 -17 -41zM376 -10q-164 0 -249 94.5t-85 283.5q0 169 83 275.5t232 106.5q259 0 259 -212q0 -57 -11.5 -77.5t-40.5 -27.5q-37 -9 -94 8q4 31 4 88q0 115 -114 115q-75 0 -119 -75.5
t-44 -197.5q0 -136 46.5 -205.5t150.5 -69.5q55 0 94.5 23t85.5 68q28 -13 41.5 -29t12.5 -42q0 -23 -35 -51q-27 -22 -48 -35.5t-66.5 -26.5t-102.5 -13z" />
    <glyph glyph-name="cacute" unicode="&#x107;" horiz-adv-x="488" 
d="M218 560q-34 10 -46.5 30.5t2.5 45.5q72 110 90 145q44 -2 63 -15q22 -15 22 -42q0 -23 -17 -41zM276 -10q-119 0 -182 64t-63 185q0 127 60.5 194t168.5 67q192 0 192 -152q0 -54 -38 -67q-46 -15 -91 2q2 37 1 49q-5 82 -62 82q-41 0 -65 -38.5t-24 -140.5
q0 -73 30 -115.5t79 -42.5q32 0 59.5 10t40.5 19t45 33q30 -21 30 -52q0 -23 -14 -36q-56 -61 -167 -61z" />
    <glyph glyph-name="Ccaron" unicode="&#x10c;" horiz-adv-x="661" 
d="M264 840q-64 72 -116 123q9 29 26 44t36 15q25 0 48 -25q42 -45 75 -103q41 68 80 109q17 17 40 19t36 -11q16 -16 27 -47q-42 -41 -119 -124q-30 -32 -70 -32q-35 0 -63 32zM574 187q28 -13 41.5 -29t12.5 -42q0 -23 -35 -51q-27 -22 -48 -35.5t-66.5 -26.5t-102.5 -13
q-164 0 -249 94.5t-85 283.5q0 169 83 275.5t232 106.5q259 0 259 -212q0 -57 -11.5 -77.5t-40.5 -27.5q-37 -9 -94 8q4 31 4 88q0 115 -114 115q-75 0 -119 -75.5t-44 -197.5q0 -136 46.5 -205.5t150.5 -69.5q55 0 94.5 23t85.5 68z" />
    <glyph glyph-name="ccaron" unicode="&#x10d;" horiz-adv-x="488" 
d="M177 590q-64 72 -116 123q9 29 26 44t36 15q25 0 48 -25q42 -45 75 -103q41 68 80 109q17 17 40 19t36 -11q16 -16 27 -47q-42 -41 -119 -124q-30 -32 -70 -32q-35 0 -63 32zM427 139q30 -21 30 -52q0 -23 -14 -36q-56 -61 -167 -61q-119 0 -182 64t-63 185
q0 127 60.5 194t168.5 67q192 0 192 -152q0 -54 -38 -67q-46 -15 -91 2q2 37 1 49q-5 82 -62 82q-41 0 -65 -38.5t-24 -140.5q0 -73 30 -115.5t79 -42.5q32 0 59.5 10t40.5 19t45 33z" />
    <glyph glyph-name="Dcaron" unicode="&#x10e;" horiz-adv-x="711" 
d="M289 840q-64 72 -116 123q9 29 26 44t36 15q25 0 48 -25q42 -45 75 -103q41 68 80 109q17 17 40 19t36 -11q16 -16 27 -47q-42 -41 -119 -124q-30 -32 -70 -32q-35 0 -63 32zM307 740q177 0 270 -90.5t93 -272.5q0 -196 -94 -286.5t-274 -90.5h-141q-75 0 -75 67v510
q0 38 24 57h-60q-18 17 -14 61.5t32 44.5h239zM322 106q200 0 200 271q0 257 -200 257h-91v-528h91z" />
    <glyph glyph-name="Dcroat" unicode="&#x110;" horiz-adv-x="753" 
d="M340 740q177 0 270 -90.5t93 -272.5q0 -196 -94 -286.5t-274 -90.5h-141q-75 0 -75 67v233q-32 0 -48 1q-18 1 -20.5 38.5t11.5 61.5q38 -2 57 -2v178q0 38 24 57h-60q-18 17 -14 61.5t32 44.5h239zM355 106q200 0 200 271q0 257 -200 257h-91v-227q42 3 80 3
q25 0 29.5 -39t-7.5 -60q-30 0 -102 -4v-201h91z" />
    <glyph glyph-name="Emacron" unicode="&#x112;" horiz-adv-x="598" 
d="M224 949q38 0 126.5 -2t115.5 -2q12 -82 -32 -82q-203 0 -259 -3q-19 89 49 89zM175 0q-87 0 -87 104v471q0 40 18 59h-64q-11 12 -15 37.5t3.5 47t26.5 21.5l489 2q6 -70 -5 -90q-11 -19 -56 -19h-252v-254q16 32 57 32l203 2q4 -28 5 -38t-0.5 -22t-7.5 -21
q-12 -18 -52 -17l-205 4v-214h243q57 0 89 4q6 -29 6 -56q0 -19 -5.5 -30.5t-17 -16t-19.5 -5.5t-22 -1h-332z" />
    <glyph glyph-name="emacron" unicode="&#x113;" horiz-adv-x="503" 
d="M376 598q-203 0 -259 -3q-19 89 49 89q38 0 126.5 -2t115.5 -2q12 -82 -32 -82zM440 132q11 -8 20.5 -23t9.5 -30q0 -21 -14 -36q-60 -53 -172 -53q-116 0 -184.5 65.5t-68.5 190.5q0 116 62 185t176 69q198 0 198 -147q0 -128 -158 -152q-41 -6 -89 -3q-34 2 -45 25
q12 -146 118 -146q32 0 59.5 9t41 17t46.5 29zM267 414q-48 0 -70 -42.5t-23 -108.5q85 0 121 19t36 68q0 64 -64 64z" />
    <glyph glyph-name="Edotaccent" unicode="&#x116;" horiz-adv-x="598" 
d="M321 830q-32 0 -49.5 20t-17.5 55q0 34 20 51t54 17q68 0 68 -76q0 -32 -20 -49.5t-55 -17.5zM175 0q-87 0 -87 104v471q0 40 18 59h-64q-11 12 -15 37.5t3.5 47t26.5 21.5l489 2q6 -70 -5 -90q-11 -19 -56 -19h-252v-254q16 32 57 32l203 2q4 -28 5 -38t-0.5 -22
t-7.5 -21q-12 -18 -52 -17l-205 4v-214h243q57 0 89 4q6 -29 6 -56q0 -19 -5.5 -30.5t-17 -16t-19.5 -5.5t-22 -1h-332z" />
    <glyph glyph-name="edotaccent" unicode="&#x117;" horiz-adv-x="503" 
d="M263 565q-32 0 -49.5 20t-17.5 55q0 34 20 51t54 17q68 0 68 -76q0 -32 -20 -49.5t-55 -17.5zM440 132q11 -8 20.5 -23t9.5 -30q0 -21 -14 -36q-60 -53 -172 -53q-116 0 -184.5 65.5t-68.5 190.5q0 116 62 185t176 69q198 0 198 -147q0 -128 -158 -152q-41 -6 -89 -3
q-34 2 -45 25q12 -146 118 -146q32 0 59.5 9t41 17t46.5 29zM267 414q-48 0 -70 -42.5t-23 -108.5q85 0 121 19t36 68q0 64 -64 64z" />
    <glyph glyph-name="Ecaron" unicode="&#x11a;" horiz-adv-x="598" 
d="M256 855q-64 72 -116 123q9 29 26 44t36 15q25 0 48 -25q42 -45 75 -103q41 68 80 109q17 17 40 19t36 -11q16 -16 27 -47q-42 -41 -119 -124q-30 -32 -70 -32q-35 0 -63 32zM565 109q6 -29 6 -56q0 -19 -5.5 -30.5t-17 -16t-19.5 -5.5t-22 -1h-332q-87 0 -87 104v471
q0 40 18 59h-64q-11 12 -15 37.5t3.5 47t26.5 21.5l489 2q6 -70 -5 -90q-11 -19 -56 -19h-252v-254q16 32 57 32l203 2q4 -28 5 -38t-0.5 -22t-7.5 -21q-12 -18 -52 -17l-205 4v-214h243q57 0 89 4z" />
    <glyph glyph-name="ecaron" unicode="&#x11b;" horiz-adv-x="503" 
d="M198 590q-64 72 -116 123q9 29 26 44t36 15q25 0 48 -25q42 -45 75 -103q41 68 80 109q17 17 40 19t36 -11q16 -16 27 -47q-42 -41 -119 -124q-30 -32 -70 -32q-35 0 -63 32zM440 132q11 -8 20.5 -23t9.5 -30q0 -21 -14 -36q-60 -53 -172 -53q-116 0 -184.5 65.5
t-68.5 190.5q0 116 62 185t176 69q198 0 198 -147q0 -128 -158 -152q-41 -6 -89 -3q-34 2 -45 25q12 -146 118 -146q32 0 59.5 9t41 17t46.5 29zM267 414q-48 0 -70 -42.5t-23 -108.5q85 0 121 19t36 68q0 64 -64 64z" />
    <glyph glyph-name="uni0122" unicode="&#x122;" horiz-adv-x="704" 
d="M366 338l289 -1v-203q0 -30 -3.5 -45t-19.5 -29q-30 -25 -95.5 -47.5t-146.5 -22.5q-349 0 -349 369q0 180 90.5 285.5t241.5 105.5q123 0 193.5 -48.5t70.5 -150.5q0 -72 -49 -78q-45 -6 -95 8q1 21 1 67q0 35 -26.5 65.5t-92.5 30.5q-84 0 -131.5 -73t-47.5 -200
q0 -275 195 -275q73 0 137 34v101l-117 -2q-35 -1 -46.5 30t1.5 79zM384 -69q32 0 50.5 -20t18.5 -57q0 -86 -53 -189l-72 8q11 59 9 113q-4 66 -35 108q40 37 82 37z" />
    <glyph glyph-name="uni0123" unicode="&#x123;" horiz-adv-x="586" 
d="M359 602q-40 -37 -82 -37q-32 0 -50.5 20t-18.5 57q0 86 53 189l72 -8q-11 -59 -9 -113q4 -66 35 -108zM276 -203q-96 0 -159 27q-48 20 -49 52q-2 32 30 67q106 -53 165 -53q81 0 114.5 38t30.5 110l-3 69l-2 1q-50 -110 -159 -110q-100 0 -156.5 63t-56.5 174
q0 64 16 113.5t40.5 77.5t57 45.5t61 23t57.5 5.5q92 0 134 -68v63q40 12 68 12q39 0 53 -20.5t14 -56.5q0 -35 -7.5 -91t-8.5 -78l10 -182q0 -19 1.5 -42.5t-4.5 -50.5t-14 -53.5t-27.5 -51t-45 -43.5t-67 -30t-93.5 -11zM277 86q39 0 60 21.5t52 76.5v206q-42 22 -82 22
q-69 0 -100.5 -48.5t-31.5 -126.5q0 -75 27.5 -113t74.5 -38z" />
    <glyph glyph-name="Imacron" unicode="&#x12a;" horiz-adv-x="442" 
d="M332 854q-203 0 -259 -3q-19 89 49 89q38 0 126.5 -2t115.5 -2q12 -82 -32 -82zM293 105h91q13 -26 9.5 -65.5t-27.5 -39.5h-312q-13 28 -9 66.5t25 38.5h83l-5 530h-94q-13 29 -9 67t25 38h314q13 -26 9.5 -65.5t-27.5 -39.5h-77z" />
    <glyph glyph-name="imacron" unicode="&#x12b;" horiz-adv-x="262" 
d="M32 684q38 0 126.5 -2t115.5 -2q12 -82 -32 -82q-203 0 -259 -3q-19 89 49 89zM131 -6q-24 0 -38.5 3.5t-20 10t-7 11t-1.5 11.5v460q38 8 72 8q62 0 62 -37v-461q-28 -6 -67 -6z" />
    <glyph glyph-name="dotlessi" unicode="&#x131;" horiz-adv-x="262" 
d="M131 -6q-24 0 -38.5 3.5t-20 10t-7 11t-1.5 11.5v460q38 8 72 8q62 0 62 -37v-461q-28 -6 -67 -6z" />
    <glyph glyph-name="uni0136" unicode="&#x136;" horiz-adv-x="728" 
d="M614 -9q-36 0 -96 65q-59 65 -145 192l-116 -192q-25 -40 -45.5 -51.5t-44.5 -11.5q-44 0 -65 21.5t-22 75.5l-7 650q35 10 80 10q69 0 69 -48v-156q0 -164 -23 -391l3 -1l138 250q86 237 149 305q21 22 42.5 31.5t54.5 9.5q62 0 86 -64q-8 -13 -87.5 -121.5
t-140.5 -203.5q145 -192 266 -284q-24 -86 -96 -86zM288 -106q40 37 82 37q32 0 50.5 -20t18.5 -57q0 -86 -53 -189l-72 8q11 59 9 113q-4 66 -35 108z" />
    <glyph glyph-name="uni0137" unicode="&#x137;" horiz-adv-x="548" 
d="M367 247q21 -28 42.5 -53t37.5 -41.5t33 -32.5t26.5 -23.5t20.5 -17t13 -10.5q-13 -36 -37 -56.5t-45 -20.5q-42 0 -67 28q-45 52 -92 133l-85 -117q-33 -44 -84 -44q-31 0 -52.5 22.5t-20.5 61.5l7 414q2 130 -8 260q43 9 74 9q63 0 63 -42v-343q-2 -43 -6.5 -122.5
t-6.5 -120.5l2 -1l105 145q46 148 92 200q21 24 56 24q22 0 38 -6t24 -13.5t22 -23.5zM278 -69q32 0 50.5 -20t18.5 -57q0 -86 -53 -189l-72 8q11 59 9 113q-4 66 -35 108q40 37 82 37z" />
    <glyph glyph-name="Lacute" unicode="&#x139;" horiz-adv-x="521" 
d="M115 820q-34 10 -46.5 30.5t2.5 45.5q72 110 90 145q44 -2 63 -15q22 -15 22 -42q0 -23 -17 -41zM163 0q-44 0 -65.5 25t-21.5 66v649q49 7 69 7q75 0 75 -49v-593l203 1q18 0 41.5 0.5t31.5 0.5q5 -35 5 -60q0 -24 -15 -35.5t-31 -11.5h-292z" />
    <glyph glyph-name="lacute" unicode="&#x13a;" horiz-adv-x="259" 
d="M104 843q-34 10 -46.5 30.5t2.5 45.5q72 110 90 145q44 -2 63 -15q22 -15 22 -42q0 -23 -17 -41zM143 759q22 0 37.5 -11t15.5 -32v-716q-27 -5 -73 -5q-61 0 -61 35v720q42 9 81 9z" />
    <glyph glyph-name="uni013B" unicode="&#x13b;" horiz-adv-x="521" 
d="M163 0q-44 0 -65.5 25t-21.5 66v649q49 7 69 7q75 0 75 -49v-593l203 1q18 0 41.5 0.5t31.5 0.5q5 -35 5 -60q0 -24 -15 -35.5t-31 -11.5h-292zM215 -106q40 37 82 37q32 0 50.5 -20t18.5 -57q0 -86 -53 -189l-72 8q11 59 9 113q-4 66 -35 108z" />
    <glyph glyph-name="uni013C" unicode="&#x13c;" horiz-adv-x="259" 
d="M143 759q22 0 37.5 -11t15.5 -32v-716q-27 -5 -73 -5q-61 0 -61 35v720q42 9 81 9zM54 -106q40 37 82 37q32 0 50.5 -20t18.5 -57q0 -86 -53 -189l-72 8q11 59 9 113q-4 66 -35 108z" />
    <glyph glyph-name="Lcaron" unicode="&#x13d;" horiz-adv-x="521" 
d="M350 738q85 24 119 -24l-17 -190q-2 -24 -4 -35t-7.5 -24t-16 -16.5t-28.5 -4t-46 5.5v288zM163 0q-44 0 -65.5 25t-21.5 66v649q49 7 69 7q75 0 75 -49v-593l203 1q18 0 41.5 0.5t31.5 0.5q5 -35 5 -60q0 -24 -15 -35.5t-31 -11.5h-292z" />
    <glyph glyph-name="lcaron" unicode="&#x13e;" horiz-adv-x="403" 
d="M143 759q22 0 37.5 -11t15.5 -32v-716q-27 -5 -73 -5q-61 0 -61 35v720q42 9 81 9zM284 748q54 15 108 0l11 -10l-23 -278h-96v288z" />
    <glyph glyph-name="Lslash" unicode="&#x141;" horiz-adv-x="572" 
d="M547 107q5 -35 5 -60q0 -24 -15 -35.5t-31 -11.5h-292q-44 0 -65.5 25t-21.5 66v151l-42 -14q-15 -5 -25 6.5t-10.5 31t8.5 41.5l69 23v410q49 7 69 7q75 0 75 -49v-318l116 39q23 8 36 -18.5t-1 -57.5l-151 -52v-186l203 1q18 0 41.5 0.5t31.5 0.5z" />
    <glyph glyph-name="lslash" unicode="&#x142;" horiz-adv-x="300" 
d="M284 456v-100l-69 -28v-328q-27 -5 -73 -5q-61 0 -61 35v244l-69 -28v100l69 28v376q42 9 81 9q22 0 37.5 -11t15.5 -32v-288z" />
    <glyph glyph-name="Nacute" unicode="&#x143;" horiz-adv-x="746" 
d="M348 810q-34 10 -46.5 30.5t2.5 45.5q72 110 90 145q44 -2 63 -15q22 -15 22 -42q0 -23 -17 -41zM152 -10q-72 0 -72 60l2 310l-8 380q35 10 88 10q37 0 54.5 -8.5t32.5 -32.5l214 -351q33 -58 79 -155l2 1q-10 133 -11 234l-2 302q36 10 70 10q29 0 44.5 -7t18 -13.5
t2.5 -16.5v-325l6 -388q-67 -16 -115 -6q-26 6 -46 39l-204 339q-62 104 -107 197l-2 -1q15 -143 15 -253v-315q-35 -10 -61 -10z" />
    <glyph glyph-name="nacute" unicode="&#x144;" horiz-adv-x="565" 
d="M257 560q-34 10 -46.5 30.5t2.5 45.5q72 110 90 145q44 -2 63 -15q22 -15 22 -42q0 -23 -17 -41zM118 -5q-27 0 -44.5 17.5t-17.5 51.5t13 153q0 157 -15 263q38 16 76 16q28 0 43 -14.5t14 -36.5l-2 -65h2q62 120 168 120q152 0 152 -164v-191q0 -49 10 -135
q-39 -15 -73 -15q-22 0 -37.5 5.5t-22 10t-10 17.5t-3.5 16v18q0 32 2 128.5t2 145.5q0 39 -14.5 57.5t-46.5 18.5q-36 0 -62 -28.5t-58 -109.5v-274q-28 -5 -76 -5z" />
    <glyph glyph-name="uni0145" unicode="&#x145;" horiz-adv-x="746" 
d="M152 -10q-72 0 -72 60l2 310l-8 380q35 10 88 10q37 0 54.5 -8.5t32.5 -32.5l214 -351q33 -58 79 -155l2 1q-10 133 -11 234l-2 302q36 10 70 10q29 0 44.5 -7t18 -13.5t2.5 -16.5v-325l6 -388q-67 -16 -115 -6q-26 6 -46 39l-204 339q-62 104 -107 197l-2 -1
q15 -143 15 -253v-315q-35 -10 -61 -10zM298 -106q40 37 82 37q32 0 50.5 -20t18.5 -57q0 -86 -53 -189l-72 8q11 59 9 113q-4 66 -35 108z" />
    <glyph glyph-name="uni0146" unicode="&#x146;" horiz-adv-x="565" 
d="M118 -5q-27 0 -44.5 17.5t-17.5 51.5t13 153q0 157 -15 263q38 16 76 16q28 0 43 -14.5t14 -36.5l-2 -65h2q62 120 168 120q152 0 152 -164v-191q0 -49 10 -135q-39 -15 -73 -15q-22 0 -37.5 5.5t-22 10t-10 17.5t-3.5 16v18q0 32 2 128.5t2 145.5q0 39 -14.5 57.5
t-46.5 18.5q-36 0 -62 -28.5t-58 -109.5v-274q-28 -5 -76 -5zM207 -106q40 37 82 37q32 0 50.5 -20t18.5 -57q0 -86 -53 -189l-72 8q11 59 9 113q-4 66 -35 108z" />
    <glyph glyph-name="Ncaron" unicode="&#x147;" horiz-adv-x="746" 
d="M307 840q-64 72 -116 123q9 29 26 44t36 15q25 0 48 -25q42 -45 75 -103q41 68 80 109q17 17 40 19t36 -11q16 -16 27 -47q-42 -41 -119 -124q-30 -32 -70 -32q-35 0 -63 32zM666 388l6 -388q-67 -16 -115 -6q-26 6 -46 39l-204 339q-62 104 -107 197l-2 -1
q15 -143 15 -253v-315q-35 -10 -61 -10q-72 0 -72 60l2 310l-8 380q35 10 88 10q37 0 54.5 -8.5t32.5 -32.5l214 -351q33 -58 79 -155l2 1q-10 133 -11 234l-2 302q36 10 70 10q29 0 44.5 -7t18 -13.5t2.5 -16.5v-325z" />
    <glyph glyph-name="ncaron" unicode="&#x148;" horiz-adv-x="565" 
d="M216 590q-64 72 -116 123q9 29 26 44t36 15q25 0 48 -25q42 -45 75 -103q41 68 80 109q17 17 40 19t36 -11q16 -16 27 -47q-42 -41 -119 -124q-30 -32 -70 -32q-35 0 -63 32zM507 145q0 -49 10 -135q-39 -15 -73 -15q-22 0 -37.5 5.5t-22 10t-10 17.5t-3.5 16v18
q0 32 2 128.5t2 145.5q0 39 -14.5 57.5t-46.5 18.5q-36 0 -62 -28.5t-58 -109.5v-274q-28 -5 -76 -5q-27 0 -44.5 17.5t-17.5 51.5t13 153q0 157 -15 263q38 16 76 16q28 0 43 -14.5t14 -36.5l-2 -65h2q62 120 168 120q152 0 152 -164v-191z" />
    <glyph glyph-name="Omacron" unicode="&#x14c;" horiz-adv-x="738" 
d="M270 944q38 0 126.5 -2t115.5 -2q12 -82 -32 -82q-203 0 -259 -3q-19 89 49 89zM369 -10q-155 0 -241.5 103t-86.5 280q0 175 86.5 276t241.5 101t241.5 -101.5t86.5 -275.5t-87 -278.5t-241 -104.5zM369 96q174 0 174 277q0 271 -174 271t-174 -271q0 -126 41.5 -201.5
t132.5 -75.5z" />
    <glyph glyph-name="omacron" unicode="&#x14d;" horiz-adv-x="551" 
d="M173 674q38 0 126.5 -2t115.5 -2q12 -82 -32 -82q-203 0 -259 -3q-19 89 49 89zM278 -10q-30 0 -59.5 5.5t-64.5 22.5t-61.5 44t-44 74.5t-17.5 109.5q0 76 25.5 130t66.5 79t77.5 35t73.5 10t74 -10t78.5 -35t67.5 -79t26 -130q0 -62 -17.5 -109.5t-43.5 -74.5
t-60.5 -44t-63.5 -22.5t-57 -5.5zM277 77q99 0 99 169q0 166 -101 166q-100 0 -100 -166q0 -80 25.5 -124.5t76.5 -44.5z" />
    <glyph glyph-name="Ohungarumlaut" unicode="&#x150;" horiz-adv-x="738" 
d="M271 820q-34 10 -46.5 30.5t2.5 45.5q72 110 90 145q44 -2 63 -15q22 -15 22 -42q0 -23 -17 -41zM456 820q-34 10 -46.5 30.5t2.5 45.5q72 110 90 145q44 -2 63 -15q22 -15 22 -42q0 -23 -17 -41zM369 -10q-155 0 -241.5 103t-86.5 280q0 175 86.5 276t241.5 101
t241.5 -101.5t86.5 -275.5t-87 -278.5t-241 -104.5zM369 96q174 0 174 277q0 271 -174 271t-174 -271q0 -126 41.5 -201.5t132.5 -75.5z" />
    <glyph glyph-name="ohungarumlaut" unicode="&#x151;" horiz-adv-x="551" 
d="M174 550q-34 10 -46.5 30.5t2.5 45.5q72 110 90 145q44 -2 63 -15q22 -15 22 -42q0 -23 -17 -41zM359 550q-34 10 -46.5 30.5t2.5 45.5q72 110 90 145q44 -2 63 -15q22 -15 22 -42q0 -23 -17 -41zM278 -10q-30 0 -59.5 5.5t-64.5 22.5t-61.5 44t-44 74.5t-17.5 109.5
q0 76 25.5 130t66.5 79t77.5 35t73.5 10t74 -10t78.5 -35t67.5 -79t26 -130q0 -62 -17.5 -109.5t-43.5 -74.5t-60.5 -44t-63.5 -22.5t-57 -5.5zM277 77q99 0 99 169q0 166 -101 166q-100 0 -100 -166q0 -80 25.5 -124.5t76.5 -44.5z" />
    <glyph glyph-name="OE" unicode="&#x152;" horiz-adv-x="1021" 
d="M444 0q-191 0 -297 98.5t-106 274.5q0 174 106 270.5t297 96.5l525 2q6 -70 -5 -90q-11 -19 -56 -19h-252v-254q16 32 57 32l203 2q4 -28 5 -38t-0.5 -22t-7.5 -21q-12 -18 -52 -17l-205 4v-214h243q57 0 89 4q6 -29 6 -56q0 -19 -5.5 -30.5t-17 -16t-19.5 -5.5t-22 -1
h-486zM444 106h67v469q0 40 18 59h-85q-128 0 -188.5 -65t-60.5 -196q0 -266 249 -267z" />
    <glyph glyph-name="oe" unicode="&#x153;" horiz-adv-x="881" 
d="M818 132q11 -8 20.5 -23t9.5 -30q0 -23 -14 -36q-57 -53 -172 -53q-135 0 -198 88q-62 -88 -186 -88q-30 0 -59.5 5.5t-64.5 22.5t-61.5 44t-44 74.5t-17.5 109.5q0 76 25.5 130t66.5 79t77.5 35t73.5 10q126 0 190 -87q61 87 183 87q198 0 198 -147q0 -127 -158 -151
q-37 -6 -89 -4q-33 2 -45 24q12 -145 118 -145q32 0 59.5 9t41 17t46.5 29zM645 414q-48 0 -70 -42.5t-23 -108.5q86 0 121.5 18.5t35.5 68.5q0 64 -64 64zM277 77q99 0 99 169q0 166 -101 166q-100 0 -100 -166q0 -80 25.5 -124.5t76.5 -44.5z" />
    <glyph glyph-name="Racute" unicode="&#x154;" horiz-adv-x="654" 
d="M301 810q-34 10 -46.5 30.5t2.5 45.5q72 110 90 145q44 -2 63 -15q22 -15 22 -42q0 -23 -17 -41zM463 298q92 -164 158 -250q-35 -60 -88 -60q-49 0 -67 33l-130 244h-109v-138v-127q-42 -6 -69 -6q-30 0 -51 10.5t-21 31.5v549q0 39 18 59h-54q-11 12 -15.5 35t2.5 42
t26 19h268q126 -1 200.5 -61t74.5 -164q0 -147 -143 -217zM313 359q63 0 101 41.5t38 105.5q0 59 -34.5 98.5t-101.5 39.5h-89v-285h86z" />
    <glyph glyph-name="racute" unicode="&#x155;" horiz-adv-x="396" 
d="M172 560q-34 10 -46.5 30.5t2.5 45.5q72 110 90 145q44 -2 63 -15q22 -15 22 -42q0 -23 -17 -41zM130 -5q-33 0 -53.5 16.5t-20.5 49.5q0 39 13 156q0 179 -16 263q35 16 75 16q42 0 53.5 -14t10.5 -40q-1 -36 -6 -117l3 -1q2 7 10 30.5t11 32t11.5 28.5t14 28.5t16 22
t21 19t25 10.5t30.5 5q21 0 40 -16t19 -41q0 -34 -23 -73q-34 4 -60.5 1.5t-54 -34.5t-55.5 -100v-237q-40 -5 -64 -5z" />
    <glyph glyph-name="uni0156" unicode="&#x156;" horiz-adv-x="654" 
d="M463 298q92 -164 158 -250q-35 -60 -88 -60q-49 0 -67 33l-130 244h-109v-138v-127q-42 -6 -69 -6q-30 0 -51 10.5t-21 31.5v549q0 39 18 59h-54q-11 12 -15.5 35t2.5 42t26 19h268q126 -1 200.5 -61t74.5 -164q0 -147 -143 -217zM313 359q63 0 101 41.5t38 105.5
q0 59 -34.5 98.5t-101.5 39.5h-89v-285h86zM358 -69q32 0 50.5 -20t18.5 -57q0 -86 -53 -189l-72 8q11 59 9 113q-4 66 -35 108q40 37 82 37z" />
    <glyph glyph-name="uni0157" unicode="&#x157;" horiz-adv-x="396" 
d="M130 -5q-33 0 -53.5 16.5t-20.5 49.5q0 39 13 156q0 179 -16 263q35 16 75 16q42 0 53.5 -14t10.5 -40q-1 -36 -6 -117l3 -1q2 7 10 30.5t11 32t11.5 28.5t14 28.5t16 22t21 19t25 10.5t30.5 5q21 0 40 -16t19 -41q0 -34 -23 -73q-34 4 -60.5 1.5t-54 -34.5t-55.5 -100
v-237q-40 -5 -64 -5zM54 -106q40 37 82 37q32 0 50.5 -20t18.5 -57q0 -86 -53 -189l-72 8q11 59 9 113q-4 66 -35 108z" />
    <glyph glyph-name="Rcaron" unicode="&#x158;" horiz-adv-x="654" 
d="M260 840q-64 72 -116 123q9 29 26 44t36 15q25 0 48 -25q42 -45 75 -103q41 68 80 109q17 17 40 19t36 -11q16 -16 27 -47q-42 -41 -119 -124q-30 -32 -70 -32q-35 0 -63 32zM463 298q92 -164 158 -250q-35 -60 -88 -60q-49 0 -67 33l-130 244h-109v-138v-127
q-42 -6 -69 -6q-30 0 -51 10.5t-21 31.5v549q0 39 18 59h-54q-11 12 -15.5 35t2.5 42t26 19h268q126 -1 200.5 -61t74.5 -164q0 -147 -143 -217zM313 359q63 0 101 41.5t38 105.5q0 59 -34.5 98.5t-101.5 39.5h-89v-285h86z" />
    <glyph glyph-name="rcaron" unicode="&#x159;" horiz-adv-x="396" 
d="M194 558q-35 0 -63 32q-64 72 -116 123q9 29 26 44t36 15q25 0 48 -25q42 -45 75 -103q41 68 80 109q17 17 40 19t36 -11q16 -16 27 -47q-42 -41 -119 -124q-30 -32 -70 -32zM328 500q21 0 40 -16t19 -41q0 -34 -23 -73q-34 4 -60.5 1.5t-54 -34.5t-55.5 -100v-237
q-40 -5 -64 -5q-33 0 -53.5 16.5t-20.5 49.5q0 39 13 156q0 179 -16 263q35 16 75 16q42 0 53.5 -14t10.5 -40q-1 -36 -6 -117l3 -1q2 7 10 30.5t11 32t11.5 28.5t14 28.5t16 22t21 19t25 10.5t30.5 5z" />
    <glyph glyph-name="Sacute" unicode="&#x15a;" horiz-adv-x="595" 
d="M272 810q-34 10 -46.5 30.5t2.5 45.5q72 110 90 145q44 -2 63 -15q22 -15 22 -42q0 -23 -17 -41zM307 -8q-87 0 -148 20t-91 42q-24 17 -24 45q0 44 48 82q37 -32 97.5 -58t127.5 -26q46 0 71.5 20.5t25.5 56.5q0 75 -137 119q-120 39 -175 94t-55 148q0 47 14 84.5
t38 61.5t57.5 40t69.5 22.5t77 6.5q229 0 229 -180q0 -49 -25 -65q-41 -25 -117 2v10q1 10 1.5 22.5t0.5 20.5q0 40 -23.5 63t-67.5 23q-107 0 -107 -105q0 -53 36.5 -85.5t102.5 -55.5q57 -20 91.5 -35.5t70 -40.5t52 -58.5t16.5 -78.5q0 -101 -69.5 -148t-186.5 -47z" />
    <glyph glyph-name="sacute" unicode="&#x15b;" horiz-adv-x="446" 
d="M197 560q-34 10 -46.5 30.5t2.5 45.5q72 110 90 145q44 -2 63 -15q22 -15 22 -42q0 -23 -17 -41zM218 -7q-97 0 -154 37q-26 18 -26 46q0 37 37 64q23 -19 39.5 -30t47.5 -22t64 -11q61 0 61 49q0 15 -11 26.5t-22.5 16.5t-32.5 12l-71 24q-24 8 -39.5 16t-36 24
t-31.5 43t-11 63q0 74 53.5 111.5t142.5 37.5q74 0 122.5 -28.5t48.5 -89.5q0 -37 -18 -48q-33 -21 -106 -5q5 88 -58 88q-59 0 -59 -57q0 -25 13 -41t48 -29l68 -25q33 -12 50.5 -20t39 -23.5t31 -37.5t9.5 -52q0 -68 -50.5 -103.5t-148.5 -35.5z" />
    <glyph glyph-name="Scedilla" unicode="&#x15e;" horiz-adv-x="595" 
d="M307 -8q-87 0 -148 20t-91 42q-24 17 -24 45q0 44 48 82q37 -32 97.5 -58t127.5 -26q46 0 71.5 20.5t25.5 56.5q0 75 -137 119q-120 39 -175 94t-55 148q0 47 14 84.5t38 61.5t57.5 40t69.5 22.5t77 6.5q229 0 229 -180q0 -49 -25 -65q-41 -25 -117 2v10q1 10 1.5 22.5
t0.5 20.5q0 40 -23.5 63t-67.5 23q-107 0 -107 -105q0 -53 36.5 -85.5t102.5 -55.5q57 -20 91.5 -35.5t70 -40.5t52 -58.5t16.5 -78.5q0 -101 -69.5 -148t-186.5 -47zM256 -256q-39 0 -55 9.5t-16 33.5q0 23 7 39q133 -8 133 43q0 44 -95 26l-2 44q41 16 94 16q48 0 75 -24
t27 -62q0 -59 -52 -92t-116 -33z" />
    <glyph glyph-name="scedilla" unicode="&#x15f;" horiz-adv-x="446" 
d="M218 -7q-97 0 -154 37q-26 18 -26 46q0 37 37 64q23 -19 39.5 -30t47.5 -22t64 -11q61 0 61 49q0 15 -11 26.5t-22.5 16.5t-32.5 12l-71 24q-24 8 -39.5 16t-36 24t-31.5 43t-11 63q0 74 53.5 111.5t142.5 37.5q74 0 122.5 -28.5t48.5 -89.5q0 -37 -18 -48
q-33 -21 -106 -5q5 88 -58 88q-59 0 -59 -57q0 -25 13 -41t48 -29l68 -25q33 -12 50.5 -20t39 -23.5t31 -37.5t9.5 -52q0 -68 -50.5 -103.5t-148.5 -35.5zM181 -256q-39 0 -55 9.5t-16 33.5q0 23 7 39q133 -8 133 43q0 44 -95 26l-2 44q41 16 94 16q48 0 75 -24t27 -62
q0 -59 -52 -92t-116 -33z" />
    <glyph glyph-name="Scaron" unicode="&#x160;" horiz-adv-x="595" 
d="M231 840q-64 72 -116 123q9 29 26 44t36 15q25 0 48 -25q42 -45 75 -103q41 68 80 109q17 17 40 19t36 -11q16 -16 27 -47q-42 -41 -119 -124q-30 -32 -70 -32q-35 0 -63 32zM333 400q57 -20 91.5 -35.5t70 -40.5t52 -58.5t16.5 -78.5q0 -101 -69.5 -148t-186.5 -47
q-87 0 -148 20t-91 42q-24 17 -24 45q0 44 48 82q37 -32 97.5 -58t127.5 -26q46 0 71.5 20.5t25.5 56.5q0 75 -137 119q-120 39 -175 94t-55 148q0 47 14 84.5t38 61.5t57.5 40t69.5 22.5t77 6.5q229 0 229 -180q0 -49 -25 -65q-41 -25 -117 2v10q1 10 1.5 22.5t0.5 20.5
q0 40 -23.5 63t-67.5 23q-107 0 -107 -105q0 -53 36.5 -85.5t102.5 -55.5z" />
    <glyph glyph-name="scaron" unicode="&#x161;" horiz-adv-x="446" 
d="M156 590q-64 72 -116 123q9 29 26 44t36 15q25 0 48 -25q42 -45 75 -103q41 68 80 109q17 17 40 19t36 -11q16 -16 27 -47q-42 -41 -119 -124q-30 -32 -70 -32q-35 0 -63 32zM287 265q33 -12 50.5 -20t39 -23.5t31 -37.5t9.5 -52q0 -68 -50.5 -103.5t-148.5 -35.5
q-97 0 -154 37q-26 18 -26 46q0 37 37 64q23 -19 39.5 -30t47.5 -22t64 -11q61 0 61 49q0 15 -11 26.5t-22.5 16.5t-32.5 12l-71 24q-24 8 -39.5 16t-36 24t-31.5 43t-11 63q0 74 53.5 111.5t142.5 37.5q74 0 122.5 -28.5t48.5 -89.5q0 -37 -18 -48q-33 -21 -106 -5
q5 88 -58 88q-59 0 -59 -57q0 -25 13 -41t48 -29z" />
    <glyph glyph-name="uni0162" unicode="&#x162;" horiz-adv-x="582" 
d="M285 -6q-65 0 -66 40q-2 119 -2 542q0 39 18 58h-184q-25 0 -31 35.5t5 70.5h505q28 0 32.5 -33t-10.5 -73h-188q3 -317 0 -634q-47 -6 -79 -6zM249 -256q-39 0 -55 9.5t-16 33.5q0 23 7 39q133 -8 133 43q0 44 -95 26l-2 44q41 16 94 16q48 0 75 -24t27 -62
q0 -59 -52 -92t-116 -33z" />
    <glyph glyph-name="uni0163" unicode="&#x163;" horiz-adv-x="405" 
d="M369 103q16 -27 16 -47q0 -33 -52 -52q-42 -15 -89 -15q-49 0 -82.5 13t-49.5 36.5t-22 47.5t-6 55v265l-69 1q-13 22 -8.5 46.5t26.5 26.5l53 4l4 116q2 64 65 64q20 0 58 -8l5 -7v-159h149q9 -22 6 -55.5t-19 -33.5l-136 2v-267q0 -59 53 -59q32 0 90 28zM227 -45
q48 0 75 -24t27 -62q0 -59 -52 -92t-116 -33q-39 0 -55 9.5t-16 33.5q0 23 7 39q133 -8 133 43q0 44 -95 26l-2 44q41 16 94 16z" />
    <glyph glyph-name="Tcaron" unicode="&#x164;" horiz-adv-x="582" 
d="M224 850q-64 72 -116 123q9 29 26 44t36 15q25 0 48 -25q42 -45 75 -103q41 68 80 109q17 17 40 19t36 -11q16 -16 27 -47q-42 -41 -119 -124q-30 -32 -70 -32q-35 0 -63 32zM530 740q28 0 32.5 -33t-10.5 -73h-188q3 -317 0 -634q-47 -6 -79 -6q-65 0 -66 40
q-2 119 -2 542q0 39 18 58h-184q-25 0 -31 35.5t5 70.5h505z" />
    <glyph glyph-name="tcaron" unicode="&#x165;" horiz-adv-x="499" 
d="M334 789q83 21 115 -24l-16 -148q-6 -33 -25 -44t-74 -3v219zM405 105l8 -2q16 -27 16 -47q0 -33 -52 -52q-42 -15 -89 -15q-49 0 -82.5 13t-49.5 36.5t-22 47.5t-6 55v265l-69 1q-13 22 -8.5 46.5t26.5 26.5l53 4l4 116q2 64 65 64q20 0 58 -8l5 -7v-159h149
q9 -22 6 -55.5t-19 -33.5l-136 2v-267q0 -59 53 -59q32 0 90 28z" />
    <glyph glyph-name="Tbar" unicode="&#x166;" horiz-adv-x="645" 
d="M584 630h-186q0 -120 1 -180h113q42 0 22 -80h-135q0 -41 -0.5 -116.5t-1 -137t-1.5 -116.5q-47 -6 -79 -6q-65 0 -66 40q-3 168 -3 336h-95q-22 0 -28.5 22.5t2.5 57.5h121q0 20 0.5 61t0.5 61q0 39 18 58h-167q-50 0 -50 59q0 23 7 51h496q42 0 42 -48q0 -29 -11 -62z
" />
    <glyph glyph-name="tbar" unicode="&#x167;" horiz-adv-x="405" 
d="M369 103q16 -27 16 -47q0 -33 -52 -52q-42 -15 -89 -15q-49 0 -82.5 13t-49.5 36.5t-22 47.5t-6 55v125l-69 1q-8 15 -9 30t5.5 26t21.5 12l51 4v67l-69 1q-13 22 -8.5 46.5t26.5 26.5l53 4l4 116q2 64 65 64q20 0 58 -8l5 -7v-159h149q9 -22 6 -55.5t-19 -33.5l-136 2
v-58h129q9 -23 6 -53.5t-19 -30.5l-116 2v-127q0 -59 53 -59q32 0 90 28z" />
    <glyph glyph-name="Umacron" unicode="&#x16a;" horiz-adv-x="687" 
d="M245 934q38 0 126.5 -2t115.5 -2q12 -82 -32 -82q-203 0 -259 -3q-19 89 49 89zM336 -10q-276 0 -276 307v443q40 10 78 10q23 0 38 -4.5t20 -13t6.5 -14t1.5 -13.5v-403q0 -49 6 -83.5t20.5 -64t43 -44t71.5 -14.5q84 0 111.5 51t27.5 153v440q30 10 67 10q77 0 77 -46
v-407q0 -307 -292 -307z" />
    <glyph glyph-name="umacron" unicode="&#x16b;" horiz-adv-x="548" 
d="M176 695q38 0 126.5 -2t115.5 -2q12 -82 -32 -82q-203 0 -259 -3q-19 89 49 89zM199 -10q-75 0 -109.5 41.5t-34.5 104.5v209q0 82 -10 138q39 14 78 14q34 0 49 -13.5t16 -47.5q4 -18 1.5 -143t-2.5 -156q0 -29 11 -44t41 -15q32 0 58.5 24.5t59.5 92.5v295q42 6 68 6
q74 0 74 -71q0 -26 -6.5 -79.5t-7.5 -69.5l13 -264q-40 -18 -68 -18q-34 0 -47 13.5t-11 39.5l4 81h-2q-34 -77 -75.5 -107.5t-99.5 -30.5z" />
    <glyph glyph-name="Uring" unicode="&#x16e;" horiz-adv-x="687" 
d="M349 815q-61 0 -97 30.5t-36 83.5q0 51 36.5 82t96.5 31q61 0 97.5 -30.5t36.5 -82.5q0 -51 -37 -82.5t-97 -31.5zM350 869q43 0 43 60q0 59 -43 59t-43 -59q0 -60 43 -60zM336 -10q-276 0 -276 307v443q40 10 78 10q23 0 38 -4.5t20 -13t6.5 -14t1.5 -13.5v-403
q0 -49 6 -83.5t20.5 -64t43 -44t71.5 -14.5q84 0 111.5 51t27.5 153v440q30 10 67 10q77 0 77 -46v-407q0 -307 -292 -307z" />
    <glyph glyph-name="uring" unicode="&#x16f;" horiz-adv-x="548" 
d="M280 576q-61 0 -97 30.5t-36 83.5q0 51 36.5 82t96.5 31q61 0 97.5 -30.5t36.5 -82.5q0 -51 -37 -82.5t-97 -31.5zM281 630q43 0 43 60q0 59 -43 59t-43 -59q0 -60 43 -60zM199 -10q-75 0 -109.5 41.5t-34.5 104.5v209q0 82 -10 138q39 14 78 14q34 0 49 -13.5t16 -47.5
q4 -18 1.5 -143t-2.5 -156q0 -29 11 -44t41 -15q32 0 58.5 24.5t59.5 92.5v295q42 6 68 6q74 0 74 -71q0 -26 -6.5 -79.5t-7.5 -69.5l13 -264q-40 -18 -68 -18q-34 0 -47 13.5t-11 39.5l4 81h-2q-34 -77 -75.5 -107.5t-99.5 -30.5z" />
    <glyph glyph-name="Uhungarumlaut" unicode="&#x170;" horiz-adv-x="687" 
d="M246 810q-34 10 -46.5 30.5t2.5 45.5q72 110 90 145q44 -2 63 -15q22 -15 22 -42q0 -23 -17 -41zM431 810q-34 10 -46.5 30.5t2.5 45.5q72 110 90 145q44 -2 63 -15q22 -15 22 -42q0 -23 -17 -41zM336 -10q-276 0 -276 307v443q40 10 78 10q23 0 38 -4.5t20 -13t6.5 -14
t1.5 -13.5v-403q0 -49 6 -83.5t20.5 -64t43 -44t71.5 -14.5q84 0 111.5 51t27.5 153v440q30 10 67 10q77 0 77 -46v-407q0 -307 -292 -307z" />
    <glyph glyph-name="uhungarumlaut" unicode="&#x171;" horiz-adv-x="548" 
d="M177 571q-34 10 -46.5 30.5t2.5 45.5q72 110 90 145q44 -2 63 -15q22 -15 22 -42q0 -23 -17 -41zM362 571q-34 10 -46.5 30.5t2.5 45.5q72 110 90 145q44 -2 63 -15q22 -15 22 -42q0 -23 -17 -41zM199 -10q-75 0 -109.5 41.5t-34.5 104.5v209q0 82 -10 138q39 14 78 14
q34 0 49 -13.5t16 -47.5q4 -18 1.5 -143t-2.5 -156q0 -29 11 -44t41 -15q32 0 58.5 24.5t59.5 92.5v295q42 6 68 6q74 0 74 -71q0 -26 -6.5 -79.5t-7.5 -69.5l13 -264q-40 -18 -68 -18q-34 0 -47 13.5t-11 39.5l4 81h-2q-34 -77 -75.5 -107.5t-99.5 -30.5z" />
    <glyph glyph-name="Wcircumflex" unicode="&#x174;" horiz-adv-x="1142" 
d="M484 827q-17 -17 -40 -19.5t-36 11.5q-16 16 -27 47q42 41 119 124q30 32 70 32q35 0 63 -32q64 -72 116 -123q-9 -29 -26 -44t-36 -15q-25 0 -48 25q-42 45 -75 103q-44 -73 -80 -109zM1033 711q58 -81 58 -313q0 -209 -69.5 -308.5t-221.5 -99.5q-105 0 -156 47
t-72 146h-3q-40 -106 -97.5 -149.5t-150.5 -43.5q-252 0 -252 268v353q0 79 -6 119q51 16 90 16q22 0 36 -6.5t19 -18.5t6.5 -19t1.5 -16v-418q0 -172 135 -172q32 0 55 8.5t41 30t28 39.5t27 55v501q50 11 86 11q41 0 57.5 -24.5t16.5 -83.5q0 -88 -21 -240
q0 -167 37.5 -231t113.5 -64q78 0 110.5 60.5t32.5 201.5q0 82 -12 149.5t-24 100.5t-39 96q55 39 103 39q45 0 70 -34z" />
    <glyph glyph-name="wcircumflex" unicode="&#x175;" horiz-adv-x="840" 
d="M334 577q-17 -17 -40 -19.5t-36 11.5q-16 16 -27 47q42 41 119 124q30 32 70 32q35 0 63 -32q64 -72 116 -123q-9 -29 -26 -44t-36 -15q-25 0 -48 25q-42 45 -75 103q-44 -72 -80 -109zM786 429q10 -57 10 -156q0 -155 -60 -219t-168 -64q-58 0 -102.5 33.5t-58.5 102.5
q-37 -136 -173 -136q-86 0 -136.5 42.5t-50.5 137.5v132q0 131 -7 178q52 10 84 10q24 0 42.5 -15t18.5 -42v-249q0 -101 72 -101q98 0 98 197v200q32 10 67 10q33 0 53 -15.5t20 -40.5q0 -64 -11 -149q0 -120 14.5 -161t67.5 -41q88 0 88 176q0 98 -28 209q48 28 91 28
q58 0 69 -67z" />
    <glyph glyph-name="Ycircumflex" unicode="&#x176;" horiz-adv-x="671" 
d="M225 827q-17 -17 -40 -19.5t-36 11.5q-16 16 -27 47q42 41 119 124q30 32 70 32q35 0 63 -32q64 -72 116 -123q-9 -29 -26 -44t-36 -15q-25 0 -48 25q-42 45 -75 103q-43 -73 -80 -109zM637 695q0 -39 -32 -98q-46 -88 -180 -311l6 -286q-47 -9 -82 -9q-69 0 -67 52
l5 243q-81 137 -253 412q45 52 101 52q39 0 57 -29q70 -113 167 -301q145 265 149 320q34 10 65 10q29 0 46.5 -15t17.5 -40z" />
    <glyph glyph-name="ycircumflex" unicode="&#x177;" horiz-adv-x="541" 
d="M178 587q-17 -17 -40 -19.5t-36 11.5q-16 16 -27 47q42 41 119 124q30 32 70 32q35 0 63 -32q64 -72 116 -123q-9 -29 -26 -44t-36 -15q-25 0 -48 25q-42 45 -75 103q-44 -72 -80 -109zM479 267l9 -222q5 -127 -59 -188t-174 -61q-59 0 -111.5 16.5t-80.5 48.5
q-12 14 -12 29q0 44 41 75q43 -43 81.5 -60t87.5 -17q52 0 84.5 38t32.5 89l-1 128l-2 1q-32 -74 -72 -104t-102 -30q-146 0 -146 161v174q0 82 -10 138q36 13 78 13q35 0 50.5 -13t15.5 -45v-265q0 -37 12 -56t44 -19q28 0 52 24t59 90v278q40 6 68 6q40 0 56 -18.5
t16 -52.5q0 -35 -17 -158z" />
    <glyph glyph-name="Ydieresis" unicode="&#x178;" horiz-adv-x="671" 
d="M201 825q-63 0 -63 69q0 31 19.5 48t53.5 17q64 0 64 -69q0 -65 -74 -65zM407 825q-62 0 -62 69q0 30 19.5 47.5t52.5 17.5q64 0 64 -69q0 -65 -74 -65zM637 695q0 -39 -32 -98q-46 -88 -180 -311l6 -286q-47 -9 -82 -9q-69 0 -67 52l5 243q-81 137 -253 412
q45 52 101 52q39 0 57 -29q70 -113 167 -301q145 265 149 320q34 10 65 10q29 0 46.5 -15t17.5 -40z" />
    <glyph glyph-name="Zacute" unicode="&#x179;" horiz-adv-x="633" 
d="M291 820q-34 10 -46.5 30.5t2.5 45.5q72 110 90 145q44 -2 63 -15q22 -15 22 -42q0 -23 -17 -41zM586 121q19 -62 5 -94q-8 -18 -25 -24.5t-49 -7.5q-84 -2 -227 2t-212 3q-34 27 -35 78t25 83l354 478l-323 -11q-43 -3 -55 24q-7 16 -6.5 32.5t7.5 57.5q45 -2 132 -2
h381q25 -29 25 -57q0 -34 -14 -54l-376 -519z" />
    <glyph glyph-name="zacute" unicode="&#x17a;" horiz-adv-x="423" 
d="M186 570q-34 10 -46.5 30.5t2.5 45.5q72 110 90 145q44 -2 63 -15q22 -15 22 -42q0 -23 -17 -41zM403 101q13 -57 2 -82q-10 -23 -63 -25q-65 -1 -96 0t-95.5 3t-106.5 3q-21 17 -21 64q0 38 29 72l210 255l-183 -5q-15 -1 -27.5 5t-17.5 16q-15 31 1 86q38 -3 111 -3
h232q27 -17 27 -60q0 -30 -29 -65l-220 -272z" />
    <glyph glyph-name="Zdotaccent" unicode="&#x17b;" horiz-adv-x="633" 
d="M315 825q-32 0 -49.5 20t-17.5 55q0 34 20 51t54 17q68 0 68 -76q0 -32 -20 -49.5t-55 -17.5zM586 121q19 -62 5 -94q-8 -18 -25 -24.5t-49 -7.5q-84 -2 -227 2t-212 3q-34 27 -35 78t25 83l354 478l-323 -11q-43 -3 -55 24q-7 16 -6.5 32.5t7.5 57.5q45 -2 132 -2h381
q25 -29 25 -57q0 -34 -14 -54l-376 -519z" />
    <glyph glyph-name="zdotaccent" unicode="&#x17c;" horiz-adv-x="423" 
d="M210 575q-32 0 -49.5 20t-17.5 55q0 34 20 51t54 17q68 0 68 -76q0 -32 -20 -49.5t-55 -17.5zM403 101q13 -57 2 -82q-10 -23 -63 -25q-65 -1 -96 0t-95.5 3t-106.5 3q-21 17 -21 64q0 38 29 72l210 255l-183 -5q-15 -1 -27.5 5t-17.5 16q-15 31 1 86q38 -3 111 -3h232
q27 -17 27 -60q0 -30 -29 -65l-220 -272z" />
    <glyph glyph-name="Zcaron" unicode="&#x17d;" horiz-adv-x="633" 
d="M250 850q-64 72 -116 123q9 29 26 44t36 15q25 0 48 -25q42 -45 75 -103q41 68 80 109q17 17 40 19t36 -11q16 -16 27 -47q-42 -41 -119 -124q-30 -32 -70 -32q-35 0 -63 32zM586 121q19 -62 5 -94q-8 -18 -25 -24.5t-49 -7.5q-84 -2 -227 2t-212 3q-34 27 -35 78t25 83
l354 478l-323 -11q-43 -3 -55 24q-7 16 -6.5 32.5t7.5 57.5q45 -2 132 -2h381q25 -29 25 -57q0 -34 -14 -54l-376 -519z" />
    <glyph glyph-name="zcaron" unicode="&#x17e;" horiz-adv-x="423" 
d="M145 600q-64 72 -116 123q9 29 26 44t36 15q25 0 48 -25q42 -45 75 -103q41 68 80 109q17 17 40 19t36 -11q16 -16 27 -47q-42 -41 -119 -124q-30 -32 -70 -32q-35 0 -63 32zM403 101q13 -57 2 -82q-10 -23 -63 -25q-65 -1 -96 0t-95.5 3t-106.5 3q-21 17 -21 64
q0 38 29 72l210 255l-183 -5q-15 -1 -27.5 5t-17.5 16q-15 31 1 86q38 -3 111 -3h232q27 -17 27 -60q0 -30 -29 -65l-220 -272z" />
    <glyph glyph-name="circumflex" unicode="&#x2c6;" horiz-adv-x="484" 
d="M295 740q64 -72 116 -123q-9 -29 -26 -44t-36 -15q-25 0 -48 25q-42 45 -75 103q-44 -72 -80 -109q-17 -17 -40 -19.5t-36 11.5q-16 16 -27 47q42 41 119 124q30 32 70 32q35 0 63 -32z" />
    <glyph glyph-name="caron" unicode="&#x2c7;" horiz-adv-x="494" 
d="M410 761q16 -16 27 -47q-42 -41 -119 -124q-30 -32 -70 -32q-35 0 -63 32q-64 72 -116 123q9 29 26 44t36 15q25 0 48 -25q42 -45 75 -103q41 68 80 109q17 17 40 19t36 -11z" />
    <glyph glyph-name="breve" unicode="&#x2d8;" horiz-adv-x="478" 
d="M414 717q0 -61 -50 -102t-125 -41q-74 0 -124.5 37.5t-50.5 99.5q0 40 56 40q14 0 44 -4q0 -115 69 -115q34 0 52.5 34t17.5 97q18 3 33 3q78 0 78 -49z" />
    <glyph glyph-name="dotaccent" unicode="&#x2d9;" horiz-adv-x="282" 
d="M137 595q-32 0 -49.5 20t-17.5 55q0 34 20 51t54 17q68 0 68 -76q0 -32 -20 -49.5t-55 -17.5z" />
    <glyph glyph-name="ring" unicode="&#x2da;" horiz-adv-x="398" 
d="M203 565q-61 0 -97 30.5t-36 83.5q0 51 36.5 82t96.5 31q61 0 97.5 -30.5t36.5 -82.5q0 -51 -37 -82.5t-97 -31.5zM204 619q43 0 43 60q0 59 -43 59t-43 -59q0 -60 43 -60z" />
    <glyph glyph-name="ogonek" unicode="&#x2db;" horiz-adv-x="394" 
d="M151 10l66 2q-15 -25 -28.5 -64t-13.5 -68q0 -26 9.5 -35t28.5 -9q22 0 58 19q22 -14 22 -37q0 -29 -29 -43t-67 -14q-106 0 -106 104q0 79 60 145z" />
    <glyph glyph-name="tilde" unicode="&#x2dc;" horiz-adv-x="523" 
d="M395 762q29 2 42.5 -16.5t13.5 -57.5q0 -52 -30.5 -81.5t-84.5 -29.5q-57 0 -99 53q-9 11 -21.5 30t-20 27.5t-13.5 8.5q-22 0 -4 -86q-26 -13 -52 -13q-28 0 -39.5 12t-11.5 39q0 52 29.5 81.5t80.5 29.5q59 0 97 -51q8 -12 17 -25l13.5 -19.5t9.5 -13t8.5 -8.5t7.5 -2
q12 0 15 20.5t-1 45t-11 40.5q27 14 54 16z" />
    <glyph glyph-name="hungarumlaut" unicode="&#x2dd;" horiz-adv-x="509" 
d="M119 560q-34 10 -46.5 30.5t2.5 45.5q72 110 90 145q44 -2 63 -15q22 -15 22 -42q0 -23 -17 -41zM304 560q-34 10 -46.5 30.5t2.5 45.5q72 110 90 145q44 -2 63 -15q22 -15 22 -42q0 -23 -17 -41z" />
    <glyph glyph-name="gravecomb" unicode="&#x300;" 
d="M-144 560l-114 123q-17 18 -17 41q0 27 22 42q19 13 63 15q18 -35 90 -145q15 -25 2.5 -45.5t-46.5 -30.5z" />
    <glyph glyph-name="acutecomb" unicode="&#x301;" 
d="M-206 560q-34 10 -46.5 30.5t2.5 45.5q72 110 90 145q44 -2 63 -15q22 -15 22 -42q0 -23 -17 -41z" />
    <glyph glyph-name="uni0302" unicode="&#x302;" 
d="M-168 740q64 -72 116 -123q-9 -29 -26 -44t-36 -15q-25 0 -48 25q-42 45 -75 103q-43 -72 -80 -109q-17 -17 -40 -19.5t-36 11.5q-16 16 -27 47q42 41 119 124q30 32 70 32q35 0 63 -32z" />
    <glyph glyph-name="tildecomb" unicode="&#x303;" 
d="M-386 566q-49 0 -49 58q0 38 24 63.5t69 25.5q36 0 62.5 -18.5t46.5 -37t40 -18.5q28 0 28 32q0 13 -9 33q18 11 38 11q49 0 49 -57q0 -36 -24 -63t-70 -27q-35 0 -61 18.5t-46.5 37t-40.5 18.5q-28 0 -28 -32q0 -14 9 -33q-18 -11 -38 -11z" />
    <glyph glyph-name="uni0304" unicode="&#x304;" 
d="M-313 684q38 0 126.5 -2t115.5 -2q12 -82 -32 -82q-203 0 -259 -3q-19 89 49 89z" />
    <glyph glyph-name="uni0306" unicode="&#x306;" 
d="M-186 717q0 -61 -50 -102t-125 -41q-74 0 -124.5 37.5t-50.5 99.5q0 40 56 40q14 0 44 -4q0 -115 69 -115q34 0 52.5 34t17.5 97q18 3 33 3q78 0 78 -49z" />
    <glyph glyph-name="uni0307" unicode="&#x307;" 
d="M-145 575q-32 0 -49.5 20t-17.5 55q0 34 20 51t54 17q68 0 68 -76q0 -32 -20 -49.5t-55 -17.5z" />
    <glyph glyph-name="uni0308" unicode="&#x308;" 
d="M-338 585q-63 0 -63 69q0 31 19.5 48t53.5 17q64 0 64 -69q0 -65 -74 -65zM-132 585q-62 0 -62 69q0 30 19.5 47.5t52.5 17.5q64 0 64 -69q0 -65 -74 -65z" />
    <glyph glyph-name="uni030A" unicode="&#x30a;" 
d="M-195 565q-61 0 -97 30.5t-36 83.5q0 51 36.5 82t96.5 31q61 0 97.5 -30.5t36.5 -82.5q0 -51 -37 -82.5t-97 -31.5zM-194 619q43 0 43 60q0 59 -43 59t-43 -59q0 -60 43 -60z" />
    <glyph glyph-name="uni030B" unicode="&#x30b;" 
d="M-481 560q-34 10 -46.5 30.5t2.5 45.5q72 110 90 145q44 -2 63 -15q22 -15 22 -42q0 -23 -17 -41zM-296 560q-34 10 -46.5 30.5t2.5 45.5q72 110 90 145q44 -2 63 -15q22 -15 22 -42q0 -23 -17 -41z" />
    <glyph glyph-name="uni030C" unicode="&#x30c;" 
d="M-84 761q16 -16 27 -47q-42 -41 -119 -124q-30 -32 -70 -32q-35 0 -63 32q-64 72 -116 123q9 29 26 44t36 15q25 0 48 -25q42 -45 75 -103q41 68 80 109q17 17 40 19t36 -11z" />
    <glyph glyph-name="uni0312" unicode="&#x312;" 
d="M-100 602q-40 -37 -82 -37q-32 0 -50.5 20t-18.5 57q0 86 53 189l72 -8q-11 -59 -9 -113q4 -66 35 -108z" />
    <glyph glyph-name="uni0326" unicode="&#x326;" 
d="M-231 -106q40 37 82 37q32 0 50.5 -20t18.5 -57q0 -86 -53 -189l-72 8q11 59 9 113q-4 66 -35 108z" />
    <glyph glyph-name="uni0327" unicode="&#x327;" 
d="M-243 -256q-39 0 -55 9.5t-16 33.5q0 23 7 39q133 -8 133 43q0 44 -95 26l-2 44q41 16 94 16q48 0 75 -24t27 -62q0 -59 -52 -92t-116 -33z" />
    <glyph glyph-name="uni0328" unicode="&#x328;" 
d="M-449 10l66 2q-15 -25 -28.5 -64t-13.5 -68q0 -26 9.5 -35t28.5 -9q22 0 58 19q22 -14 22 -37q0 -29 -29 -43t-67 -14q-106 0 -106 104q0 79 60 145z" />
    <glyph glyph-name="uni0401" unicode="&#x401;" horiz-adv-x="598" 
d="M211 860q-63 0 -63 69q0 31 19.5 48t53.5 17q64 0 64 -69q0 -65 -74 -65zM421 860q-62 0 -62 69q0 30 19.5 47.5t52.5 17.5q64 0 64 -69q0 -65 -74 -65zM175 0q-87 0 -87 104v471q0 40 18 59h-64q-11 12 -15 37.5t3.5 47t26.5 21.5l489 2q6 -70 -5 -90q-11 -19 -56 -19
h-252v-254q16 32 57 32l203 2q4 -28 5 -38t-0.5 -22t-7.5 -21q-12 -18 -52 -17l-205 4v-214h243q57 0 89 4q6 -29 6 -56q0 -19 -5.5 -30.5t-17 -16t-19.5 -5.5t-22 -1h-332z" />
    <glyph glyph-name="uni0410" unicode="&#x410;" horiz-adv-x="710" 
d="M478 679l212 -663q-52 -23 -98 -23q-9 0 -16 1.5t-13 3t-11 6t-8.5 6.5t-7.5 9t-5.5 9t-5 11.5t-4 11.5t-4 13t-3.5 13l-40 136l-262 -4l-5 -18q-33 -108 -45 -191q-37 -8 -75 -8q-32 0 -52.5 20.5t-6.5 63.5l189 593q12 39 19 71q70 10 120 10q49 0 79 -15.5t43 -55.5z
M242 307l204 -1l-14 48q-12 43 -41 152t-41 151h-4l-90 -303z" />
    <glyph glyph-name="uni0411" unicode="&#x411;" horiz-adv-x="629" 
d="M152 0q-29 0 -48 19.5t-19 55.5v502q0 38 18 57h-54q-11 12 -15.5 37.5t2.5 47t26 21.5h495q9 -61 -2 -84q-10 -22 -40 -22h-286v-200h130q40 0 79.5 -11t75.5 -34t58.5 -65.5t22.5 -99.5q0 -108 -71 -166t-193 -58h-179zM229 96h104q44 0 78 31t34 94q0 58 -33 88
t-93 30h-90v-243z" />
    <glyph glyph-name="uni0412" unicode="&#x412;" horiz-adv-x="652" 
d="M157 0q-72 0 -72 73v504q0 36 18 57h-54q-18 17 -14 61.5t32 44.5h265q247 0 247 -189q0 -129 -122 -185v-2q161 -35 161 -173q0 -191 -285 -191h-176zM384 405q19 15 33 50t14 76q0 108 -131 108h-70v-234h154zM230 102h110q57 0 92.5 26.5t35.5 73.5q0 54 -35.5 81
t-84.5 27h-118v-208z" />
    <glyph glyph-name="uni0413" unicode="&#x413;" horiz-adv-x="516" 
d="M150 -6q-72 0 -72 52v529q0 36 22 59h-64q-11 12 -15.5 37.5t2.5 47t26 21.5h454q11 -56 -1 -83q-10 -23 -37 -23h-240l-2 -634q-36 -6 -73 -6z" />
    <glyph glyph-name="uni0414" unicode="&#x414;" horiz-adv-x="806" 
d="M702 105h88v-208q0 -24 -24.5 -36.5t-51.5 -11t-47 6.5v144h-527v-103q0 -24 -25.5 -36.5t-53.5 -11t-48 6.5v203q0 19 13.5 32.5t32.5 13.5h39l164 555q13 47 14 70q72 16 115 16q64 0 91.5 -15t39.5 -54zM261 191q-3 -10 -10.5 -40.5t-11.5 -45.5h296l-61 241
q-24 93 -90 301h-4q-30 -102 -80 -301z" />
    <glyph glyph-name="uni0415" unicode="&#x415;" horiz-adv-x="598" 
d="M175 0q-87 0 -87 104v471q0 40 18 59h-64q-11 12 -15 37.5t3.5 47t26.5 21.5l489 2q6 -70 -5 -90q-11 -19 -56 -19h-252v-254q16 32 57 32l203 2q4 -28 5 -38t-0.5 -22t-7.5 -21q-12 -18 -52 -17l-205 4v-214h243q57 0 89 4q6 -29 6 -56q0 -19 -5.5 -30.5t-17 -16
t-19.5 -5.5t-22 -1h-332z" />
    <glyph glyph-name="uni0416" unicode="&#x416;" horiz-adv-x="993" 
d="M842 750q41 0 59.5 -11.5t17.5 -36.5l-9 -341l9 -361q-34 -10 -79 -10q-71 0 -71 48v235l-197 1v-274q-42 -11 -65 -11q-35 0 -61 10.5t-26 31.5v243l-197 1v-275q-40 -10 -71 -10q-38 0 -58.5 11.5t-19.5 36.5l9 334l-9 368q35 10 80 10q69 0 69 -48v-373q17 46 65 46
h132v365q47 10 90 10q62 0 62 -51v-325l197 -1v367q36 10 73 10z" />
    <glyph glyph-name="uni0417" unicode="&#x417;" horiz-adv-x="543" 
d="M240 -8q-85 0 -149 24q-68 26 -68 69q0 32 35 78q74 -45 108 -55q35 -11 75 -11q50 0 86 23.5t36 71.5q0 36 -18.5 55t-64.5 34q-69 -16 -92 -16q-35 0 -52.5 18.5t-15 45t20.5 51.5l119 -13q40 30 63 78.5t23 102.5q0 41 -19 65.5t-37.5 30t-36.5 5.5q-58 0 -79 -30
t-23 -87q-23 -8 -53.5 -9t-44.5 6q-31 13 -28 60q1 27 11.5 52t33.5 51.5t70 42t113 15.5q119 -1 182 -48t63 -138q0 -153 -151 -219v-1q75 -11 121.5 -51t46.5 -116q0 -90 -80 -137.5t-195 -47.5z" />
    <glyph glyph-name="uni0418" unicode="&#x418;" horiz-adv-x="727" 
d="M273 -10q-59 0 -102 19.5t-64 51.5t-30 65.5t-9 69.5v381q0 96 -8 163q70 10 90 10q38 0 49 -17.5t11 -55.5v-460q0 -122 93 -122q60 0 104 67t86 196v382q52 10 91 10t54 -15t15 -47q0 -74 -15 -276l9 -412q-24 -5 -68 -5q-42 0 -56 13.5t-14 36.5q0 60 10 182l-2 2
q-17 -48 -29.5 -76.5t-33.5 -63.5t-44 -54t-58 -32t-79 -13z" />
    <glyph glyph-name="uni0419" unicode="&#x419;" horiz-adv-x="729" 
d="M211 919l271 7q20 1 29.5 -24t1.5 -50t-31 -25l-257 2q-19 0 -22.5 36.5t8.5 53.5zM275 -10q-59 0 -102 19.5t-64 51.5t-30 65.5t-9 69.5v381q0 96 -8 163q70 10 90 10q38 0 49 -17.5t11 -55.5v-460q0 -122 93 -122q60 0 104 67t86 196v382q52 10 91 10t54 -15t15 -47
q0 -74 -15 -276l9 -412q-24 -5 -68 -5q-42 0 -56 13.5t-14 36.5q0 60 10 182l-2 2q-17 -48 -29.5 -76.5t-33.5 -63.5t-44 -54t-58 -32t-79 -13z" />
    <glyph glyph-name="uni041A" unicode="&#x41a;" horiz-adv-x="728" 
d="M614 -9q-36 0 -96 65q-59 65 -145 192l-116 -192q-25 -40 -45.5 -51.5t-44.5 -11.5q-44 0 -65 21.5t-22 75.5l-7 650q35 10 80 10q69 0 69 -48v-156q0 -164 -23 -391l3 -1l138 250q86 237 149 305q21 22 42.5 31.5t54.5 9.5q62 0 86 -64q-8 -13 -87.5 -121.5
t-140.5 -203.5q145 -192 266 -284q-24 -86 -96 -86z" />
    <glyph glyph-name="uni041B" unicode="&#x41b;" horiz-adv-x="700" 
d="M87 -8q-32 0 -52.5 20.5t-6.5 63.5l184 593q10 30 19 71q66 11 120 11q53 0 82 -15.5t40 -51.5l207 -668q-52 -23 -98 -23q-10 0 -18 1t-14.5 4.5t-11 6t-9 9.5t-7 9.5t-6 12.5t-4.5 12.5t-4 14.5t-4 14l-79 277q-12 43 -40 151.5t-40 151.5h-4q-8 -26 -24 -85t-63 -218
l-48 -163q-32 -111 -44 -191q-37 -8 -75 -8z" />
    <glyph glyph-name="uni041C" unicode="&#x41c;" horiz-adv-x="926" 
d="M789 -11q-27 0 -42.5 13t-18.5 48l-27 326q-2 25 -5 109.5t-5 109.5h-2q-2 -9 -18.5 -96.5t-25.5 -121.5l-78 -295q-10 -50 -43.5 -70.5t-73.5 -20.5q-95 0 -117 93l-75 296q-6 24 -18.5 108t-18.5 108h-2q-2 -25 -5.5 -109.5t-5.5 -109.5l-22 -298q-2 -34 1 -79
q-31 -9 -56 -9q-48 0 -68.5 11t-17.5 47l53 516q12 117 7 175q70 10 121 10q81 0 99 -68l87 -340q20 -79 48 -232h4q11 55 58 233l59 228q29 111 30 169q55 10 88 10q61 0 87.5 -21.5t31.5 -72.5l66 -650q-73 -17 -95 -17z" />
    <glyph glyph-name="uni041D" unicode="&#x41d;" horiz-adv-x="738" 
d="M586 750q38 0 58.5 -11.5t19.5 -36.5l-9 -334l9 -368q-35 -10 -80 -10q-69 0 -69 48v231l-292 -2v-267q-40 -10 -71 -10q-38 0 -58.5 11.5t-19.5 36.5l9 334l-9 368q35 10 80 10q69 0 69 -48v-382q15 46 54 46h238v374q40 10 71 10z" />
    <glyph glyph-name="uni041E" unicode="&#x41e;" horiz-adv-x="738" 
d="M369 -10q-155 0 -241.5 103t-86.5 280q0 175 86.5 276t241.5 101t241.5 -101.5t86.5 -275.5t-87 -278.5t-241 -104.5zM369 96q174 0 174 277q0 271 -174 271t-174 -271q0 -126 41.5 -201.5t132.5 -75.5z" />
    <glyph glyph-name="uni041F" unicode="&#x41f;" horiz-adv-x="711" 
d="M162 -7q-73 0 -73 43l-2 541q0 38 18 57h-54q-11 12 -15.5 37.5t2.5 47t26 21.5h502q28 0 47 -16.5t19 -43.5v-680q-31 -10 -60 -10q-84 0 -84 46v598h-256v-634q-49 -7 -70 -7z" />
    <glyph glyph-name="uni0420" unicode="&#x420;" horiz-adv-x="642" 
d="M150 -6q-30 0 -48.5 10.5t-15.5 31.5v542q0 37 18 56h-54q-18 17 -14 56.5t32 39.5h254q145 0 217 -57t72 -181q0 -114 -72.5 -180t-208.5 -66q-63 0 -102 47v-293q-42 -6 -78 -6zM323 342q58 0 96 42.5t38 115.5q0 62 -35.5 98t-91.5 36h-100v-287q38 -5 93 -5z" />
    <glyph glyph-name="uni0421" unicode="&#x421;" horiz-adv-x="661" 
d="M376 -10q-164 0 -249 94.5t-85 283.5q0 169 83 275.5t232 106.5q259 0 259 -212q0 -57 -11.5 -77.5t-40.5 -27.5q-37 -9 -94 8q4 31 4 88q0 115 -114 115q-75 0 -119 -75.5t-44 -197.5q0 -136 46.5 -205.5t150.5 -69.5q55 0 94.5 23t85.5 68q28 -13 41.5 -29t12.5 -42
q0 -23 -35 -51q-27 -22 -48 -35.5t-66.5 -26.5t-102.5 -13z" />
    <glyph glyph-name="uni0422" unicode="&#x422;" horiz-adv-x="582" 
d="M285 -6q-65 0 -66 40q-2 119 -2 542q0 39 18 58h-184q-25 0 -31 35.5t5 70.5h505q28 0 32.5 -33t-10.5 -73h-188q3 -317 0 -634q-47 -6 -79 -6z" />
    <glyph glyph-name="uni0423" unicode="&#x423;" horiz-adv-x="612" 
d="M283 -11q-110 0 -184 48q-13 10 -19 15.5t-11 15t-5 22.5q0 39 47 74q77 -72 170 -72q146 0 146 153v102h-1l-21 -28t-26 -28.5t-37.5 -30.5t-46.5 -19.5t-60 -9.5q-86 0 -135.5 49t-49.5 137v192q0 97 -4 131q45 10 87 10q59 0 59 -46v-291q0 -40 22 -60.5t54 -20.5
q42 0 74.5 23t69.5 70v156q0 124 -4 159q32 10 91 10q54 0 54 -53v-452q0 -38 -7 -72t-26 -68.5t-48.5 -59.5t-78 -40.5t-110.5 -15.5z" />
    <glyph glyph-name="uni0424" unicode="&#x424;" horiz-adv-x="836" 
d="M795 381q0 -78 -26.5 -136.5t-71.5 -92t-95 -51t-107 -22.5l1 -113q-60 -10 -70 -10q-36 0 -57 13.5t-19 37.5l-1 71q-46 3 -87.5 13.5t-82.5 33t-71 55t-48.5 84t-18.5 115.5q0 62 16 112.5t41.5 81.5t48.5 48.5t46 28.5q87 38 150 2l-1 133q36 10 79 10
q41 0 55.5 -11.5t14.5 -33.5v-67q58 -4 108.5 -21.5t96.5 -51t72.5 -92.5t26.5 -137zM193 379q0 -89 46 -140t109 -58l-4 403q-151 -37 -151 -205zM495 182q61 10 104.5 61.5t43.5 137.5q0 87 -44.5 139t-106.5 61z" />
    <glyph glyph-name="uni0425" unicode="&#x425;" horiz-adv-x="687" 
d="M565 186q22 -32 54 -71.5t42 -47.5q-41 -75 -97 -75q-42 0 -75 49l-154 226l-108 -141q-72 -95 -93 -136q-49 0 -74 19.5t-25 52.5q0 30 29 67l194 241l-148 204q-49 66 -85 102q8 26 32 50t64 24q39 0 74 -49l166 -238l154 203q25 33 54 84q99 0 99 -73q0 -29 -29 -66
l-200 -251z" />
    <glyph glyph-name="uni0426" unicode="&#x426;" horiz-adv-x="760" 
d="M606 -179q6 79 6 172q-105 2 -105 144q0 17 4 85h-1q-18 -45 -32 -74t-36.5 -62t-47.5 -52t-62.5 -31.5t-83.5 -12.5q-55 0 -94.5 19t-59 51t-28 64.5t-8.5 68.5v376q0 95 -8 161q70 10 90 10q37 0 48.5 -17t11.5 -56v-452q0 -120 93 -120q60 0 104 65t86 191v379
q52 10 91 10q32 0 49 -18t17 -52q0 -81 -15 -245v-252v-18t1 -17t3.5 -16.5t6.5 -13.5t10 -12t15 -8.5t21 -6t28.5 -1t36.5 2.5v-210q0 -31 -30 -46t-61 -12.5t-50 6.5z" />
    <glyph glyph-name="uni0427" unicode="&#x427;" horiz-adv-x="696" 
d="M613 356l9 -356q-34 -10 -75 -10q-26 0 -43 5t-23 14t-7.5 14.5t-1.5 13.5v276q-87 -109 -204 -109q-36 0 -68.5 8.5t-65.5 29.5t-53 64t-20 104q-1 166 -2.5 216t-9.5 104q32 10 71 10q79 0 79 -51v-267q0 -38 11.5 -64t30 -36.5t31.5 -14t26 -3.5q79 0 174 94v332
q36 10 76 10q67 0 67 -40z" />
    <glyph glyph-name="uni0428" unicode="&#x428;" horiz-adv-x="1160" 
d="M274 -10q-59 0 -101.5 20t-64.5 53.5t-32 69t-10 73.5v217q0 249 -8 317q70 10 90 10q11 0 20.5 -1.5t16 -5t11 -6.5t7.5 -9t5 -9.5t2.5 -11t0.5 -10v-11v-9.5v-460q0 -59 21 -90.5t72 -31.5q59 0 102.5 66t87.5 197l1 382q33 10 85 10q39 0 56.5 -19.5t17.5 -61.5
q0 -81 -15 -257l3 -195q1 -59 22.5 -90.5t72.5 -31.5q57 0 102.5 68t86.5 195v382q48 10 82 10q44 0 61 -20t17 -61q0 -109 -15 -257l9 -412q-22 -5 -68 -5q-42 0 -56 13.5t-14 36.5q0 66 11 184h-3q-17 -48 -29.5 -76.5t-33.5 -63.5t-44 -54t-58 -32t-79 -13q-88 0 -137 48
t-49 121v67h-3q-12 -33 -20.5 -54t-22 -49t-26 -44.5t-31 -35.5t-38.5 -29t-47 -17t-58 -7z" />
    <glyph glyph-name="uni0429" unicode="&#x429;" horiz-adv-x="1204" 
d="M1051 -182q4 116 4 175q-106 2 -106 144q0 44 6 92h-3q-18 -46 -32 -77t-35.5 -64.5t-45 -53t-58 -32t-76.5 -12.5q-88 0 -137 48t-49 121v67h-3q-12 -33 -20.5 -54t-22 -49t-26 -44.5t-31 -35.5t-38.5 -29t-47 -17t-58 -7q-47 0 -84 14t-59.5 35.5t-36.5 50.5
t-19.5 57.5t-5.5 58.5v217q0 249 -8 317q70 10 90 10q14 0 25 -2.5t17.5 -8t10.5 -9.5t5.5 -13t2 -13t0 -14.5t-0.5 -12.5v-460q0 -59 21 -90.5t72 -31.5q58 0 102 66.5t88 196.5l1 382q33 10 85 10q39 0 56.5 -19.5t17.5 -61.5q0 -81 -15 -257l3 -195q1 -59 22.5 -90.5
t72.5 -31.5q57 0 102.5 68t86.5 195v382q54 10 91 10q32 0 49 -18t17 -52q0 -86 -15 -251v-256q0 -27 2.5 -40.5t13 -30t37.5 -20.5t71 1q-1 -39 -1.5 -113.5t-0.5 -98.5t-17.5 -38.5t-41.5 -17.5t-45.5 -2t-33.5 5z" />
    <glyph glyph-name="uni042A" unicode="&#x42a;" horiz-adv-x="695" 
d="M375 -10q-78 0 -140 24.5t-102.5 81.5t-40.5 141q0 121 73 217q59 79 197 190l-2 3l-289 -12q-56 -2 -56 52q0 20 12 56q43 -3 129 -3h324q16 -28 17.5 -63t-15.5 -53q-3 -3 -24.5 -22.5t-26 -23.5t-23 -21t-24.5 -24t-22 -23t-24.5 -27t-22 -27.5t-25 -32.5t-23.5 -34
l1 -1q66 63 178 63q40 0 77.5 -12t71 -37t53.5 -69.5t20 -103.5q0 -116 -80.5 -177.5t-212.5 -61.5zM382 91q69 0 103 38.5t34 94.5q0 59 -35.5 92t-103.5 33q-44 0 -127 -20q-18 -42 -18 -91q0 -75 42 -111t105 -36z" />
    <glyph glyph-name="uni042B" unicode="&#x42b;" horiz-adv-x="955" 
d="M812 -10q-76 0 -76 48v702q35 10 78 10q67 0 67 -48v-702q-40 -10 -69 -10zM355 -9q-141 0 -218 73t-77 219v447q47 14 82 14q27 0 45.5 -16t18.5 -37l-3 -302l3 -2q84 73 189 73q65 0 118.5 -20.5t90.5 -71.5t37 -126q0 -120 -70 -185.5t-216 -65.5zM354 97q71 0 107 36
t36 104q0 57 -39.5 87t-93.5 30q-71 0 -161 -37v-41q0 -87 39 -133t112 -46z" />
    <glyph glyph-name="uni042C" unicode="&#x42c;" horiz-adv-x="667" 
d="M355 -9q-141 0 -218 73t-77 219v447q47 14 82 14q27 0 45.5 -16t18.5 -37l-3 -302l3 -2q84 73 189 73q65 0 118.5 -20.5t90.5 -71.5t37 -126q0 -120 -70 -185.5t-216 -65.5zM354 97q71 0 107 36t36 104q0 57 -39.5 87t-93.5 30q-71 0 -161 -37v-41q0 -87 39 -133t112 -46
z" />
    <glyph glyph-name="uni042D" unicode="&#x42d;" horiz-adv-x="704" 
d="M353 750q153 0 231.5 -96.5t78.5 -288.5q0 -77 -16.5 -141.5t-52.5 -118.5t-101 -84.5t-153 -30.5q-125 0 -212 63q-41 30 -41 65q0 23 15.5 43.5t38.5 30.5q46 -45 90 -69.5t101 -24.5q75 0 118.5 45t54.5 151h-241v105h244q-4 137 -43 190.5t-117 53.5
q-69 0 -101.5 -38.5t-44.5 -107.5q-57 -9 -88 8q-43 24 -25 97q16 66 82.5 107t181.5 41z" />
    <glyph glyph-name="uni042E" unicode="&#x42e;" horiz-adv-x="1000" 
d="M641 750q152 0 235 -103.5t83 -273.5t-83.5 -276.5t-234.5 -106.5q-137 0 -218 85.5t-97 230.5h-103v-306q-40 -10 -71 -10q-71 0 -71 41l2 336l-9 363q35 10 80 10q69 0 69 -46v-289h101q8 158 90 251.5t227 93.5zM641 96q164 0 164 277q0 129 -37.5 200t-126.5 71
q-164 0 -164 -271q0 -277 164 -277z" />
    <glyph glyph-name="uni042F" unicode="&#x42f;" horiz-adv-x="752" 
d="M705 300q0 -195 6 -300q-7 -1 -25 -4t-30.5 -4.5t-17.5 -1.5q-43 0 -56.5 15t-13.5 45q0 136 11 234l-1 2q-23 -12 -56 -22q-98 -118 -182 -175t-194 -87q-32 -8 -38 -8q-42 0 -60.5 34.5t-5.5 95.5q223 29 335 112q-39 -5 -77 -5q-113 0 -178 69.5t-65 187.5
q0 133 78 197.5t206 64.5q116 0 187.5 -64.5t71.5 -176.5q0 -75 -46 -154q28 8 47 15q47 18 75.5 -2t28.5 -68zM201 487q0 -87 40 -125t102 -38q28 0 89 7q26 57 26 157q0 76 -33 115t-91 39q-61 0 -97 -44.5t-36 -110.5z" />
    <glyph glyph-name="uni0430" unicode="&#x430;" horiz-adv-x="580" 
d="M231 -10q-28 0 -53.5 5.5t-53 22t-47.5 43t-33 71t-13 103.5q0 64 16 113.5t40.5 77.5t57.5 45.5t61 23t58 5.5q91 0 134 -64v54q38 6 69 6q64 0 64 -60q0 -29 -6.5 -89.5t-8.5 -85.5l14 -249q-36 -18 -73 -18q-32 0 -47.5 14t-13.5 38l5 71h-1q-34 -71 -75 -99t-94 -28z
M272 78q41 0 63 25.5t54 90.5v196q-42 22 -82 22q-132 0 -132 -176q0 -158 97 -158z" />
    <glyph glyph-name="uni0431" unicode="&#x431;" horiz-adv-x="542" 
d="M265 -10q-45 0 -86 11.5t-78.5 36.5t-59.5 71.5t-22 109.5q0 65 19 112t51 70.5t64 34t67 10.5q83 0 128 -52l1 2q-9 18 -20.5 34t-25.5 31t-26 26.5t-30 24t-28.5 20t-31.5 19t-28 15.5t-28.5 15t-24.5 13q-14 7 -20.5 12t-13 19t-6.5 36q0 37 21 65q202 25 407 59
q11 -26 11 -53q0 -29 -15.5 -42t-68.5 -21q-89 -14 -255 -23q179 -66 267 -175t88 -234q0 -67 -22.5 -116.5t-60.5 -77t-81.5 -40.5t-91.5 -13zM267 78q54 0 84 42.5t30 116.5q0 61 -22 115q-45 19 -84 17q-58 -2 -85.5 -41.5t-27.5 -105.5q0 -68 27 -106t78 -38z" />
    <glyph glyph-name="uni0432" unicode="&#x432;" horiz-adv-x="547" 
d="M289 -10q-51 0 -85.5 7t-67 29t-51.5 62t-30.5 107.5t-11.5 164.5q0 228 54.5 312t206.5 84q93 0 143 -44.5t50 -124.5q0 -81 -50 -133t-113 -69v-3q190 -15 190 -185q0 -105 -63 -156t-172 -51zM187 397q45 3 66 8q41 11 70.5 58t29.5 112q0 54 -20 75.5t-48 21.5
q-98 0 -98 -174v-101zM298 74q40 0 61 33t21 92q0 57 -23 89t-66 32q-40 0 -102 -16q2 -131 25.5 -180.5t83.5 -49.5z" />
    <glyph glyph-name="uni0433" unicode="&#x433;" horiz-adv-x="434" 
d="M217 -10q-178 0 -178 126q0 29 9 51t29 38.5t34.5 25.5t44.5 23t40 19q34 19 46 35t12 39q0 30 -16 47t-45 17q-57 0 -138 -57q-19 23 -29 53q-5 19 2 31t33 27q64 35 154 35q183 0 183 -133q0 -35 -13.5 -62.5t-37 -45t-44.5 -28t-48 -21t-36 -15.5q-36 -20 -36 -57
q0 -58 57 -58q13 0 27.5 3.5t25 7.5t25 12.5t20 12.5t18.5 13.5t14 9.5q30 -30 34 -63q3 -22 -8 -36q-15 -18 -63.5 -34t-115.5 -16z" />
    <glyph glyph-name="uni0434" unicode="&#x434;" horiz-adv-x="586" 
d="M276 -203q-96 0 -159 27q-48 20 -49 52q-2 32 30 67q106 -53 165 -53q81 0 114.5 38t30.5 110l-3 69l-2 1q-50 -110 -159 -110q-100 0 -156.5 63t-56.5 174q0 64 16 113.5t40.5 77.5t57 45.5t61 23t57.5 5.5q92 0 134 -68v63q40 12 68 12q39 0 53 -20.5t14 -56.5
q0 -35 -7.5 -91t-8.5 -78l10 -182q0 -19 1.5 -42.5t-4.5 -50.5t-14 -53.5t-27.5 -51t-45 -43.5t-67 -30t-93.5 -11zM277 86q39 0 60 21.5t52 76.5v206q-42 22 -82 22q-69 0 -100.5 -48.5t-31.5 -126.5q0 -75 27.5 -113t74.5 -38z" />
    <glyph glyph-name="uni0435" unicode="&#x435;" horiz-adv-x="503" 
d="M440 132q11 -8 20.5 -23t9.5 -30q0 -21 -14 -36q-60 -53 -172 -53q-116 0 -184.5 65.5t-68.5 190.5q0 116 62 185t176 69q198 0 198 -147q0 -128 -158 -152q-41 -6 -89 -3q-34 2 -45 25q12 -146 118 -146q32 0 59.5 9t41 17t46.5 29zM267 414q-48 0 -70 -42.5t-23 -108.5
q85 0 121 19t36 68q0 64 -64 64z" />
    <glyph glyph-name="uni0436" unicode="&#x436;" horiz-adv-x="752" 
d="M644 490q28 0 44 -10.5t15 -29.5l-6 -214l4 -236q-29 -9 -64 -9q-67 0 -67 34v136h-127v-171q-36 -8 -70 -8q-57 0 -57 36v142h-127v-159q-45 -10 -71 -10q-34 0 -49.5 12t-14.5 35l6 197l-6 245q37 11 73 11q30 0 46 -8.5t16 -21.5v-241q11 18 33 18h94v258q36 6 53 6
q38 0 55 -7t19 -28v-229h127v242q39 10 74 10z" />
    <glyph glyph-name="uni0437" unicode="&#x437;" horiz-adv-x="459" 
d="M189 -190q-77 0 -135 29q-23 11 -33 21t-10 25q0 29 34 72q83 -59 149 -59q49 0 76.5 29t27.5 75q0 34 -21.5 55.5t-73.5 33.5q-58 -11 -67 -11q-48 0 -56 32q-9 36 7 75l121 -12q79 63 79 156q0 81 -78 81q-75 0 -77 -100q-41 -15 -86 1q-34 11 -34 57q0 65 58.5 97.5
t144.5 32.5q212 0 212 -165q0 -71 -40 -116t-118 -58v-2q92 -6 132.5 -49t40.5 -109q0 -89 -64.5 -140t-188.5 -51z" />
    <glyph glyph-name="uni0438" unicode="&#x438;" horiz-adv-x="548" 
d="M199 -10q-75 0 -109.5 41.5t-34.5 104.5v209q0 82 -10 138q39 14 78 14q34 0 49 -13.5t16 -47.5q4 -18 1.5 -143t-2.5 -156q0 -29 11 -44t41 -15q32 0 58.5 24.5t59.5 92.5v295q42 6 68 6q74 0 74 -71q0 -26 -6.5 -79.5t-7.5 -69.5l13 -264q-40 -18 -68 -18
q-34 0 -47 13.5t-11 39.5l4 81h-2q-34 -77 -75.5 -107.5t-99.5 -30.5z" />
    <glyph glyph-name="uni0439" unicode="&#x439;" horiz-adv-x="548" 
d="M162 578q-17 24 -9 52.5t32 29.5l193 6q13 -19 8.5 -53.5t-23.5 -34.5h-201zM199 -10q-75 0 -109.5 41.5t-34.5 104.5v209q0 82 -10 138q39 14 78 14q34 0 49 -13.5t16 -47.5q4 -18 1.5 -143t-2.5 -156q0 -29 11 -44t41 -15q32 0 58.5 24.5t59.5 92.5v295q42 6 68 6
q74 0 74 -71q0 -26 -6.5 -79.5t-7.5 -69.5l13 -264q-40 -18 -68 -18q-34 0 -47 13.5t-11 39.5l4 81h-2q-34 -77 -75.5 -107.5t-99.5 -30.5z" />
    <glyph glyph-name="uni043A" unicode="&#x43a;" horiz-adv-x="548" 
d="M367 247q21 -28 42.5 -53t37.5 -41.5t33 -32.5t26.5 -23.5t20.5 -17t13 -10.5q-13 -36 -37 -56.5t-45 -20.5q-42 0 -67 28q-45 52 -92 133l-85 -117q-33 -44 -84 -44q-31 0 -52.5 22.5t-20.5 61.5l7 414q2 130 -8 260q43 9 74 9q63 0 63 -42v-343q-2 -43 -6.5 -122.5
t-6.5 -120.5l2 -1l105 145q46 148 92 200q21 24 56 24q22 0 38 -6t24 -13.5t22 -23.5z" />
    <glyph glyph-name="uni043B" unicode="&#x43b;" horiz-adv-x="496" 
d="M456 109q23 -68 31 -84q-36 -33 -93 -33q-28 0 -40 11.5t-19 34.5l-97 316l-64 -207q-28 -94 -39 -147q-23 -8 -63 -8q-32 0 -48.5 17t-4.5 51l111 303q28 78 37 128q50 10 78 10q41 0 64.5 -14t34.5 -47z" />
    <glyph glyph-name="uni043C" unicode="&#x43c;" horiz-adv-x="722" 
d="M93 -5q-13 0 -23 2t-19 11t-8 25l29 303q9 91 7 154q48 11 98 11q79 0 93 -57l49 -202q8 -32 33 -165h4q7 31 18 84.5t18 80.5l60 248q47 10 92 10q38 0 66.5 -17t31.5 -49l40 -427q-39 -12 -68 -12q-60 0 -63 43l-10 134q-12 156 -15 202h-3l-75 -296q-21 -84 -108 -84
q-82 0 -100 85l-64 295h-3q-2 -126 -8 -197l-14 -176q-47 -6 -58 -6z" />
    <glyph glyph-name="uni043D" unicode="&#x43d;" horiz-adv-x="553" 
d="M435 496q30 0 45.5 -9.5t14.5 -28.5l-6 -213l4 -241q-41 -9 -71 -9q-27 0 -43.5 9.5t-16.5 25.5v126l-169 -1v-154q-38 -6 -71 -6q-66 0 -64 43l6 199l-6 253q30 6 73 6q62 0 62 -38v-255q9 29 36 29h133v258q39 6 73 6z" />
    <glyph glyph-name="uni043E" unicode="&#x43e;" horiz-adv-x="551" 
d="M278 -10q-30 0 -59.5 5.5t-64.5 22.5t-61.5 44t-44 74.5t-17.5 109.5q0 76 25.5 130t66.5 79t77.5 35t73.5 10t74 -10t78.5 -35t67.5 -79t26 -130q0 -62 -17.5 -109.5t-43.5 -74.5t-60.5 -44t-63.5 -22.5t-57 -5.5zM277 77q99 0 99 169q0 166 -101 166q-100 0 -100 -166
q0 -80 25.5 -124.5t76.5 -44.5z" />
    <glyph glyph-name="uni043F" unicode="&#x43f;" horiz-adv-x="565" 
d="M118 -5q-27 0 -44.5 17.5t-17.5 51.5t13 153q0 157 -15 263q38 16 76 16q28 0 43 -14.5t14 -36.5l-2 -65h2q62 120 168 120q152 0 152 -164v-191q0 -49 10 -135q-39 -15 -73 -15q-22 0 -37.5 5.5t-22 10t-10 17.5t-3.5 16v18q0 32 2 128.5t2 145.5q0 39 -14.5 57.5
t-46.5 18.5q-36 0 -62 -28.5t-58 -109.5v-274q-28 -5 -76 -5z" />
    <glyph glyph-name="uni0440" unicode="&#x440;" horiz-adv-x="577" 
d="M348 500q86 0 142 -57.5t56 -176.5q0 -135 -66 -205.5t-169 -70.5q-90 0 -124 50v-232q-37 -8 -64 -8q-34 0 -55.5 17t-21.5 50q0 82 14 266v89q0 158 -13 259q45 13 71 13q35 0 49 -12t14 -36q0 -7 -1.5 -24.5t-2.5 -32.5l3 -1q44 112 168 112zM277 76q59 0 92 51.5
t33 136.5q0 70 -27 109t-72 39q-66 0 -116 -104v-215q49 -17 90 -17z" />
    <glyph glyph-name="uni0441" unicode="&#x441;" horiz-adv-x="488" 
d="M276 -10q-119 0 -182 64t-63 185q0 127 60.5 194t168.5 67q192 0 192 -152q0 -54 -38 -67q-46 -15 -91 2q2 37 1 49q-5 82 -62 82q-41 0 -65 -38.5t-24 -140.5q0 -73 30 -115.5t79 -42.5q32 0 59.5 10t40.5 19t45 33q30 -21 30 -52q0 -23 -14 -36q-56 -61 -167 -61z" />
    <glyph glyph-name="uni0442" unicode="&#x442;" horiz-adv-x="871" 
d="M118 -5q-27 0 -44.5 17.5t-17.5 51.5q0 36 13 153q0 157 -15 263q38 16 76 16q59 0 57 -51l-2 -65h2q62 120 168 120q54 0 91 -29.5t37 -84.5v-20l2 -1q65 135 172 135q155 0 155 -149v-204q0 -43 11 -138q-42 -14 -76 -14q-25 0 -40.5 6t-21.5 18.5t-7 20t-1 22.5
q0 32 2 128.5t2 145.5q0 39 -14.5 57.5t-46.5 18.5q-36 0 -62 -28.5t-58 -108.5v-275q-27 -5 -74 -5q-27 0 -45 17.5t-18 51.5q0 69 12 153v132q0 63 -60 63q-37 0 -63.5 -28.5t-57.5 -108.5v-275q-28 -5 -76 -5z" />
    <glyph glyph-name="uni0443" unicode="&#x443;" horiz-adv-x="541" 
d="M255 -204q-59 0 -111.5 16.5t-80.5 48.5q-12 14 -12 29q0 44 41 75q43 -43 81.5 -60t87.5 -17q52 0 84.5 38t32.5 89l-1 128l-2 1q-32 -74 -72 -104t-102 -30q-146 0 -146 161v174q0 82 -10 138q36 13 78 13q35 0 50.5 -13t15.5 -45v-265q0 -37 12 -56t44 -19q28 0 52 24
t59 90v278q40 6 68 6q40 0 56 -18.5t16 -52.5q0 -35 -17 -158l9 -222q5 -127 -59 -188t-174 -61z" />
    <glyph glyph-name="uni0444" unicode="&#x444;" horiz-adv-x="717" 
d="M367 -214q-25 0 -41 5t-21.5 14.5t-7 16t-1.5 17.5v154q-66 4 -116 23.5t-77.5 45.5t-44.5 61.5t-22 65t-5 61.5q0 34 6.5 65.5t23.5 68t53 64.5t88 40q65 15 94 -8v260q36 9 77 9q21 0 37 -11.5t16 -37.5v-200q66 -4 115.5 -24t76 -46t43 -61t21 -62.5t4.5 -56.5
q0 -31 -5 -60t-21 -64t-42.5 -61t-74.5 -46t-111 -25v-199q-34 -9 -65 -9zM296 76v348q-133 -14 -133 -174q0 -77 33 -123.5t100 -50.5zM426 76q64 6 96 52.5t32 121.5q0 73 -31.5 118.5t-96.5 48.5v-341z" />
    <glyph glyph-name="uni0445" unicode="&#x445;" horiz-adv-x="503" 
d="M402 149q55 -71 73 -88q-5 -27 -26 -47t-56 -20q-39 0 -66 41l-89 130l-48 -60q-58 -74 -80 -113q-82 0 -82 59q0 28 24 55l119 142l-82 106q-51 65 -65 77q20 65 82 65q39 0 66 -39l88 -129l80 100q30 40 44 68q83 0 83 -58q0 -24 -24 -53l-117 -139z" />
    <glyph glyph-name="uni0446" unicode="&#x446;" horiz-adv-x="580" 
d="M492 123q2 -54 80 -34v-30t-0.5 -67.5t-0.5 -77.5q0 -42 -20.5 -55.5t-92.5 -1.5l7 141q-41 -2 -64 16t-23 72l2 41l-2 1q-32 -75 -73 -105.5t-97 -30.5q-75 0 -108 40.5t-33 103.5v214q0 93 -5 140q35 6 73 6q34 0 50 -10.5t16 -36.5v-308q0 -32 10 -46.5t39 -14.5
q26 0 51 26t59 93v291q42 6 72 6q35 0 50.5 -15t15.5 -54q0 -70 -12 -154z" />
    <glyph glyph-name="uni0447" unicode="&#x447;" horiz-adv-x="448" 
d="M238 -10q-193 0 -193 162q0 42 15.5 76.5t45.5 60t57.5 43t68 39.5t61.5 36v1q-142 -10 -219 -10q-49 0 -49 44q0 25 9 52q59 -4 111 -4h242q12 -30 10 -60.5t-19 -44.5q-31 -25 -56 -43q-81 -59 -111 -96.5t-30 -83.5q0 -40 21 -62t61 -22q55 0 140 61q25 -25 28 -49
q3 -21 -6.5 -33t-33.5 -28q-58 -39 -153 -39z" />
    <glyph glyph-name="uni0448" unicode="&#x448;" horiz-adv-x="845" 
d="M796 425q0 -55 -15 -158l14 -255q-39 -18 -68 -18q-33 0 -46 12.5t-12 40.5q0 3 1.5 34t2.5 47h-3q-32 -75 -71 -105.5t-93 -30.5q-125 0 -129 121v15h-2q-32 -77 -72 -107.5t-97 -30.5q-32 0 -57 7t-40.5 15.5t-26.5 25.5t-16 28t-8 32.5t-3 29.5v27v86v104
q0 82 -10 138q36 13 78 13q35 0 50.5 -13t15.5 -45v-301q0 -29 12.5 -44t45.5 -15q28 0 54.5 25t56.5 92v291q40 10 77 10q33 0 47 -16.5t14 -56.5q0 -47 -12 -150l1 -138q0 -57 49 -57q31 0 58 24t62 93v295q37 6 68 6q74 0 74 -71z" />
    <glyph glyph-name="uni0449" unicode="&#x449;" horiz-adv-x="874" 
d="M790 114q6 -43 79 -25q0 -3 -0.5 -30t-0.5 -67.5v-77.5q0 -42 -20.5 -55.5t-92.5 -1.5l7 141q-48 -2 -71.5 20.5t-18.5 90.5q0 4 0.5 10t0.5 9h-3q-32 -75 -71 -105.5t-93 -30.5q-129 0 -129 121v15h-2q-32 -77 -72 -107.5t-97 -30.5q-32 0 -57 7t-40.5 15.5t-26.5 25.5
t-16 28t-8 32.5t-3 29.5v27v86v104q0 82 -10 138q36 13 78 13q35 0 50.5 -13t15.5 -45v-295q0 -65 58 -65q28 0 54.5 25t56.5 92v291q40 10 77 10q33 0 47 -16.5t14 -56.5q0 -47 -12 -150l1 -138q0 -57 49 -57q31 0 58 24t62 93v295q37 6 68 6q74 0 74 -71q0 -55 -15 -158z
" />
    <glyph glyph-name="uni044A" unicode="&#x44a;" horiz-adv-x="504" 
d="M264 -11q-97 0 -152.5 48.5t-55.5 123.5q0 54 25 98.5t64 77t103 69.5v1l-197 -5q-38 -1 -39 36q-1 27 9 52h328q7 -11 11.5 -27t2 -36t-16.5 -31q-92 -73 -131 -120l2 -1q51 35 111 35q19 0 36.5 -2.5t41 -12t40 -25.5t28.5 -46.5t12 -70.5q0 -81 -58.5 -122.5
t-163.5 -41.5zM266 71q46 0 66 23.5t20 58.5q0 36 -20 56t-58 20q-42 0 -76 -14q-11 -27 -11 -62q0 -42 24.5 -62t54.5 -20z" />
    <glyph glyph-name="uni044B" unicode="&#x44b;" horiz-adv-x="755" 
d="M264 -10q-27 0 -51 3t-56.5 16t-55.5 34.5t-39.5 62t-16.5 95.5v280q38 9 70 9q61 0 61 -41l-1 -169l3 -1q35 32 69 45t84 13q71 0 117.5 -39.5t46.5 -125.5q0 -51 -19 -88t-53 -57t-73 -28.5t-86 -8.5zM639 -6q-24 0 -38.5 3.5t-20 10t-7 11t-1.5 11.5v450q38 8 72 8
q62 0 62 -37v-451q-28 -6 -67 -6zM267 78q44 0 66.5 23.5t22.5 63.5q0 49 -24 66.5t-67 17.5q-40 0 -80 -20l-1 -52q-1 -46 21 -72.5t62 -26.5z" />
    <glyph glyph-name="uni044C" unicode="&#x44c;" horiz-adv-x="507" 
d="M263 -10q-27 0 -51 3t-56.5 16t-55 34.5t-39 62t-16.5 95.5v289q35 9 65 9q65 0 65 -41l-1 -192l1 -1q35 32 70 45t85 13q70 0 117 -39t47 -118q0 -89 -66.5 -132.5t-164.5 -43.5zM266 78q89 0 89 81q0 76 -91 76q-40 0 -80 -20l-1 -40q-1 -46 21 -71.5t62 -25.5z" />
    <glyph glyph-name="uni044D" unicode="&#x44d;" horiz-adv-x="518" 
d="M228 500q229 0 229 -241q0 -133 -65.5 -201t-180.5 -68q-54 0 -100 13.5t-66 34.5q-14 15 -14 36q0 41 43 67q29 -25 41.5 -34.5t37 -19.5t52.5 -10q95 0 112 110l-104 -2q-30 -1 -38.5 23t5.5 60l142 -3q-4 149 -95 149q-41 0 -63.5 -25.5t-18.5 -70.5q-43 -16 -82 -5
q-36 10 -29 61q9 62 59.5 94t134.5 32z" />
    <glyph glyph-name="uni044E" unicode="&#x44e;" horiz-adv-x="767" 
d="M490 500q37 0 74 -10t78.5 -35t67.5 -79t26 -130q0 -62 -17.5 -109.5t-43.5 -74.5t-60.5 -44t-63.5 -22.5t-57 -5.5q-34 0 -68.5 8t-72 28t-65.5 61.5t-37 100.5h-61l5 -188q-28 -5 -80 -5q-26 0 -43.5 17.5t-17.5 51.5t13 151v252q0 194 -8 293q45 12 76 12q62 0 62 -42
l-7 -454h58q4 54 23.5 96t45 65.5t59 38t60.5 19.5t54 5zM493 78q49 0 74 44t25 124q0 79 -25.5 122.5t-75.5 43.5q-49 0 -74.5 -43.5t-25.5 -122.5q0 -76 26.5 -122t75.5 -46z" />
    <glyph glyph-name="uni044F" unicode="&#x44f;" horiz-adv-x="573" 
d="M537 223q0 -168 3 -223q-36 -6 -74 -6q-47 0 -50 40q-2 36 5 149l-1 1q-37 -15 -70 -22q-75 -129 -210 -162q-34 -8 -52 -8q-30 0 -44.5 27.5t-9.5 70.5q157 26 231 60q-96 -3 -158.5 40t-62.5 135q0 85 53 130t145 45q95 0 141 -41.5t46 -115.5q0 -52 -23 -88l45 13
q17 3 36.5 3.5t34.5 -12t15 -36.5zM180 319q0 -99 121 -86q11 33 11 96q0 83 -62 83q-70 0 -70 -93z" />
    <glyph glyph-name="uni0451" unicode="&#x451;" horiz-adv-x="503" 
d="M153 595q-63 0 -63 69q0 31 19.5 48t53.5 17q64 0 64 -69q0 -65 -74 -65zM363 595q-62 0 -62 69q0 30 19.5 47.5t52.5 17.5q64 0 64 -69q0 -65 -74 -65zM440 132q11 -8 20.5 -23t9.5 -30q0 -21 -14 -36q-60 -53 -172 -53q-116 0 -184.5 65.5t-68.5 190.5q0 116 62 185
t176 69q198 0 198 -147q0 -128 -158 -152q-41 -6 -89 -3q-34 2 -45 25q12 -146 118 -146q32 0 59.5 9t41 17t46.5 29zM267 414q-48 0 -70 -42.5t-23 -108.5q85 0 121 19t36 68q0 64 -64 64z" />
    <glyph glyph-name="Wgrave" unicode="&#x1e80;" horiz-adv-x="1142" 
d="M590 810l-114 123q-17 18 -17 41q0 27 22 42q19 13 63 15q18 -35 90 -145q15 -25 2.5 -45.5t-46.5 -30.5zM321 -10q-252 0 -252 268v353q0 79 -6 119q51 16 90 16q22 0 36 -6.5t19 -18.5t6.5 -19t1.5 -16v-418q0 -172 135 -172q32 0 55 8.5t41 30t28 39.5t27 55v501
q50 11 86 11q41 0 57.5 -24.5t16.5 -83.5q0 -88 -21 -240q0 -167 37.5 -231t113.5 -64q78 0 110.5 60.5t32.5 201.5q0 82 -12 149.5t-24 100.5t-39 96q55 39 103 39q45 0 70 -34q58 -81 58 -313q0 -209 -69.5 -308.5t-221.5 -99.5q-105 0 -156 47t-72 146h-3
q-40 -106 -97.5 -149.5t-150.5 -43.5z" />
    <glyph glyph-name="wgrave" unicode="&#x1e81;" horiz-adv-x="840" 
d="M440 560l-114 123q-17 18 -17 41q0 27 22 42q19 13 63 15q18 -35 90 -145q15 -25 2.5 -45.5t-46.5 -30.5zM786 429q10 -57 10 -156q0 -155 -60 -219t-168 -64q-58 0 -102.5 33.5t-58.5 102.5q-37 -136 -173 -136q-86 0 -136.5 42.5t-50.5 137.5v132q0 131 -7 178
q52 10 84 10q24 0 42.5 -15t18.5 -42v-249q0 -101 72 -101q98 0 98 197v200q32 10 67 10q33 0 53 -15.5t20 -40.5q0 -64 -11 -149q0 -120 14.5 -161t67.5 -41q88 0 88 176q0 98 -28 209q48 28 91 28q58 0 69 -67z" />
    <glyph glyph-name="Wacute" unicode="&#x1e82;" horiz-adv-x="1142" 
d="M544 810q-34 10 -46.5 30.5t2.5 45.5q72 110 90 145q44 -2 63 -15q22 -15 22 -42q0 -23 -17 -41zM321 -10q-252 0 -252 268v353q0 79 -6 119q51 16 90 16q22 0 36 -6.5t19 -18.5t6.5 -19t1.5 -16v-418q0 -172 135 -172q32 0 55 8.5t41 30t28 39.5t27 55v501q50 11 86 11
q41 0 57.5 -24.5t16.5 -83.5q0 -88 -21 -240q0 -167 37.5 -231t113.5 -64q78 0 110.5 60.5t32.5 201.5q0 82 -12 149.5t-24 100.5t-39 96q55 39 103 39q45 0 70 -34q58 -81 58 -313q0 -209 -69.5 -308.5t-221.5 -99.5q-105 0 -156 47t-72 146h-3q-40 -106 -97.5 -149.5
t-150.5 -43.5z" />
    <glyph glyph-name="wacute" unicode="&#x1e83;" horiz-adv-x="840" 
d="M394 560q-34 10 -46.5 30.5t2.5 45.5q72 110 90 145q44 -2 63 -15q22 -15 22 -42q0 -23 -17 -41zM786 429q10 -57 10 -156q0 -155 -60 -219t-168 -64q-58 0 -102.5 33.5t-58.5 102.5q-37 -136 -173 -136q-86 0 -136.5 42.5t-50.5 137.5v132q0 131 -7 178q52 10 84 10
q24 0 42.5 -15t18.5 -42v-249q0 -101 72 -101q98 0 98 197v200q32 10 67 10q33 0 53 -15.5t20 -40.5q0 -64 -11 -149q0 -120 14.5 -161t67.5 -41q88 0 88 176q0 98 -28 209q48 28 91 28q58 0 69 -67z" />
    <glyph glyph-name="Wdieresis" unicode="&#x1e84;" horiz-adv-x="1142" 
d="M460 825q-63 0 -63 69q0 31 19.5 48t53.5 17q64 0 64 -69q0 -65 -74 -65zM666 825q-62 0 -62 69q0 30 19.5 47.5t52.5 17.5q64 0 64 -69q0 -65 -74 -65zM321 -10q-252 0 -252 268v353q0 79 -6 119q51 16 90 16q22 0 36 -6.5t19 -18.5t6.5 -19t1.5 -16v-418
q0 -172 135 -172q32 0 55 8.5t41 30t28 39.5t27 55v501q50 11 86 11q41 0 57.5 -24.5t16.5 -83.5q0 -88 -21 -240q0 -167 37.5 -231t113.5 -64q78 0 110.5 60.5t32.5 201.5q0 82 -12 149.5t-24 100.5t-39 96q55 39 103 39q45 0 70 -34q58 -81 58 -313q0 -209 -69.5 -308.5
t-221.5 -99.5q-105 0 -156 47t-72 146h-3q-40 -106 -97.5 -149.5t-150.5 -43.5z" />
    <glyph glyph-name="wdieresis" unicode="&#x1e85;" horiz-adv-x="840" 
d="M310 575q-63 0 -63 69q0 31 19.5 48t53.5 17q64 0 64 -69q0 -65 -74 -65zM516 575q-62 0 -62 69q0 30 19.5 47.5t52.5 17.5q64 0 64 -69q0 -65 -74 -65zM786 429q10 -57 10 -156q0 -155 -60 -219t-168 -64q-58 0 -102.5 33.5t-58.5 102.5q-37 -136 -173 -136
q-86 0 -136.5 42.5t-50.5 137.5v132q0 131 -7 178q52 10 84 10q24 0 42.5 -15t18.5 -42v-249q0 -101 72 -101q98 0 98 197v200q32 10 67 10q33 0 53 -15.5t20 -40.5q0 -64 -11 -149q0 -120 14.5 -161t67.5 -41q88 0 88 176q0 98 -28 209q48 28 91 28q58 0 69 -67z" />
    <glyph glyph-name="Ygrave" unicode="&#x1ef2;" horiz-adv-x="671" 
d="M331 810l-114 123q-17 18 -17 41q0 27 22 42q19 13 63 15q18 -35 90 -145q15 -25 2.5 -45.5t-46.5 -30.5zM637 695q0 -39 -32 -98q-46 -88 -180 -311l6 -286q-47 -9 -82 -9q-69 0 -67 52l5 243q-81 137 -253 412q45 52 101 52q39 0 57 -29q70 -113 167 -301
q145 265 149 320q34 10 65 10q29 0 46.5 -15t17.5 -40z" />
    <glyph glyph-name="ygrave" unicode="&#x1ef3;" horiz-adv-x="541" 
d="M284 570l-114 123q-17 18 -17 41q0 27 22 42q19 13 63 15q18 -35 90 -145q15 -25 2.5 -45.5t-46.5 -30.5zM255 -204q-59 0 -111.5 16.5t-80.5 48.5q-12 14 -12 29q0 44 41 75q43 -43 81.5 -60t87.5 -17q52 0 84.5 38t32.5 89l-1 128l-2 1q-32 -74 -72 -104t-102 -30
q-146 0 -146 161v174q0 82 -10 138q36 13 78 13q35 0 50.5 -13t15.5 -45v-265q0 -37 12 -56t44 -19q28 0 52 24t59 90v278q40 6 68 6q40 0 56 -18.5t16 -52.5q0 -35 -17 -158l9 -222q5 -127 -59 -188t-174 -61z" />
    <glyph glyph-name="endash" unicode="&#x2013;" horiz-adv-x="600" 
d="M79 196q-15 0 -17 39t13 53h445q15 0 17 -39t-13 -53h-445z" />
    <glyph glyph-name="emdash" unicode="&#x2014;" horiz-adv-x="899" 
d="M75 201q-12 0 -14.5 34.5t5.5 51.5h757q14 0 15.5 -36.5t-8.5 -49.5h-755z" />
    <glyph glyph-name="quoteleft" unicode="&#x2018;" horiz-adv-x="264" 
d="M211 491q-38 -44 -82 -44q-33 0 -52 20.5t-20 58.5q-2 99 61 213l75 -9q-20 -66 -15 -138q4 -63 33 -101z" />
    <glyph glyph-name="quoteright" unicode="&#x2019;" horiz-adv-x="267" 
d="M56 693q38 44 82 44q33 0 52 -20.5t20 -58.5q2 -99 -61 -213l-75 9q20 66 15 138q-4 63 -33 101z" />
    <glyph glyph-name="quotedblleft" unicode="&#x201c;" horiz-adv-x="458" 
d="M211 491q-38 -44 -82 -44q-33 0 -52 20.5t-20 58.5q-2 99 61 213l75 -9q-20 -66 -15 -138q4 -63 33 -101zM405 491q-38 -44 -82 -44q-33 0 -52 20.5t-20 58.5q-2 99 61 213l75 -9q-20 -66 -15 -138q4 -63 33 -101z" />
    <glyph glyph-name="quotedblright" unicode="&#x201d;" horiz-adv-x="451" 
d="M56 693q38 44 82 44q33 0 52 -20.5t20 -58.5q2 -99 -61 -213l-75 9q20 66 15 138q-4 63 -33 101zM240 693q38 44 82 44q33 0 52 -20.5t20 -58.5q2 -99 -61 -213l-75 9q20 66 15 138q-4 63 -33 101z" />
    <glyph glyph-name="quotedblbase" unicode="&#x201e;" horiz-adv-x="460" 
d="M55 83q38 44 82 44q33 0 52 -20.5t20 -58.5q2 -99 -61 -213l-75 9q20 66 15 138q-4 63 -33 101zM253 83q38 44 82 44q33 0 52 -20.5t20 -58.5q2 -99 -61 -213l-75 9q20 66 15 138q-4 63 -33 101z" />
    <glyph glyph-name="dagger" unicode="&#x2020;" horiz-adv-x="586" 
d="M515 550q6 -33 6 -52q0 -33 -33 -31q-40 1 -150 1q0 -193 4 -472q-29 -9 -54 -9q-44 0 -44 33v448q-120 -2 -173 -4q-6 23 -6 49q0 36 27 34h151q0 44 -2 190q35 11 61 11q36 0 36 -40v-161q20 0 55.5 0.5t65 1t56.5 1.5z" />
    <glyph glyph-name="daggerdbl" unicode="&#x2021;" horiz-adv-x="586" 
d="M339 278q19 0 54.5 0.5t65 1t56.5 1.5q6 -33 6 -52q0 -31 -33 -31h-148q0 -44 2 -202q-29 -9 -54 -9q-44 0 -44 33v178q-90 0 -173 -3q-6 23 -6 49q0 34 27 34h152v190q-120 -2 -173 -4q-6 23 -6 49q0 36 27 34h151q0 44 -2 190q35 11 61 11q36 0 36 -40v-161
q20 0 55.5 0.5t65 1t56.5 1.5q6 -33 6 -52q0 -33 -33 -31q-40 1 -150 1q0 -127 1 -190z" />
    <glyph glyph-name="bullet" unicode="&#x2022;" horiz-adv-x="476" 
d="M238 198q-138 0 -138 136q0 63 39.5 107t104.5 44t98.5 -38.5t33.5 -108.5q0 -64 -35.5 -102t-102.5 -38z" />
    <glyph glyph-name="ellipsis" unicode="&#x2026;" horiz-adv-x="795" 
d="M132 -9q-29 0 -49.5 19t-20.5 58q0 47 24.5 69t60.5 22q34 0 59 -23t25 -62q0 -43 -28.5 -63t-70.5 -20zM381 -9q-29 0 -49.5 19t-20.5 58q0 47 24.5 69t60.5 22q34 0 59 -23t25 -62q0 -43 -28.5 -63t-70.5 -20zM630 -9q-29 0 -49.5 19t-20.5 58q0 47 24.5 69t60.5 22
q34 0 59 -23t25 -62q0 -43 -28.5 -63t-70.5 -20z" />
    <glyph glyph-name="guilsinglleft" unicode="&#x2039;" horiz-adv-x="404" 
d="M134 224q82 -40 127 -79t45 -85q0 -35 -22 -52.5t-72 -27.5q-5 43 -23 79t-48.5 63.5t-47.5 40t-46 29.5l-9 61q159 95 197 232q52 9 80.5 -4.5t28.5 -41.5q0 -91 -210 -215z" />
    <glyph glyph-name="guilsinglright" unicode="&#x203a;" horiz-adv-x="404" 
d="M353 281l9 -61q-159 -95 -197 -232q-52 -9 -80.5 4.5t-28.5 41.5q0 91 210 215q-82 40 -127 79t-45 85q0 35 22 52.5t72 27.5q5 -43 23 -79t48.5 -63.5t47.5 -40t46 -29.5z" />
    <glyph glyph-name="Euro" unicode="&#x20ac;" horiz-adv-x="768" 
d="M663 182q49 -25 49 -67q0 -22 -32 -54q-71 -71 -215 -71q-266 0 -321 244q-21 0 -43 -1l-44 -2t-31 -1q-11 33 -4 54.5t44 21.5h68q0 2 -3 39l-71 -3q-11 33 -4 54.5t44 21.5h33q12 150 94 241t219 91q125 0 189 -53.5t64 -154.5q0 -34 -11.5 -49t-40.5 -21q-34 -7 -88 8
q4 31 4 60q0 114 -114 114q-69 0 -114.5 -64.5t-53.5 -172.5q178 -2 267 -2q1 -42 -6.5 -53.5t-31.5 -11.5q-95 0 -231 -2l3 -44q41 0 120.5 -0.5t114.5 -0.5q1 -42 -6.5 -53.5t-31.5 -11.5q-128 0 -184 -1q41 -151 187 -151q40 0 76 16t56 33t49 47z" />
    <glyph glyph-name="trademark" unicode="&#x2122;" horiz-adv-x="791" 
d="M726 693l31 -344q-30 -9 -48 -9q-37 0 -40 38l-14 197l-54 -187q-11 -34 -52 -34t-53 38l-54 191l-17 -236q-14 -6 -35 -6q-39 0 -36 38l24 341q27 12 57 12q48 0 58 -34l65 -224l71 253q15 5 40 5q30 0 42 -8t15 -31zM301 730q18 0 22 -16.5t-2 -47.5h-94l4 -315
q-27 -10 -46 -10q-25 0 -34 8.5t-9 31.5l3 285h-72q-18 0 -23 16t0 48h251z" />
    <glyph glyph-name="minus" unicode="&#x2212;" horiz-adv-x="477" 
d="M91 406h320q4 -28 4 -44q0 -38 -27 -38h-321q-4 28 -4 39q0 43 28 43z" />
    <glyph glyph-name="uniF8FF" unicode="&#xf8ff;" horiz-adv-x="7191" 
d="M819 0v761h-132v-761h132zM1928 231q0 -70 18 -119.5t48.5 -73.5t61 -34.5t65.5 -10.5q63 0 102 23t65 83v-99h121v756h-129v-297h-3q-38 30 -125 30q-28 0 -54.5 -5.5t-58.5 -22.5t-55.5 -44t-39.5 -75t-16 -111zM2509 654q0 -45 21 -69t55 -24q32 0 60 23.5t28 61.5
q0 44 -22.5 66.5t-58.5 22.5q-83 0 -83 -81zM5430 471h-139v102q0 92 74 92q43 0 99 -15l3 63q-52 14 -110 14q-74 0 -110.5 -42.5t-36.5 -103.5v-110h-96v-63h96v-419q0 -57 -10 -74q-14 -24 -53 -24q-33 0 -85 18l-6 -56q57 -22 91 -22q77 0 110.5 44.5t33.5 113.5v419
h139v63zM6801 687v28h131v-28h-47v-153h-36v153h-48zM7181 534h-37l-16 148l-39 -149h-50l-39 149l-15 -148h-36l24 181h50l42 -155l42 155h50zM101 617v-617h138v246q26 -4 100 -4q132 0 203.5 65t71.5 175q0 120 -71 175.5t-212 55.5h-281v-96h51zM3394 646v-646h91v646
h209v67h-507v-67h207zM464 489q0 -72 -37.5 -111.5t-95.5 -39.5q-44 0 -92 8v271h100q55 0 90 -33.5t35 -94.5zM908 242q0 -60 17.5 -106.5t43.5 -72.5t60.5 -42.5t64 -22t58.5 -5.5q27 0 55 5.5t61.5 22t58.5 42.5t42 72.5t17 106.5t-17.5 106t-43.5 71.5t-60 42t-62 22
t-56 5.5t-56.5 -5.5t-62.5 -22t-59.5 -42t-43 -71.5t-17.5 -106zM4567 262q0 111 -46.5 165.5t-120.5 54.5q-65 0 -107 -31.5t-67 -94.5v133h-77v-658h77v200q55 -38 137 -38q97 0 150.5 68.5t53.5 200.5zM5034 84q-87 -36 -151 -36q-138 0 -143 169h294q11 52 11 99
q0 46 -17.5 80t-46 52t-58 26t-61.5 8q-101 0 -156 -67t-55 -181q0 -241 225 -241q95 0 161 30zM5909 8l-4 55q-25 -7 -33 -7q-34 0 -34 39v232q0 85 -44 120t-125 35q-85 0 -133 -30t-48 -85q0 -8 2 -18.5t2 -13.5l73 -19q-4 11 -4 30q0 35 25 56t75 21q53 0 74.5 -24
t21.5 -80v-51q-57 0 -110 -6q-177 -20 -177 -141q0 -60 35 -94t94 -34q100 0 166 87h3v-12q0 -71 77 -71q36 0 64 11zM5959 231q0 -113 59.5 -175.5t160.5 -62.5q89 0 148 34l-4 57q-96 -32 -140 -32q-62 0 -101 47t-39 132q0 91 34.5 141.5t90.5 50.5q44 0 61 -21.5
t17 -77.5q0 -6 -2 -17t-2 -17l77 8q0 9 2 27t2 25q0 63 -40.5 97.5t-114.5 34.5q-99 0 -154 -63t-55 -188zM6778 84q-94 -36 -151 -36q-137 0 -147 172h298q8 34 8 96q0 47 -17 81t-45 51.5t-57.5 25.5t-61.5 8q-103 0 -156 -65.5t-53 -182.5q0 -241 223 -241q105 0 162 34z
M1877 471h-124q-4 -41 -14.5 -86.5t-21 -79t-35.5 -110.5q-19 -59 -29 -111h-3q-12 56 -27 111l-73 276h-136l148 -474h168l36 106q10 31 32 91.5t35.5 98.5t26.5 88.5t17 89.5zM2528 471v-471h131v471h-131zM3202 471h-125q-6 -59 -20.5 -116t-48.5 -160q-19 -59 -29 -111
h-4q-6 30 -27 111l-73 276h-136l148 -474h169l35 106q8 24 41 114.5t49 147t21 106.5zM3944 103q1 3 16 45t28 80t28 86.5t24 90t9 66.5h-80q-1 -21 -4 -43t-5.5 -37.5t-10.5 -45t-12 -42t-16 -53t-17 -55.5l-44 -147h-4l-122 423h-84l135 -471h45q0 -13 -18 -58
q-12 -30 -43.5 -40.5t-82.5 -10.5l12 -55q45 -9 66 -5q55 10 83.5 43.5t60.5 125.5zM4488 262q0 -104 -35.5 -157t-93.5 -53q-59 0 -133 32v180q30 80 66.5 119.5t91.5 39.5q104 0 104 -161zM4740 268q3 77 32 116t90 39q44 0 69.5 -25.5t25.5 -73.5q0 -42 -3 -52zM6480 272
q11 151 122 151q47 0 73 -25t26 -74q0 -37 -4 -52h-217zM1245 242q0 -162 -93 -162q-101 0 -101 162q0 156 96 156q51 0 74.5 -38.5t23.5 -117.5zM2277 195q-30 -60 -53.5 -87.5t-59.5 -27.5q-95 0 -95 151q0 167 123 167q49 0 85 -31v-172zM5760 135q-68 -83 -139 -83
q-73 0 -73 73q0 36 27 55.5t90 28.5q45 7 95 8v-82z" />
    <glyph glyph-name="K.alt" horiz-adv-x="675" 
d="M373 360q131 -149 282 -287q-2 -3 -9 -17t-9.5 -18t-9.5 -14.5t-12 -14t-13.5 -9.5t-18 -8t-21.5 -2q-46 0 -78 39q-155 187 -227 276h-38v-305q-40 -10 -71 -10q-38 0 -58.5 11.5t-19.5 36.5l9 334l-9 368q35 10 80 10q69 0 69 -48v-284h43q107 116 282 332
q44 -13 64 -30t23 -41q3 -31 -29 -72q-82 -105 -229 -247z" />
    <glyph glyph-name="Y.alt" horiz-adv-x="612" 
d="M283 -11q-110 0 -184 48q-13 10 -19 15.5t-11 15t-5 22.5q0 39 47 74q77 -72 170 -72q146 0 146 153v102h-1l-21 -28t-26 -28.5t-37.5 -30.5t-46.5 -19.5t-60 -9.5q-86 0 -135.5 49t-49.5 137v192q0 97 -4 131q45 10 87 10q59 0 59 -46v-291q0 -40 22 -60.5t54 -20.5
q42 0 74.5 23t69.5 70v156q0 124 -4 159q32 10 91 10q54 0 54 -53v-452q0 -38 -7 -72t-26 -68.5t-48.5 -59.5t-78 -40.5t-110.5 -15.5z" />
    <glyph glyph-name="f.001" horiz-adv-x="392" 
d="M373 772q46 -12 46 -53q0 -34 -28 -58q-44 14 -74 14q-68 0 -68 -74v-111h131q10 -28 2.5 -59.5t-23.5 -31.5h-110v-399q-26 -6 -73 -6q-61 0 -61 36v210l1 159h-95q-12 22 -8.5 50t24.5 29l77 6l-5 102q-4 83 42.5 139t145.5 56q40 0 76 -9z" />
    <glyph glyph-name="y.001" horiz-adv-x="538" 
d="M297 -199q-82 0 -128 31.5t-46 89.5q0 55 52 89q-120 14 -120 160v174q0 82 -10 138q36 13 78 13q35 0 50.5 -13t15.5 -45v-265q0 -37 12 -56t44 -19q28 0 52 24t59 90v278q40 6 68 6q40 0 56 -18.5t16 -52.5q0 -24 -16 -154l11 -260q4 -92 -47.5 -151t-146.5 -59z
M306 -119q41 0 59.5 37.5t16.5 92.5l-6 128l-2 1q-15 -44 -35 -73.5t-36 -42.5t-30.5 -24t-22.5 -26t-8 -40t17 -39t47 -14z" />
    <glyph glyph-name="a.alt" horiz-adv-x="562" 
d="M181 -14q-60 0 -105.5 35.5t-45.5 108.5q0 72 52 109.5t150 37.5q59 0 111 -13v49q0 94 -108 94q-56 0 -166 -52q-25 49 -23 73q1 26 28 38q77 34 184 34q99 0 158.5 -44t59.5 -131v-214q0 -29 28 -29q19 0 43 6q15 -65 -6 -79q-27 -20 -96 -20q-24 0 -42.5 8t-28.5 19
t-16 25t-8 23.5t-2 17.5v6l-1 1q-55 -103 -166 -103zM224 77q36 0 62 17.5t55 63.5v36q-37 7 -77 7q-102 0 -102 -67q0 -28 18 -42.5t44 -14.5z" />
    <glyph glyph-name="e.alt" horiz-adv-x="513" 
d="M477 278q-6 -56 -53 -56h-248q1 -73 33.5 -109t83.5 -36q40 0 69.5 10t80.5 42q27 -29 27 -62q0 -26 -30 -42q-65 -35 -161 -35q-127 0 -186.5 70t-59.5 189q0 51 12 94t38 79t73 57t110 21q46 0 81 -8t66 -27.5t48 -58t17 -93.5q0 -25 -1 -35zM331 302q3 15 3 28
q0 86 -69 86q-80 0 -88 -114h154z" />
    <glyph glyph-name="k.alt" horiz-adv-x="508" 
d="M321 240q79 -89 172 -176q-20 -70 -80 -70q-39 0 -75 46l-113 140h-37v-180q-35 -6 -68 -6q-61 0 -61 49v447q0 151 -8 260q43 9 74 9q63 0 63 -42v-434h42q60 74 170 215q71 -15 76 -60q3 -37 -31 -74q-72 -78 -124 -124z" />
    <glyph glyph-name="u.alt" horiz-adv-x="505" 
d="M253 -11q-98 0 -152.5 57t-54.5 160v139q-1 84 -11 138q36 13 78 13q38 0 52 -13.5t14 -44.5v-241q0 -62 21 -89t53 -27q36 0 59 27.5t23 88.5v293q34 6 69 6q37 0 51.5 -14t14.5 -44v-232q-1 -102 -57.5 -159.5t-159.5 -57.5z" />
    <glyph glyph-name="y.alt" horiz-adv-x="584" 
d="M556 -75q5 -38 -10 -59t-59 -8l-35 10q-32 -55 -85.5 -86.5t-119.5 -31.5q-87 0 -121.5 27t-34.5 77q0 52 52 83.5t137 31.5q54 0 91 -6q5 30 5 75l-1 97l-2 1q-51 -136 -174 -136q-149 0 -149 150q0 35 0.5 90t0.5 85.5t-0.5 66t-2 57t-3.5 32.5q44 9 77 9q62 0 62 -47
v-301q0 -54 58 -54q61 0 109 133v259q43 10 77 10q33 0 47 -16.5t14 -57.5q0 -43 -13 -160l2 -57l9 -172q3 -43 -7 -88q41 -9 76 -14zM250 -176q65 0 98 65q-37 5 -64 5q-86 0 -86 -39q0 -31 52 -31z" />
    <glyph glyph-name="k.alt2" horiz-adv-x="541" 
d="M342 192q122 -92 174 -117q-16 -83 -76 -83q-33 0 -59 20q-10 8 -107 105q-29 29 -39 53.5t-6.5 40t14.5 38.5q71 -13 102 18t31 74q0 72 -68 72q-113 0 -113 -233v-180q-28 -5 -76 -5q-27 0 -44.5 17.5t-17.5 51.5q0 74 13 153v198q0 178 -9 338q42 12 72 12
q64 0 64 -45v-130q0 -78 -14 -201l3 -1q28 59 63 86t95 27q79 0 122 -38.5t43 -102.5t-41 -113t-126 -55z" />
    <glyph glyph-name="y.alt2" horiz-adv-x="493" 
d="M146 -206q-32 -2 -52 8t-22.5 38.5t2.5 52.5q55 -7 96.5 7t53.5 49q3 8 9.5 27t7.5 21q-88 -8 -115 84l-73 249q-31 102 -42 127q14 14 37.5 26.5t42.5 12.5q62 0 74 -47l57 -213l37 -160h2l49 157q40 131 48 257q28 8 58 8q32 0 50.5 -14t18.5 -38q0 -12 -2 -25
t-4.5 -20.5t-7 -21.5t-6.5 -21q-19 -63 -64 -199t-59 -179q-25 -78 -69.5 -129t-126.5 -57z" />
    <glyph glyph-name="f_f_i.001" horiz-adv-x="964" 
d="M45 -229q-41 0 -60.5 18t-18 45t7.5 59q53 -16 79 -16q38 0 54 23t17 78l-4 421h-96q-12 22 -8.5 50t24.5 29l77 6l-2 102q-2 85 39 140t132 55q53 0 76 -7q48 -14 48 -55q0 -34 -26 -56q-34 18 -60 18q-68 0 -68 -74v-117h196l-1 66q-1 98 55.5 161.5t183.5 63.5
q75 0 157 -25q54 -16 54 -51v-705q-26 -6 -73 -6q-61 0 -61 36v629q-40 16 -67 16q-39 0 -64 -11t-34.5 -32t-11.5 -35.5t-2 -37.5v-69h111q10 -28 2.5 -59.5t-23.5 -31.5h-91v-404q0 -85 -52 -129.5t-142 -44.5q-81 0 -51 112q46 -6 59 -6q30 0 42.5 16.5t12.5 56.5l-4 399
h-197v-426q0 -98 -56 -150t-154 -52z" />
    <glyph glyph-name="uni042F.alt.001" horiz-adv-x="647" 
d="M505 749q29 0 47.5 -18.5t18.5 -47.5v-683q-26 -10 -73 -10q-71 0 -71 47v231l-87 -3q-139 -205 -172 -243q-28 -32 -73 -32q-26 0 -44 16.5t-40 49.5q119 111 198 224q-92 22 -141.5 86.5t-49.5 134.5q0 118 82.5 184t223.5 65zM319 353q70 0 108 5v296h-88
q-84 0 -125.5 -42t-41.5 -113q0 -64 39.5 -105t107.5 -41z" />
    <glyph glyph-name="uni0426.001" horiz-adv-x="760" 
d="M606 -179q6 79 6 172q-105 2 -105 144q0 17 4 85h-1q-18 -45 -32 -74t-36.5 -62t-47.5 -52t-62.5 -31.5t-83.5 -12.5q-55 0 -94.5 19t-59 51t-28 64.5t-8.5 68.5v376q0 95 -8 161q70 10 90 10q37 0 48.5 -17t11.5 -56v-452q0 -120 93 -120q60 0 104 65t86 191v379
q52 10 91 10q32 0 49 -18t17 -52q0 -81 -15 -245v-252v-18t1 -17t3.5 -16.5t6.5 -13.5t10 -12t15 -8.5t21 -6t28.5 -1t36.5 2.5v-210q0 -31 -30 -46t-61 -12.5t-50 6.5z" />
    <glyph glyph-name="uni0428.001" horiz-adv-x="1170" 
d="M82 0v415q0 249 -8 315q70 10 90 10q11 0 20.5 -1.5t16 -5t11 -6.5t7.5 -9t5 -9.5t2.5 -11t0.5 -10v-11v-9.5v-552h283l1 615q33 10 85 10q38 0 48.5 -16.5t10.5 -64.5v-252l4 -292h283v615q48 10 82 10q42 0 52.5 -17t10.5 -64v-252l9 -407h-1014z" />
    <glyph glyph-name="uni0429.001" horiz-adv-x="1090" 
d="M984 112h93l-2 -245q0 -35 -49 -46t-99 -3l2 182h-791q-71 0 -71 50l2 317l-9 363q35 10 80 10q69 0 69 -46v-582h246l2 255l-9 363q35 10 80 10q69 0 69 -46v-582h245l2 255l-9 363q35 10 80 10q69 0 69 -46v-582z" />
    <glyph glyph-name="uni0416.alt" horiz-adv-x="1012" 
d="M710 352q165 -190 269 -279q-31 -50 -49 -65q-24 -18 -55 -18q-45 0 -78 39q-70 86 -204 265l-17 -1l3 -293q-40 -10 -74 -10q-74 0 -74 41l3 261l-20 -1q-141 -191 -202 -262q-32 -39 -78 -39q-25 0 -45 12.5t-30.5 26t-24.5 37.5q-3 5 -4 7q99 86 269 279
q-144 151 -218 250q-32 43 -29 72q6 50 92 77q86 -122 266 -331h24l-3 320q28 10 76 10q72 0 72 -46l-3 -282h25q187 217 264 328q86 -27 92 -77q4 -31 -29 -72q-89 -112 -218 -249z" />
    <glyph glyph-name="uni041A.alt" horiz-adv-x="675" 
d="M373 360q131 -149 282 -287q-2 -3 -9 -17t-9.5 -18t-9.5 -14.5t-12 -14t-13.5 -9.5t-18 -8t-21.5 -2q-46 0 -78 39q-155 187 -227 276h-38v-305q-40 -10 -71 -10q-38 0 -58.5 11.5t-19.5 36.5l9 334l-9 368q35 10 80 10q69 0 69 -48v-284h43q107 116 282 332
q44 -13 64 -30t23 -41q3 -31 -29 -72q-82 -105 -229 -247z" />
    <glyph glyph-name="uni0427.alt" horiz-adv-x="604" 
d="M350 -11q-134 0 -213 64t-79 187q0 62 23 115.5t72.5 103t101 88t134.5 90.5v1q-238 -8 -318 -8q-23 0 -36.5 13t-13.5 35q0 31 11 65q50 -3 143 -3h368q11 -30 11.5 -63.5t-8.5 -42.5q-11 -15 -64 -47q-157 -96 -212 -172.5t-55 -165.5q0 -73 38 -114t105 -41
q94 0 189 70q23 -18 34 -51q14 -41 -32 -72q-29 -20 -83 -36t-116 -16z" />
    <glyph glyph-name="uni042A.alt" horiz-adv-x="818" 
d="M481 -9q-137 0 -211 67.5t-73 193.5l2 380l-130 -3q-29 -1 -41 10t-12 38t13 63h219q34 0 55.5 -21t21.5 -53v-252l3 -1q44 36 88 53t126 17q107 0 177.5 -56t70.5 -175q0 -118 -77 -189.5t-232 -71.5zM485 97q158 0 158 140q0 70 -40.5 105t-101.5 35q-84 0 -174 -34
v-82q0 -164 158 -164z" />
    <glyph glyph-name="uni042C.alt2" horiz-adv-x="651" 
d="M183 -9q-50 0 -78.5 32t-30.5 82v625q47 14 80 14q28 0 46 -15.5t18 -37.5v-305q47 51 98 51h42q38 0 72.5 -5t71 -19.5t62.5 -37.5t42.5 -62.5t16.5 -90.5q0 -116 -70 -173.5t-217 -57.5h-153zM218 97h128q73 0 107.5 27.5t34.5 92.5t-33.5 89.5t-108.5 24.5h-128v-234z
" />
    <glyph glyph-name="uni042A.alt2" horiz-adv-x="742" 
d="M284 -9q-51 0 -80 32.5t-29 81.5v527h-101q-16 0 -29 15t-13 36q0 13 4 57h225q26 0 42 -16.5t16 -43.5v-290q46 52 98 52h45q39 0 74 -5t71.5 -20t63 -38.5t43 -63t16.5 -90.5q0 -117 -71 -175.5t-219 -58.5h-156zM319 97h131q71 0 108 27t37 96q0 66 -34.5 91.5
t-110.5 24.5l-131 -1v-238z" />
    <glyph glyph-name="uni0418.temp" horiz-adv-x="741" 
d="M593 -5q-73 0 -73 46v241q0 55 16 290h-1l-310 -572q-29 -6 -56 -6q-55 0 -75 18t-20 51l3 319l-3 348q36 10 73 10q75 0 75 -37v-270q0 -93 -11 -258l1 -1l293 556q55 10 78 10q84 0 84 -52l-3 -332l3 -356q-36 -5 -74 -5z" />
    <glyph glyph-name="uni0434.001.003.001" horiz-adv-x="572" 
d="M1043 -94q36 -19 45.5 -51.5t-24.5 -62.5q-62 -47 -183 -47q-78 0 -142 17.5t-147 55.5t-108 48q-33 -55 -90.5 -85.5t-133.5 -30.5q-141 0 -141 105q0 114 186 114q43 0 95 -7q6 34 4 76l-3 69l-2 1q-50 -110 -163 -110q-99 0 -152 62.5t-53 174.5q0 64 16 113.5
t40 77.5t56.5 45.5t60 23t55.5 5.5q92 0 134 -68v63q40 12 68 12q39 0 53 -20.5t14 -56.5q0 -40 -18 -180l12 -223q3 -49 -9 -91q44 -14 118.5 -43.5t129.5 -45.5t105 -16q52 0 99 20.5t78 54.5zM385 184v206q-38 22 -80 22q-130 0 -130 -175q0 -151 98 -151q39 0 60 21.5
t52 76.5zM276 -176q70 0 103 71q-36 6 -77 6q-76 0 -76 -44q0 -33 50 -33z" />
    <glyph glyph-name="uni0434.001.003" horiz-adv-x="572" 
d="M584 -75q5 -38 -10 -59t-59 -8l-31 9q-33 -55 -88 -86t-121 -31q-87 0 -121.5 27t-34.5 77q0 52 52 83.5t137 31.5q54 0 92 -6q6 34 4 75l-3 69l-2 1q-50 -110 -163 -110q-99 0 -152 62.5t-53 174.5q0 64 16 113.5t40 77.5t56.5 45.5t60 23t55.5 5.5q92 0 134 -68v63
q40 12 68 12q39 0 53 -20.5t14 -56.5q0 -40 -18 -180l12 -223q3 -42 -9 -89q40 -10 71 -13zM385 184v206q-38 22 -80 22q-130 0 -130 -175q0 -151 98 -151q39 0 60 21.5t52 76.5zM283 -176q61 0 94 65q-29 4 -69 4q-82 0 -82 -39q0 -30 57 -30z" />
    <glyph glyph-name="uni0431.alt" horiz-adv-x="562" 
d="M288 -12q-248 0 -248 319q0 336 174 397q20 7 68 20t89 27.5t71 31.5q42 -42 32 -92q-6 -30 -34.5 -44.5t-86 -26.5t-90.5 -26q-93 -38 -107 -153q-3 -29 -3 -92h2q49 126 180 126q24 0 47.5 -5t52 -20.5t49.5 -40.5t35 -70.5t14 -105.5q0 -117 -68 -181t-177 -64z
M286 80q45 0 75 37t30 113t-30 114.5t-76 38.5q-45 0 -74 -38t-29 -114q0 -75 29 -113t75 -38z" />
    <glyph glyph-name="uni0434.alt" horiz-adv-x="572" 
d="M606 124q20 -24 27 -39t0.5 -33.5t-31.5 -41.5q-36 -32 -85 -57q-18 -90 -85 -146.5t-157 -56.5q-87 0 -121.5 27t-34.5 77t43.5 74.5t145.5 40.5q62 10 95 21q2 31 1 48l-3 69l-2 1q-50 -110 -163 -110q-99 0 -152 62.5t-53 174.5q0 64 16 113.5t40 77.5t56.5 45.5
t60 23t55.5 5.5q92 0 134 -68v63q40 12 68 12q39 0 53 -20.5t14 -56.5q0 -40 -18 -180l11 -202q36 27 85 76zM385 184v206q-38 22 -80 22q-130 0 -130 -175q0 -151 98 -151q39 0 60 21.5t52 76.5zM281 -178q69 0 103 84q-32 -8 -76 -13q-49 -6 -65.5 -14t-16.5 -25
q0 -32 55 -32z" />
    <glyph glyph-name="uni0436.alt" horiz-adv-x="757" 
d="M557 236q69 -77 184 -174q-20 -71 -79 -71q-32 0 -74 47l-125 142h-17v-180q-26 -6 -73 -6q-61 0 -61 36v150h-21l-124 -142q-42 -47 -74 -47q-59 0 -79 71q128 106 189 172q-75 58 -142 120q-41 38 -31 76q13 47 76 60q93 -117 177 -207h29v452q0 37 62 37q34 0 72 -8
v-481h25q98 103 178 207q63 -13 76 -60q10 -38 -31 -76q-75 -69 -137 -118z" />
    <glyph glyph-name="uni0437.alt" horiz-adv-x="482" 
d="M433 107q26 -24 31.5 -45.5t-14.5 -36.5l-21 -12q4 -26 4 -40q0 -90 -59 -154.5t-180 -64.5q-90 0 -130.5 35.5t-42.5 91.5q-2 52 33.5 90t116.5 52q84 14 135 29q-24 40 -92 57q-61 -13 -72 -13q-47 0 -57 32q-10 35 9 76l120 -13q34 29 55 68.5t21 74.5q0 83 -76 83
q-32 0 -52.5 -19t-26 -40t-6.5 -46q-41 -15 -83 1q-33 11 -27 58q16 129 196 129q206 0 206 -167q0 -118 -132 -176l1 -3q63 -19 103 -69q23 11 40 22zM208 -170q17 0 34 5.5t36 20t31 45t13 74.5q-28 -7 -71 -14.5t-54 -10.5q-58 -14 -58 -60q0 -29 20 -44.5t49 -15.5z" />
    <glyph glyph-name="uni043A.alt" horiz-adv-x="508" 
d="M321 240q79 -89 172 -176q-20 -70 -80 -70q-39 0 -75 46l-113 140h-37v-180q-35 -6 -68 -6q-61 0 -61 49v447q0 151 -8 260q43 9 74 9q63 0 63 -42v-434h42q60 74 170 215q71 -15 76 -60q3 -37 -31 -74q-72 -78 -124 -124z" />
    <glyph glyph-name="uni0442.alt" horiz-adv-x="402" 
d="M392 480q15 -26 9.5 -57t-22.5 -31h-128q19 -16 19 -39v-221q0 -62 4 -132q-34 -6 -66 -6q-68 0 -68 28v290q0 18 0.5 46t0.5 34h-130q-11 16 -10.5 52t18.5 36h373z" />
    <glyph glyph-name="uni0447.alt" horiz-adv-x="523" 
d="M395 -6q-28 0 -38.5 10t-10.5 34l3 179l-4 1q-36 -49 -73 -71.5t-89 -22.5q-42 0 -72 13t-43.5 28t-21 43t-8 40t-0.5 37v81q0 87 -5 114q35 11 68 11q71 0 71 -51v-137q0 -43 11 -65t42 -22q27 0 49 14t57 55v195q40 10 77 10q33 0 47 -16.5t14 -57.5q0 -47 -12 -146
l9 -270q-42 -6 -71 -6z" />
    <glyph glyph-name="uni0446.alt" horiz-adv-x="566" 
d="M645 -75q5 -38 -10 -59t-59 -8l-31 9q-33 -55 -88 -86t-121 -31q-87 0 -121.5 27t-34.5 77q0 52 52 83.5t137 31.5q54 0 93 -6q3 16 3 35q-41 -2 -64 16t-23 72l2 41l-2 1q-32 -75 -73 -105.5t-97 -30.5q-75 0 -108 40.5t-33 103.5v214q0 93 -5 140q35 6 73 6
q34 0 50 -10.5t16 -36.5v-308q0 -32 10 -46.5t39 -14.5q26 0 51 26t59 93v291q42 6 72 6q35 0 50.5 -15t15.5 -54q0 -70 -12 -154l6 -150q2 -43 52 -39l35 7l4 -64q3 -47 -8 -89q41 -10 70 -13zM344 -176q60 0 95 65q-29 4 -70 4q-82 0 -82 -39q0 -30 57 -30z" />
    <glyph glyph-name="uni0449.alt" horiz-adv-x="860" 
d="M939 -75q5 -38 -10 -58.5t-59 -8.5l-31 9q-66 -117 -209 -117q-87 0 -121.5 27t-34.5 77q0 52 52 83.5t137 31.5q51 0 103 -13q4 28 4 43q-47 -4 -74 13t-24 74l2 42h-2q-31 -75 -71.5 -105.5t-94.5 -30.5q-129 0 -129 121v15h-2q-32 -77 -72 -107.5t-97 -30.5
q-32 0 -57 7t-40.5 15.5t-26.5 25.5t-16 28t-8 32.5t-3 29.5v27v190q0 82 -10 138q36 13 78 13q35 0 50.5 -13t15.5 -45v-295q0 -65 58 -65q28 0 54.5 25t56.5 92v291q40 10 77 10q33 0 47 -16.5t14 -56.5q0 -47 -12 -150l1 -138q0 -27 13 -42t36 -15q31 0 58 24t62 93v295
q37 6 68 6q74 0 74 -71q0 -55 -15 -158l5 -144q2 -45 52 -39l35 4q11 -82 -6 -150q40 -10 72 -13zM638 -176q69 0 105 67q-50 12 -93 12q-69 0 -69 -44q0 -35 57 -35z" />
    <glyph glyph-name="uni044A.alt" horiz-adv-x="591" 
d="M340 -10q-216 0 -216 203v196l-74 -2q-37 0 -43 34q-1 8 -1 17q0 22 5 52h169q31 0 51 -16.5t20 -50.5v-138l3 -1q72 53 153 53q71 0 117.5 -39.5t46.5 -125.5q0 -51 -19 -88t-53 -57t-73 -28.5t-86 -8.5zM343 75q44 0 66.5 24t22.5 66q0 84 -85 84q-38 0 -89 -20v-52
q0 -48 22.5 -75t62.5 -27z" />
    <glyph glyph-name="uni044F.alt" horiz-adv-x="509" 
d="M387 490q27 0 44.5 -15.5t17.5 -38.5v-436q-30 -7 -64 -7q-27 0 -42.5 14t-15.5 38v127h-16q-97 -121 -143 -160q-23 -20 -60 -20q-65 0 -73 81q104 48 151 95q-66 5 -111 42.5t-45 113.5q0 78 59 122t154 44h144zM327 246v160h-78q-35 0 -58 -22t-23 -60q0 -39 23 -61
t58 -22q47 0 78 5z" />
    <glyph glyph-name="uni0431.alt4" horiz-adv-x="508" 
d="M301 470q7 -5 31.5 -21t36.5 -25t34.5 -27t35 -35t26 -40t20 -50.5t6.5 -58.5q0 -101 -66 -162.5t-170 -61.5q-27 0 -54 4t-61.5 17.5t-60.5 36t-44 64t-18 95.5q0 160 123 204q31 11 67 6q-47 33 -75.5 70t-28.5 90q0 56 37 90.5t84.5 47t119 33.5t116.5 46
q33 -46 33 -70q0 -34 -47 -54q-47 -19 -111.5 -29t-93 -21t-28.5 -43q0 -47 88 -106zM254 78q103 0 103 140q0 56 -21 90.5t-78 73.5q-57 -31 -81.5 -70.5t-24.5 -99.5q0 -134 102 -134z" />
    <glyph glyph-name="ellipsis.001" horiz-adv-x="795" 
d="M132 -9q-29 0 -49.5 19t-20.5 58q0 47 24.5 69t60.5 22q34 0 59 -23t25 -62q0 -43 -28.5 -63t-70.5 -20zM381 -9q-29 0 -49.5 19t-20.5 58q0 47 24.5 69t60.5 22q34 0 59 -23t25 -62q0 -43 -28.5 -63t-70.5 -20zM630 -9q-29 0 -49.5 19t-20.5 58q0 47 24.5 69t60.5 22
q34 0 59 -23t25 -62q0 -43 -28.5 -63t-70.5 -20z" />
    <glyph glyph-name="ampersand.001" horiz-adv-x="728" 
d="M680 64l8 -8q-10 -55 -49 -65.5t-98 26.5q-11 6 -44 29q-84 -57 -192 -57q-112 0 -181 50.5t-69 132.5q0 105 117 181q-65 94 -65 185q0 89 58 142t156 53q90 0 141.5 -45.5t51.5 -124.5q0 -69 -39.5 -113t-141.5 -110q-2 -1 -5.5 -3.5t-5.5 -3.5q3 -3 7 -7.5t7.5 -7.5
t8.5 -8l8 -8q50 -47 121 -102q26 62 19 141q37 11 65 11q42 0 58 -21t10 -69q-11 -77 -50 -136q71 -49 104 -62zM317 639q-76 0 -76 -115q0 -64 29 -119q44 26 77 67t33 92q0 36 -16.5 55.5t-46.5 19.5zM307 86q54 0 100 30q-75 61 -134 120q-25 25 -36 38q-37 -37 -37 -90
q0 -98 107 -98z" />
    <glyph glyph-name="grave.case" horiz-adv-x="314" 
d="M196 560l-114 123q-17 18 -17 41q0 27 22 42q19 13 63 15q18 -35 90 -145q15 -25 2.5 -45.5t-46.5 -30.5z" />
    <glyph glyph-name="brevecombcy" 
 />
    <glyph glyph-name="coming_soon" horiz-adv-x="712" 
d="M126 0q-32 0 -54 22t-22 54l1 579q0 32 21.5 53.5t53.5 21.5h461q32 0 53.5 -21.5t21.5 -53.5v-580q0 -32 -21.5 -53.5t-53.5 -21.5h-461zM412 673q9 0 9 10q0 11 -8 11q-10 0 -10 -9q0 -12 9 -12zM558 550q18 0 26 11.5t7 27.5l-1 31q0 5 1.5 16.5t1.5 15.5q0 9 -7 9
q-5 0 -7 -1v-9q-8 8 -21 8q-14 0 -25 -9t-11 -31q0 -36 32 -36q15 0 25 16l1 -13q0 -26 -23 -26q-13 0 -25 11q-4 -3 -4 -7q-1 -1 1 -4q10 -10 29 -10zM142 580q15 0 25 8q3 3 3 4q0 4 -4 6q-13 -10 -23 -10q-22 0 -22 31t20 31q14 0 14 -15q0 -3 -1 -6q5 -2 9 0q5 2 4 10
q-2 20 -26 20q-34 0 -34 -41q0 -38 35 -38zM217 580q35 0 35 39q0 40 -35 40t-35 -40q0 -20 10 -29.5t25 -9.5zM279 580q1 0 3 0.5t3 0.5v41q11 28 25 28q12 0 12 -14v-21q-2 -18 -2 -25q0 -10 8 -10q1 0 3 0.5t3 0.5v41q11 28 25 28q12 0 12 -14v-51q0 -5 7 -5q2 0 4 0.5
t3 0.5q-1 4 -1 16v40q0 22 -24 22q-19 0 -28 -25v4q0 21 -20 21t-29 -25l1 19q0 6 -6 6q-3 0 -7 -2q2 -20 2 -42q-3 -24 -3 -25q0 -10 9 -10zM412 580h4l2 1v74q0 4 -6 4q-2 0 -4 -1h-2v-74q0 -4 6 -4zM449 580q4 0 6 1v41q11 28 25 28q12 0 12 -14v-48q0 -8 7 -8q3 0 7 2
q-1 5 -1 23v32q0 22 -22 22q-19 0 -30 -25l1 19q0 6 -6 6q-3 0 -7 -2q2 -20 2 -42q-2 -18 -2 -25q0 -10 8 -10zM217 589q-20 0 -20 30q0 31 20 31q21 0 21 -31q0 -30 -21 -30zM555 592q-19 0 -19 28q0 30 25 30q8 0 18 -5v-36q-13 -17 -24 -17zM132 453q0 4 2 11.5t2 11.5
q3 -2 7.5 -6.5l6.5 -6.5q3 -3 6 0q4 3 5 8q-4 1 -21 11q3 1 17 8q3 4 1 6q-2 5 -5 7l-17 -17q0 2 -0.5 6t-1 7.5t-1.5 5.5q0 6 -5 4l-8 -3l10 -21q-12 2 -18 2q-5 2 -5 -3v-9l23 3q-2 -3 -9 -17q-2 -3 2 -6q1 -1 4.5 -1.5t4.5 -0.5zM205 453l5 23q9 -9 14 -13q3 -3 6 0
q4 3 5 8q-3 1 -21 11q8 3 16 8q5 3 2 6q-4 6 -6 7l-17 -17q0 9 -2 19q-2 5 -5 4l-8 -3l9 -21q-10 2 -17 2q-4 1 -6 -3q0 -2 0.5 -5t0.5 -4l22 3l-8 -17q-2 -3 2 -6q1 -1 4 -1.5t4 -0.5zM279 453q1 4 2 11.5t2 11.5q3 -2 7 -6.5t7 -6.5q3 -3 7 0q2 2 4 8q-1 0 -4.5 2
t-8.5 4.5t-8 4.5q8 3 17 8q3 3 2 6q-4 6 -6 7l-17 -17q0 9 -2 19q-2 5 -6 4l-8 -3l10 -21q-12 2 -18 2q-5 2 -5 -3q0 -7 1 -9l22 3l-9 -17q-1 -3 2 -6q2 -1 5 -1t4 -1zM353 453q1 4 2 11.5t2 11.5q2 -2 7 -6.5t7 -6.5q3 -3 6 0t5 8q-4 1 -21 11q3 1 17 8q4 4 1 6q-1 3 -5 7
l-17 -17l-3 19q0 6 -5 4l-8 -3l9 -21q-10 2 -17 2q-5 2 -5 -3v-9l23 3q-2 -3 -9 -17q-2 -3 2 -6q1 0 2.5 -0.5l3 -1t3.5 -0.5zM426 453l5 23l13 -13q4 -3 7 0q4 4 4 8q-1 0 -4.5 2t-8.5 4.5t-8 4.5q8 3 17 8q4 2 2 6q-4 6 -6 7l-17 -17q0 9 -2 19q-2 5 -5 4q-2 -1 -5 -2
l-4 -1l10 -21q-10 2 -17 2q-5 1 -6 -3q0 -2 0.5 -5t0.5 -4l22 3q-7 -14 -8 -17q-3 -3 2 -6q1 -1 4 -1.5t4 -0.5zM500 453q0 4 2 11.5t2 11.5l6.5 -6.5t7.5 -6.5q3 -3 6 0q3 2 5 8q-1 0 -4.5 2t-8.5 4.5t-8 4.5q3 1 17 8q3 3 2 6q-4 6 -6 7l-5.5 -5.5t-6.5 -6t-5 -5.5
q0 3 -0.5 9.5t-1.5 9.5q-2 5 -6 4l-8 -3l10 -21q-12 2 -18 2q-5 2 -5 -3q0 -7 1 -9l22 3l-9 -17q-2 -3 2 -6q1 -1 4 -1t5 -1zM573 453q4 17 5 23q9 -9 14 -13q3 -3 6 0q4 3 5 8q-4 1 -21 11q6 2 16 8q5 3 2 6q-2 5 -6 7q-3 -3 -8 -8.5t-8 -8.5l-3 19q0 6 -5 4l-8 -3l9 -21
q-10 2 -17 2q-5 2 -5 -3v-9l23 3q-2 -3 -9 -17q-2 -3 2 -6q1 -1 4 -1.5t4 -0.5zM153 257q44 0 44 34q0 14 -10 22t-30 15q-24 7 -24 24q0 18 19 18q15 0 15 -15v-9q15 -4 20 0q4 1 4 11q0 31 -39 31q-44 0 -44 -37q0 -29 39 -42q24 -7 24 -20q0 -14 -17 -14q-23 0 -38 15
q-9 -7 -9 -14q0 -4 4 -8q18 -11 42 -11zM272 257q26 0 41 18t15 48t-15 47.5t-41 17.5q-27 0 -42 -17.5t-15 -47.5t15 -48t42 -18zM405 257q27 0 42 18t15 48t-15 47.5t-42 17.5q-26 0 -41 -17.5t-15 -47.5t15 -48t41 -18zM500 257q9 0 11 2v54q0 22 -3 43l1 1q8 -20 18 -34
l35 -59q4 -6 8 -6q10 -3 20 1l-1 66v56q0 7 -11 7q-6 0 -12 -2v-52q0 -18 2 -40h-1q-1 3 -4 8.5t-5 10t-4 7.5l-37 61q-4 7 -15 7q-5 0 -15 -2l1 -65v-54q0 -10 12 -10zM272 275q-30 0 -30 48q0 47 30 47t30 -47q0 -48 -30 -48zM405 275q-30 0 -30 48q0 47 30 47t30 -47
q0 -48 -30 -48z" />
    <glyph glyph-name="maina_period" horiz-adv-x="3663" 
d="M2063 578h-201q-17 24 -9 52.5t32 29.5l193 6q13 -19 8.5 -53.5t-23.5 -34.5zM954 500q38 0 66.5 -17t31.5 -49l40 -427q-39 -12 -68 -12q-60 0 -63 43l-10 134q-12 156 -15 202h-3l-75 -296q-21 -84 -108 -84q-82 0 -100 85l-64 295h-3q-2 -126 -8 -197l-14 -176
q-47 -6 -58 -6q-13 0 -23 2t-19 11t-8 25l29 303q9 91 7 154q48 11 98 11q79 0 93 -57l49 -202q8 -32 33 -165h4q7 31 18 84.5t18 80.5l60 248q47 10 92 10zM1584 496q64 0 64 -60q0 -29 -6.5 -89.5t-8.5 -85.5l14 -249q-36 -18 -73 -18q-32 0 -47.5 14t-13.5 38l5 71h-1
q-34 -71 -75 -99t-94 -28q-28 0 -53.5 5.5t-53 22t-47.5 43t-33 71t-13 103.5q0 64 16 113.5t40.5 77.5t57.5 45.5t61 23t58 5.5q91 0 134 -64v54q38 6 69 6zM3262 496q64 0 64 -60q0 -29 -6.5 -89.5t-8.5 -85.5l14 -249q-36 -18 -73 -18q-32 0 -47.5 14t-13.5 38l5 71h-1
q-34 -71 -75 -99t-94 -28q-28 0 -53.5 5.5t-53 22t-47.5 43t-33 71t-13 103.5q0 64 16 113.5t40.5 77.5t57.5 45.5t61 23t58 5.5q91 0 134 -64v54q38 6 69 6zM2118 496q74 0 74 -71q0 -26 -6.5 -79.5t-7.5 -69.5l13 -264q-41 -18 -68 -18q-34 0 -47 13.5t-11 39.5l4 81h-2
q-34 -77 -75.5 -107.5t-99.5 -30.5q-75 0 -109.5 41.5t-34.5 104.5v209q0 82 -10 138q39 14 78 14q34 0 49 -13.5t16 -47.5q4 -18 1.5 -143t-2.5 -156q0 -29 11 -44t41 -15q32 0 58.5 24.5t59.5 92.5v295q42 6 68 6zM2674 496q30 0 45.5 -9.5t14.5 -28.5l-6 -213l4 -241
q-40 -9 -71 -9q-27 0 -43.5 9.5t-16.5 25.5v126l-169 -1v-154q-38 -6 -71 -6q-66 0 -64 43l6 199l-6 253q30 6 73 6q62 0 62 -38v-255q9 29 36 29h133v258q39 6 73 6zM1506 194v196q-42 22 -82 22q-132 0 -132 -176q0 -158 97 -158q41 0 63 25.5t54 90.5zM3184 194v196
q-42 22 -82 22q-132 0 -132 -176q0 -158 97 -158q41 0 63 25.5t54 90.5zM3517 159q34 0 59 -23t25 -62q0 -43 -28.5 -63t-70.5 -20q-29 0 -49.5 19t-20.5 58q0 47 24.5 69t60.5 22zM137 127q33 0 52 -20.5t20 -58.5q2 -99 -61 -213l-75 9q20 66 15 138q-4 63 -33 101
q38 44 82 44z" />
    <glyph glyph-name="maina_comma" horiz-adv-x="3647" 
d="M2063 578h-201q-17 24 -9 52.5t32 29.5l193 6q13 -19 8.5 -53.5t-23.5 -34.5zM954 500q38 0 66.5 -17t31.5 -49l40 -427q-39 -12 -68 -12q-60 0 -63 43l-10 134q-12 156 -15 202h-3l-75 -296q-21 -84 -108 -84q-82 0 -100 85l-64 295h-3q-2 -126 -8 -197l-14 -176
q-47 -6 -58 -6q-13 0 -23 2t-19 11t-8 25l29 303q9 91 7 154q48 11 98 11q79 0 93 -57l49 -202q8 -32 33 -165h4q7 31 18 84.5t18 80.5l60 248q47 10 92 10zM1584 496q64 0 64 -60q0 -29 -6.5 -89.5t-8.5 -85.5l14 -249q-36 -18 -73 -18q-32 0 -47.5 14t-13.5 38l5 71h-1
q-34 -71 -75 -99t-94 -28q-28 0 -53.5 5.5t-53 22t-47.5 43t-33 71t-13 103.5q0 64 16 113.5t40.5 77.5t57.5 45.5t61 23t58 5.5q91 0 134 -64v54q38 6 69 6zM3262 496q64 0 64 -60q0 -29 -6.5 -89.5t-8.5 -85.5l14 -249q-36 -18 -73 -18q-32 0 -47.5 14t-13.5 38l5 71h-1
q-34 -71 -75 -99t-94 -28q-28 0 -53.5 5.5t-53 22t-47.5 43t-33 71t-13 103.5q0 64 16 113.5t40.5 77.5t57.5 45.5t61 23t58 5.5q91 0 134 -64v54q38 6 69 6zM2118 496q74 0 74 -71q0 -26 -6.5 -79.5t-7.5 -69.5l13 -264q-41 -18 -68 -18q-34 0 -47 13.5t-11 39.5l4 81h-2
q-34 -77 -75.5 -107.5t-99.5 -30.5q-75 0 -109.5 41.5t-34.5 104.5v209q0 82 -10 138q39 14 78 14q34 0 49 -13.5t16 -47.5q4 -18 1.5 -143t-2.5 -156q0 -29 11 -44t41 -15q32 0 58.5 24.5t59.5 92.5v295q42 6 68 6zM2674 496q30 0 45.5 -9.5t14.5 -28.5l-6 -213l4 -241
q-40 -9 -71 -9q-27 0 -43.5 9.5t-16.5 25.5v126l-169 -1v-154q-38 -6 -71 -6q-66 0 -64 43l6 199l-6 253q30 6 73 6q62 0 62 -38v-255q9 29 36 29h133v258q39 6 73 6zM1506 194v196q-42 22 -82 22q-132 0 -132 -176q0 -158 97 -158q41 0 63 25.5t54 90.5zM3184 194v196
q-42 22 -82 22q-132 0 -132 -176q0 -158 97 -158q41 0 63 25.5t54 90.5zM137 127q33 0 52 -20.5t20 -58.5q2 -99 -61 -213l-75 9q20 66 15 138q-4 63 -33 101q38 44 82 44zM3594 48q2 -99 -61 -213l-75 9q20 66 15 138q-4 63 -33 101q38 44 82 44q33 0 52 -20.5t20 -58.5z
" />
    <glyph glyph-name="Agravecy" horiz-adv-x="710" 
d="M357 820l-114 123q-17 18 -17 41q0 27 22 42q19 13 63 15q18 -35 90 -145q15 -25 2.5 -45.5t-46.5 -30.5zM478 679l212 -663q-52 -23 -98 -23q-9 0 -16 1.5t-13 3t-11 6t-8.5 6.5t-7.5 9t-5.5 9t-5 11.5t-4 11.5t-4 13t-3.5 13l-40 136l-262 -4l-5 -18q-33 -108 -45 -191
q-37 -8 -75 -8q-32 0 -52.5 20.5t-6.5 63.5l189 593q12 39 19 71q70 10 120 10q49 0 79 -15.5t43 -55.5zM242 307l204 -1l-14 48q-12 43 -41 152t-41 151h-4l-90 -303z" />
    <glyph glyph-name="Hardsigngravecy" horiz-adv-x="695" 
d="M268 820l-114 123q-17 18 -17 41q0 27 22 42q19 13 63 15q18 -35 90 -145q15 -25 2.5 -45.5t-46.5 -30.5zM375 -10q-78 0 -140 24.5t-102.5 81.5t-40.5 141q0 121 73 217q59 79 197 190l-2 3l-289 -12q-56 -2 -56 52q0 20 12 56q43 -3 129 -3h324q16 -28 17.5 -63
t-15.5 -53q-3 -3 -24.5 -22.5t-26 -23.5t-23 -21t-24.5 -24t-22 -23t-24.5 -27t-22 -27.5t-25 -32.5t-23.5 -34l1 -1q66 63 178 63q40 0 77.5 -12t71 -37t53.5 -69.5t20 -103.5q0 -116 -80.5 -177.5t-212.5 -61.5zM382 91q69 0 103 38.5t34 94.5q0 59 -35.5 92t-103.5 33
q-44 0 -127 -20q-18 -42 -18 -91q0 -75 42 -111t105 -36z" />
    <glyph glyph-name="Iagravecy" horiz-adv-x="752" 
d="M351 820l-114 123q-17 18 -17 41q0 27 22 42q19 13 63 15q18 -35 90 -145q15 -25 2.5 -45.5t-46.5 -30.5zM705 300q0 -195 6 -300q-7 -1 -25 -4t-30.5 -4.5t-17.5 -1.5q-43 0 -56.5 15t-13.5 45q0 136 11 234l-1 2q-23 -12 -56 -22q-98 -118 -182 -175t-194 -87
q-32 -8 -38 -8q-42 0 -60.5 34.5t-5.5 95.5q223 29 335 112q-39 -5 -77 -5q-113 0 -178 69.5t-65 187.5q0 133 78 197.5t206 64.5q116 0 187.5 -64.5t71.5 -176.5q0 -75 -46 -154q28 8 47 15q47 18 75.5 -2t28.5 -68zM201 487q0 -87 40 -125t102 -38q28 0 89 7q26 57 26 157
q0 76 -33 115t-91 39q-61 0 -97 -44.5t-36 -110.5z" />
    <glyph glyph-name="Iugravecy" horiz-adv-x="1000" 
d="M636 820l-114 123q-17 18 -17 41q0 27 22 42q19 13 63 15q18 -35 90 -145q15 -25 2.5 -45.5t-46.5 -30.5zM641 750q152 0 235 -103.5t83 -273.5t-83.5 -276.5t-234.5 -106.5q-137 0 -218 85.5t-97 230.5h-103v-306q-40 -10 -71 -10q-71 0 -71 41l2 336l-9 363
q35 10 80 10q69 0 69 -46v-289h101q8 158 90 251.5t227 93.5zM641 96q164 0 164 277q0 129 -37.5 200t-126.5 71q-164 0 -164 -271q0 -277 164 -277z" />
    <glyph glyph-name="Ogravecy" horiz-adv-x="738" 
d="M389 820l-114 123q-17 18 -17 41q0 27 22 42q19 13 63 15q18 -35 90 -145q15 -25 2.5 -45.5t-46.5 -30.5zM369 -10q-155 0 -241.5 103t-86.5 280q0 175 86.5 276t241.5 101t241.5 -101.5t86.5 -275.5t-87 -278.5t-241 -104.5zM369 96q174 0 174 277q0 271 -174 271
t-174 -271q0 -126 41.5 -201.5t132.5 -75.5z" />
    <glyph glyph-name="Ugravecy" horiz-adv-x="612" 
d="M291 820l-114 123q-17 18 -17 41q0 27 22 42q19 13 63 15q18 -35 90 -145q15 -25 2.5 -45.5t-46.5 -30.5zM283 -11q-110 0 -184 48q-13 10 -19 15.5t-11 15t-5 22.5q0 39 47 74q77 -72 170 -72q146 0 146 153v102h-1l-21 -28t-26 -28.5t-37.5 -30.5t-46.5 -19.5t-60 -9.5
q-86 0 -135.5 49t-49.5 137v192q0 97 -4 131q45 10 87 10q59 0 59 -46v-291q0 -40 22 -60.5t54 -20.5q42 0 74.5 23t69.5 70v156q0 124 -4 159q32 10 91 10q54 0 54 -53v-452q0 -38 -7 -72t-26 -68.5t-48.5 -59.5t-78 -40.5t-110.5 -15.5z" />
    <glyph glyph-name="agravecy" horiz-adv-x="580" 
d="M330 560l-114 123q-17 18 -17 41q0 27 22 42q19 13 63 15q18 -35 90 -145q15 -25 2.5 -45.5t-46.5 -30.5zM231 -10q-28 0 -53.5 5.5t-53 22t-47.5 43t-33 71t-13 103.5q0 64 16 113.5t40.5 77.5t57.5 45.5t61 23t58 5.5q91 0 134 -64v54q38 6 69 6q64 0 64 -60
q0 -29 -6.5 -89.5t-8.5 -85.5l14 -249q-36 -18 -73 -18q-32 0 -47.5 14t-13.5 38l5 71h-1q-34 -71 -75 -99t-94 -28zM272 78q41 0 63 25.5t54 90.5v196q-42 22 -82 22q-132 0 -132 -176q0 -158 97 -158z" />
    <glyph glyph-name="hardsigngravecy" horiz-adv-x="514" 
d="M230 560l-114 123q-17 18 -17 41q0 27 22 42q19 13 63 15q18 -35 90 -145q15 -25 2.5 -45.5t-46.5 -30.5zM264 -11q-97 0 -152.5 48.5t-55.5 123.5q0 54 25 98.5t64 77t103 69.5v1l-197 -5q-38 -1 -39 36q-1 27 9 52h328q7 -11 11.5 -27t2 -36t-16.5 -31
q-92 -73 -131 -120l2 -1q51 35 111 35q19 0 36.5 -2.5t41 -12t40 -25.5t28.5 -46.5t12 -70.5q0 -81 -58.5 -122.5t-163.5 -41.5zM266 71q46 0 66 23.5t20 58.5q0 36 -20 56t-58 20q-42 0 -76 -14q-11 -27 -11 -62q0 -42 24.5 -62t54.5 -20z" />
    <glyph glyph-name="iagravecy" horiz-adv-x="604" 
d="M261 560l-114 123q-17 18 -17 41q0 27 22 42q19 13 63 15q18 -35 90 -145q15 -25 2.5 -45.5t-46.5 -30.5zM537 223q0 -168 3 -223q-36 -6 -74 -6q-47 0 -50 40q-2 36 5 149l-1 1q-37 -15 -70 -22q-75 -129 -210 -162q-34 -8 -52 -8q-30 0 -44.5 27.5t-9.5 70.5
q157 26 231 60q-96 -3 -158.5 40t-62.5 135q0 85 53 130t145 45q95 0 141 -41.5t46 -115.5q0 -52 -23 -88l45 13q17 3 36.5 3.5t34.5 -12t15 -36.5zM180 319q0 -99 121 -86q11 33 11 96q0 83 -62 83q-70 0 -70 -93z" />
    <glyph glyph-name="iugravecy" horiz-adv-x="767" 
d="M528 560l-114 123q-17 18 -17 41q0 27 22 42q19 13 63 15q18 -35 90 -145q15 -25 2.5 -45.5t-46.5 -30.5zM490 500q37 0 74 -10t78.5 -35t67.5 -79t26 -130q0 -62 -17.5 -109.5t-43.5 -74.5t-60.5 -44t-63.5 -22.5t-57 -5.5q-34 0 -68.5 8t-72 28t-65.5 61.5t-37 100.5
h-61l5 -188q-28 -5 -80 -5q-26 0 -43.5 17.5t-17.5 51.5t13 151v252q0 194 -8 293q45 12 76 12q62 0 62 -42l-7 -454h58q4 54 23.5 96t45 65.5t59 38t60.5 19.5t54 5zM493 78q49 0 74 44t25 124q0 79 -25.5 122.5t-75.5 43.5q-49 0 -74.5 -43.5t-25.5 -122.5
q0 -76 26.5 -122t75.5 -46z" />
    <glyph glyph-name="ogravecy" horiz-adv-x="551" 
d="M312 550l-114 123q-17 18 -17 41q0 27 22 42q19 13 63 15q18 -35 90 -145q15 -25 2.5 -45.5t-46.5 -30.5zM278 -10q-30 0 -59.5 5.5t-64.5 22.5t-61.5 44t-44 74.5t-17.5 109.5q0 76 25.5 130t66.5 79t77.5 35t73.5 10t74 -10t78.5 -35t67.5 -79t26 -130
q0 -62 -17.5 -109.5t-43.5 -74.5t-60.5 -44t-63.5 -22.5t-57 -5.5zM277 77q99 0 99 169q0 166 -101 166q-100 0 -100 -166q0 -80 25.5 -124.5t76.5 -44.5z" />
    <glyph glyph-name="ugravecy" horiz-adv-x="541" 
d="M284 570l-114 123q-17 18 -17 41q0 27 22 42q19 13 63 15q18 -35 90 -145q15 -25 2.5 -45.5t-46.5 -30.5zM255 -204q-59 0 -111.5 16.5t-80.5 48.5q-12 14 -12 29q0 44 41 75q43 -43 81.5 -60t87.5 -17q52 0 84.5 38t32.5 89l-1 128l-2 1q-32 -74 -72 -104t-102 -30
q-146 0 -146 161v174q0 82 -10 138q36 13 78 13q35 0 50.5 -13t15.5 -45v-265q0 -37 12 -56t44 -19q28 0 52 24t59 90v278q40 6 68 6q40 0 56 -18.5t16 -52.5q0 -35 -17 -158l9 -222q5 -127 -59 -188t-174 -61z" />
    </font>
</defs>
</svg>
