<svg width="272" height="176" viewBox="0 0 272 176" fill="none" xmlns="http://www.w3.org/2000/svg">
<g clip-path="url(#clip0_37_52)">
<path d="M50.2926 14.463L46.2981 1.81703C45.9395 0.708037 45.317 0.287903 43.3852 0.287903C42.9635 0.287903 41.8311 0.419646 40.8376 0.645115C40.7935 1.32808 40.6112 1.86095 40.523 2.19325L36.8871 14.463H36.0192C35.4402 14.463 35 14.9015 35 15.4783V19.9654C35.7547 20.2289 37.8181 20.2289 37.8181 19.0569V16.7819H49.5129V19.9654C50.2676 20.2289 52.2429 20.2289 52.2429 19.0569V14.4637H50.2926V14.463ZM40.504 12.5583L41.3659 9.13038C41.8127 7.36333 42.5424 4.49318 43.1464 2.48164H43.2346C43.8511 4.42436 44.763 7.31941 45.2289 9.13038L46.5817 14.463H40.0144C40.1717 13.8862 40.3289 13.2472 40.5053 12.5583H40.504ZM62.1362 13.862C61.092 14.5515 60.3623 15.0778 58.8779 15.0778C57.3869 15.0778 56.4368 14.0435 56.2546 11.8504C56.4559 12.2516 56.9211 12.3833 57.2547 12.4017C57.8778 12.4515 58.5193 12.4515 59.2299 12.3387C61.117 12.0503 62.7336 11.1419 62.7336 8.97963C62.7336 6.69872 61.1361 5.72736 58.343 5.72736C54.8833 5.72736 53.0588 8.02728 53.0588 11.3418C53.0588 15.1453 55.3676 17.0002 58.6766 17.0002C60.3182 17.0002 61.5387 16.6679 62.4948 15.8283C62.7152 15.5838 62.8027 15.3649 62.8027 15.0326C62.8027 14.5692 62.425 14.0612 62.1362 13.8607V13.862ZM58.2989 7.62681C59.1417 7.62681 59.7208 8.00303 59.7208 9.04321C59.7208 10.5035 58.7206 10.9669 56.2355 10.9669C56.2546 9.21886 56.7888 7.62681 58.2989 7.62681ZM69.6601 17.0015C70.9873 17.0015 72.4091 16.6948 73.3652 15.6539C73.6106 15.4344 73.6731 15.1905 73.6731 14.8582C73.6731 14.3948 73.2954 13.9059 73.0066 13.7112C71.9874 14.482 71.2768 15.0771 69.7917 15.0771C68.3514 15.0771 67.3697 13.7735 67.3697 11.587C67.3697 8.31567 68.3008 7.62681 69.345 7.62681C70.276 7.62681 70.6537 8.27242 70.7228 9.44433C70.7478 9.77664 70.7228 10.065 70.6978 10.5284C71.2327 10.7224 72.1006 10.7663 72.7237 10.5723C73.1198 10.4406 73.5665 10.1712 73.5665 9.08712C73.5665 6.74328 72.0124 5.72802 69.3015 5.72802C66.1748 5.72802 64.2187 7.69563 64.2187 11.4991C64.2187 15.0588 66.1498 17.0008 69.6601 17.0008V17.0015ZM84.129 13.862C83.0848 14.5515 82.3551 15.0778 80.8707 15.0778C79.3797 15.0778 78.4296 14.0435 78.2474 11.8504C78.4487 12.2516 78.9139 12.3833 79.2475 12.4017C79.8706 12.4515 80.5121 12.4515 81.2227 12.3387C83.1098 12.0503 84.7264 11.1419 84.7264 8.97963C84.7264 6.69872 83.1289 5.72736 80.3358 5.72736C76.8761 5.72736 75.0516 8.02728 75.0516 11.3418C75.0516 15.1453 77.3604 17.0002 80.6694 17.0002C82.311 17.0002 83.5315 16.6679 84.4876 15.8283C84.708 15.5838 84.7955 15.3649 84.7955 15.0326C84.7955 14.5692 84.4178 14.0612 84.129 13.8607V13.862ZM80.2917 7.62681C81.1345 7.62681 81.7136 8.00303 81.7136 9.04321C81.7136 10.5035 80.7134 10.9669 78.2283 10.9669C78.2474 9.21886 78.7816 7.62681 80.2917 7.62681ZM93.2505 5.72802C92.1181 5.72802 90.4074 5.97249 89.5198 8.2036L89.4507 8.18459C89.4948 7.45116 89.5448 7.23224 89.5448 6.92484C89.5448 6.26088 89.2303 5.85976 88.142 5.85976C87.5886 5.85976 87.0978 5.9915 86.5694 6.14815C86.6767 7.01267 86.8589 9.46334 86.8589 11.876V13.8436C86.7017 15.8742 86.5444 17.4905 86.5444 19.7216C86.5444 20.7368 87.3248 21.2068 88.2558 21.2068C88.8789 21.2068 89.3632 21.094 89.6777 21.0252V15.8991C90.0554 16.4503 90.8291 17.0022 92.4267 17.0022C95.2889 17.0022 97.6418 15.0785 97.6418 10.9046C97.6418 7.16342 95.5593 5.72867 93.2511 5.72867L93.2505 5.72802ZM91.6713 15.1027C90.9417 15.1027 90.187 14.9021 89.677 14.7265V9.96999C90.2745 8.73581 91.0923 7.67663 92.2497 7.67663C93.5393 7.67663 94.4454 8.84854 94.4454 10.9479C94.4454 13.3979 93.4452 15.1027 91.6713 15.1027ZM100.95 16.8947C101.309 16.8947 102.019 16.8947 102.636 16.7819V10.7034C103.592 8.22785 104.303 7.67663 105.322 7.67663C106.032 7.67663 106.655 8.02728 106.655 9.06746V11.9815C106.498 13.0656 106.391 14.4191 106.391 15.3655C106.391 16.4057 107.032 16.8947 107.787 16.8947C108.252 16.8947 108.831 16.8947 109.429 16.7819V10.7034C110.404 8.22785 111.089 7.67663 112.09 7.67663C113.065 7.67663 113.442 8.22785 113.442 9.35585C113.442 11.3864 113.354 13.8613 113.354 15.4094C113.354 16.0111 113.335 16.8947 114.908 16.8947C115.556 16.8947 116.129 16.738 116.594 16.5814C116.487 15.6349 116.355 14.7894 116.355 13.5297V9.0242C116.355 6.68036 115.022 5.72802 112.914 5.72802C111.379 5.72802 110.14 6.56763 109.096 8.7109L109.052 8.69189V8.24685C109.052 6.52371 107.699 5.72802 106.209 5.72802C104.611 5.72802 103.435 6.54862 102.485 8.3786H102.44L102.485 6.94385C102.504 6.32315 102.17 5.81584 101.22 5.81584C100.729 5.81584 100.107 5.92858 99.5341 6.17306C99.773 7.8962 99.8612 9.41877 99.8612 11.9822C99.7289 13.179 99.5782 14.3699 99.5782 15.3662C99.5782 16.4313 100.22 16.8953 100.949 16.8953L100.95 16.8947ZM123.521 17.0015C126.12 17.0015 128.648 16.1429 128.648 12.9784C128.648 10.259 126.899 9.3316 125.012 9.3316C123.521 9.3316 122.659 9.6639 121.615 10.6163L121.546 10.5913L121.571 6.85668C121.571 6.26154 121.212 5.94824 120.218 5.94824C119.709 5.94824 119.218 6.01706 118.664 6.14881V12.34C118.664 16.5827 121.922 17.0022 123.521 17.0022L123.521 17.0015ZM131.844 16.9137C132.291 16.9137 132.913 16.8698 133.335 16.7819V6.81211C133.335 6.3048 132.844 5.9915 131.957 5.9915C131.554 5.9915 130.894 6.06032 130.36 6.17306V16.118C130.36 16.4064 130.36 16.9137 131.844 16.9137ZM123.59 15.0588C122.414 15.0588 121.728 14.2192 121.747 12.8716L121.772 11.7187C122.345 11.4303 123.1 11.2802 123.546 11.2802C124.635 11.2802 125.566 11.562 125.566 13.1351C125.566 14.2631 124.924 15.0588 123.59 15.0588ZM145.161 17.0015C146.489 17.0015 147.91 16.6948 148.866 15.6539C149.112 15.4344 149.174 15.1905 149.174 14.8582C149.174 14.3948 148.797 13.9059 148.508 13.7112C147.489 14.482 146.778 15.0771 145.293 15.0771C143.853 15.0771 142.871 13.7735 142.871 11.587C142.871 8.31567 143.802 7.62681 144.846 7.62681C145.777 7.62681 146.155 8.27242 146.224 9.44433C146.249 9.77664 146.224 10.065 146.199 10.5284C146.734 10.7224 147.602 10.7663 148.225 10.5723C148.621 10.4406 149.068 10.1712 149.068 9.08712C149.068 6.74328 147.514 5.72802 144.803 5.72802C141.676 5.72802 139.72 7.69563 139.72 11.4991C139.72 15.0588 141.651 17.0008 145.161 17.0008V17.0015ZM156.038 17.0015C157.856 17.0015 161.404 16.1429 161.404 11.3431C161.404 6.54928 157.768 5.72867 155.95 5.72867C154.126 5.72867 150.553 6.54928 150.553 11.3431C150.553 16.1435 154.107 17.0015 156.038 17.0015ZM156.013 15.0778C154.485 15.0778 153.749 13.6431 153.749 11.3431C153.749 9.04321 154.441 7.67728 155.969 7.67728C157.504 7.67728 158.209 9.04321 158.209 11.3431C158.209 13.6431 157.548 15.0778 156.013 15.0778ZM173.131 17.0015C176.188 17.0015 178.346 15.6356 178.346 12.4272C178.346 9.44433 176.415 8.51689 174.125 8.33534V8.27242C175.679 7.85228 177.742 6.43654 177.742 3.80431C177.742 1.48604 176.257 0.0696433 173.458 0.0696433C168.91 0.0696433 167.67 2.169 167.67 8.82364C167.67 16.0741 169.708 17.0015 173.131 17.0015ZM170.866 8.00303V5.77193C170.866 3.36583 171.551 1.92453 173.036 1.92453C173.684 1.92453 174.546 2.30075 174.546 4.0737C174.546 6.03542 173.508 7.51998 172.332 7.82737C171.998 7.9152 171.665 7.95912 170.866 8.00303ZM173.325 15.1466C171.551 15.1466 170.972 13.9059 170.91 10.0644C171.684 9.86381 172.35 9.70716 173.175 9.70716C174.458 9.70716 175.15 10.7224 175.15 12.3826C175.15 14.0874 174.527 15.146 173.325 15.146V15.1466ZM187.001 11.3241L190.373 6.69937C189.864 6.12914 189.531 5.75292 188.511 5.75292C188.046 5.75292 187.599 5.90302 187.266 6.27924C186.643 6.98711 186.02 8.15903 185.222 10.7034L182.894 13.9059L182.85 13.8869C182.938 12.051 183.052 10.3711 183.14 8.51624V0.933507C183.14 0.31281 182.674 -0.000488281 181.743 -0.000488281C181.341 -0.000488281 180.63 0.093239 180.102 0.200075C180.209 1.7043 180.297 4.1163 180.278 5.94628L180.121 15.1014C180.102 16.2923 180.857 16.9563 181.744 16.9563C182.562 16.9563 183.097 16.6679 183.606 15.9849L185.493 13.3966C185.915 14.13 186.601 15.2764 187.532 16.3356C187.865 16.7118 188.4 16.9563 189.023 16.9563C189.576 16.9563 190.445 16.4051 190.841 15.258C190.419 14.9008 188.979 13.9046 187.003 11.3228L187.001 11.3241ZM196.676 21.2939C199.715 21.2939 201.998 19.7209 201.847 15.7857L201.646 10.8791C201.822 9.59443 202.024 8.4035 202.024 7.38889C202.024 6.48046 201.69 5.81584 200.426 5.81584C199.69 5.81584 199.357 5.88467 198.916 5.94759V12.0949C197.853 14.1314 197.23 14.6138 196.45 14.6138C195.456 14.6138 195.211 13.9747 195.211 12.9594V7.1005C195.211 6.12914 194.764 5.81584 193.745 5.81584C193.103 5.81584 192.568 5.90367 192.015 6.10424C192.122 6.72493 192.236 7.73955 192.236 9.15594V13.0033C192.236 15.2594 193.147 16.563 195.475 16.563C197.274 16.563 198.382 15.8296 199.338 13.5991L199.382 13.624L199.407 16.4503C199.407 17.8667 198.407 19.2575 196.808 19.2575C195.412 19.2575 194.367 18.8629 193.059 17.5527C192.393 18.0666 192.147 18.549 192.147 19.2136C192.147 19.4332 192.236 19.6586 192.412 19.8526C193.28 20.8299 195.01 21.2939 196.677 21.2939H196.676ZM209.151 17.0015C210.478 17.0015 211.9 16.6948 212.856 15.6539C213.101 15.4344 213.164 15.1905 213.164 14.8582C213.164 14.3948 212.786 13.9059 212.497 13.7112C211.478 14.482 210.767 15.0771 209.282 15.0771C207.842 15.0771 206.86 13.7735 206.86 11.587C206.86 8.31567 207.791 7.62681 208.836 7.62681C209.767 7.62681 210.144 8.27242 210.213 9.44433C210.238 9.77664 210.213 10.065 210.188 10.5284C210.723 10.7224 211.591 10.7663 212.214 10.5723C212.61 10.4406 213.057 10.1712 213.057 9.08712C213.057 6.74328 211.503 5.72802 208.792 5.72802C205.665 5.72802 203.709 7.69563 203.709 11.4991C203.709 15.0588 205.64 17.0008 209.151 17.0008V17.0015ZM220.028 17.0015C221.846 17.0015 225.393 16.1429 225.393 11.3431C225.393 6.54928 221.758 5.72867 219.94 5.72867C218.115 5.72867 214.542 6.54928 214.542 11.3431C214.542 16.1435 218.097 17.0015 220.028 17.0015ZM220.003 15.0778C218.474 15.0778 217.738 13.6431 217.738 11.3431C217.738 9.04321 218.43 7.67728 219.959 7.67728C221.494 7.67728 222.198 9.04321 222.198 11.3431C222.198 13.6431 221.538 15.0778 220.003 15.0778ZM227.927 16.8953C228.286 16.8953 228.525 16.8514 229.217 16.7577L229.525 12.8723C229.682 10.9676 229.657 11.0547 229.701 8.51689H229.77L231.192 15.0339C231.457 16.2746 232.211 16.9137 233.406 16.9137C234.627 16.9137 235.495 16.3185 235.803 15.0588L237.471 8.51689H237.54C237.647 10.3469 237.779 11.8504 237.873 12.9784L238.094 15.9423C238.138 16.5375 238.647 16.8947 239.49 16.8947C239.999 16.8947 240.201 16.8698 241 16.6253L240.113 7.18767C240.025 6.19141 238.956 5.72736 237.936 5.72736C237.138 5.72736 236.515 5.81519 235.898 5.94693L234.564 11.4303C234.3 12.5144 234.118 13.5107 233.766 15.0771H233.677C233.388 13.5729 233.142 12.2699 232.941 11.4303L231.859 6.96875C231.677 6.23532 231.061 5.70901 229.79 5.70901C229.035 5.70901 228.481 5.75292 227.62 5.94693C227.664 7.2755 227.551 8.47232 227.463 9.35585L226.821 16.0544C226.752 16.8252 227.507 16.894 227.929 16.894L227.927 16.8953Z" fill="#EC392F"/>
<path d="M75.0943 42.7994C78.1519 42.7994 80.3094 41.4335 80.3094 38.2251C80.3094 35.2422 78.3783 34.3148 76.0885 34.1332V34.0703C77.6427 33.6502 79.7054 32.2344 79.7054 29.6022C79.7054 27.2839 78.221 25.8675 75.4214 25.8675C70.8734 25.8675 69.6338 27.9669 69.6338 34.6215C69.6338 41.8719 71.6722 42.7994 75.0943 42.7994ZM72.8296 33.8009V31.5698C72.8296 29.1637 73.5152 27.7224 74.9996 27.7224C75.6477 27.7224 76.5096 28.0986 76.5096 29.8716C76.5096 31.8333 75.4714 33.3179 74.2956 33.6253C73.962 33.7131 73.629 33.757 72.8296 33.8009ZM75.2891 40.9445C73.5152 40.9445 72.9362 39.7038 72.8737 35.8623C73.6474 35.6617 74.314 35.505 75.1384 35.505C76.4215 35.505 77.1137 36.5203 77.1137 38.1805C77.1137 39.8853 76.4906 40.9438 75.2891 40.9438V40.9445ZM86.9899 42.7994C88.8078 42.7994 92.3556 41.9408 92.3556 37.141C92.3556 32.3472 88.7197 31.5265 86.9017 31.5265C85.0771 31.5265 81.5043 32.3472 81.5043 37.141C81.5043 41.9414 85.0587 42.7994 86.9899 42.7994ZM86.9649 40.8757C85.4364 40.8757 84.7001 39.4409 84.7001 37.141C84.7001 34.8411 85.3923 33.4752 86.9208 33.4752C88.4558 33.4752 89.1605 34.8411 89.1605 37.141C89.1605 39.4409 88.4999 40.8757 86.9649 40.8757ZM102.837 40.1678L100.352 32.8551C100.018 31.8589 99.3519 31.5075 98.1504 31.5075C97.5089 31.5075 97.0871 31.5954 96.4206 31.7271C96.2443 32.7234 95.9988 33.4502 95.6027 34.5533L93.1367 41.2519C92.7406 42.336 93.4887 42.7561 94.3131 42.7561C94.8224 42.7561 95.3323 42.7122 95.7093 42.5805C95.9107 41.6091 96.2443 40.4372 96.5772 39.3282L97.9991 34.7539L100.151 41.7409C100.327 42.2921 100.547 42.7561 101.459 42.7561C102.17 42.7561 102.944 42.5556 103.523 42.0292C103.215 41.4341 103.058 40.8324 102.837 40.1678ZM121.389 33.1868C121.389 32.2783 121.011 31.6137 119.747 31.6137C119.325 31.6137 118.791 31.6576 118.237 31.7455V38.269C117.13 40.4811 116.375 40.8573 115.576 40.8573C114.84 40.8573 114.488 40.3939 114.488 39.5976L114.463 36.5459C114.62 35.2173 114.733 34.1332 114.733 33.2307C114.733 32.0339 114.356 31.6137 113.381 31.6137C112.89 31.6137 112.292 31.6825 111.669 31.8333V38.269C110.713 40.3933 109.958 40.8573 109.203 40.8573C108.165 40.8573 107.92 40.3245 107.92 39.5537V32.8984C107.92 31.927 107.473 31.6137 106.454 31.6137C105.813 31.6137 105.278 31.7015 104.724 31.9021C104.832 32.5228 104.945 33.5374 104.945 34.9538V37.2537V39.1525C104.945 40.3684 104.857 42.7994 108.298 42.7994C109.895 42.7994 111.047 42.0915 112.047 39.7477H112.091V40.08C112.16 41.9414 113.198 42.7555 114.953 42.7555C116.463 42.7555 117.614 42.0725 118.596 39.7477H118.659C118.64 40.3494 118.596 41.0762 118.571 41.5396C118.552 42.3602 118.86 42.7116 119.86 42.7116C120.3 42.7116 120.791 42.5798 121.37 42.317L121.056 36.677C121.257 35.3045 121.389 34.1765 121.389 33.1868H121.389ZM132.24 39.6598C131.196 40.3494 130.466 40.8757 128.982 40.8757C127.491 40.8757 126.541 39.8414 126.358 37.6483C126.56 38.0494 127.025 38.1812 127.359 38.1995C127.982 38.2493 128.623 38.2493 129.334 38.1366C131.221 37.8482 132.838 36.9398 132.838 34.7775C132.838 32.4966 131.24 31.5252 128.447 31.5252C124.987 31.5252 123.163 33.8252 123.163 37.1397C123.163 40.9432 125.472 42.7981 128.78 42.7981C130.422 42.7981 131.643 42.4658 132.599 41.6262C132.819 41.3817 132.907 41.1628 132.907 40.8305C132.907 40.3671 132.529 39.8591 132.24 39.6585V39.6598ZM128.403 33.4247C129.246 33.4247 129.825 33.8009 129.825 34.8411C129.825 36.3014 128.825 36.7648 126.339 36.7648C126.358 35.0167 126.893 33.4247 128.403 33.4247ZM139.519 42.7994C142.204 42.7994 145.199 41.4518 145.199 37.3416C145.199 33.8953 142.89 30.3356 137.323 28.2992C138.984 28.2114 141.582 28.0108 142.978 27.7919C144.62 27.5474 144.847 27.2151 144.847 26.401C144.847 26.0248 144.778 25.6493 144.601 25.2291C141.248 25.7803 138.607 26.1566 135.568 26.5328C135.19 27.0401 135.103 27.4602 135.103 27.9675C135.103 28.9828 135.525 29.2083 135.99 29.4462C137.562 30.2668 140.117 31.4138 141.381 33.8265L141.362 33.8704C140.608 33.0059 139.721 32.7234 138.519 32.7234C136.676 32.7234 134.059 33.6947 134.059 37.7368C134.059 41.6281 137.034 42.8 139.519 42.8L139.519 42.7994ZM139.563 40.8567C138.009 40.8567 137.235 39.6159 137.235 37.6732C137.235 35.8373 137.94 34.4898 139.739 34.4209C140.274 34.4019 140.96 34.5337 141.601 34.7972C141.935 35.6178 142.092 36.458 142.092 37.3416C142.092 39.5097 141.161 40.8573 139.563 40.8573L139.563 40.8567ZM152.014 42.7994C153.341 42.7994 154.763 42.4926 155.719 41.4518C155.964 41.2322 156.027 40.9884 156.027 40.6561C156.027 40.1927 155.649 39.7038 155.36 39.5091C154.341 40.2799 153.63 40.875 152.145 40.875C150.705 40.875 149.723 39.5714 149.723 37.3848C149.723 34.1136 150.654 33.4247 151.698 33.4247C152.629 33.4247 153.007 34.0703 153.076 35.2422C153.101 35.5745 153.076 35.8629 153.051 36.3263C153.586 36.5203 154.454 36.5642 155.077 36.3702C155.473 36.2385 155.92 35.9691 155.92 34.885C155.92 32.5412 154.366 31.5259 151.655 31.5259C148.528 31.5259 146.572 33.4935 146.572 37.297C146.572 40.8567 148.503 42.7987 152.014 42.7987V42.7994ZM159.336 42.6925C159.695 42.6925 160.405 42.6925 161.022 42.5798V36.5013C161.978 34.0257 162.689 33.4745 163.708 33.4745C164.418 33.4745 165.041 33.8252 165.041 34.8653V37.7794C164.884 38.8635 164.777 40.217 164.777 41.1634C164.777 42.2036 165.418 42.6925 166.173 42.6925C166.638 42.6925 167.217 42.6925 167.815 42.5798V36.5013C168.79 34.0257 169.476 33.4745 170.476 33.4745C171.451 33.4745 171.828 34.0257 171.828 35.1537C171.828 37.1843 171.74 39.6592 171.74 41.2073C171.74 41.809 171.721 42.6925 173.294 42.6925C173.943 42.6925 174.515 42.5359 174.98 42.3792C174.873 41.4328 174.741 40.5873 174.741 39.3275V34.8221C174.741 32.4782 173.408 31.5259 171.3 31.5259C169.765 31.5259 168.526 32.3655 167.482 34.5088L167.438 34.4898V34.0447C167.438 32.3216 166.085 31.5259 164.595 31.5259C162.997 31.5259 161.821 32.3465 160.871 34.1765H160.826L160.871 32.7417C160.89 32.121 160.556 31.6137 159.606 31.6137C159.115 31.6137 158.493 31.7265 157.92 31.9709C158.159 33.6941 158.247 35.2166 158.247 37.7801C158.115 38.9769 157.964 40.1678 157.964 41.1641C157.964 42.2291 158.606 42.6932 159.335 42.6932L159.336 42.6925ZM182.467 42.7994C185.525 42.7994 187.682 41.4335 187.682 38.2251C187.682 35.2422 185.751 34.3148 183.461 34.1332V34.0703C185.016 33.6502 187.078 32.2344 187.078 29.6022C187.078 27.2839 185.594 25.8675 182.794 25.8675C178.246 25.8675 177.007 27.9669 177.007 34.6215C177.007 41.8719 179.045 42.7994 182.467 42.7994ZM180.202 33.8009V31.5698C180.202 29.1637 180.888 27.7224 182.372 27.7224C183.021 27.7224 183.883 28.0986 183.883 29.8716C183.883 31.8333 182.844 33.3179 181.668 33.6253C181.335 33.7131 181.002 33.757 180.202 33.8009ZM182.662 40.9445C180.888 40.9445 180.309 39.7038 180.247 35.8623C181.02 35.6617 181.687 35.505 182.511 35.505C183.794 35.505 184.487 36.5203 184.487 38.1805C184.487 39.8853 183.863 40.9438 182.662 40.9438V40.9445ZM193.319 42.7994C194.759 42.7994 196.004 42.2042 197.068 39.9921H197.093L196.98 41.5652C196.935 42.2291 197.357 42.7122 198.332 42.7122C198.911 42.7122 199.465 42.5556 199.956 42.3176L199.641 36.8094C199.729 35.393 199.975 34.09 199.975 32.9429C199.975 32.1912 199.641 31.6144 198.553 31.6144C197.779 31.6144 197.445 31.6832 197.024 31.7461V32.9429C196.358 31.9467 195.294 31.5265 194.049 31.5265C192.118 31.5265 188.878 32.4101 188.878 37.3855C188.878 41.8975 191.432 42.8 193.319 42.8L193.319 42.7994ZM194.231 40.8567C192.897 40.8567 192.073 39.7916 192.073 37.3599C192.073 35.2606 192.765 33.4745 195.004 33.4745C195.627 33.4745 196.401 33.738 196.822 33.9569V38.2933C196.048 39.8414 195.558 40.856 194.231 40.856V40.8567ZM205.724 37.5854L206.189 26.6881C206.258 25.1151 203.969 24.9401 202.88 25.8924L203.214 37.1659C203.239 37.8738 204.415 38.0055 205.724 37.586V37.5854ZM204.478 42.9999C205.41 42.9999 206.366 42.4926 206.366 40.9884C206.366 39.7477 205.592 39.2836 204.811 39.2836C203.704 39.2836 202.616 39.747 202.616 41.1195C202.616 42.3353 203.547 42.9993 204.478 42.9993L204.478 42.9999Z" fill="#EC392F"/>
</g>
<path d="M26.3261 84.1543C29.0786 84.1543 29.9064 82.1868 30.7857 79.8133H30.8373V81.0442C30.8373 82.7556 32.0336 84.1543 34.2565 84.1543C37.009 84.1543 37.8531 82.1868 38.7325 79.7565H38.7903C38.6607 81.1388 38.5878 82.3129 38.5878 83.1428C38.5878 83.6233 38.7538 84.066 39.8735 84.066C40.4974 84.066 40.7943 84.0445 41.1226 83.9727L40.9566 76.3917C41.144 74.5655 41.2321 73.5376 41.2321 71.6597C41.2321 70.7 40.9201 70.1677 39.8005 70.1677C39.1602 70.1677 38.7337 70.2611 38.2959 70.3506V77.383C37.3587 80.2522 36.2919 82.2247 34.8251 82.2247C33.5243 82.2247 33.0979 81.3431 33.0815 79.976L33.0237 76.3917C33.1696 74.6601 33.2992 73.554 33.2992 71.6597C33.2992 70.647 32.9142 70.1677 31.9405 70.1677C31.6122 70.1677 30.8008 70.2258 30.3794 70.3506L30.3643 77.383C29.3906 80.2522 28.4181 82.2247 26.8721 82.2247C25.5499 82.2247 25.165 81.3216 25.165 79.976V71.5134C25.165 71.0127 25.2945 70.1677 24.0101 70.1677C23.6252 70.1677 22.7458 70.2976 22.3609 70.3506C22.5068 71.603 22.5068 73.3711 22.5068 76.1886V80.1803C22.5068 81.8917 23.2981 84.1555 26.3261 84.1555V84.1543ZM47.6944 84.1543C49.199 84.1543 52.1339 83.4392 52.1339 79.4425C52.1339 75.4508 49.126 74.7673 47.6214 74.7673C46.1118 74.7673 43.1568 75.4508 43.1568 79.4425C43.1568 83.4392 46.0968 84.1543 47.6944 84.1543ZM47.673 82.5526C46.4087 82.5526 45.7999 81.3582 45.7999 79.4425C45.7999 77.528 46.3723 76.3904 47.6365 76.3904C48.9059 76.3904 49.4896 77.528 49.4896 79.4425C49.4896 81.357 48.9436 82.5526 47.673 82.5526ZM59.4441 79.4274L62.2331 75.577C61.8116 75.1028 61.5361 74.7887 60.6933 74.7887C60.3083 74.7887 59.9385 74.9136 59.663 75.2263C59.1472 75.8153 58.6327 76.7915 57.9722 78.9103L56.0462 81.5764L56.0098 81.5613C56.0827 80.0327 56.1758 78.6341 56.2488 77.0904V70.7769C56.2488 70.2598 55.8638 70 55.0939 70C54.7606 70 54.1731 70.0782 53.7353 70.1665C53.8234 71.4188 53.8963 73.4279 53.8812 74.9501L53.7517 82.5727C53.7366 83.564 54.3605 84.1164 55.0939 84.1164C55.7707 84.1164 56.2123 83.8768 56.6337 83.308L58.1949 81.1527C58.5434 81.7631 59.1107 82.7178 59.8806 83.5993C60.1561 83.9121 60.5989 84.1164 61.1134 84.1164C61.5714 84.1164 62.2897 83.6574 62.618 82.7026C62.2695 82.405 61.0782 81.5751 59.4441 79.4261V79.4274ZM67.5015 84.1543C69.0061 84.1543 71.941 83.4392 71.941 79.4425C71.941 75.4508 68.9331 74.7673 67.4286 74.7673C65.919 74.7673 62.964 75.4508 62.964 79.4425C62.964 83.4392 65.9039 84.1543 67.5015 84.1543ZM67.4802 82.5526C66.2159 82.5526 65.607 81.3582 65.607 79.4425C65.607 77.528 66.1794 76.3904 67.4437 76.3904C68.713 76.3904 69.2967 77.528 69.2967 79.4425C69.2967 81.357 68.7507 82.5526 67.4802 82.5526ZM80.6111 81.9636L78.5555 75.8746C78.28 75.0447 77.7278 74.7534 76.734 74.7534C76.2031 74.7534 75.8546 74.8266 75.3024 74.9363C75.1564 75.7661 74.9539 76.3715 74.6256 77.2896L72.5851 82.8666C72.2568 83.7696 72.877 84.119 73.5588 84.119C73.9802 84.119 74.4016 84.0824 74.7136 83.9727C74.8797 83.1642 75.1564 82.1881 75.4319 81.2649L76.6082 77.4561L78.3882 83.274C78.5342 83.733 78.7166 84.119 79.4701 84.119C80.0576 84.119 80.6979 83.9525 81.1772 83.5136C80.9218 83.0179 80.7923 82.5173 80.6099 81.9636H80.6111ZM85.3663 84.1543C86.5577 84.1543 87.588 83.6586 88.4685 81.8173H88.4899L88.3968 83.1264C88.3604 83.6801 88.7088 84.0811 89.5152 84.0811C89.9945 84.0811 90.4524 83.9512 90.8575 83.752L90.5971 79.1663C90.67 77.9871 90.8726 76.9025 90.8726 75.9477C90.8726 75.3222 90.5971 74.8417 89.6964 74.8417C89.056 74.8417 88.7805 74.8997 88.4321 74.9514V75.9477C87.8798 75.1179 87.0005 74.7685 85.9702 74.7685C84.3725 74.7685 81.693 75.5038 81.693 79.6468C81.693 83.4039 83.8064 84.1543 85.3676 84.1543H85.3663ZM86.1211 82.5374C85.0179 82.5374 84.336 81.6508 84.336 79.6266C84.336 77.8786 84.9084 76.3917 86.7614 76.3917C87.2772 76.3917 87.9163 76.6111 88.266 76.794V80.4048C87.6257 81.6937 87.2194 82.5387 86.1224 82.5387L86.1211 82.5374ZM96.8418 87.7083C101.447 87.7083 101.542 84.0824 101.432 82.5173L101.245 79.1675C101.318 78.0665 101.542 77.2001 101.542 76.0575C101.542 75.3008 101.359 74.6386 100.309 74.6386C99.705 74.6386 99.2471 74.8051 99.0646 74.8631V76.0209C98.4923 75.1028 97.6859 74.7685 96.6027 74.7685C95.0202 74.7685 92.3407 75.5038 92.3407 79.6468C92.3407 82.3697 93.7924 84.008 96.2543 84.008C97.228 84.008 98.3828 83.7154 99.1741 81.9838L99.2106 82.0052L99.2621 83.2727C99.3351 84.9677 98.6583 85.9956 96.6027 85.9956C95.5724 85.9956 94.6717 85.5731 93.5735 85.0194C93.2036 85.4268 93.0011 85.8859 93.0212 86.2504C93.0363 86.6577 93.3131 86.9541 93.922 87.2101C94.4377 87.4296 95.4982 87.7058 96.8418 87.7058V87.7083ZM96.8569 82.3924C95.7385 82.3924 94.9837 81.5058 94.9837 79.6115C94.9837 77.8635 95.6077 76.3929 97.4091 76.3929C97.9249 76.3929 98.564 76.6124 98.9137 76.7953V80.5876C98.2734 81.7454 97.8884 82.3924 96.8581 82.3924H96.8569Z" fill="#6A2021"/>
<path d="M32.5658 106.225C33.2111 106.225 33.981 105.912 34.3295 104.638C32.674 103.386 31.0046 101.492 29.4434 99.4109C31.3895 96.3954 33.1331 94.24 33.6325 93.4316C33.2841 92.492 32.6387 92.2524 32.05 92.2524C31.2071 92.2524 30.7643 92.492 30.2699 93.0091C29.4635 93.8755 28.5842 95.7118 27.5325 98.6226L25.004 103.225L24.9461 103.203C25.2581 100.115 25.3675 98.1787 25.3675 96.0082V93.1339C25.3675 92.5134 24.8517 92.2524 24.1032 92.2524C23.6969 92.2524 23.1459 92.2889 22.6351 92.4352L22.7597 104.399C22.7811 105.766 23.3119 106.188 24.3573 106.188C24.8153 106.188 25.331 106.115 26.0129 105.024L28.1414 101.492C29.3692 103.313 30.0875 104.236 30.8008 105.024C31.7216 106.021 32.2374 106.224 32.5645 106.224L32.5658 106.225ZM42.4599 103.627C41.5957 104.201 40.9918 104.64 39.764 104.64C38.5312 104.64 37.7449 103.778 37.594 101.953C37.76 102.288 38.1462 102.397 38.4217 102.412C38.9375 102.454 39.4684 102.454 40.0559 102.361C41.617 102.121 42.9543 101.364 42.9543 99.5647C42.9543 97.6654 41.6321 96.857 39.3212 96.857C36.4593 96.857 34.9497 98.7714 34.9497 101.532C34.9497 104.699 36.8593 106.244 39.5967 106.244C40.9553 106.244 41.9642 105.968 42.7555 105.268C42.9379 105.065 43.0109 104.882 43.0109 104.606C43.0109 104.22 42.6989 103.797 42.4586 103.63L42.4599 103.627ZM39.286 98.436C39.9829 98.436 40.4622 98.7487 40.4622 99.6152C40.4622 100.831 39.6344 101.217 37.5789 101.217C37.594 99.7615 38.0368 98.436 39.286 98.436ZM50.3551 101.515L53.144 97.6641C52.7226 97.1899 52.4471 96.8759 51.6043 96.8759C51.2193 96.8759 50.8495 97.0007 50.574 97.3135C50.0582 97.9025 49.5437 98.8786 48.8832 100.997L46.9572 103.664L46.9207 103.648C46.9937 102.12 47.0868 100.721 47.1598 99.1775V92.864C47.1598 92.347 46.7748 92.0872 46.0049 92.0872C45.6716 92.0872 45.0841 92.1654 44.6463 92.2536C44.7343 93.506 44.8073 95.5151 44.7922 97.0373L44.6626 104.66C44.6475 105.651 45.2715 106.204 46.0049 106.204C46.6817 106.204 47.1233 105.964 47.5447 105.395L49.1059 103.24C49.4543 103.85 50.0217 104.805 50.7916 105.687C51.0671 105.999 51.5099 106.204 52.0244 106.204C52.4823 106.204 53.2007 105.745 53.529 104.79C53.1805 104.492 51.9892 103.662 50.3551 101.513V101.515ZM58.3761 106.241C59.4743 106.241 60.6505 105.985 61.4418 105.12C61.6443 104.937 61.6972 104.734 61.6972 104.458C61.6972 104.072 61.3852 103.665 61.1449 103.503C60.302 104.145 59.7133 104.641 58.4855 104.641C57.2942 104.641 56.4815 103.556 56.4815 101.735C56.4815 99.0123 57.2514 98.4385 58.1156 98.4385C58.8855 98.4385 59.1975 98.9757 59.2554 99.9519C59.2768 100.228 59.2554 100.469 59.234 100.855C59.6768 101.016 60.3951 101.053 60.9097 100.891C61.238 100.782 61.6066 100.557 61.6066 99.6555C61.6066 97.7045 60.3209 96.8595 58.0779 96.8595C55.4915 96.8595 53.8724 98.4978 53.8724 101.665C53.8724 104.628 55.4701 106.245 58.3735 106.245L58.3761 106.241ZM67.1141 106.241C69.264 106.241 71.356 105.526 71.356 102.892C71.356 100.628 69.9093 99.8548 68.3482 99.8548C67.1153 99.8548 66.4021 100.131 65.5378 100.924L65.48 100.903L65.5013 97.7928C65.5013 97.2971 65.2044 97.036 64.383 97.036C63.9616 97.036 63.5552 97.0941 63.0973 97.2025V102.357C63.0973 105.89 65.7932 106.239 67.1153 106.239L67.1141 106.241ZM73.9991 106.168C74.3689 106.168 74.8835 106.132 75.2319 106.059V97.7574C75.2319 97.3349 74.8256 97.0739 74.0922 97.0739C73.7588 97.0739 73.2128 97.1319 72.77 97.2252V105.505C72.77 105.745 72.77 106.167 73.9978 106.167L73.9991 106.168ZM67.1707 104.625C66.197 104.625 65.6309 103.926 65.646 102.803L65.6674 101.844C66.1404 101.604 66.7656 101.478 67.1355 101.478C68.0362 101.478 68.8061 101.713 68.8061 103.022C68.8061 103.961 68.2752 104.623 67.172 104.623L67.1707 104.625Z" fill="#6A2021"/>
<path d="M26.5236 128.254C27.0029 128.254 27.262 128.239 27.9753 128.144C28.0118 124.279 28.0118 120.339 27.9753 116.473H31.426C31.738 115.497 31.7594 114.522 31.0247 114.522H21.7508C21.5319 115.389 21.5684 116.473 22.2301 116.473H25.6078C25.2794 116.823 25.2794 117.172 25.2794 117.543C25.2794 120.835 25.2581 124.226 25.3159 127.519C25.331 128.108 25.8468 128.254 26.5236 128.254ZM35.6139 128.327C37.1184 128.327 40.0533 127.612 40.0533 123.615C40.0533 119.624 37.0455 118.94 35.5409 118.94C34.0313 118.94 31.0763 119.624 31.0763 123.615C31.0763 127.612 34.0162 128.327 35.6139 128.327ZM35.5925 126.726C34.3282 126.726 33.7193 125.531 33.7193 123.615C33.7193 121.701 34.2917 120.563 35.556 120.563C36.8253 120.563 37.409 121.701 37.409 123.615C37.409 125.53 36.8631 126.726 35.5925 126.726ZM47.0151 118.942C46.0779 118.942 44.6626 119.145 43.9292 121.002L43.8714 120.987C43.9078 120.377 43.9493 120.194 43.9493 119.938C43.9493 119.384 43.6889 119.051 42.7882 119.051C42.3303 119.051 41.924 119.161 41.4875 119.291C41.5755 120.011 41.7265 122.05 41.7265 124.059V125.698C41.5969 127.388 41.4661 128.735 41.4661 130.591C41.4661 131.436 42.1114 131.827 42.8813 131.827C43.3971 131.827 43.7971 131.734 44.0575 131.676V127.408C44.3695 127.867 45.0098 128.326 46.332 128.326C48.6995 128.326 50.6457 126.724 50.6457 123.25C50.6457 120.135 48.9235 118.94 47.0126 118.94L47.0151 118.942ZM45.7093 126.747C45.1054 126.747 44.4815 126.581 44.0601 126.434V122.474C44.5544 121.446 45.2312 120.565 46.1886 120.565C47.2554 120.565 48.0051 121.541 48.0051 123.288C48.0051 125.327 47.1774 126.747 45.7105 126.747H45.7093ZM53.3856 128.239C53.6825 128.239 54.2699 128.239 54.7807 128.146V123.085C55.572 121.024 56.1594 120.565 57.0023 120.565C57.5898 120.565 58.1056 120.857 58.1056 121.722V124.149C57.976 125.052 57.8867 126.178 57.8867 126.966C57.8867 127.833 58.4175 128.239 59.0415 128.239C59.4265 128.239 59.9058 128.239 60.4002 128.146V123.085C61.2065 121.024 61.7739 120.565 62.6016 120.565C63.408 120.565 63.72 121.024 63.72 121.963C63.72 123.653 63.647 125.714 63.647 127.003C63.647 127.504 63.6319 128.239 64.9327 128.239C65.4686 128.239 65.9429 128.109 66.3278 127.978C66.2398 127.19 66.1303 126.486 66.1303 125.437V121.686C66.1303 119.735 65.0271 118.942 63.2835 118.942C62.0142 118.942 60.9889 119.64 60.1247 121.425L60.0882 121.41V121.039C60.0882 119.604 58.9698 118.942 57.7357 118.942C56.4136 118.942 55.4411 119.625 54.6549 121.149H54.6184L54.6549 119.954C54.67 119.437 54.3945 119.015 53.6082 119.015C53.2019 119.015 52.6874 119.108 52.2131 119.312C52.4106 120.748 52.4836 122.015 52.4836 124.149C52.3741 125.145 52.2496 126.137 52.2496 126.966C52.2496 127.853 52.7805 128.239 53.3843 128.239H53.3856ZM72.058 128.327C74.2079 128.327 76.3 127.612 76.3 124.978C76.3 122.714 74.8533 121.941 73.2921 121.941C72.0592 121.941 71.346 122.217 70.4817 123.01L70.4239 122.989L70.4452 119.879C70.4452 119.383 70.1484 119.122 69.3269 119.122C68.9055 119.122 68.4991 119.18 68.0412 119.288V124.443C68.0412 127.975 70.7371 128.325 72.0593 128.325L72.058 128.327ZM78.943 128.254C79.3129 128.254 79.8274 128.218 80.1758 128.144V119.843C80.1758 119.421 79.7695 119.16 79.0361 119.16C78.7027 119.16 78.1568 119.218 77.7139 119.311V127.591C77.7139 127.83 77.7139 128.253 78.9417 128.253L78.943 128.254ZM72.1146 126.71C71.1409 126.71 70.5748 126.012 70.5899 124.889L70.6113 123.93C71.0843 123.69 71.7095 123.564 72.0794 123.564C72.9801 123.564 73.75 123.798 73.75 125.107C73.75 126.047 73.2191 126.709 72.1159 126.709L72.1146 126.71Z" fill="#6A2021"/>
<path d="M32.5658 150.398C33.2111 150.398 33.981 150.085 34.3295 148.811C32.674 147.559 31.0046 145.665 29.4434 143.584C31.3895 140.568 33.1331 138.413 33.6325 137.604C33.2841 136.665 32.6387 136.425 32.05 136.425C31.2071 136.425 30.7643 136.665 30.2699 137.182C29.4635 138.048 28.5842 139.885 27.5325 142.796L25.004 147.398L24.9461 147.376C25.2581 144.288 25.3675 142.352 25.3675 140.181V137.307C25.3675 136.686 24.8517 136.425 24.1032 136.425C23.6969 136.425 23.1459 136.462 22.6351 136.608L22.7597 148.572C22.7811 149.939 23.3119 150.361 24.3573 150.361C24.8153 150.361 25.331 150.288 26.0129 149.197L28.1414 145.665C29.3692 147.486 30.0875 148.409 30.8008 149.197C31.7216 150.194 32.2374 150.397 32.5645 150.397L32.5658 150.398ZM39.4873 150.413C40.9918 150.413 43.9267 149.698 43.9267 145.701C43.9267 141.71 40.9189 141.026 39.4143 141.026C37.9047 141.026 34.9497 141.71 34.9497 145.701C34.9497 149.698 37.8896 150.413 39.4873 150.413ZM39.4659 148.811C38.2016 148.811 37.5927 147.617 37.5927 145.701C37.5927 143.787 38.1651 142.649 39.4294 142.649C40.6987 142.649 41.2824 143.787 41.2824 145.701C41.2824 147.616 40.7364 148.811 39.4659 148.811ZM52.4861 141.101C52.0798 141.101 51.6219 141.137 51.1438 141.21V145.964H48.7033C48.4278 145.964 48.1511 146.125 48.0429 146.496V141.8C48.0429 141.363 47.6579 141.102 46.9031 141.102C46.3156 141.102 45.9294 141.138 45.5659 141.211L45.6753 145.87L45.5659 149.533C45.5445 149.992 45.7634 150.326 46.7371 150.326C47.3246 150.326 47.6944 150.268 48.0429 150.211V147.379L51.1451 147.364V149.68C51.1451 150.088 51.5879 150.327 52.2484 150.327C53.0182 150.327 53.222 150.234 53.5491 150.161L53.4762 145.727L53.5856 141.803C53.607 141.329 53.2208 141.104 52.4874 141.104L52.4861 141.101ZM61.3902 154.17C61.8267 154.17 62.306 154.077 62.5815 154.004V150.341C66.6411 150.028 67.2449 147.289 67.2449 145.629C67.2449 144.121 66.714 141.283 62.4733 141.027V137.35C62.4733 136.646 61.9425 136.447 61.4997 136.447C60.8543 136.447 60.453 136.52 60.0844 136.608V141.398C59.829 141.195 59.3875 141.012 58.3622 141.247C55.6613 141.872 55.2185 144.231 55.2185 145.629C55.2185 147.361 55.8424 150.1 60.0844 150.361V153.194C60.0844 153.565 60.0844 154.17 61.3902 154.17ZM60.0844 148.833C58.3773 148.739 57.6439 147.414 57.6439 145.629C57.6439 143.861 58.3408 142.609 60.0844 142.426V148.833ZM62.4733 148.833V142.556C64.1591 142.629 64.8208 143.975 64.8208 145.629C64.8208 147.377 64.1075 148.687 62.4733 148.833ZM75.8899 147.8C75.0256 148.374 74.4218 148.813 73.194 148.813C71.9611 148.813 71.1749 147.951 71.0239 146.126C71.19 146.461 71.5762 146.57 71.8517 146.585C72.3675 146.627 72.8984 146.627 73.4858 146.534C75.047 146.294 76.3843 145.537 76.3843 143.738C76.3843 141.838 75.0621 141.03 72.7512 141.03C69.8892 141.03 68.3796 142.944 68.3796 145.705C68.3796 148.872 70.2893 150.417 73.0267 150.417C74.3853 150.417 75.3942 150.141 76.1855 149.441C76.3679 149.238 76.4409 149.055 76.4409 148.779C76.4409 148.393 76.1289 147.97 75.8886 147.802L75.8899 147.8ZM72.7159 142.609C73.4129 142.609 73.8922 142.922 73.8922 143.788C73.8922 145.004 73.0644 145.39 71.0088 145.39C71.0239 143.934 71.4668 142.609 72.7159 142.609ZM79.211 150.325C79.5079 150.325 80.0953 150.325 80.6061 150.231V145.17C81.3974 143.11 81.9848 142.65 82.8277 142.65C83.4152 142.65 83.931 142.943 83.931 143.808V146.235C83.8014 147.138 83.7121 148.264 83.7121 149.052C83.7121 149.919 84.2429 150.325 84.8669 150.325C85.2519 150.325 85.7312 150.325 86.2255 150.231V145.17C87.0319 143.11 87.5993 142.65 88.427 142.65C89.2334 142.65 89.5454 143.11 89.5454 144.049C89.5454 145.739 89.4724 147.8 89.4724 149.089C89.4724 149.59 89.4573 150.325 90.7581 150.325C91.294 150.325 91.7683 150.195 92.1532 150.064C92.0652 149.275 91.9557 148.572 91.9557 147.522V143.772C91.9557 141.821 90.8525 141.027 89.1089 141.027C87.8396 141.027 86.8143 141.726 85.95 143.511L85.9136 143.495V143.125C85.9136 141.689 84.7952 141.027 83.5611 141.027C82.239 141.027 81.2665 141.711 80.4803 143.234H80.4438L80.4803 142.04C80.4954 141.523 80.2199 141.101 79.4336 141.101C79.0273 141.101 78.5128 141.194 78.0385 141.398C78.236 142.833 78.309 144.101 78.309 146.235C78.1995 147.231 78.075 148.222 78.075 149.052C78.075 149.939 78.6059 150.325 79.2097 150.325H79.211ZM97.8834 150.413C100.033 150.413 102.125 149.698 102.125 147.063C102.125 144.8 100.679 144.026 99.1175 144.026C97.8847 144.026 97.1714 144.303 96.3071 145.096L96.2493 145.074L96.2706 141.964C96.2706 141.469 95.9738 141.208 95.1523 141.208C94.7309 141.208 94.3245 141.266 93.8666 141.374V146.529C93.8666 150.061 96.5625 150.411 97.8846 150.411L97.8834 150.413ZM104.768 150.34C105.138 150.34 105.653 150.303 106.001 150.23V141.929C106.001 141.507 105.595 141.246 104.861 141.246C104.528 141.246 103.982 141.304 103.539 141.397V149.677C103.539 149.916 103.539 150.339 104.767 150.339L104.768 150.34ZM97.94 148.796C96.9663 148.796 96.4002 148.098 96.4153 146.975L96.4367 146.015C96.9097 145.776 97.5349 145.65 97.9048 145.65C98.8055 145.65 99.5754 145.884 99.5754 147.193C99.5754 148.133 99.0445 148.795 97.9413 148.795L97.94 148.796Z" fill="#6A2021"/>
<path d="M27.7728 158.512C24.8165 158.512 23.2968 159.707 22.9283 161.235C22.6729 162.285 22.9283 162.764 23.3862 163.02C23.683 163.186 24.3234 163.281 25.0052 163.171C25.2606 161.694 25.8481 160.485 27.6847 160.485C29.4799 160.485 30.5102 161.461 30.6196 164.972H26.1387V166.908H30.5668C30.2913 169.611 29.1302 170.514 27.3866 170.514C25.8468 170.514 24.8366 169.726 23.8793 168.787C23.3484 169.027 22.8905 169.576 22.8905 170.149C22.8905 170.66 23.1459 170.974 23.6453 171.344C24.5045 171.969 25.5499 172.501 27.5325 172.501C32.0336 172.501 33.4652 169.188 33.4652 165.599C33.4652 160.872 31.4977 158.514 27.7715 158.514L27.7728 158.512ZM40.9604 167.773L43.7493 163.923C43.3279 163.449 43.0524 163.135 42.2095 163.135C41.8246 163.135 41.4547 163.26 41.1792 163.572C40.6635 164.161 40.1489 165.137 39.4885 167.256L37.5625 169.922L37.526 169.907C37.599 168.379 37.6921 166.98 37.765 165.436V159.123C37.765 158.606 37.3801 158.346 36.6102 158.346C36.2768 158.346 35.6894 158.424 35.2516 158.512C35.3396 159.765 35.4126 161.774 35.3975 163.296L35.2679 170.919C35.2528 171.91 35.8768 172.462 36.6102 172.462C37.287 172.462 37.7286 172.223 38.15 171.654L39.7112 169.499C40.0596 170.109 40.627 171.064 41.3969 171.945C41.6724 172.258 42.1152 172.462 42.6297 172.462C43.0876 172.462 43.8059 172.003 44.1343 171.049C43.7858 170.751 42.5945 169.921 40.9604 167.772V167.773ZM53.0208 170.308L50.9652 164.219C50.6897 163.389 50.1374 163.098 49.1436 163.098C48.6127 163.098 48.2643 163.171 47.712 163.281C47.5661 164.111 47.3636 164.716 47.0352 165.634L44.9947 171.211C44.6664 172.114 45.2866 172.464 45.9684 172.464C46.3899 172.464 46.8113 172.427 47.1233 172.317C47.2893 171.509 47.5661 170.533 47.8416 169.61L49.0178 165.801L50.7979 171.619C50.9438 172.078 51.1262 172.464 51.8798 172.464C52.4672 172.464 53.1076 172.297 53.5869 171.858C53.3315 171.363 53.2019 170.862 53.0195 170.308H53.0208ZM61.6116 169.886C60.7474 170.46 60.1435 170.899 58.9157 170.899C57.6829 170.899 56.8966 170.037 56.7457 168.212C56.9117 168.546 57.2979 168.656 57.5734 168.671C58.0892 168.713 58.6201 168.713 59.2076 168.62C60.7687 168.38 62.106 167.623 62.106 165.824C62.106 163.924 60.7838 163.116 58.4729 163.116C55.611 163.116 54.1014 165.03 54.1014 167.791C54.1014 170.958 56.011 172.503 58.7484 172.503C60.107 172.503 61.116 172.227 61.9072 171.527C62.0896 171.324 62.1626 171.141 62.1626 170.864C62.1626 170.479 61.8506 170.056 61.6103 169.888L61.6116 169.886ZM58.4377 164.695C59.1346 164.695 59.6139 165.008 59.6139 165.874C59.6139 167.09 58.7861 167.476 56.7306 167.476C56.7457 166.02 57.1885 164.695 58.4377 164.695ZM69.1583 163.114C68.2211 163.114 66.8059 163.318 66.0725 165.175L66.0146 165.16C66.0511 164.55 66.0926 164.367 66.0926 164.111C66.0926 163.557 65.8322 163.224 64.9315 163.224C64.4735 163.224 64.0672 163.334 63.6307 163.464C63.7187 164.184 63.8697 166.223 63.8697 168.232V169.871C63.7401 171.561 63.6093 172.908 63.6093 174.764C63.6093 175.609 64.2547 176 65.0246 176C65.5403 176 65.9404 175.907 66.2008 175.849V171.581C66.5128 172.04 67.1531 172.499 68.4752 172.499C70.8428 172.499 72.7889 170.897 72.7889 167.423C72.7889 164.308 71.0667 163.113 69.1558 163.113L69.1583 163.114ZM67.8525 170.92C67.2487 170.92 66.6247 170.753 66.2033 170.607V166.647C66.6977 165.619 67.3745 164.738 68.3318 164.738C69.3986 164.738 70.1484 165.714 70.1484 167.461C70.1484 169.5 69.3206 170.92 67.8538 170.92H67.8525ZM78.2083 172.5C80.3583 172.5 82.4503 171.785 82.4503 169.151C82.4503 166.887 81.0036 166.114 79.4424 166.114C78.2096 166.114 77.4963 166.39 76.6321 167.183L76.5742 167.162L76.5956 164.052C76.5956 163.556 76.2987 163.295 75.4772 163.295C75.0558 163.295 74.6495 163.353 74.1916 163.461V168.616C74.1916 172.148 76.8874 172.498 78.2096 172.498L78.2083 172.5ZM85.0933 172.427C85.4632 172.427 85.9777 172.39 86.3262 172.317V164.016C86.3262 163.594 85.9198 163.333 85.1864 163.333C84.8531 163.333 84.3071 163.391 83.8643 163.484V171.764C83.8643 172.003 83.8643 172.426 85.0921 172.426L85.0933 172.427ZM78.2649 170.883C77.2913 170.883 76.7252 170.185 76.7403 169.062L76.7616 168.102C77.2347 167.863 77.8599 167.737 78.2297 167.737C79.1304 167.737 79.9003 167.971 79.9003 169.28C79.9003 170.22 79.3695 170.882 78.2662 170.882L78.2649 170.883Z" fill="#6A2021"/>
<path d="M4.80683 83.6977C6.60199 82.9272 7.52159 80.6646 6.27491 78.4285C5.02824 76.1924 1.76626 76.6137 0.3963 78.537C-0.971141 80.4603 1.3725 85.1733 4.80683 83.6977Z" fill="#EC392F"/>
<path d="M4.80683 103.944C6.60199 103.173 7.52159 100.91 6.27491 98.6743C5.02824 96.4382 1.76626 96.8595 0.3963 98.7828C-0.971141 100.706 1.3725 105.42 4.80683 103.944Z" fill="#EC392F"/>
<path d="M4.80683 126.029C6.60199 125.259 7.52159 122.999 6.27491 120.761C5.02824 118.525 1.76626 118.945 0.3963 120.869C-0.971141 122.792 1.3725 127.507 4.80683 126.029Z" fill="#EC392F"/>
<path d="M4.80683 148.116C6.60199 147.346 7.52159 145.086 6.27491 142.849C5.02824 140.612 1.76626 141.032 0.3963 142.954C-0.971141 144.878 1.3725 149.593 4.80683 148.115V148.116Z" fill="#EC392F"/>
<path d="M4.80683 170.202C6.60199 169.431 7.52159 167.17 6.27491 164.934C5.02824 162.698 1.76626 163.118 0.3963 165.042C-0.971141 166.965 1.3725 171.68 4.80683 170.202Z" fill="#EC392F"/>
<path d="M185.826 74.0044C182.469 74.0977 179.387 74.9355 176.582 76.5176C174.327 77.7743 172.73 79.1937 171.795 80.7758C171.024 81.9391 170.638 82.9157 170.638 83.7079C170.638 84.2202 170.803 84.5672 171.132 84.7539C171.298 84.8473 171.517 84.7539 171.793 84.4739C172.232 83.9617 172.674 83.4279 173.114 82.8702C175.261 80.637 178.535 79.5192 182.935 79.5192C183.871 79.5192 184.832 79.5886 185.824 79.7274C189.127 80.2396 191.781 82.5662 193.788 86.7071C195.796 90.848 196.8 96.0612 196.8 102.342C196.8 108.204 196.113 113.113 194.737 117.07C192.977 122.003 190.335 124.516 186.814 124.607C183.843 124.655 181.422 122.675 179.551 118.676C177.845 114.999 176.993 110.741 176.993 105.904C176.993 101.902 177.735 98.7611 179.222 96.4801C180.377 94.7591 181.616 93.8974 182.935 93.8974C183.927 93.8974 184.806 94.2014 185.577 94.8046C186.348 95.4101 186.732 96.2718 186.732 97.3872C186.732 97.7127 186.732 98.0622 186.732 98.4356C186.621 99.0412 186.732 99.3428 187.061 99.3428C187.765 99.3428 188.699 98.5625 189.854 97.0042C191.024 95.446 191.6 93.8758 191.6 92.2937C191.6 91.8293 191.519 91.3626 191.353 90.8982C190.693 88.8517 189.098 87.2911 186.564 86.2212C184.64 85.4313 182.906 85.0818 181.364 85.1752C178.009 85.4074 175.256 86.293 173.111 87.8273C168.598 91.0395 166.233 96.7625 166.014 104.996C165.793 113.745 168.161 120.421 173.111 125.028C176.964 128.566 181.422 130.332 186.482 130.332C191.379 130.332 195.864 128.214 199.937 123.98C205.219 118.441 207.642 110.695 207.2 100.738C206.76 90.0366 203.926 82.5207 198.698 78.1931C195.287 75.3089 190.995 73.911 185.822 74.0044H185.826Z" fill="#EC392F"/>
<path d="M235.515 91.7336C235.515 88.5693 234.319 85.8598 231.924 83.6027C229.532 81.3455 226.628 80.2181 223.218 80.2181C219.805 80.2181 216.903 81.3455 214.509 83.6027C212.116 85.8598 210.918 88.5693 210.918 91.7336C210.918 94.8979 212.114 97.5979 214.509 99.8311C216.903 102.064 219.805 103.182 223.218 103.182C226.63 103.182 229.532 102.064 231.924 99.8311C234.319 97.5979 235.515 94.8979 235.515 91.7336ZM223.218 83.1479C226.683 83.1957 228.417 86.0561 228.417 91.7336C228.417 97.4112 226.683 100.272 223.218 100.319C219.752 100.319 218.018 97.4567 218.018 91.7336C218.018 86.0106 219.752 83.1479 223.218 83.1479ZM267.788 115.114C267.788 111.95 266.548 109.24 264.072 106.983C261.596 104.726 258.596 103.599 255.075 103.599C251.554 103.599 248.554 104.726 246.078 106.983C243.602 109.24 242.362 111.95 242.362 115.114C242.362 118.278 243.599 120.978 246.078 123.212C248.554 125.445 251.554 126.563 255.075 126.563C258.596 126.563 261.596 125.445 264.072 123.212C266.548 120.978 267.788 118.278 267.788 115.114ZM255.077 106.528C258.598 106.576 260.359 109.437 260.359 115.114C260.359 120.792 258.598 123.652 255.077 123.7C251.501 123.7 249.712 120.84 249.712 115.114C249.712 109.391 251.499 106.528 255.077 106.528ZM258.048 83.1455C258.048 83.9832 257.746 84.797 257.14 85.5893C255.048 87.7292 250.055 93.6269 242.187 103.307C238.322 108.099 232.57 115.545 224.923 125.629C224.041 126.898 222.86 127.537 221.387 127.537C219.531 127.537 218.594 126.677 218.594 124.954C218.594 124.116 218.926 123.326 219.586 122.582C224.044 117.462 229.959 110.274 237.333 101.016L251.777 82.449C252.712 81.2378 253.924 80.6346 255.409 80.6346C257.169 80.6346 258.051 81.4724 258.051 83.1479L258.048 83.1455Z" fill="#EC392F"/>
<path d="M176.306 149.433C176.176 149.076 176.02 148.792 175.842 148.581C175.662 148.37 175.492 148.265 175.328 148.265C175.295 148.265 175.247 148.282 175.182 148.313C175.117 148.344 175.035 148.378 174.937 148.409C174.903 148.473 174.862 148.531 174.814 148.579C174.766 148.626 174.725 148.684 174.692 148.749C174.171 149.397 173.717 150.209 173.325 151.183C172.936 152.157 172.657 153.162 172.497 154.199C172.398 154.62 172.333 155.027 172.302 155.415C172.268 155.805 172.254 156.193 172.254 156.583C172.254 157.847 172.482 158.919 172.939 159.795C173.395 160.671 174.142 161.109 175.184 161.109C175.641 161.109 176.152 161.02 176.721 160.841C177.291 160.661 177.901 160.362 178.554 159.941C178.684 159.778 178.83 159.666 178.993 159.599C179.157 159.534 179.318 159.503 179.481 159.503C179.546 159.503 179.611 159.51 179.676 159.527C179.74 159.544 179.805 159.551 179.87 159.551C180.098 159.615 180.326 159.745 180.555 159.941C180.783 160.135 180.929 160.362 180.994 160.623C181.093 160.915 181.181 161.198 181.263 161.475C181.345 161.75 181.386 162.019 181.386 162.277C181.386 162.603 181.28 162.926 181.069 163.251C180.857 163.574 180.475 163.883 179.921 164.175C179.366 164.661 178.684 165.034 177.869 165.295C177.055 165.554 176.21 165.685 175.331 165.685C175.136 165.685 174.932 165.676 174.721 165.662C174.509 165.645 174.288 165.621 174.063 165.587C172.859 165.393 171.694 164.857 170.57 163.981C169.446 163.105 168.577 161.825 167.957 160.137C167.892 159.91 167.827 159.692 167.763 159.481C167.698 159.271 167.633 159.053 167.568 158.825C167.405 158.143 167.275 157.478 167.177 156.829C167.078 156.181 167.03 155.549 167.03 154.931C167.03 151.915 167.787 149.311 169.3 147.121C170.813 144.931 172.516 143.837 174.404 143.837C174.435 143.837 174.461 143.837 174.476 143.837C174.492 143.837 174.516 143.837 174.55 143.837C175.982 143.868 177.31 144.387 178.53 145.393C179.75 146.398 180.459 147.501 180.653 148.703C180.687 148.768 180.701 148.842 180.701 148.921C180.701 149.002 180.701 149.091 180.701 149.189C180.701 149.287 180.691 149.383 180.677 149.481C180.66 149.579 180.653 149.692 180.653 149.821C180.622 149.95 180.571 150.096 180.507 150.259C180.442 150.422 180.377 150.568 180.312 150.697C180.281 150.762 180.24 150.826 180.19 150.891C180.141 150.955 180.101 151.003 180.067 151.037C179.839 151.295 179.603 151.475 179.358 151.573C179.113 151.671 178.796 151.719 178.405 151.719C177.819 151.719 177.389 151.59 177.11 151.331C176.834 151.073 176.596 150.584 176.402 149.871C176.402 149.806 176.392 149.735 176.378 149.653C176.361 149.572 176.337 149.5 176.306 149.435V149.433Z" fill="#EC392F"/>
<path d="M193.346 164.031C192.924 164.486 192.46 164.843 191.956 165.101C191.451 165.36 190.937 165.523 190.419 165.587C190.32 165.587 190.231 165.587 190.15 165.587C190.068 165.587 189.979 165.587 189.881 165.587C189.782 165.587 189.677 165.587 189.564 165.587C189.451 165.587 189.328 165.587 189.199 165.587C188.06 165.425 186.977 164.891 185.951 163.981C184.926 163.072 184.152 161.872 183.634 160.379C183.341 159.536 183.096 158.677 182.901 157.801C182.707 156.925 182.608 156.035 182.608 155.125C182.608 154.802 182.618 154.484 182.632 154.177C182.649 153.868 182.69 153.569 182.755 153.277C182.983 151.817 183.545 150.381 184.438 148.971C185.334 147.561 186.66 146.238 188.418 145.005C188.516 144.907 188.622 144.825 188.735 144.761C188.85 144.696 188.97 144.615 189.1 144.517C189.393 144.354 189.679 144.217 189.955 144.103C190.231 143.988 190.484 143.933 190.712 143.933C190.743 143.933 190.784 143.933 190.834 143.933C190.882 143.933 190.94 143.949 191.005 143.981C191.038 143.981 191.079 143.988 191.127 144.004C191.175 144.021 191.216 144.028 191.25 144.028C191.836 144.45 192.299 144.775 192.643 145.003C192.984 145.23 193.236 145.342 193.399 145.342C193.563 145.342 193.692 145.244 193.788 145.05C193.887 144.857 193.952 144.596 193.983 144.273C193.983 144.241 193.983 144.217 193.983 144.201C193.983 144.184 193.983 144.16 193.983 144.127C193.983 144.127 193.983 144.119 193.983 144.103C193.983 144.086 193.983 144.079 193.983 144.079C193.949 144.045 193.935 144.014 193.935 143.981C193.935 143.947 193.935 143.933 193.935 143.933C193.935 143.576 194.033 143.317 194.228 143.155C194.422 142.992 194.634 142.911 194.862 142.911C195.025 142.911 195.203 142.944 195.398 143.009C195.592 143.073 195.789 143.155 195.984 143.253C196.147 143.317 196.318 143.406 196.495 143.521C196.675 143.633 196.829 143.739 196.959 143.837C197.35 144.064 197.675 144.275 197.936 144.469C198.196 144.663 198.409 144.842 198.57 145.005C198.7 145.168 198.799 145.328 198.863 145.491C198.928 145.654 198.962 145.831 198.962 146.027C198.962 146.156 198.945 146.319 198.914 146.513C198.88 146.707 198.849 146.92 198.815 147.145C198.782 147.209 198.758 147.284 198.741 147.363C198.724 147.444 198.717 147.533 198.717 147.631C198.522 148.313 198.359 149.139 198.229 150.113C198.1 151.085 198.035 152.092 198.035 153.129C198.035 153.584 198.042 154.045 198.059 154.515C198.076 154.986 198.1 155.465 198.133 155.951C198.263 157.282 198.457 158.603 198.719 159.917C198.979 161.231 199.289 162.389 199.646 163.397C199.68 163.431 199.704 163.479 199.721 163.543C199.738 163.608 199.745 163.656 199.745 163.689C199.778 163.787 199.81 163.876 199.843 163.957C199.877 164.039 199.908 164.11 199.942 164.175C200.007 164.434 200.064 164.678 200.112 164.905C200.16 165.133 200.187 165.326 200.187 165.489C200.187 165.717 200.122 165.903 199.992 166.049C199.863 166.195 199.668 166.267 199.406 166.267C199.341 166.267 199.072 166.26 198.602 166.243C198.128 166.226 197.634 166.155 197.112 166.025C196.625 165.927 196.159 165.781 195.719 165.587C195.28 165.393 194.994 165.116 194.864 164.762C194.735 164.307 194.605 163.984 194.473 163.787C194.343 163.593 194.214 163.495 194.084 163.495C193.985 163.495 193.88 163.543 193.767 163.641C193.652 163.737 193.515 163.869 193.351 164.029L193.346 164.031ZM193.298 150.115V149.871C193.298 149.579 193.21 149.321 193.029 149.093C192.849 148.866 192.631 148.751 192.371 148.751C192.307 148.751 192.218 148.76 192.102 148.775C191.987 148.792 191.884 148.816 191.785 148.847C191.754 148.847 191.713 148.863 191.663 148.895C191.615 148.926 191.557 148.959 191.492 148.993C190.484 149.641 189.717 150.477 189.196 151.499C188.675 152.521 188.317 153.584 188.123 154.687C188.089 155.01 188.058 155.343 188.024 155.683C187.991 156.025 187.976 156.355 187.976 156.681C187.976 157.298 188.017 157.88 188.099 158.433C188.18 158.986 188.286 159.455 188.416 159.845C188.514 160.168 188.685 160.396 188.93 160.527C189.175 160.657 189.427 160.721 189.686 160.721C189.751 160.721 189.816 160.721 189.881 160.721C189.946 160.721 190.01 160.704 190.075 160.673C190.174 160.673 190.263 160.657 190.344 160.625C190.426 160.592 190.498 160.578 190.563 160.578C190.628 160.546 190.685 160.52 190.733 160.506C190.781 160.489 190.822 160.482 190.856 160.482C190.954 160.451 191.043 160.4 191.125 160.336C191.206 160.271 191.279 160.207 191.343 160.142C191.735 159.883 192.093 159.534 192.417 159.096C192.741 158.658 192.986 158.098 193.15 157.418C193.15 157.16 193.142 156.882 193.126 156.592C193.109 156.3 193.102 156.008 193.102 155.716C193.102 155.424 193.094 155.125 193.077 154.816C193.061 154.507 193.053 154.208 193.053 153.916C193.053 153.234 193.077 152.561 193.126 151.896C193.174 151.231 193.231 150.639 193.296 150.12L193.298 150.115Z" fill="#EC392F"/>
<path d="M201.501 160.917C201.794 160.333 202.144 159.709 202.55 159.043C202.956 158.378 203.372 157.705 203.794 157.023C203.989 156.731 204.183 156.449 204.38 156.171C204.575 155.896 204.772 155.611 204.966 155.319C205.096 155.091 205.243 154.874 205.406 154.663C205.569 154.452 205.716 154.249 205.845 154.055C205.91 153.99 205.968 153.909 206.016 153.811C206.064 153.713 206.088 153.6 206.088 153.471C206.088 153.308 206.006 153.064 205.843 152.741C205.68 152.418 205.403 151.994 205.014 151.477C204.851 151.25 204.616 150.924 204.306 150.503C203.996 150.082 203.662 149.644 203.304 149.189C203.273 149.158 203.232 149.108 203.182 149.043C203.134 148.978 203.093 148.928 203.059 148.897C202.831 148.605 202.62 148.33 202.425 148.069C202.231 147.81 202.034 147.583 201.839 147.387C201.417 146.932 201.114 146.544 200.936 146.219C200.756 145.895 200.667 145.618 200.667 145.39C200.667 145.228 200.708 145.067 200.79 144.904C200.871 144.742 200.977 144.596 201.107 144.466C201.172 144.337 201.253 144.222 201.352 144.127C201.45 144.028 201.546 143.933 201.645 143.835C201.808 143.672 201.955 143.535 202.084 143.42C202.214 143.306 202.36 143.217 202.524 143.152C202.653 143.088 202.793 143.03 202.939 142.982C203.086 142.935 203.225 142.908 203.355 142.908C203.583 142.908 203.818 142.966 204.063 143.078C204.308 143.191 204.56 143.394 204.82 143.686C205.014 143.914 205.25 144.198 205.528 144.538C205.805 144.878 206.09 145.261 206.383 145.682C206.448 145.78 206.523 145.886 206.602 145.998C206.684 146.113 206.772 146.233 206.871 146.362C206.969 146.525 207.066 146.678 207.164 146.824C207.262 146.97 207.359 147.123 207.457 147.286C207.849 147.935 208.142 148.471 208.336 148.892C208.531 149.313 208.728 149.574 208.922 149.67C208.922 149.67 208.929 149.67 208.946 149.67C208.963 149.67 208.987 149.67 209.018 149.67C209.181 149.67 209.352 149.572 209.532 149.378C209.712 149.184 209.931 148.875 210.19 148.454C211.036 147.221 211.631 146.353 211.972 145.85C212.313 145.347 212.566 144.95 212.729 144.658C212.794 144.529 212.859 144.423 212.923 144.342C212.988 144.261 213.07 144.189 213.168 144.124C213.233 144.06 213.298 144.009 213.363 143.978C213.428 143.945 213.493 143.93 213.558 143.93C213.817 143.93 214.11 144.117 214.437 144.49C214.761 144.864 215.152 145.424 215.609 146.168C215.837 146.59 215.991 146.939 216.072 147.214C216.154 147.49 216.195 147.71 216.195 147.87C216.195 147.901 216.195 147.942 216.195 147.992C216.195 148.04 216.178 148.097 216.147 148.162C216.113 148.26 216.065 148.349 216 148.43C215.935 148.512 215.854 148.617 215.755 148.746C215.366 149.266 214.859 149.907 214.242 150.668C213.622 151.429 212.957 152.25 212.239 153.126C212.205 153.191 212.165 153.256 212.116 153.32C212.068 153.385 212.028 153.45 211.994 153.514C211.96 153.579 211.936 153.643 211.92 153.708C211.903 153.773 211.896 153.837 211.896 153.902C211.896 154.031 211.936 154.187 212.018 154.364C212.1 154.543 212.189 154.713 212.287 154.874C212.45 155.132 212.611 155.41 212.775 155.702C212.938 155.994 213.116 156.269 213.313 156.528C213.344 156.592 213.377 156.65 213.411 156.698C213.442 156.745 213.476 156.803 213.507 156.868C214.288 158.165 215.03 159.374 215.729 160.494C216.428 161.614 216.843 162.351 216.973 162.708C217.038 162.935 217.095 163.139 217.143 163.316C217.191 163.495 217.215 163.649 217.215 163.778C217.215 163.972 217.151 164.182 217.021 164.41C216.891 164.637 216.663 164.977 216.336 165.432C216.207 165.724 216.003 165.951 215.726 166.114C215.45 166.277 215.164 166.358 214.871 166.358C214.545 166.358 214.237 166.243 213.944 166.018C213.651 165.791 213.409 165.451 213.212 164.996C213.048 164.606 212.82 164.154 212.527 163.634C212.234 163.115 211.924 162.579 211.6 162.028C211.6 161.997 211.583 161.956 211.552 161.906C211.518 161.858 211.504 161.817 211.504 161.784C211.146 161.2 210.82 160.649 210.526 160.13C210.233 159.611 209.988 159.173 209.794 158.816C209.631 158.459 209.477 158.208 209.33 158.062C209.184 157.916 209.078 157.844 209.013 157.844C208.982 157.844 208.941 157.868 208.891 157.916C208.843 157.964 208.785 158.038 208.72 158.134C208.656 158.198 208.598 158.273 208.55 158.352C208.502 158.433 208.444 158.505 208.379 158.569C207.824 159.381 207.371 160.216 207.013 161.075C206.655 161.935 206.328 162.997 206.035 164.261C206.035 164.295 206.035 164.319 206.035 164.335C206.035 164.352 206.035 164.376 206.035 164.41C205.97 164.702 205.855 164.97 205.694 165.212C205.531 165.456 205.303 165.575 205.01 165.575C204.75 165.575 204.39 165.453 203.936 165.212C203.48 164.967 202.91 164.539 202.228 163.921C201.87 163.565 201.609 163.239 201.448 162.95C201.284 162.658 201.203 162.382 201.203 162.121C201.203 162.023 201.21 161.928 201.227 161.829C201.244 161.731 201.268 161.619 201.301 161.487C201.332 161.391 201.366 161.293 201.4 161.195C201.431 161.097 201.465 161.001 201.496 160.903L201.501 160.917Z" fill="#EC392F"/>
<path d="M228.307 164.031C227.884 164.486 227.421 164.843 226.916 165.101C226.412 165.36 225.898 165.523 225.379 165.587C225.281 165.587 225.192 165.587 225.11 165.587C225.028 165.587 224.94 165.587 224.841 165.587C224.743 165.587 224.637 165.587 224.524 165.587C224.411 165.587 224.289 165.587 224.159 165.587C223.021 165.425 221.937 164.891 220.912 163.981C219.886 163.072 219.113 161.872 218.594 160.379C218.301 159.536 218.056 158.677 217.862 157.801C217.667 156.925 217.569 156.035 217.569 155.125C217.569 154.802 217.578 154.484 217.593 154.177C217.609 153.868 217.65 153.569 217.715 153.277C217.943 151.817 218.505 150.381 219.399 148.971C220.295 147.561 221.62 146.238 223.378 145.005C223.477 144.907 223.583 144.825 223.695 144.761C223.811 144.696 223.931 144.615 224.061 144.517C224.354 144.354 224.639 144.217 224.916 144.103C225.192 143.988 225.444 143.933 225.672 143.933C225.703 143.933 225.744 143.933 225.795 143.933C225.843 143.933 225.9 143.949 225.965 143.981C225.999 143.981 226.04 143.988 226.088 144.004C226.136 144.021 226.177 144.028 226.21 144.028C226.796 144.45 227.26 144.775 227.603 145.003C227.944 145.23 228.196 145.342 228.36 145.342C228.523 145.342 228.653 145.244 228.749 145.05C228.847 144.857 228.912 144.596 228.943 144.273C228.943 144.241 228.943 144.217 228.943 144.201C228.943 144.184 228.943 144.16 228.943 144.127C228.943 144.127 228.943 144.119 228.943 144.103C228.943 144.086 228.943 144.079 228.943 144.079C228.91 144.045 228.895 144.014 228.895 143.981C228.895 143.947 228.895 143.933 228.895 143.933C228.895 143.576 228.994 143.317 229.188 143.155C229.383 142.992 229.594 142.911 229.822 142.911C229.986 142.911 230.164 142.944 230.358 143.009C230.553 143.073 230.75 143.155 230.944 143.253C231.107 143.317 231.278 143.406 231.456 143.521C231.636 143.633 231.79 143.739 231.919 143.837C232.311 144.064 232.635 144.275 232.897 144.469C233.156 144.663 233.37 144.842 233.531 145.005C233.661 145.168 233.759 145.328 233.824 145.491C233.889 145.654 233.922 145.831 233.922 146.027C233.922 146.156 233.905 146.319 233.874 146.513C233.841 146.707 233.809 146.92 233.776 147.145C233.742 147.209 233.718 147.284 233.701 147.363C233.685 147.444 233.677 147.533 233.677 147.631C233.483 148.313 233.319 149.139 233.19 150.113C233.06 151.085 232.995 152.092 232.995 153.129C232.995 153.584 233.002 154.045 233.019 154.515C233.036 154.986 233.06 155.465 233.094 155.951C233.223 157.282 233.418 158.603 233.68 159.917C233.939 161.231 234.249 162.389 234.607 163.397C234.64 163.431 234.664 163.479 234.681 163.543C234.698 163.608 234.705 163.656 234.705 163.689C234.739 163.787 234.77 163.876 234.804 163.957C234.837 164.039 234.869 164.11 234.902 164.175C234.967 164.434 235.025 164.678 235.073 164.905C235.121 165.133 235.147 165.326 235.147 165.489C235.147 165.717 235.082 165.903 234.953 166.049C234.823 166.195 234.628 166.267 234.367 166.267C234.302 166.267 234.033 166.26 233.562 166.243C233.089 166.226 232.594 166.155 232.073 166.025C231.585 165.927 231.119 165.781 230.68 165.587C230.24 165.393 229.955 165.116 229.825 164.762C229.695 164.307 229.565 163.984 229.433 163.787C229.304 163.593 229.174 163.495 229.044 163.495C228.946 163.495 228.84 163.543 228.727 163.641C228.612 163.737 228.475 163.869 228.312 164.029L228.307 164.031ZM228.259 150.115V149.871C228.259 149.579 228.17 149.321 227.99 149.093C227.81 148.866 227.591 148.751 227.332 148.751C227.267 148.751 227.178 148.76 227.063 148.775C226.948 148.792 226.844 148.816 226.746 148.847C226.715 148.847 226.674 148.863 226.623 148.895C226.575 148.926 226.518 148.959 226.453 148.993C225.444 149.641 224.678 150.477 224.157 151.499C223.635 152.521 223.278 153.584 223.083 154.687C223.049 155.01 223.018 155.343 222.985 155.683C222.951 156.025 222.937 156.355 222.937 156.681C222.937 157.298 222.977 157.88 223.059 158.433C223.141 158.986 223.246 159.455 223.376 159.845C223.475 160.168 223.645 160.396 223.89 160.527C224.135 160.657 224.387 160.721 224.647 160.721C224.711 160.721 224.776 160.721 224.841 160.721C224.906 160.721 224.971 160.704 225.036 160.673C225.134 160.673 225.223 160.657 225.305 160.625C225.386 160.592 225.458 160.578 225.523 160.578C225.588 160.546 225.646 160.52 225.694 160.506C225.742 160.489 225.783 160.482 225.816 160.482C225.915 160.451 226.004 160.4 226.085 160.336C226.167 160.271 226.239 160.207 226.304 160.142C226.695 159.883 227.053 159.534 227.377 159.096C227.702 158.658 227.947 158.098 228.11 157.418C228.11 157.16 228.103 156.882 228.086 156.592C228.069 156.3 228.062 156.008 228.062 155.716C228.062 155.424 228.055 155.125 228.038 154.816C228.021 154.507 228.014 154.208 228.014 153.916C228.014 153.234 228.038 152.561 228.086 151.896C228.134 151.231 228.192 150.639 228.256 150.12L228.259 150.115Z" fill="#EC392F"/>
<path d="M242.417 144.275C242.482 144.502 242.564 144.672 242.662 144.787C242.761 144.902 242.874 144.957 243.003 144.957C243.102 144.957 243.198 144.94 243.296 144.909C243.395 144.878 243.491 144.845 243.59 144.811C243.623 144.811 243.647 144.804 243.664 144.787C243.681 144.77 243.705 144.763 243.736 144.763C243.801 144.73 243.883 144.706 243.981 144.689C244.079 144.672 244.161 144.665 244.226 144.665C244.778 144.665 245.446 144.747 246.227 144.909C247.007 145.072 247.805 145.445 248.619 146.029C249.303 146.549 249.978 147.262 250.646 148.169C251.314 149.079 251.907 150.261 252.428 151.721C252.527 152.013 252.615 152.298 252.697 152.574C252.779 152.849 252.836 153.134 252.868 153.426C252.932 153.718 252.973 154.01 252.99 154.302C253.007 154.594 253.014 154.886 253.014 155.178C253.014 156.801 252.68 158.323 252.013 159.752C251.345 161.178 250.622 162.394 249.839 163.402C249.512 163.823 249.188 164.206 248.861 164.546C248.537 164.886 248.242 165.188 247.982 165.446C247.593 165.769 247.243 166.013 246.933 166.176C246.623 166.339 246.34 166.42 246.078 166.42C245.85 166.42 245.621 166.349 245.393 166.203C245.165 166.057 244.889 165.853 244.565 165.595C244.207 165.238 243.866 164.929 243.539 164.671C243.215 164.412 242.953 164.28 242.758 164.28C242.629 164.28 242.523 164.379 242.441 164.572C242.36 164.766 242.319 165.109 242.319 165.595V165.982C242.285 166.372 242.254 166.906 242.22 167.588C242.187 168.271 242.139 168.984 242.074 169.728C242.074 169.891 242.074 170.051 242.074 170.214C242.074 170.377 242.057 170.54 242.026 170.7C241.992 171.284 241.961 171.827 241.927 172.33C241.894 172.833 241.863 173.247 241.829 173.57C241.798 174.415 241.699 175.013 241.536 175.37C241.373 175.727 241.161 175.906 240.902 175.906C240.803 175.906 240.683 175.875 240.537 175.808C240.39 175.743 240.237 175.662 240.073 175.564C240.04 175.533 239.999 175.499 239.951 175.466C239.903 175.435 239.845 175.401 239.78 175.368C239.617 175.238 239.463 175.109 239.317 174.98C239.17 174.851 239.017 174.736 238.853 174.64C238.788 174.575 238.723 174.525 238.659 174.494C238.594 174.46 238.529 174.412 238.464 174.348C238.399 174.317 238.318 174.266 238.219 174.202C238.121 174.137 238.025 174.073 237.926 174.008C237.763 173.91 237.609 173.828 237.463 173.764C237.316 173.699 237.177 173.635 237.047 173.57C236.72 173.343 236.485 173.115 236.339 172.888C236.192 172.66 236.12 172.32 236.12 171.866C236.12 171.703 236.144 171.492 236.194 171.234C236.242 170.975 236.283 170.683 236.317 170.358C236.804 167.892 237.23 165.216 237.585 162.33C237.943 159.443 238.236 156.475 238.464 153.426C238.464 153.327 238.464 153.239 238.464 153.158C238.464 153.076 238.481 153.004 238.512 152.94C238.512 152.875 238.512 152.81 238.512 152.746C238.512 152.681 238.512 152.631 238.512 152.6C238.512 152.535 238.503 152.471 238.488 152.406C238.471 152.341 238.447 152.291 238.416 152.26C238.382 152.162 238.334 152.073 238.27 151.992C238.205 151.91 238.106 151.805 237.977 151.676C237.227 150.735 236.658 149.957 236.269 149.34C235.877 148.722 235.683 148.22 235.683 147.832C235.683 147.573 235.781 147.329 235.976 147.102C236.17 146.874 236.463 146.695 236.855 146.566C236.92 146.532 236.985 146.508 237.049 146.491C237.114 146.475 237.162 146.451 237.196 146.42C237.424 146.321 237.595 146.202 237.708 146.053C237.823 145.907 237.878 145.673 237.878 145.347C237.878 145.089 237.844 144.756 237.78 144.349C237.715 143.945 237.633 143.466 237.535 142.913C237.535 142.848 237.527 142.801 237.511 142.767C237.494 142.734 237.487 142.702 237.487 142.669C237.453 142.571 237.429 142.489 237.412 142.425C237.395 142.36 237.388 142.31 237.388 142.279C237.388 142.085 237.446 141.939 237.559 141.841C237.674 141.743 237.828 141.695 238.022 141.695C238.152 141.695 238.315 141.711 238.51 141.743C238.704 141.774 238.916 141.824 239.144 141.889C239.6 141.987 239.982 142.082 240.292 142.181C240.602 142.279 240.854 142.36 241.048 142.425C241.44 142.554 241.707 142.71 241.853 142.887C242 143.066 242.139 143.318 242.269 143.641C242.269 143.739 242.285 143.835 242.317 143.933C242.348 144.031 242.381 144.143 242.413 144.273L242.417 144.275ZM244.762 160.187C245.348 159.733 245.859 159.271 246.299 158.799C246.738 158.33 247.103 157.851 247.396 157.363C247.819 156.681 248.122 156.018 248.299 155.369C248.48 154.721 248.568 154.089 248.568 153.471C248.568 153.406 248.568 153.332 248.568 153.253C248.568 153.172 248.568 153.083 248.568 152.985C248.537 152.693 248.487 152.394 248.422 152.085C248.357 151.776 248.275 151.494 248.177 151.233C247.949 150.584 247.615 150.13 247.175 149.871C246.736 149.613 246.272 149.483 245.782 149.483C245.653 149.483 245.513 149.491 245.367 149.507C245.22 149.524 245.081 149.548 244.951 149.582C244.627 149.646 244.317 149.728 244.024 149.826C243.731 149.924 243.469 150.036 243.244 150.166C243.179 150.199 243.114 150.23 243.049 150.264C242.984 150.297 242.919 150.328 242.855 150.362C242.888 150.783 242.903 151.214 242.903 151.652C242.903 152.09 242.903 152.521 242.903 152.942C242.903 153.493 242.893 154.036 242.879 154.572C242.862 155.108 242.855 155.618 242.855 156.104C242.823 156.59 242.799 157.054 242.783 157.492C242.766 157.93 242.758 158.344 242.758 158.732V159.072C242.79 159.69 242.84 160.152 242.905 160.458C242.97 160.767 243.1 160.92 243.294 160.92C243.424 160.92 243.611 160.855 243.856 160.726C244.101 160.597 244.401 160.417 244.759 160.19L244.762 160.187Z" fill="#EC392F"/>
<path d="M264.73 164.031C264.307 164.486 263.844 164.843 263.339 165.101C262.835 165.36 262.321 165.523 261.802 165.587C261.704 165.587 261.615 165.587 261.533 165.587C261.452 165.587 261.363 165.587 261.264 165.587C261.166 165.587 261.06 165.587 260.947 165.587C260.834 165.587 260.712 165.587 260.582 165.587C259.444 165.425 258.361 164.891 257.335 163.981C256.309 163.072 255.536 161.872 255.017 160.379C254.724 159.536 254.479 158.677 254.285 157.801C254.09 156.925 253.992 156.035 253.992 155.125C253.992 154.802 254.001 154.484 254.016 154.177C254.032 153.868 254.073 153.569 254.138 153.277C254.366 151.817 254.928 150.381 255.822 148.971C256.718 147.561 258.043 146.238 259.802 145.005C259.9 144.907 260.006 144.825 260.119 144.761C260.234 144.696 260.354 144.615 260.484 144.517C260.777 144.354 261.063 144.217 261.339 144.103C261.615 143.988 261.867 143.933 262.095 143.933C262.127 143.933 262.167 143.933 262.218 143.933C262.266 143.933 262.323 143.949 262.388 143.981C262.422 143.981 262.463 143.988 262.511 144.004C262.559 144.021 262.6 144.028 262.633 144.028C263.219 144.45 263.683 144.775 264.026 145.003C264.367 145.23 264.62 145.342 264.783 145.342C264.946 145.342 265.076 145.244 265.172 145.05C265.27 144.857 265.335 144.596 265.367 144.273C265.367 144.241 265.367 144.217 265.367 144.201C265.367 144.184 265.367 144.16 265.367 144.127C265.367 144.127 265.367 144.119 265.367 144.103C265.367 144.086 265.367 144.079 265.367 144.079C265.333 144.045 265.318 144.014 265.318 143.981C265.318 143.947 265.318 143.933 265.318 143.933C265.318 143.576 265.417 143.317 265.612 143.155C265.806 142.992 266.017 142.911 266.246 142.911C266.409 142.911 266.587 142.944 266.781 143.009C266.976 143.073 267.173 143.155 267.367 143.253C267.531 143.317 267.701 143.406 267.879 143.521C268.059 143.633 268.213 143.739 268.342 143.837C268.734 144.064 269.058 144.275 269.32 144.469C269.579 144.663 269.793 144.842 269.954 145.005C270.084 145.168 270.182 145.328 270.247 145.491C270.312 145.654 270.345 145.831 270.345 146.027C270.345 146.156 270.329 146.319 270.297 146.513C270.264 146.707 270.233 146.92 270.199 147.145C270.165 147.209 270.141 147.284 270.124 147.363C270.108 147.444 270.1 147.533 270.1 147.631C269.906 148.313 269.743 149.139 269.613 150.113C269.483 151.085 269.418 152.092 269.418 153.129C269.418 153.584 269.426 154.045 269.442 154.515C269.459 154.986 269.483 155.465 269.517 155.951C269.647 157.282 269.841 158.603 270.103 159.917C270.362 161.231 270.672 162.389 271.03 163.397C271.064 163.431 271.088 163.479 271.104 163.543C271.121 163.608 271.128 163.656 271.128 163.689C271.162 163.787 271.193 163.876 271.227 163.957C271.261 164.039 271.292 164.11 271.325 164.175C271.39 164.434 271.448 164.678 271.496 164.905C271.544 165.133 271.57 165.326 271.57 165.489C271.57 165.717 271.505 165.903 271.376 166.049C271.246 166.195 271.052 166.267 270.79 166.267C270.725 166.267 270.456 166.26 269.985 166.243C269.512 166.226 269.017 166.155 268.496 166.025C268.008 165.927 267.543 165.781 267.103 165.587C266.663 165.393 266.378 165.116 266.248 164.762C266.118 164.307 265.989 163.984 265.856 163.787C265.727 163.593 265.597 163.495 265.467 163.495C265.369 163.495 265.263 163.543 265.15 163.641C265.035 163.737 264.898 163.869 264.735 164.029L264.73 164.031ZM264.682 150.115V149.871C264.682 149.579 264.593 149.321 264.413 149.093C264.233 148.866 264.014 148.751 263.755 148.751C263.69 148.751 263.601 148.76 263.486 148.775C263.371 148.792 263.267 148.816 263.169 148.847C263.138 148.847 263.097 148.863 263.046 148.895C262.998 148.926 262.941 148.959 262.876 148.993C261.867 149.641 261.101 150.477 260.58 151.499C260.059 152.521 259.701 153.584 259.506 154.687C259.473 155.01 259.441 155.343 259.408 155.683C259.374 156.025 259.36 156.355 259.36 156.681C259.36 157.298 259.4 157.88 259.482 158.433C259.564 158.986 259.669 159.455 259.799 159.845C259.898 160.168 260.068 160.396 260.313 160.527C260.558 160.657 260.81 160.721 261.07 160.721C261.135 160.721 261.199 160.721 261.264 160.721C261.329 160.721 261.394 160.704 261.459 160.673C261.557 160.673 261.646 160.657 261.728 160.625C261.809 160.592 261.882 160.578 261.946 160.578C262.011 160.546 262.069 160.52 262.117 160.506C262.165 160.489 262.206 160.482 262.239 160.482C262.338 160.451 262.427 160.4 262.508 160.336C262.59 160.271 262.662 160.207 262.727 160.142C263.118 159.883 263.476 159.534 263.801 159.096C264.125 158.658 264.37 158.098 264.533 157.418C264.533 157.16 264.526 156.882 264.509 156.592C264.492 156.3 264.485 156.008 264.485 155.716C264.485 155.424 264.478 155.125 264.461 154.816C264.444 154.507 264.437 154.208 264.437 153.916C264.437 153.234 264.461 152.561 264.509 151.896C264.557 151.231 264.615 150.639 264.68 150.12L264.682 150.115Z" fill="#EC392F"/>
<defs>
<clipPath id="clip0_37_52">
<rect width="206" height="43" fill="white" transform="translate(35)"/>
</clipPath>
</defs>
</svg>
