<svg width="289" height="57" viewBox="0 0 289 57" fill="none" xmlns="http://www.w3.org/2000/svg">
<path d="M6.88781 28.256C6.21607 27.6759 5.88021 26.9024 5.88021 25.9355C5.88021 22.2359 11.5976 20.2741 23.0221 20.0527C22.1595 14.7883 19.3988 12.1548 14.7323 12.1548C13.0479 12.1548 11.1243 12.6688 8.96153 13.6942C6.79875 14.7221 5.28481 15.2361 4.42733 15.2361C3.56731 15.2361 2.74545 14.7959 1.96431 13.9206C1.18062 13.0428 0.786233 11.9691 0.786233 10.6968C0.786233 7.60025 2.20603 5.04054 5.04563 3.02534C7.88268 1.0076 11.394 0 15.5745 0C20.5413 0 24.5691 1.53939 27.6708 4.62071C30.7725 7.70203 32.3221 12.2642 32.3221 18.3174C32.3221 25.1493 30.284 30.8717 26.2128 35.4823C22.1443 40.0902 16.8468 42.4031 10.3101 42.4031C7.20841 42.4031 4.71994 41.6347 2.82942 40.103C0.941444 38.5712 0 36.6883 0 34.4467C0 33.4772 0.195922 32.6554 0.587766 31.9836C0.97961 31.3119 1.5114 30.9735 2.18313 30.9735C2.36888 30.9735 2.46811 31.0498 2.46811 31.1949C2.46811 31.233 2.36124 31.5129 2.15769 32.0345C1.94904 32.5587 1.84981 33.0447 1.84981 33.4925C1.84981 35.3957 2.62332 36.9071 4.17034 38.0267C5.71991 39.1488 7.53918 39.7086 9.63326 39.7086C12.3202 39.7086 14.7298 38.8231 16.8595 37.0496C18.9866 35.2761 20.582 33.0625 21.6456 30.4112C22.7091 27.7599 23.2435 25.0144 23.2435 22.1799C21.7499 22.7397 19.4166 24.0348 16.2437 26.0704C13.0657 28.1034 10.8062 29.1237 9.46278 29.1237C8.41956 29.1237 7.55954 28.8311 6.88781 28.2535V28.256Z" fill="#EC392F"/>
<path d="M43.4642 26.8291C42.6042 30.6407 42.0495 33.4192 41.7874 35.1749C43.169 34.3505 44.4921 33.0452 45.7644 31.2514C46.7338 26.9971 48.3851 23.4374 50.7209 20.5825C53.0516 17.7226 55.6953 16.2977 58.6469 16.2977C59.8758 16.2977 60.8376 16.6793 61.5297 17.4452C62.2243 18.2136 62.5704 19.2492 62.5704 20.5545C62.5704 22.1982 61.2626 24.3203 58.6469 26.9131C56.0286 29.5084 53.4384 31.4956 50.8609 32.8773C50.899 34.8568 51.2909 36.3504 52.0364 37.358C52.7845 38.3682 53.6801 38.8694 54.7259 38.8694C56.2958 38.8694 57.9522 38.4318 59.7104 37.554C61.4636 36.6761 62.8477 35.6583 63.8553 34.5032C63.9317 34.4268 64.0385 34.2691 64.1937 34.0223C64.3388 33.7805 64.4864 33.5973 64.611 33.4625C64.7408 33.3353 64.8833 33.2717 65.0309 33.2717C65.555 33.2717 65.8171 33.5134 65.8171 33.9968C65.8171 34.1469 65.6212 34.5362 65.2293 35.1749C64.8349 35.8085 64.2472 36.5743 63.466 37.47C62.6823 38.3682 61.7918 39.2358 60.8071 40.0755C59.8173 40.9152 58.6189 41.6251 57.222 42.2001C55.82 42.7802 54.4282 43.0703 53.0465 43.0703C50.9932 43.0703 49.3393 42.4316 48.0874 41.1645C46.8356 39.8974 45.9883 38.2155 45.5379 36.1265C44.1232 38.2562 42.879 39.8414 41.8154 40.8897C40.7493 41.9329 39.6221 42.4546 38.4262 42.4546C37.3397 42.4546 36.4746 41.7268 35.8207 40.2714C35.1667 38.816 34.8436 36.7397 34.8436 34.0553C34.8436 21.9947 36.9148 15.9593 41.0571 15.9593C42.2149 15.9593 43.1207 16.3435 43.7771 17.1094C44.4311 17.8752 44.7568 18.7785 44.7568 19.8243C44.7568 20.6843 44.3267 23.0201 43.4667 26.8266L43.4642 26.8291Z" fill="#EC392F"/>
<path d="M80.267 31.1419C80.4171 30.1725 80.4934 29.4244 80.4934 28.9003C80.4934 28.2616 80.3789 27.6026 80.155 26.9105C79.9286 26.221 79.6334 25.8749 79.2568 25.8749C78.5877 25.8749 78.2518 26.3966 78.2518 27.4449C78.2518 28.6738 78.921 29.9079 80.267 31.1394V31.1419ZM75.4504 31.6737C74.4071 30.4575 73.7507 29.1598 73.486 27.7782C72.6311 29.6076 72.2011 31.3811 72.2011 33.1012C72.2011 33.8111 72.2673 34.4828 72.397 35.1164C72.5268 35.7525 72.8194 36.3606 73.2672 36.9356C73.7125 37.5158 74.3104 37.8058 75.0585 37.8058C76.7735 37.8058 78.1551 36.7397 79.2034 34.6126C77.7454 33.8645 76.4936 32.8849 75.4504 31.6712V31.6737ZM82.3382 23.7452C83.3814 25.4627 83.9055 27.4983 83.9055 29.8519C83.9055 30.8213 83.7605 31.8671 83.4603 32.9867C84.1702 33.1393 84.6562 33.2335 84.9157 33.2716C85.9233 33.3785 87.025 33.437 88.2184 33.437C88.8163 33.437 89.1166 33.5871 89.1166 33.8848C89.1166 34.035 88.9003 34.2589 88.4703 34.5566C88.0403 34.8568 87.4347 35.1342 86.651 35.3962C85.8622 35.6583 85.0607 35.7881 84.2414 35.7881C83.6078 35.7881 83.0099 35.7347 82.4501 35.6202C81.5189 37.4165 80.2365 38.8694 78.6131 39.9915C76.9897 41.1111 75.1527 41.6734 73.0993 41.6734C70.336 41.6734 68.0766 40.6454 66.3184 38.5921C64.5652 36.5387 63.6899 34.0375 63.6899 31.086C63.6899 27.9512 64.7612 24.9335 66.9087 22.0405C69.0536 19.1474 71.621 17.6996 74.6107 17.6996C75.4656 17.6996 76.1679 17.9032 76.7099 18.3179C77.2544 18.7301 77.5241 19.3077 77.5241 20.0533C77.5241 20.3153 77.4477 20.7046 77.3002 21.2313C77.3358 21.2313 77.4198 21.2186 77.5495 21.2008C77.6793 21.1804 77.7836 21.1728 77.8599 21.1728C79.8014 21.1728 81.2949 22.0277 82.3382 23.7478V23.7452Z" fill="#EC392F"/>
<path d="M95.671 48.1134C95.671 48.4467 95.783 48.752 96.0094 49.0065C96.2333 49.2711 96.498 49.4009 96.7931 49.4009C97.6913 49.4009 98.5004 48.8487 99.2307 47.747C99.9584 46.6452 100.531 45.3857 100.943 43.9659C97.4318 45.7572 95.6736 47.1389 95.6736 48.1108L95.671 48.1134ZM99.6505 31.8417C100.544 30.2921 101.182 28.4906 101.554 26.4373C101.103 26.6612 100.699 26.7706 100.322 26.7706C99.8337 26.7706 99.2104 26.5009 98.4445 25.9615C97.6786 25.4169 97.0705 25.1472 96.6227 25.1472C95.9509 25.1472 95.4013 25.7426 94.9713 26.9385C94.5413 28.1319 94.325 29.4397 94.325 30.857C94.325 33.063 95.1087 34.1647 96.6786 34.1647C97.76 34.1647 98.7498 33.3887 99.648 31.8391L99.6505 31.8417ZM102.337 36.2385C99.7956 38.7753 97.0527 40.045 94.1062 40.045C91.7526 40.045 89.8341 39.1977 88.3659 37.4954C86.8876 35.7983 86.1548 33.7144 86.1548 31.2488C86.1548 29.0122 86.5339 26.7782 87.2973 24.5595C88.0657 22.3382 89.3074 20.384 91.0249 18.7047C92.7398 17.0228 94.7398 16.1857 97.0196 16.1857C98.7015 16.1857 100.096 16.6895 101.218 17.6971C102.337 18.7022 103.121 19.7301 103.574 20.7759C104.019 19.9159 104.488 19.3027 104.971 18.9286C105.459 18.552 106.091 18.3688 106.877 18.3688C108.182 18.3688 108.839 19.4324 108.839 21.5621C108.839 23.3534 108.592 26.1625 108.108 29.9893C107.62 33.8187 107.154 36.61 106.709 38.3631C106.821 38.2893 107.482 37.816 108.696 36.9356C109.91 36.0578 111.029 35.2741 112.057 34.5846C113.08 33.895 113.747 33.549 114.044 33.549C114.64 33.549 114.938 33.7754 114.938 34.2207C114.938 34.5973 113.826 35.7067 111.602 37.5565C109.383 39.4038 107.564 40.7956 106.146 41.7294C103.383 50.953 99.6098 55.5635 94.8288 55.5635C93.152 55.5635 91.8747 55.0979 90.9918 54.1641C90.1165 53.2303 89.6763 52.0929 89.6763 50.7494C89.6763 49.5917 90.0987 48.4442 90.9435 47.3068C91.7755 46.1669 92.8721 45.1644 94.2156 44.3043C95.5616 43.4494 96.8288 42.7192 98.0221 42.1212C99.2205 41.5258 100.414 40.9991 101.61 40.5538L102.335 36.241L102.337 36.2385Z" fill="#EC392F"/>
<path d="M121.271 26.7731C120.449 28.1929 120.039 29.7043 120.039 31.3124C121.233 30.974 122.334 30.2717 123.342 29.2107C124.352 28.1471 124.853 27.053 124.853 25.9335C124.853 25.0734 124.52 24.6434 123.846 24.6434C122.947 24.6434 122.09 25.3533 121.271 26.7731ZM121.551 36.9127C122.629 37.8465 124.164 38.3147 126.143 38.3147C127.787 38.3147 129.408 37.8923 131.013 37.0527C132.621 36.213 133.911 35.3759 134.881 34.5311C135.853 33.694 136.408 33.2716 136.558 33.2716C137.046 33.2716 137.285 33.4599 137.285 33.834C137.285 34.208 136.939 34.8416 136.25 35.7372C135.563 36.6354 134.66 37.5692 133.56 38.5386C132.464 39.5081 131.062 40.3605 129.362 41.0856C127.662 41.8133 125.955 42.1797 124.235 42.1797C120.65 42.1797 117.92 41.1899 116.032 39.2104C114.149 37.2333 113.2 34.7322 113.2 31.7068C113.2 28.1191 114.345 24.8444 116.619 21.8751C118.899 18.9032 121.797 17.4198 125.304 17.4198C127.281 17.4198 128.83 18.1602 129.955 19.6334C131.072 21.1067 131.632 22.7987 131.632 24.702C131.632 27.4652 130.889 29.8901 129.39 31.9816C127.901 34.0731 126.385 35.1214 124.853 35.1214C123.657 35.1214 122.612 34.9255 121.716 34.5311C120.823 34.1393 120.227 33.6635 119.922 33.1037C119.922 34.7118 120.467 35.9789 121.551 36.9153V36.9127Z" fill="#EC392F"/>
<path d="M152.468 18.7352C153.328 19.6869 153.758 20.9107 153.758 22.4043C153.758 23.7096 153.465 24.646 152.888 25.2058C152.313 25.7655 151.331 26.0454 149.949 26.0454C148.196 26.0454 146.618 26.8749 145.216 28.5364C143.814 30.198 143.115 32.0936 143.115 34.2233C143.115 35.6787 143.596 36.7982 144.547 37.5819C145.499 38.3682 146.593 38.76 147.819 38.76C149.354 38.76 150.967 38.3224 152.667 37.4445C154.366 36.5667 155.776 35.381 156.895 33.8874C157.267 33.437 157.585 33.2157 157.847 33.2157C158.297 33.2157 158.519 33.4574 158.519 33.9408C158.519 34.6889 158.132 35.5489 157.346 36.5209C154.135 40.4419 149.99 42.4036 144.909 42.4036C142.298 42.4036 140.077 41.5334 138.242 39.7981C136.415 38.0577 135.499 35.8288 135.499 33.1037C135.499 29.0708 136.965 25.4297 139.896 22.1779C142.827 18.9312 146.01 17.3053 149.448 17.3053C150.603 17.3053 151.611 17.7811 152.471 18.7378L152.468 18.7352Z" fill="#EC392F"/>
<path d="M165.073 26.7731C164.249 28.1929 163.842 29.7043 163.842 31.3124C165.035 30.974 166.137 30.2717 167.144 29.2107C168.155 28.1471 168.656 27.053 168.656 25.9335C168.656 25.0734 168.322 24.6434 167.648 24.6434C166.75 24.6434 165.893 25.3533 165.073 26.7731ZM165.353 36.9127C166.435 37.8465 167.966 38.3147 169.946 38.3147C171.59 38.3147 173.21 37.8923 174.816 37.0527C176.424 36.213 177.714 35.3759 178.683 34.5311C179.655 33.694 180.21 33.2716 180.36 33.2716C180.844 33.2716 181.088 33.4599 181.088 33.834C181.088 34.208 180.742 34.8416 180.052 35.7372C179.365 36.6354 178.462 37.5692 177.365 38.5386C176.261 39.5081 174.864 40.3605 173.162 41.0856C171.462 41.8133 169.755 42.1797 168.035 42.1797C164.45 42.1797 161.72 41.1899 159.834 39.2104C157.946 37.2333 157.002 34.7322 157.002 31.7068C157.002 28.1191 158.142 24.8444 160.417 21.8751C162.697 18.9032 165.59 17.4198 169.101 17.4198C171.078 17.4198 172.633 18.1602 173.752 19.6334C174.869 21.1067 175.429 22.7987 175.429 24.702C175.429 27.4652 174.686 29.8901 173.187 31.9816C171.694 34.0731 170.182 35.1214 168.651 35.1214C167.455 35.1214 166.414 34.9255 165.513 34.5311C164.62 34.1393 164.025 33.6635 163.72 33.1037C163.72 34.7118 164.262 35.9789 165.348 36.9153L165.353 36.9127Z" fill="#EC392F"/>
<path d="M200.863 20.6105C201.423 21.3535 201.779 22.3102 201.927 23.4653C202.077 24.6231 202.174 26.2464 202.212 28.338C202.248 32.4091 202.415 34.8008 202.716 35.5056C202.975 36.1036 203.387 36.4038 203.947 36.4038C205.217 36.4038 206.878 35.6558 208.937 34.1622C209.721 33.6406 210.168 33.381 210.275 33.381C210.726 33.381 210.95 33.549 210.95 33.8848C210.95 34.1113 210.631 34.5744 209.998 35.2843C209.062 36.2944 208.245 37.1163 207.53 37.7473C206.82 38.386 205.795 39.0628 204.454 39.793C203.105 40.5182 201.802 40.8871 200.53 40.8871C198.734 40.8871 197.423 40.2052 196.581 38.8414C195.741 37.4776 195.227 35.2843 195.039 32.2589C195.004 31.2157 194.927 30.4397 194.815 29.9333C194.708 29.4295 194.594 29.1115 194.477 28.9817C194.37 28.8519 194.199 28.7858 193.973 28.7858C192.853 28.7858 191.164 31.6788 188.904 37.47C186.648 43.2535 185.052 48.6528 184.116 53.6526C183.704 55.8586 182.51 56.8637 180.531 56.678C179.859 56.6042 179.279 56.3166 178.795 55.8103C178.307 55.3065 178.07 54.7009 178.07 53.991C178.07 50.3677 178.508 44.4774 179.383 36.3199C180.261 28.1624 181.126 21.9132 181.989 17.5851C182.284 16.0152 182.928 14.6667 183.917 13.5242C184.907 12.3843 186.093 11.8118 187.475 11.8118C188.48 11.8118 189.276 12.1222 189.859 12.738C190.434 13.3563 190.721 14.1451 190.721 15.117C190.721 15.8269 190.472 17.3587 189.966 19.7148C189.462 22.0634 188.856 24.8393 188.146 28.0301C187.441 31.2234 186.933 33.8619 186.635 35.956C187.378 34.0528 188.004 32.5032 188.51 31.3099C189.014 30.1165 189.688 28.6764 190.528 26.9945C191.365 25.3126 192.149 23.9971 192.881 23.0455C193.607 22.0939 194.467 21.2619 195.456 20.552C196.446 19.8471 197.444 19.4884 198.454 19.4884C199.502 19.4884 200.301 19.865 200.861 20.6079L200.863 20.6105Z" fill="#EC392F"/>
<path d="M239.343 21.4807C240.574 20.9362 242.053 20.6665 243.768 20.6665C245.076 20.6665 246.177 21.2186 247.076 22.3204C247.969 23.4221 248.419 24.6994 248.419 26.1548C248.419 27.7248 248.088 29.6407 247.437 31.8951C246.785 34.1546 246.475 35.5642 246.516 36.124C246.554 36.6481 246.635 36.9942 246.77 37.1596C246.9 37.3275 247.167 37.414 247.579 37.414C248.251 37.414 249.111 37.0883 250.154 36.4344C251.203 35.783 252.058 35.0222 252.734 34.1673C253.18 33.6075 253.574 33.3276 253.907 33.3276C254.246 33.3276 254.414 33.493 254.414 33.8314C254.414 33.9434 254.246 34.2411 253.907 34.7296C253.574 35.2131 253.078 35.8008 252.426 36.4929C251.77 37.1825 251.065 37.8593 250.297 38.5107C249.528 39.1646 248.635 39.7116 247.607 40.162C246.582 40.6124 245.602 40.8337 244.671 40.8337C243.363 40.8337 242.381 40.4521 241.727 39.6862C241.073 38.9229 240.745 37.9789 240.745 36.8568C240.745 36.0731 240.859 34.8161 241.083 33.0757C241.307 31.3379 241.401 30.1929 241.363 29.6331C241.328 28.511 240.859 27.9512 239.961 27.9512C239.218 27.9512 238.488 28.455 237.778 29.4626C237.068 30.4677 236.173 32.1292 235.091 34.4446C234.903 34.783 234.623 35.3734 234.252 36.2105C233.875 37.0501 233.613 37.6226 233.465 37.9229C233.315 38.218 233.073 38.6481 232.735 39.2078C232.397 39.7676 232.091 40.1518 231.811 40.3554C231.532 40.564 231.178 40.7599 230.748 40.9457C230.318 41.134 229.862 41.2256 229.374 41.2256C228.219 41.2256 227.453 40.8872 227.084 40.2154C226.707 39.5437 226.481 38.587 226.41 37.3606C226.371 36.7626 226.476 35.3428 226.717 33.1012C226.959 30.8595 227.086 29.6331 227.086 29.4041C227.086 28.9944 226.918 28.5568 226.58 28.0886C226.242 27.6204 225.837 27.3914 225.349 27.3914C224.191 27.3914 222.924 28.2108 221.537 29.8545C220.155 31.4982 218.494 34.2742 216.555 38.1977C215.13 41.0755 213.748 42.5105 212.402 42.5105C211.397 42.5105 210.667 42.2484 210.222 41.7268C209.771 41.2052 209.512 40.2867 209.436 38.9839C209.25 35.9942 209.682 30.4499 210.726 22.3484C210.988 20.3662 211.603 18.8014 212.573 17.6437C213.542 16.4834 214.853 15.9058 216.499 15.9058C217.43 15.9058 218.232 16.1908 218.906 16.7455C219.58 17.3053 219.916 18.1119 219.916 19.1551C219.916 21.2466 219.674 23.3763 219.186 25.5416C219.934 24.3483 220.588 23.3839 221.148 22.6562C221.707 21.9285 222.417 21.1703 223.277 20.3891C224.132 19.6054 225.097 19.0279 226.16 18.6564C227.226 18.2798 228.41 18.094 229.717 18.094C231.399 18.094 232.699 18.7098 233.613 19.9413C234.526 21.1728 235.114 22.6511 235.374 24.3661C236.793 22.9845 238.122 22.0252 239.351 21.4832L239.343 21.4807Z" fill="#EC392F"/>
<path d="M253.297 25.9055C253.818 23.4221 254.655 21.267 255.813 19.435C256.971 17.6055 258.319 16.692 259.846 16.692C260.67 16.692 261.332 16.9618 261.838 17.5063C262.337 18.0457 262.594 18.8039 262.594 19.7734C262.594 20.2237 262.164 22.1448 261.304 25.5416C260.444 28.941 260.014 31.778 260.014 34.0579C260.014 35.4013 260.248 36.5667 260.716 37.559C261.182 38.5437 261.805 39.0399 262.592 39.0399C263.782 39.0399 264.683 37.8109 265.278 35.3454C264.347 35.124 263.543 34.6202 262.871 33.834C262.197 33.0528 261.859 32.0605 261.859 30.8671C261.859 29.5975 262.215 28.5695 262.925 27.7858C263.635 27.0047 264.569 26.6128 265.724 26.6128C266.586 26.6128 267.421 26.908 268.222 27.5059C269.024 28.1013 269.574 28.8672 269.874 29.801C270.843 29.4295 271.665 28.8697 272.337 28.1191C272.749 25.1727 273.484 22.6511 274.55 20.5596C275.614 18.4681 276.912 17.4223 278.446 17.4223C279.634 17.4223 280.545 17.7963 281.158 18.5444C281.777 19.2874 282.082 20.2594 282.082 21.4527C282.082 22.7987 281.794 24.2007 281.212 25.6536C280.637 27.109 279.823 28.2489 278.779 29.0733C278.553 30.0046 278.446 31.6101 278.446 33.8899C278.446 34.8619 278.644 35.6634 279.059 36.2995C279.471 36.9331 280.102 37.2511 280.962 37.2511C281.894 37.2511 283.153 36.5692 284.743 35.2054C286.329 33.8441 287.237 33.1597 287.456 33.1597C287.832 33.1597 288.018 33.2894 288.018 33.5515C288.018 34.6711 287.059 36.2614 285.133 38.3147C283.209 40.3681 281.11 41.396 278.83 41.396C274.278 41.396 271.998 38.1468 271.998 31.6483C270.991 32.0198 270.411 32.2284 270.26 32.2615C270.26 35.4013 269.439 37.8847 267.797 39.7142C266.154 41.5462 263.691 42.4596 260.406 42.4596C258.126 42.4596 256.241 41.6123 254.75 39.9101C253.253 38.2104 252.508 36.0349 252.508 33.381C252.508 30.8799 252.765 28.3888 253.292 25.9055H253.297Z" fill="#EC392F"/>
</svg>
