<svg width="166" height="20" viewBox="0 0 166 20" fill="none" xmlns="http://www.w3.org/2000/svg">
<path d="M5.81883 18.9991C7.74884 18.9991 11.5128 18.0662 11.5128 12.8571C11.5128 7.65447 7.65602 6.76073 5.72601 6.76073C3.7896 6.76073 0 7.65121 0 12.8571C0 18.0695 3.7704 18.9991 5.81883 18.9991ZM5.79323 16.9116C4.17048 16.9116 3.38952 15.3524 3.38952 12.8571C3.38952 10.3618 4.12247 8.87766 5.74522 8.87766C7.37436 8.87766 8.12012 10.3618 8.12012 12.8571C8.12012 15.3524 7.41917 16.9116 5.79003 16.9116H5.79323ZM15.024 18.885C15.4049 18.885 16.1602 18.885 16.8132 18.761V12.1623C17.8278 9.47458 18.5831 8.87766 19.665 8.87766C20.4203 8.87766 21.0797 9.2593 21.0797 10.3879V13.5519C20.9132 14.7294 20.798 16.1972 20.798 17.2247C20.798 18.3533 21.4798 18.885 22.2799 18.885C22.7728 18.885 23.3874 18.885 24.0211 18.761V12.1623C25.0549 9.47458 25.7847 8.87766 26.8441 8.87766C27.8779 8.87766 28.278 9.47784 28.278 10.701C28.278 12.906 28.1852 15.5938 28.1852 17.2736C28.1852 17.926 28.166 18.885 29.8335 18.885C30.5217 18.885 31.1298 18.7154 31.6227 18.5457C31.5107 17.5183 31.3699 16.6017 31.3699 15.2317V10.339C31.3699 7.79473 29.9551 6.76073 27.7179 6.76073C26.0887 6.76073 24.7733 7.67078 23.6658 9.99973L23.6178 9.98016V9.49741C23.6178 7.62512 22.1839 6.76399 20.5996 6.76399C18.9032 6.76399 17.6549 7.65447 16.6467 9.64093H16.5987L16.6467 8.08177C16.6659 7.40984 16.3139 6.85859 15.3056 6.85859C14.7839 6.85859 14.1246 6.98254 13.5165 7.24674C13.7693 9.11904 13.8621 10.7695 13.8621 13.5519C13.7213 14.8501 13.5613 16.145 13.5613 17.2247C13.5613 18.3826 14.243 18.885 15.0176 18.885H15.024ZM41.3592 18.761H45.504C46.8003 18.761 52.2127 18.8099 52.2127 14.1749C52.2127 12.0873 51.1052 10.6227 48.4199 10.0258V9.9769C50.5163 8.99183 51.2973 7.33808 51.2973 5.53428C51.2973 1.79296 48.279 0.99707 45.4752 0.99707H39.2339C38.2929 0.99707 38.2929 2.99005 38.8146 3.5413H40.0821C39.6628 4.04362 39.6628 4.52637 39.6628 4.90801V17.0029C39.6628 18.3239 40.3446 18.7578 41.3592 18.7578V18.761ZM46.7075 9.04075H43.0747V3.42714H44.7231C46.3522 3.42714 47.8085 3.95229 47.8085 6.02029C47.8085 7.387 47.2676 8.5841 46.7075 9.04075ZM43.0747 16.3114V11.3175H45.8593C47.2196 11.3175 48.6823 12.0384 48.6823 13.9107C48.6823 15.4764 47.386 16.3114 45.6641 16.3114H43.0747ZM58.454 18.9991C59.9839 18.9991 61.3058 18.3533 62.4324 15.9526H62.458L62.3364 17.6585C62.2884 18.3794 62.7365 18.9045 63.7703 18.9045C64.3849 18.9045 64.9706 18.7349 65.4923 18.4772L65.1594 12.4983C65.2522 10.962 65.5147 9.54634 65.5147 8.30032C65.5147 7.48486 65.1594 6.85859 64.0072 6.85859C63.1846 6.85859 62.8325 6.93361 62.3844 7.00211V8.30032C61.6771 7.21739 60.5472 6.76399 59.2286 6.76399C57.1801 6.76399 53.7426 7.72297 53.7426 13.1246C53.7426 18.0238 56.4536 19.0024 58.454 19.0024V18.9991ZM59.4206 16.8887C58.0059 16.8887 57.1321 15.7308 57.1321 13.092C57.1321 10.8119 57.8651 8.8744 60.2432 8.8744C60.9025 8.8744 61.7251 9.16144 62.1732 9.39955V14.1064C61.3506 15.7862 60.8321 16.8887 59.4238 16.8887H59.4206ZM77.4084 16.1418L74.7711 8.20246C74.4158 7.11953 73.7084 6.74116 72.4346 6.74116C71.7528 6.74116 71.3079 6.83575 70.5974 6.97927C70.4117 8.0622 70.1493 8.85157 69.73 10.0487L67.1118 17.3193C66.6925 18.4968 67.4863 18.9535 68.3601 18.9535C68.901 18.9535 69.4419 18.9045 69.842 18.7643C70.0565 17.7107 70.4085 16.4386 70.7638 15.235L72.2713 10.2705L74.5534 17.8542C74.739 18.4544 74.9727 18.9567 75.9425 18.9567C76.6979 18.9567 77.5172 18.7382 78.1318 18.1674C77.8053 17.5215 77.6389 16.8692 77.4052 16.1483L77.4084 16.1418ZM88.4251 15.5905C87.3177 16.3375 86.5431 16.9116 84.9684 16.9116C83.3873 16.9116 82.3791 15.7895 82.1838 13.4083C82.3983 13.8422 82.8912 13.9857 83.2464 14.0085C83.9058 14.064 84.5875 14.064 85.3429 13.94C87.3465 13.6269 89.0621 12.6418 89.0621 10.2933C89.0621 7.81757 87.3657 6.76399 84.4019 6.76399C80.7307 6.76399 78.7943 9.2593 78.7943 12.8604C78.7943 16.9898 81.2428 19.0024 84.754 19.0024C86.4951 19.0024 87.7914 18.6403 88.806 17.7303C89.0397 17.4661 89.1325 17.228 89.1325 16.8659C89.1325 16.3636 88.7324 15.8123 88.4251 15.5938V15.5905ZM84.3539 8.82221C85.2469 8.82221 85.8614 9.22994 85.8614 10.3585C85.8614 11.9438 84.7988 12.4461 82.1646 12.4461C82.1838 10.5477 82.7535 8.81895 84.3539 8.81895V8.82221ZM100.156 6.85532C99.6339 6.85532 99.0482 6.90425 98.4337 6.99884V13.1963H95.3034C94.9481 13.1963 94.596 13.4083 94.4552 13.8911V7.76864C94.4552 7.19782 93.9623 6.85859 92.9925 6.85859C92.2372 6.85859 91.7442 6.90751 91.2769 7.00211L91.4178 13.0756L91.2769 17.851C91.2513 18.4511 91.5298 18.885 92.7781 18.885C93.5334 18.885 94.0071 18.8099 94.452 18.7349V15.0425L98.4305 15.023V18.0434C98.4305 18.5751 98.997 18.8882 99.8452 18.8882C100.834 18.8882 101.093 18.7643 101.513 18.6697L101.42 12.8865L101.561 7.7719C101.586 7.15215 101.093 6.86185 100.152 6.86185L100.156 6.85532ZM105.709 18.8817C106.09 18.8817 106.845 18.8817 107.498 18.7578V12.1591C108.513 9.47131 109.268 8.8744 110.35 8.8744C111.105 8.8744 111.764 9.25603 111.764 10.3846V13.5486C111.598 14.7261 111.483 16.194 111.483 17.2214C111.483 18.35 112.165 18.8817 112.965 18.8817C113.458 18.8817 114.072 18.8817 114.706 18.7578V12.1591C115.74 9.47131 116.469 8.8744 117.529 8.8744C118.563 8.8744 118.963 9.47458 118.963 10.6978C118.963 12.9028 118.87 15.5905 118.87 17.2704C118.87 17.9227 118.851 18.8817 120.518 18.8817C121.206 18.8817 121.815 18.7121 122.308 18.5425C122.196 17.515 122.055 16.5984 122.055 15.2285V10.3357C122.055 7.79147 120.64 6.75747 118.403 6.75747C116.774 6.75747 115.458 7.66752 114.351 9.99647L114.303 9.9769V9.49415C114.303 7.62186 112.869 6.76073 111.284 6.76073C109.588 6.76073 108.34 7.65121 107.332 9.63767H107.284L107.332 8.07851C107.351 7.40657 106.999 6.85532 105.99 6.85532C105.469 6.85532 104.809 6.97927 104.201 7.24348C104.454 9.11578 104.547 10.7663 104.547 13.5486C104.406 14.8468 104.246 16.1418 104.246 17.2214C104.246 18.3794 104.928 18.8817 105.702 18.8817H105.709ZM128.13 18.9959C129.852 18.9959 131.148 18.2554 132.249 15.6818H132.297L132.204 17.6259C132.156 18.3729 132.418 18.898 133.574 18.898C134.115 18.898 134.541 18.7545 135.177 18.4707L134.87 12.1297C134.963 10.8837 135.197 9.6605 135.197 8.558C135.197 7.57293 134.749 6.85206 133.455 6.85206C132.7 6.85206 132.354 6.92708 131.852 6.99558V14.077C130.77 16.3831 129.996 16.8855 129.074 16.8855C128.059 16.8855 127.851 16.2853 127.851 15.4698C127.851 12.4918 127.992 10.838 127.87 8.29379C127.822 7.19129 127.403 6.83249 126.34 6.83249C125.681 6.83249 125.092 6.94666 124.503 7.1652C124.615 7.83714 124.737 8.98856 124.737 10.4792V15.4927C124.737 17.2671 125.585 18.9959 128.126 18.9959H128.13ZM146.591 6.85206C146.069 6.85206 145.484 6.90099 144.869 6.99558V13.1931H141.739C141.384 13.1931 141.031 13.4051 140.891 13.8878V7.76538C140.891 7.19456 140.398 6.85532 139.428 6.85532C138.673 6.85532 138.18 6.90425 137.712 6.99884L137.853 13.0724L137.712 17.8477C137.687 18.4479 137.965 18.8817 139.214 18.8817C139.969 18.8817 140.443 18.8067 140.887 18.7317V15.0393L144.866 15.0197V18.0402C144.866 18.5718 145.432 18.885 146.281 18.885C147.27 18.885 147.529 18.761 147.948 18.6664L147.855 12.8832L147.996 7.76864C148.022 7.14889 147.529 6.85859 146.588 6.85859L146.591 6.85206ZM155.582 18.9959C158.338 18.9959 161.023 18.063 161.023 14.6283C161.023 11.6763 159.167 10.6684 157.166 10.6684C155.585 10.6684 154.67 11.0305 153.562 12.0645L153.489 12.0384L153.514 7.98392C153.514 7.33808 153.133 6.99884 152.08 6.99884C151.539 6.99884 151.018 7.07387 150.432 7.21739V13.94C150.432 18.5457 153.889 19.0024 155.585 19.0024L155.582 18.9959ZM164.412 18.9013C164.886 18.9013 165.549 18.8523 165.994 18.7578V7.93499C165.994 7.38374 165.472 7.04451 164.531 7.04451C164.105 7.04451 163.404 7.11953 162.835 7.24022V18.0369C162.835 18.35 162.835 18.9013 164.409 18.9013H164.412ZM155.655 16.8887C154.407 16.8887 153.681 15.9787 153.7 14.5141L153.725 13.2616C154.334 12.9484 155.134 12.7853 155.607 12.7853C156.763 12.7853 157.749 13.092 157.749 14.7979C157.749 16.0211 157.067 16.8855 155.652 16.8855L155.655 16.8887Z" fill="#61230F"/>
</svg>
