<svg width="78" height="36" viewBox="0 0 78 36" fill="none" xmlns="http://www.w3.org/2000/svg">
<path d="M36 18C36 27.9411 27.9411 36 18 36C8.05887 36 0 27.9411 0 18C0 8.05887 8.05887 0 18 0C27.9411 0 36 8.05887 36 18Z" fill="#C4225C"/>
<path d="M52.648 19.704V21H46.696V10.12H48.088V19.704H52.648Z" fill="black"/>
<path d="M60.6175 16.552V17.512C60.6175 18.6427 60.3242 19.5333 59.7375 20.184C59.1615 20.8347 58.3348 21.16 57.2575 21.16C56.1908 21.16 55.3642 20.8347 54.7775 20.184C54.1908 19.5333 53.8975 18.6427 53.8975 17.512V16.552C53.8975 15.4427 54.1855 14.5627 54.7615 13.912C55.3482 13.2507 56.1802 12.92 57.2575 12.92C58.3348 12.92 59.1615 13.2507 59.7375 13.912C60.3242 14.5627 60.6175 15.4427 60.6175 16.552ZM59.2575 16.552C59.2575 15.7947 59.0868 15.2027 58.7455 14.776C58.4042 14.3387 57.9082 14.12 57.2575 14.12C56.6175 14.12 56.1215 14.3387 55.7695 14.776C55.4282 15.2027 55.2575 15.7947 55.2575 16.552V17.512C55.2575 18.3013 55.4282 18.9093 55.7695 19.336C56.1215 19.7627 56.6175 19.976 57.2575 19.976C57.9082 19.976 58.4042 19.7627 58.7455 19.336C59.0868 18.9093 59.2575 18.3013 59.2575 17.512V16.552Z" fill="black"/>
<path d="M69.3378 21.992C69.3378 22.7707 69.0177 23.3947 68.3777 23.864C67.7484 24.3333 66.8791 24.568 65.7698 24.568C65.2151 24.568 64.6337 24.4933 64.0257 24.344C63.4284 24.1947 62.8631 23.9547 62.3298 23.624L62.7777 22.6C63.3111 22.8987 63.8231 23.1067 64.3138 23.224C64.8151 23.352 65.3004 23.416 65.7698 23.416C66.4951 23.416 67.0551 23.2987 67.4498 23.064C67.8444 22.8293 68.0417 22.5147 68.0417 22.12C68.0417 21.832 67.9458 21.608 67.7538 21.448C67.5618 21.2987 67.2524 21.224 66.8258 21.224H64.9857C64.2924 21.224 63.7911 21.0587 63.4818 20.728C63.1724 20.3973 63.0177 20.0347 63.0177 19.64C63.0177 19.3627 63.0818 19.0907 63.2098 18.824C63.3378 18.5467 63.5191 18.2747 63.7537 18.008C63.3804 17.784 63.0817 17.48 62.8577 17.096C62.6337 16.7013 62.5218 16.2267 62.5218 15.672C62.5218 15.064 62.6498 14.5573 62.9058 14.152C63.1724 13.7467 63.5244 13.4427 63.9618 13.24C64.3991 13.0267 64.8897 12.92 65.4337 12.92H65.7057C66.0791 12.92 66.4204 12.9733 66.7298 13.08H69.5778V14.248L67.8497 14.008C68.0737 14.2 68.2551 14.44 68.3938 14.728C68.5324 15.0053 68.6018 15.3467 68.6018 15.752C68.6018 16.328 68.4684 16.8133 68.2018 17.208C67.9458 17.6027 67.5991 17.9067 67.1618 18.12C66.7244 18.3227 66.2391 18.424 65.7057 18.424H65.4337C65.2951 18.424 65.1618 18.4187 65.0338 18.408C64.9058 18.3867 64.7777 18.3653 64.6497 18.344C64.3404 18.6853 64.1858 19.0213 64.1858 19.352C64.1858 19.7787 64.4844 19.992 65.0817 19.992H66.8737C67.6417 19.992 68.2444 20.1627 68.6817 20.504C69.1191 20.8453 69.3378 21.3413 69.3378 21.992ZM65.7057 17.288C66.1217 17.288 66.4898 17.1547 66.8098 16.888C67.1298 16.6213 67.2897 16.216 67.2897 15.672C67.2897 15.1387 67.1298 14.7387 66.8098 14.472C66.4898 14.1947 66.1217 14.056 65.7057 14.056H65.4337C65.0071 14.056 64.6338 14.1947 64.3138 14.472C63.9938 14.7387 63.8338 15.1387 63.8338 15.672C63.8338 16.216 63.9938 16.6213 64.3138 16.888C64.6338 17.1547 65.0071 17.288 65.4337 17.288H65.7057Z" fill="black"/>
<path d="M77.5863 16.552V17.512C77.5863 18.6427 77.2929 19.5333 76.7063 20.184C76.1303 20.8347 75.3036 21.16 74.2262 21.16C73.1596 21.16 72.3329 20.8347 71.7462 20.184C71.1596 19.5333 70.8662 18.6427 70.8662 17.512V16.552C70.8662 15.4427 71.1542 14.5627 71.7302 13.912C72.3169 13.2507 73.1489 12.92 74.2262 12.92C75.3036 12.92 76.1303 13.2507 76.7063 13.912C77.2929 14.5627 77.5863 15.4427 77.5863 16.552ZM76.2262 16.552C76.2262 15.7947 76.0556 15.2027 75.7142 14.776C75.3729 14.3387 74.8769 14.12 74.2262 14.12C73.5862 14.12 73.0903 14.3387 72.7383 14.776C72.3969 15.2027 72.2262 15.7947 72.2262 16.552V17.512C72.2262 18.3013 72.3969 18.9093 72.7383 19.336C73.0903 19.7627 73.5862 19.976 74.2262 19.976C74.8769 19.976 75.3729 19.7627 75.7142 19.336C76.0556 18.9093 76.2262 18.3013 76.2262 17.512V16.552Z" fill="black"/>
</svg>
